<?xml version="1.0" encoding="utf-8"?>
<!-- Generator: Adobe Illustrator 26.5.0, SVG Export Plug-In . SVG Version: 6.00 Build 0)  -->
<svg version="1.1" id="Capa_1" xmlns="http://www.w3.org/2000/svg" xmlns:xlink="http://www.w3.org/1999/xlink" x="0px" y="0px"
	 viewBox="0 0 563.16 354.22" style="enable-background:new 0 0 563.16 354.22;" xml:space="preserve">
<style type="text/css">
	.st0{fill:#CF8F76;}
	.st1{fill:#FFFFFF;}
</style>
<g>
	<g>
		<path class="st0" d="M249.28,29.95c1.61,5.52,5.31,8.54,9.57,11.1c6.03,3.63,12.73,6.11,18.07,10.91
			c8.68,7.8,10.59,16.01,6.08,26.77c-0.5,1.21-1.07,2.39-1.68,3.56c-2.84,5.51-3.36,5.69-9.41,3.68c-12.62-4.2-18.6-13.8-21.3-26.08
			c-0.22-0.99,0.12-2.18-1.04-2.87c-1.74,11.39,3.86,25.44,23.83,37.7C251.27,91.45,227.64,61.18,249.28,29.95L249.28,29.95z"/>
		<path class="st0" d="M296.2,93.56c7.68-12.32,12.28-25.18,8.55-39.7c-1.95-7.62-6.19-14.02-12.11-19.21
			c11.26,18.88,6.83,38.38-1.58,49.54c1.31-5.24,3.04-9.77,2.19-14.76c-1.72-10.03-8.57-16.18-16.2-21.64
			c-4.48-3.2-9.3-5.98-14.19-8.51c-3.07-1.59-3.07-2.92-1.07-5.36c2.83-3.44,5.08-7.29,6.96-11.34c2.37-5.1,3.91-10.39,2.82-16.08
			c-0.36-1.89-0.05-2.5,1.95-2c21.4,5.34,38.72,16.11,46.71,37.65C325.57,56.62,322.59,81.36,296.2,93.56L296.2,93.56z"/>
	</g>
	<g>
		<g>
			<path class="st1" d="M463.23,322.17c-0.26-0.42-0.62-0.41-1.08,0.07c-0.38,0.51-0.96,1.32-1.75,2.41
				c-0.78,1.11-1.68,2.27-2.69,3.47c-1.03,1.22-2.09,2.38-3.21,3.51c-1.11,1.13-2.2,1.97-3.26,2.53c-1.06,0.55-2.01,0.72-2.85,0.51
				c-0.85-0.21-1.5-1.06-1.96-2.54c-0.13-0.34-0.23-0.67-0.29-0.99c-0.07-0.31-0.13-0.65-0.21-0.99c-0.21-0.88-0.21-1.75,0.03-2.58
				c0.23-0.83,0.7-1.65,1.42-2.45c0.55-0.6,1.04-1.22,1.48-1.89c0.46-0.65,0.86-1.34,1.24-2.07c0.29-0.42,0.52-0.85,0.67-1.3
				c0.15-0.44,0.31-0.9,0.47-1.37c0.13-0.46,0.11-0.88-0.03-1.27c-0.15-0.38-0.39-0.7-0.72-0.95c-0.73-0.47-1.53-0.44-2.41,0.11
				l-1.97,1.53c-1.17-1.11-2.46-1.76-3.83-1.97c-1.37-0.21-2.9,0.05-4.6,0.77c-1.35,0.72-2.59,1.75-3.73,3.05
				c-1.14,1.32-2.1,2.77-2.89,4.37c-0.75,1.52-1.27,3.1-1.6,4.73c-0.49,0.7-0.99,1.37-1.5,2.02c-1.13,1.44-2.27,2.67-3.42,3.73
				c-1.17,1.06-2.28,1.73-3.33,1.97c-0.13-0.24-0.24-0.49-0.36-0.7c-0.1-0.21-0.2-0.42-0.28-0.64c-0.13-0.77-0.21-1.53-0.23-2.3
				c-0.02-0.75,0.03-1.55,0.16-2.35c0.24-1.7,0.51-3.39,0.75-5.07c0.26-1.68,0.49-3.36,0.7-5.07c0.26-1.52,0.86-2.92,1.84-4.19
				c2.53-3.41,4.6-6.77,6.21-10.08c1.6-3.31,2.87-6.88,3.8-10.72c0.13-0.54,0.2-1.09,0.23-1.61c0.02-0.54,0.03-1.06,0.03-1.57
				c-0.1-0.51-0.28-0.96-0.54-1.37c-0.28-0.41-0.73-0.67-1.37-0.8c-0.72-0.08-1.3,0.02-1.75,0.33c-0.44,0.29-0.85,0.67-1.24,1.14
				c-1.57,1.88-2.89,3.8-4,5.81c-1.09,1.99-2.02,4.04-2.79,6.15c-0.75,2.1-1.42,4.27-1.96,6.51c-0.55,2.22-1.06,4.53-1.52,6.9
				c-0.1,0.34-0.15,0.72-0.16,1.13c-0.03,0.41-0.26,0.77-0.73,1.11c-0.16,0-0.36,0.02-0.57,0.03c-0.21,0.03-0.42,0.03-0.64,0.03
				c-0.8,0-1.53,0.13-2.22,0.39c-0.67,0.24-1.3,0.6-1.89,1.08c-2.01,1.6-3.44,3.29-4.32,5.1c-0.68,0.62-1.37,1.24-2.09,1.88
				c-1.14,0.99-2.27,1.94-3.39,2.81c-1.13,0.86-2.09,1.52-2.89,1.94c-1.57,1.16-2.76,1.45-3.59,0.9c-0.82-0.55-0.99-2.01-0.54-4.34
				l1.34-6.69c0.08-0.47,0.16-0.93,0.24-1.37c0.1-0.46,0.18-0.91,0.26-1.37c0-0.39-0.13-0.68-0.38-0.9
				c-0.21-0.13-0.47-0.11-0.77,0.03c-0.29,0.15-0.6,0.36-0.91,0.6c-0.33,0.26-0.6,0.52-0.86,0.8c-0.24,0.28-0.42,0.51-0.51,0.67
				c-0.38,0.9-0.77,2.05-1.14,3.51c-0.15,0.59-0.29,1.19-0.41,1.79c-0.05,0.07-0.08,0.13-0.13,0.21c-1.03,1.63-2.12,3.16-3.23,4.58
				c-1.13,1.44-2.27,2.67-3.42,3.73c-1.16,1.06-2.27,1.73-3.33,1.97c-0.13-0.24-0.24-0.49-0.36-0.7c-0.1-0.21-0.2-0.42-0.28-0.64
				c-0.13-0.77-0.2-1.53-0.23-2.3c-0.02-0.75,0.03-1.55,0.16-2.35c0.26-1.7,0.51-3.39,0.77-5.07c0.24-1.68,0.47-3.36,0.68-5.07
				c0.26-1.52,0.88-2.92,1.84-4.19c2.54-3.41,4.62-6.77,6.21-10.08c1.61-3.31,2.87-6.88,3.8-10.72c0.13-0.54,0.21-1.09,0.23-1.61
				c0.02-0.54,0.03-1.06,0.03-1.57c-0.08-0.51-0.26-0.96-0.54-1.37c-0.28-0.41-0.73-0.67-1.37-0.8c-0.72-0.08-1.29,0.02-1.75,0.33
				c-0.44,0.29-0.85,0.67-1.22,1.14c-1.57,1.88-2.9,3.8-4,5.81c-1.11,1.99-2.04,4.04-2.79,6.15c-0.77,2.1-1.42,4.27-1.97,6.51
				c-0.55,2.22-1.06,4.53-1.52,6.9c-0.08,0.34-0.15,0.72-0.16,1.13c-0.02,0.41-0.26,0.77-0.73,1.11c-0.16,0-0.36,0.02-0.57,0.03
				c-0.21,0.03-0.42,0.03-0.62,0.03c-0.82,0-1.55,0.13-2.23,0.39c-0.67,0.24-1.3,0.6-1.89,1.08c-2.25,1.79-3.78,3.7-4.63,5.77
				c-0.59,1.42-0.88,2.92-0.9,4.5c-0.64,1.04-1.29,2.02-1.99,2.92c-0.95,1.24-1.97,2.1-3.07,2.61c-0.64-0.85-0.99-1.86-1.04-3.05
				c-0.07-1.19-0.07-2.45,0-3.77c0.05-1.32,0.08-2.64,0.08-3.98c0-1.34-0.21-2.58-0.64-3.73c-0.46-1.19-1.14-1.89-2.05-2.1
				c-0.91-0.21-1.91,0.1-3.02,0.9c-0.93,0.59-1.75,1.34-2.46,2.23c-0.72,0.88-1.39,1.83-2.01,2.81c-0.6,0.98-1.17,1.94-1.71,2.9
				c-0.52,0.95-1.06,1.76-1.61,2.45c-0.03-0.69,0.03-1.37,0.2-2.07c0.16-0.7,0.38-1.42,0.6-2.14c0.23-0.72,0.47-1.45,0.73-2.2
				c0.24-0.73,0.44-1.52,0.57-2.32c0.16-0.47,0.23-0.91,0.18-1.32c-0.03-0.39-0.15-0.72-0.34-0.95c-0.2-0.23-0.44-0.34-0.77-0.33
				c-0.31,0.03-0.68,0.24-1.11,0.67c-0.59,0.6-1.03,1.19-1.32,1.79c-0.18,0.42-0.33,0.83-0.46,1.24c0,0.03-0.02,0.07-0.02,0.1
				c-0.88,0.72-1.78,1.45-2.74,2.17c-1.63,1.22-3.41,2.2-5.35,2.92l1.71-3.75c0.29-0.6,0.49-1.21,0.6-1.84
				c0.1-0.64,0.18-1.29,0.21-1.92c0.08-0.85-0.11-1.63-0.6-2.35c-0.49-0.73-1.13-1.3-1.92-1.73c-0.82-0.42-1.71-0.64-2.71-0.67
				c-0.98-0.02-1.92,0.28-2.82,0.86c-0.29,0.21-0.59,0.42-0.91,0.64c-0.31,0.21-0.62,0.44-0.91,0.7c-0.98,1.03-2.14,1.83-3.49,2.41
				c-0.29,0.13-0.59,0.34-0.88,0.65c-1.45,1.4-2.58,2.92-3.41,4.55c-0.03,0.07-0.05,0.13-0.08,0.21c-0.31,0.26-0.59,0.52-0.9,0.78
				c-1.22,1.06-2.43,2.07-3.64,3.02c-1.21,0.96-2.23,1.76-3.08,2.4c-0.64,0.46-1.39,0.91-2.25,1.34c-0.86,0.42-1.73,0.72-2.59,0.9
				c-0.86,0.16-1.68,0.15-2.45-0.07c-0.77-0.21-1.37-0.73-1.84-1.53c-0.72-1.53-0.86-3.23-0.44-5.1c0.42-1.86,1.09-3.6,2.04-5.22
				c0.24-0.47,0.57-0.96,0.95-1.47c0.38-0.51,0.8-0.96,1.27-1.34c0.46-0.39,0.96-0.67,1.48-0.83c0.52-0.16,1.11-0.13,1.75,0.13
				c-0.38,0.77-0.73,1.47-1.08,2.1c-0.34,0.64-0.64,1.27-0.9,1.91c-0.42,0.98-0.39,1.89,0.07,2.74c0.21,0.6,0.59,0.96,1.11,1.09
				c0.54,0.11,1.08-0.05,1.61-0.52c0.42-0.29,0.75-0.64,0.96-1.01c0.33-0.51,0.65-1.03,0.95-1.57c0.29-0.54,0.55-1.09,0.77-1.7
				c0.21-0.54,0.42-1.01,0.65-1.4c0.24-0.38,0.57-0.73,0.99-1.08c0.46-0.42,0.67-0.83,0.64-1.24c-0.05-0.41-0.36-0.7-0.96-0.86
				c-0.33-0.08-0.59-0.13-0.75-0.13c-0.42,0.1-0.77,0.08-1.01-0.03c-0.26-0.1-0.52-0.28-0.77-0.54c-0.51-0.51-1.08-0.8-1.71-0.9
				c-0.64-0.08-1.29,0-1.97,0.26c-1.44,0.42-2.71,1.16-3.8,2.2c-0.08,0.08-0.16,0.16-0.24,0.26c-1.6,0.83-3.13,1.7-4.63,2.58
				c-1.53,0.88-2.97,1.96-4.32,3.18c-0.21,0.18-0.39,0.33-0.57,0.47c-0.16,0.16-0.33,0.28-0.51,0.36l-3.36-1.97
				c-0.46-0.29-0.9-0.6-1.29-0.9c-0.41-0.29-0.82-0.62-1.24-0.96c-0.55-0.46-0.75-0.98-0.6-1.55c0.15-0.59,0.57-1.03,1.3-1.37
				c0.62-0.34,1.29-0.44,1.99-0.29c0.7,0.15,1.3,0.46,1.81,0.93c0.16,0.21,0.31,0.42,0.41,0.67c0.11,0.23,0.34,0.38,0.73,0.41
				c0.46-0.38,0.65-0.91,0.57-1.58c-0.08-0.31-0.18-0.6-0.29-0.9c-0.1-0.29-0.26-0.55-0.47-0.77c-1.22-1.53-2.89-2.01-5.01-1.4
				c-1.01,0.34-1.88,0.83-2.56,1.47c-0.7,0.64-1.17,1.44-1.44,2.41c-0.46,2.04,0.2,3.57,1.97,4.6c0.59,0.34,1.13,0.67,1.61,0.98
				c0.47,0.33,0.99,0.65,1.55,0.99c0.38,0.29,0.77,0.57,1.14,0.83c0.05,0.03,0.1,0.07,0.13,0.1c-3.65,1.57-7.31,3.18-10.96,4.86
				c-4.31,1.99-8.69,4.39-13.15,7.19c0.05-2.66,0.03-5.35-0.02-8.06c-0.07-2.71-0.15-5.5-0.28-8.35c1.57-1.16,3.02-2.17,4.37-3.02
				c1.35-0.83,2.64-1.57,3.83-2.2c1.19-0.64,2.3-1.21,3.33-1.75c1.03-0.54,1.97-1.14,2.84-1.79c0.31-0.18,0.59-0.44,0.83-0.77
				c0.23-0.33,0.2-0.82-0.08-1.48c-1.01,0-2.12,0.18-3.31,0.54c-1.19,0.34-2.43,0.83-3.72,1.44c-1.29,0.6-2.61,1.27-3.96,1.99
				c-1.34,0.73-2.69,1.44-4.01,2.14c0.03-1.58,0.07-3.29,0.1-5.14c0.02-1.86,0.03-3.7,0.07-5.55c0.02-1.84,0.03-3.67,0.07-5.46
				c0.03-1.81,0.05-3.47,0.07-5.02c0.73-0.55,1.96-1.04,3.64-1.47c1.7-0.42,3.52-0.75,5.5-1.01c1.99-0.26,3.95-0.44,5.87-0.57
				c1.94-0.11,3.54-0.15,4.76-0.1c0.54,0,1.06-0.03,1.6-0.11c0.54-0.07,0.93-0.44,1.17-1.14c-0.05-0.29-0.24-0.51-0.57-0.64
				c-0.34-0.15-0.73-0.26-1.19-0.36c-0.44-0.08-0.91-0.16-1.42-0.2c-0.49-0.05-0.86-0.1-1.14-0.15c-1.47-0.15-2.98-0.18-4.57-0.11
				c-1.57,0.08-3.13,0.21-4.71,0.39c-1.57,0.2-3.1,0.42-4.6,0.7c-1.48,0.28-2.89,0.55-4.21,0.85c-0.07-0.7-0.11-1.39-0.18-2.05
				c-0.31-1.76-2.27-2.22-2.76,0.34c-0.03,0.31-0.07,0.62-0.1,0.93c-0.08,0.8-0.7,8.5-0.72,10.06c-0.03,1.57-0.07,3.16-0.13,4.81
				c-0.05,1.63-0.11,3.25-0.18,4.86c-0.05,1.6-0.57,8.48-0.57,8.76c-0.31,0.29-3.18,2.35-3.46,2.64c-0.28,0.28-0.62,0.7-1.01,1.26
				c-0.1,0.2-0.15,0.44-0.13,0.77c0,0.34,0.07,0.62,0.2,0.85c0.08,0.23,0.26,0.42,0.52,0.55c0.28,0.15,0.51,0.21,0.73,0.21
				c0.47-0.05,1.03-0.2,1.63-0.46c0.62-0.24,1.21-0.42,1.76-0.52c0.26,2.58,0.38,5.25,0.36,8.02c-0.03,2.79-0.08,5.38-0.16,7.81
				c-0.33,0.67-0.9,1.34-1.7,2.04c-0.8,0.7-1.79,1.68-2.94,2.95c-0.29,0.33-0.49,0.69-0.59,1.08c-0.08,0.41,0.02,0.83,0.33,1.3
				c0.28,0.38,0.6,0.57,0.99,0.62c0.38,0.05,0.75-0.02,1.11-0.2c0.46-0.24,0.88-0.46,1.3-0.67c0.44-0.21,0.85-0.44,1.26-0.67
				l0.51,0.28c1.11,0.38,1.88,0.47,2.28,0.31c0.42-0.16,0.77-0.73,1.04-1.71c0.11-0.38,0.18-0.78,0.21-1.22
				c0.05-0.44,0.11-0.9,0.21-1.37c1.96-1.4,4.04-2.82,6.28-4.27c2.22-1.45,4.47-2.87,6.77-4.27c2.28-1.4,4.58-2.76,6.9-4.03
				c1.34-0.75,2.64-1.45,3.93-2.12c-0.16,0.33-0.31,0.65-0.46,0.95c-0.41,0.83-0.78,1.68-1.11,2.53c-0.29,0.67-0.46,1.35-0.47,2.01
				c-0.03,0.65,0.05,1.3,0.21,1.94c0.34,1.11,1.03,1.78,2.07,2.01c1.03,0.23,2.04-0.07,3-0.91c0.21-0.18,0.39-0.38,0.54-0.59
				c0.15-0.21,0.31-0.42,0.47-0.64c1.03-1.57,1.48-3.26,1.4-5.09c-0.08-1.53-0.47-3.07-1.14-4.6c0.55-0.46,1.08-0.91,1.58-1.37
				c0.51-0.44,0.99-0.85,1.47-1.24l3.05-2.38c-0.73,1.32-1.3,2.74-1.7,4.22c-0.39,1.53-0.62,3-0.67,4.4
				c-0.03,2.17,0.57,3.85,1.81,5.07c1.26,1.21,2.89,1.73,4.91,1.55c1.4-0.11,2.71-0.49,3.93-1.08c1.24-0.6,2.43-1.32,3.62-2.17
				c0.98-0.72,2.05-1.65,3.26-2.77c0.54-0.49,1.06-0.99,1.58-1.52c-0.03,0.44-0.05,0.9-0.02,1.35c0.03,1.58,0.55,2.84,1.58,3.77
				c1.01,0.93,2.33,1.4,4,1.4c0.51,0,1.01-0.08,1.52-0.23c0.51-0.15,1.01-0.33,1.52-0.54c1.44-0.8,2.69-1.76,3.75-2.87
				c0.38-0.34,0.75-0.64,1.14-0.9c0.38-0.24,0.83-0.44,1.39-0.57c0.38-0.13,0.77-0.28,1.14-0.44c0.38-0.16,0.73-0.34,1.08-0.51
				c2.12-1.06,4.03-2.27,5.74-3.6c0.29-0.23,0.59-0.49,0.86-0.73c-0.2,1.03-0.42,2.14-0.64,3.31c-0.34,1.79-0.54,3.41-0.57,4.84
				c-0.05,0.72,0.03,1.34,0.24,1.81c0.21,0.49,0.52,0.8,0.91,0.93c0.41,0.13,0.88,0.05,1.44-0.24c0.55-0.31,1.14-0.88,1.78-1.73
				c0.38-0.72,0.8-1.39,1.27-2.01c0.46-0.62,0.86-1.29,1.21-2.01c0.11-0.39,0.34-0.9,0.69-1.57c0.34-0.65,0.72-1.35,1.14-2.07
				c0.42-0.72,0.86-1.42,1.34-2.07c0.46-0.65,0.93-1.19,1.39-1.6c0.47-0.39,0.9-0.6,1.3-0.6s0.73,0.31,0.98,0.9
				c0.08,1.7,0.13,3.39,0.13,5.1c0,1.7,0.05,3.46,0.13,5.28c0.08,1.19,0.41,2.25,0.95,3.18c0.59,1.11,1.35,1.71,2.28,1.83
				c0.93,0.1,1.92-0.33,2.98-1.3c1.24-1.26,2.36-2.66,3.36-4.21c0.29,0.6,0.75,1.14,1.39,1.58c0.6,0.47,1.24,0.7,1.94,0.7
				s1.39-0.28,2.05-0.82c0.34-0.21,0.65-0.47,0.93-0.77c0.26-0.29,0.51-0.6,0.72-0.9c0.42-0.55,0.9-1.24,1.44-2.07
				c0.52-0.83,0.98-1.53,1.35-2.14c-0.21,1.14-0.26,2.36-0.15,3.64c0.1,1.27,0.36,2.38,0.75,3.34c0.41,0.96,0.98,1.63,1.71,2.04
				c0.75,0.41,1.66,0.36,2.76-0.16c1.14-0.55,2.32-1.42,3.52-2.61c1.21-1.19,2.36-2.54,3.46-4.04c0.47-0.64,0.9-1.29,1.34-1.94
				c-0.05,0.99-0.05,1.94,0.03,2.84c0.1,1.29,0.42,2.22,0.98,2.77c0.46,0.88,1.44,1.26,2.92,1.11c1.47-0.15,3.02-0.83,4.63-2.07
				c0.91-0.64,1.94-1.4,3.07-2.3c1.13-0.88,2.23-1.86,3.33-2.9c0.02,0,0.03-0.02,0.05-0.03c-0.16,1.19-0.16,2.43,0.02,3.7
				c0.16,1.06,0.73,1.94,1.71,2.61c0.59,0.47,1.24,0.7,1.94,0.7c0.68,0,1.37-0.28,2.05-0.82c0.34-0.21,0.64-0.47,0.91-0.77
				c0.28-0.29,0.52-0.6,0.73-0.9c0.42-0.55,0.9-1.24,1.44-2.07c0.52-0.83,0.98-1.53,1.35-2.14c-0.21,1.14-0.26,2.36-0.16,3.64
				c0.11,1.27,0.36,2.38,0.77,3.34c0.41,0.96,0.98,1.63,1.71,2.04c0.73,0.41,1.66,0.36,2.76-0.16c1.14-0.55,2.32-1.42,3.52-2.61
				c1.11-1.09,2.15-2.32,3.18-3.69c0.03,0.52,0.1,1.03,0.21,1.52c0.29,1.11,0.77,1.89,1.42,2.36c0.67,0.46,1.4,0.68,2.22,0.67
				c0.83-0.03,1.71-0.24,2.64-0.64c0.93-0.41,1.83-0.91,2.72-1.53c0.88-0.62,1.71-1.3,2.5-2.04c0.78-0.75,1.44-1.45,1.94-2.14
				c0.08,0.98,0.24,1.92,0.47,2.84c0.23,0.91,0.51,1.66,0.8,2.27c0.83,1.22,1.84,1.92,2.97,2.1c1.14,0.16,2.33-0.02,3.56-0.55
				c1.22-0.52,2.46-1.35,3.72-2.48c1.24-1.13,2.43-2.33,3.54-3.64c1.13-1.29,2.14-2.63,3.05-3.98c0.91-1.35,1.63-2.58,2.19-3.64
				C463.46,323.01,463.49,322.59,463.23,322.17z M426.78,302.37c1.26-3.2,2.64-6.46,4.11-9.79c0.05-0.08,0.13-0.15,0.26-0.21
				c0.13-0.07,0.31-0.2,0.57-0.41c0.08,1.35,0,2.61-0.26,3.78c-0.24,1.17-0.6,2.33-1.08,3.47c-0.46,1.4-0.91,2.63-1.35,3.67
				c-0.46,1.04-0.96,2.25-1.57,3.65c-0.38,0.86-0.78,1.7-1.22,2.53c-0.46,0.83-0.9,1.66-1.37,2.51c-0.05,0.08-0.13,0.2-0.26,0.33
				c-0.11,0.13-0.28,0.29-0.44,0.51C424.65,308.92,425.51,305.58,426.78,302.37z M388.23,302.37c1.27-3.2,2.64-6.46,4.13-9.79
				c0.03-0.08,0.11-0.15,0.24-0.21c0.13-0.07,0.33-0.2,0.57-0.41c0.08,1.35,0,2.61-0.24,3.78c-0.26,1.17-0.62,2.33-1.09,3.47
				c-0.46,1.4-0.91,2.63-1.35,3.67c-0.44,1.04-0.96,2.25-1.55,3.65c-0.39,0.86-0.8,1.7-1.24,2.53c-0.44,0.83-0.9,1.66-1.37,2.51
				c-0.03,0.08-0.13,0.2-0.24,0.33c-0.13,0.13-0.28,0.29-0.44,0.51C386.09,308.92,386.96,305.58,388.23,302.37z M298.01,333.73
				c-0.13,0.91-0.57,1.84-1.34,2.77c-0.08-0.21-0.16-0.38-0.24-0.51c-0.1-0.13-0.13-0.26-0.13-0.38c-0.05-0.86,0.07-1.68,0.34-2.46
				c0.28-0.78,0.73-1.65,1.37-2.58C298.14,331.77,298.14,332.82,298.01,333.73z M331.1,332.96c-0.59,0.38-1.16,0.55-1.71,0.55
				c-0.59,0.03-1.14-0.07-1.65-0.29c-0.51-0.23-0.88-0.65-1.14-1.24c-0.42-1.03-0.51-2.04-0.24-3.07c0.21-1.26,0.65-2.46,1.29-3.64
				c0.26-0.33,0.54-0.64,0.8-0.95c0.18-0.21,0.34-0.42,0.51-0.64c0.08,1.61,0.41,3.1,0.95,4.45c0.55,1.37,1.53,2.5,2.92,3.38
				C332.27,332.13,331.7,332.6,331.1,332.96z M338.39,323.27c-0.03,0.46-0.15,0.91-0.31,1.37c-0.55,1.5-1.42,2.95-2.59,4.4h-0.46
				c-0.72-0.29-1.3-0.77-1.78-1.4c-0.46-0.64-0.77-1.32-0.91-2.07c-0.15-0.75-0.13-1.5,0.07-2.3c0.2-0.78,0.54-1.47,1.04-2.07
				c0.59-0.72,1.27-1.16,2.04-1.34c0.75-0.16,1.47-0.07,2.15,0.33c0.67,0.42,0.99,0.99,0.95,1.71
				C338.5,322.38,338.44,322.83,338.39,323.27z M379.16,324.2c-0.13,0.72-0.42,1.45-0.88,2.17c-0.73,1.06-1.42,2.14-2.1,3.21
				c-0.67,1.09-1.35,2.19-2.02,3.29l-1.27,1.4c-0.67-0.31-1.08-0.68-1.21-1.13c-0.11-0.44-0.18-0.9-0.18-1.37
				c-0.1-0.72-0.03-1.45,0.18-2.2c0.11-0.36,0.23-0.72,0.36-1.08c0.33-0.7,0.65-1.4,0.96-2.1c0.6-1.08,1.39-2.12,2.36-3.1
				c0.51-0.46,1.06-0.82,1.68-1.08c0.6-0.26,1.34-0.34,2.19-0.26C379.31,322.74,379.29,323.49,379.16,324.2z M417.72,324.2
				c-0.13,0.72-0.42,1.45-0.9,2.17c-0.72,1.06-1.42,2.14-2.09,3.21c-0.68,1.09-1.35,2.19-2.02,3.29l-1.27,1.4
				c-0.68-0.31-1.08-0.68-1.21-1.13c-0.13-0.44-0.2-0.9-0.2-1.37c-0.08-0.72-0.02-1.45,0.2-2.2c0.21-0.73,0.49-1.47,0.83-2.2
				c0.62-1.44,1.58-2.81,2.84-4.08c0.51-0.46,1.08-0.82,1.68-1.08c0.62-0.26,1.35-0.34,2.2-0.26
				C417.86,322.74,417.85,323.49,417.72,324.2z M443.39,325.98c-0.08,0.34-0.18,0.69-0.28,0.99c-0.11,0.33-0.31,0.6-0.6,0.86
				c-0.34,0.34-0.82,0.8-1.44,1.4c-0.6,0.59-1.27,1.19-1.96,1.81c-0.7,0.62-1.42,1.16-2.17,1.63c-0.73,0.46-1.42,0.73-2.05,0.8
				c-0.64,0.05-1.16-0.15-1.58-0.6c-0.42-0.47-0.67-1.35-0.77-2.63c-0.03-1.65,0.26-3.21,0.85-4.7c0.23-0.46,0.44-0.9,0.62-1.32
				c0.67-1.22,1.55-2.33,2.66-3.34c1.19-1.11,2.53-1.71,4.03-1.83c1.5-0.1,2.89,0.28,4.14,1.13L443.39,325.98z"/>
			<path class="st1" d="M395.58,313.88c0.3,0.89,0.82,1.38,1.58,1.47c0.76,0,1.37-0.36,1.84-1.08c0.21-0.34,0.38-0.66,0.51-0.96
				c0.13-0.3,0.23-0.59,0.32-0.89l-0.06-0.96c-0.17-0.6-0.59-0.99-1.27-1.18c-0.68-0.19-1.25-0.07-1.71,0.35
				c-0.47,0.47-0.82,0.97-1.08,1.5C395.46,312.66,395.41,313.24,395.58,313.88L395.58,313.88z"/>
			<path class="st1" d="M249.63,322.17c-0.24-0.42-0.6-0.41-1.08,0.07c-0.38,0.51-0.96,1.32-1.75,2.41
				c-0.78,1.11-1.68,2.27-2.69,3.47c-1.01,1.22-2.09,2.38-3.2,3.51c-1.13,1.13-2.22,1.97-3.26,2.53c-1.06,0.55-2.02,0.72-2.87,0.51
				c-0.83-0.21-1.48-1.06-1.96-2.54c-0.13-0.34-0.23-0.67-0.29-0.99c-0.05-0.31-0.13-0.65-0.21-0.98c-0.21-0.9-0.2-1.76,0.03-2.59
				c0.23-0.83,0.7-1.65,1.42-2.45c0.55-0.6,1.06-1.22,1.5-1.89c0.44-0.65,0.85-1.34,1.24-2.07c0.29-0.42,0.51-0.85,0.65-1.3
				c0.15-0.44,0.31-0.9,0.49-1.37c0.11-0.46,0.11-0.88-0.05-1.27c-0.15-0.38-0.39-0.7-0.72-0.95c-0.72-0.47-1.52-0.44-2.41,0.11
				l-1.96,1.53c-1.19-1.11-2.46-1.76-3.85-1.97c-18.02-2.9-23.71,17.21-23.93,17.6c-0.13-0.42-0.23-0.77-0.29-1.03
				c-0.05-0.26-0.11-0.54-0.15-0.83c-0.26-1.91-0.39-3.85-0.42-5.79c-0.02-1.96-0.05-3.91-0.08-5.87c-0.05-0.42-0.1-0.85-0.13-1.27
				c-0.05-0.42-0.11-0.83-0.2-1.21c0-0.13-0.08-0.26-0.24-0.39c-0.18-0.13-0.33-0.2-0.46-0.2c-0.11,0-0.28,0.07-0.44,0.2
				c-0.16,0.13-0.31,0.26-0.44,0.39c-0.13,0.16-0.23,0.34-0.31,0.54c-0.1,0.2-0.18,0.39-0.26,0.6c-0.16,0.77-0.34,1.53-0.51,2.33
				c-0.18,0.78-0.28,1.55-0.33,2.32c-0.11,1.79-0.08,3.54,0.1,5.24c0.02,0.08,0.03,0.18,0.03,0.26c-1.4,4.81-4.09,11.48-8.81,12.54
				c-0.77,0.18-1.42-0.52-1.89-1.34c-0.49-0.8-0.83-1.86-1.03-3.15c-0.18-1.3-0.29-2.66-0.34-4.08c-0.05-1.44-0.03-2.79,0.03-4.08
				c0.07-1.3,0.13-2.33,0.23-3.1c0.03-0.47,0.11-0.9,0.24-1.3c0.13-0.41,0.29-0.82,0.51-1.24c0.6-1.24,1.17-2.5,1.75-3.77
				c0.57-1.27,1.16-2.56,1.75-3.88c0.72-1.75,1.44-3.47,2.12-5.2c0.7-1.71,1.42-3.47,2.14-5.25c0.72-1.7,1.27-3.38,1.68-5.04
				c0.39-1.66,0.75-3.38,1.04-5.17c0.08-0.59,0.11-1.17,0.1-1.78c-0.03-0.59-0.16-1.17-0.42-1.73c-0.67-1.65-1.94-2.04-3.8-1.14
				c-0.85,0.39-1.58,0.99-2.22,1.84c-0.55,0.73-1.06,1.48-1.52,2.27c-0.47,0.78-0.88,1.63-1.21,2.53c-0.34,1.09-0.68,2.2-1.04,3.31
				c-0.36,1.11-0.67,2.2-0.93,3.31c-0.64,2.76-1.26,5.69-1.89,8.79c-0.64,3.11-1.14,6.25-1.53,9.44c-0.15,1.32-0.28,2.64-0.36,3.98
				c-0.38,0.46-0.77,0.93-1.19,1.4c-1.42,1.63-2.89,3.13-4.4,4.47c-1.52,1.34-3.02,2.4-4.47,3.18c-1.45,0.78-2.76,1.03-3.9,0.73
				c-0.8-0.16-1.47-0.54-2.01-1.11c-0.52-0.59-0.91-1.24-1.16-1.99c-0.26-0.73-0.36-1.55-0.29-2.41c0.07-0.86,0.29-1.7,0.67-2.46
				c1.04,0,2.23-0.21,3.54-0.67c1.32-0.44,2.58-1.03,3.78-1.75c1.21-0.72,2.28-1.58,3.26-2.54c0.98-0.98,1.65-2.02,2.02-3.13
				c0.42-1.4,0.42-2.56-0.02-3.51c-0.46-0.93-1.17-1.55-2.17-1.84c-0.36-0.11-0.73-0.16-1.14-0.18c-8.29-1.11-14.58,1.75-14.58,1.75
				c-0.86,0.28-1.75,0.6-2.63,1.01c-0.9,0.41-1.76,0.85-2.61,1.34c-0.83,0.49-1.53,0.95-2.09,1.37c-0.96-1.35-2.05-2.58-3.26-3.67
				c-1.21-1.08-2.48-2.07-3.8-2.98c-1.34-0.91-2.72-1.76-4.16-2.53c-1.44-0.77-2.87-1.52-4.31-2.28c-0.77-0.39-1.29-0.85-1.6-1.37
				c-0.29-0.54-0.44-1.09-0.47-1.7c-0.02-0.59,0.07-1.19,0.26-1.81c0.2-0.62,0.42-1.19,0.73-1.7c1.26-2.25,2.69-4,4.31-5.22
				c1.6-1.24,3.46-2.15,5.58-2.74c2.07-0.55,3.87-0.52,5.38,0.13c1.53,0.64,3.1,1.88,4.7,3.75c0.13-0.26,0.24-0.44,0.36-0.57
				c0.1-0.13,0.2-0.23,0.28-0.29c0.08-0.07,0.15-0.13,0.2-0.18c0.03-0.07,0.07-0.2,0.07-0.36c-0.05-1.01-0.39-1.92-1.03-2.71
				c-0.62-0.78-1.42-1.42-2.36-1.91c-0.96-0.49-1.99-0.83-3.08-1.03c-1.09-0.2-2.12-0.23-3.03-0.1c-3.26,0.55-6.18,1.83-8.76,3.8
				c-2.58,1.97-4.73,4.7-6.47,8.19c-0.51,0.98-0.77,1.92-0.78,2.84c-0.02,0.91,0.1,1.76,0.34,2.54c0.26,0.78,0.62,1.48,1.08,2.07
				c0.47,0.6,0.96,1.04,1.47,1.34c1.39,0.95,2.76,1.79,4.08,2.59c1.34,0.78,2.63,1.58,3.85,2.38c1.22,0.82,2.38,1.68,3.49,2.58
				c1.09,0.93,2.15,1.97,3.16,3.16c-2.66,2.09-5.37,4.34-8.12,6.78c-2.74,2.45-5.2,5.09-7.36,7.94c-0.72,1.01-1.35,2.1-1.92,3.25
				c-0.57,1.14-1.01,2.36-1.3,3.64c-0.38,1.86-0.24,3.39,0.41,4.58c0.65,1.19,1.78,1.89,3.33,2.1c0.6,0.13,1.24,0.15,1.91,0.07
				c0.67-0.08,1.3-0.21,1.91-0.38c2.79-0.68,5.48-1.78,8.07-3.29c2.61-1.5,4.81-3.34,6.64-5.51c1.81-2.17,3.08-4.6,3.8-7.32
				c0.72-2.72,0.59-5.63-0.38-8.74c-0.1-0.46-0.33-0.99-0.7-1.61c-0.39-0.62-0.62-1.16-0.7-1.63c1.01-0.98,7.11-4.55,13.98-4.93
				c-0.03,0.03-0.07,0.05-0.1,0.08c-3.29,3.02-5.53,6.54-6.72,10.58c-0.67,2.51-0.47,4.88,0.57,7.14c0.47,1.09,1.14,1.97,2.04,2.61
				c0.88,0.64,1.94,1.06,3.16,1.27c1.14,0.16,2.3,0.05,3.46-0.34c1.16-0.41,2.32-0.99,3.49-1.76c1.16-0.77,2.28-1.66,3.39-2.67
				c1.09-1.03,2.12-2.09,3.07-3.18c0.38-0.44,0.73-0.88,1.08-1.32c-0.02,0.8-0.03,1.6-0.03,2.4c0,3.23,0.33,6.34,0.96,9.36
				c0.24,1.16,0.73,2.04,1.45,2.66c0.72,0.6,1.53,1.08,2.45,1.08c6.23,0,9.62-6.47,11.38-11.86c0.08,0.39,0.18,0.78,0.28,1.17
				c0.16,0.47,0.34,0.93,0.54,1.34c0.18,0.44,0.41,0.86,0.67,1.29c0.46,0.64,0.98,0.95,1.58,0.95c4.93,0,3.72-13.59,16.96-18.43
				c-0.33,0.29-0.62,0.62-0.93,0.96c-1.14,1.32-2.1,2.77-2.89,4.37c-0.78,1.6-1.32,3.25-1.65,4.97c-0.31,1.73-0.31,3.31,0.03,4.75
				c0.29,1.11,0.77,1.89,1.44,2.36c0.65,0.46,1.39,0.68,2.22,0.67c0.82-0.03,1.7-0.24,2.63-0.64c0.93-0.41,1.84-0.91,2.72-1.53
				c0.9-0.62,1.73-1.3,2.51-2.04c0.78-0.75,1.42-1.45,1.92-2.14c0.08,0.98,0.24,1.92,0.47,2.84c0.24,0.91,0.51,1.66,0.8,2.27
				c0.85,1.22,1.84,1.92,2.98,2.09c1.14,0.18,2.32,0,3.54-0.54c1.24-0.52,2.46-1.35,3.72-2.48c1.24-1.13,2.43-2.33,3.56-3.64
				c1.11-1.29,2.12-2.63,3.03-3.98c0.91-1.35,1.65-2.58,2.19-3.64C249.86,323.01,249.9,322.59,249.63,322.17z M190.46,313.82
				c0.29-1.61,0.57-3.21,0.82-4.78c0.26-1.58,0.55-3.16,0.9-4.78c0.29-1.37,0.62-2.69,0.98-3.98c0.36-1.3,0.75-2.59,1.17-3.87
				c0.21-0.59,0.46-1.14,0.75-1.63c0.31-0.49,0.62-0.99,0.96-1.55c0.16-0.26,0.39-0.47,0.7-0.64c0.24,0.16,0.36,0.34,0.34,0.54
				c-0.02,0.2-0.05,0.38-0.1,0.54c-0.08,1.4-0.28,2.77-0.6,4.11c-0.31,1.34-0.7,2.69-1.17,4.04c-0.72,2.14-1.44,4.24-2.15,6.31
				c-0.72,2.09-1.44,4.19-2.15,6.31c-0.05,0.26-0.11,0.49-0.2,0.7c-0.08,0.21-0.16,0.42-0.24,0.64c-0.1,0-0.15,0-0.16-0.03
				c-0.02-0.02-0.08-0.03-0.16-0.03L190.46,313.82z M155.03,334.09c-0.31,1.19-0.78,2.25-1.47,3.18c-1.89,2.3-4.09,4.22-6.56,5.81
				c-2.48,1.57-5.01,2.59-7.58,3.05c-0.51,0.13-0.98,0.13-1.42,0c-0.44-0.11-0.8-0.34-1.08-0.67c-0.28-0.31-0.46-0.72-0.51-1.24
				c-0.07-0.51,0.05-1.06,0.34-1.65c0.08-0.77,0.44-1.71,1.08-2.84c0.64-1.13,1.42-2.3,2.35-3.51c0.93-1.22,1.97-2.46,3.13-3.73
				c1.17-1.27,2.35-2.45,3.52-3.54c1.19-1.08,2.33-2.02,3.42-2.84c1.09-0.8,2.05-1.4,2.85-1.78c0.67,0.72,1.21,1.63,1.58,2.71
				c0.39,1.08,0.6,2.23,0.67,3.44C155.43,331.69,155.32,332.9,155.03,334.09z M170.85,321.33c0.68-1.01,1.48-1.97,2.36-2.87
				c0.34-0.34,0.7-0.62,1.08-0.85c0.39-0.24,0.78-0.46,1.21-0.68c0.42-0.2,0.93-0.31,1.53-0.31c0.67-0.08,1.16,0.1,1.48,0.54
				c0.31,0.46,0.34,0.99,0.1,1.63c-0.18,0.42-0.36,0.75-0.57,0.95c-0.9,1.24-1.94,2.25-3.18,3.03c-1.22,0.78-2.53,1.44-3.93,1.94
				c-0.21,0.1-0.46,0.11-0.75,0.1s-0.64,0-1.01,0.03C169.57,323.52,170.14,322.36,170.85,321.33z M229.79,325.98
				c-0.08,0.34-0.18,0.69-0.28,0.99c-0.11,0.33-0.31,0.6-0.6,0.86c-0.34,0.34-0.82,0.8-1.42,1.4c-0.62,0.59-1.27,1.19-1.97,1.81
				c-0.7,0.62-1.42,1.16-2.15,1.63c-0.75,0.47-1.44,0.73-2.07,0.8c-0.62,0.07-1.16-0.15-1.58-0.6c-0.42-0.47-0.67-1.35-0.75-2.63
				c-0.05-1.78,0.28-3.47,0.98-5.06c0.7-1.6,1.83-2.95,3.13-4.31c3.78-3.9,6.92-1.55,8.19-0.7L229.79,325.98z"/>
			<path class="st1" d="M395.64,313.82c0.3,0.89,0.82,1.38,1.58,1.47c0.76,0,1.37-0.36,1.84-1.08c0.21-0.34,0.38-0.66,0.51-0.96
				c0.13-0.3,0.23-0.59,0.32-0.89l-0.06-0.96c-0.17-0.6-0.59-0.99-1.27-1.18c-0.68-0.19-1.25-0.07-1.71,0.35
				c-0.47,0.47-0.82,0.97-1.08,1.5C395.51,312.6,395.47,313.18,395.64,313.82L395.64,313.82z"/>
		</g>
		<g>
			<path class="st1" d="M101.58,327.21c0.09-0.15,0.18-0.31,0.28-0.45c0.1-0.14,0.19-0.29,0.28-0.45c0.82-1.2,1.81-2.16,2.97-2.87
				c0.09-0.07,0.18-0.13,0.28-0.18c0.1-0.06,0.21-0.11,0.32-0.15c0.65-0.29,1.25-0.36,1.8-0.2c0.56,0.16,0.99,0.5,1.3,1.03
				c0.13,0.25,0.23,0.5,0.28,0.77c0.06,0.27,0.09,0.52,0.12,0.77c-0.02,0.18-0.03,0.36-0.02,0.54c0.01,0.18,0.03,0.37,0.05,0.57
				c0.91-0.44,1.82-1,2.72-1.67c0.9-0.67,1.65-1.37,2.25-2.1c0.11-0.04,0.18-0.04,0.22,0.02c0.03,0.06,0.05,0.13,0.05,0.22
				s-0.02,0.19-0.07,0.3c-0.04,0.11-0.09,0.2-0.13,0.27c-0.58,1.02-1.29,1.88-2.14,2.57c-0.85,0.69-1.77,1.29-2.77,1.8
				c-0.22,0.11-0.39,0.25-0.52,0.4c-0.12,0.16-0.24,0.36-0.35,0.6c-0.2,0.42-0.42,0.83-0.65,1.23c-0.23,0.4-0.47,0.8-0.72,1.2
				c-0.27,0.49-0.72,0.89-1.37,1.2c-0.51,0.22-0.94,0.22-1.29,0c-0.35-0.22-0.48-0.59-0.42-1.1c0.07-0.33,0.21-0.71,0.43-1.14
				c0.38-0.65,0.93-1.27,1.67-1.87c0.18-0.11,0.33-0.22,0.47-0.33c0.13-0.11,0.29-0.23,0.47-0.37c0.13-0.38,0.21-0.77,0.23-1.18
				c0.02-0.41,0.02-0.82,0-1.22c-0.02-0.09-0.04-0.17-0.05-0.25c-0.01-0.08-0.04-0.15-0.08-0.22c-0.2-0.36-0.5-0.49-0.9-0.4
				c-0.36,0.11-0.68,0.27-0.97,0.47c-0.29,0.2-0.58,0.42-0.87,0.67c-0.36,0.36-0.68,0.72-0.98,1.1c-0.3,0.38-0.55,0.79-0.75,1.23
				c-0.25,0.45-0.47,0.89-0.67,1.32c-0.2,0.43-0.4,0.86-0.6,1.29c-0.11,0.31-0.22,0.54-0.33,0.7c-0.09,0.16-0.21,0.24-0.37,0.25
				c-0.16,0.01-0.27-0.06-0.33-0.22c-0.11-0.18-0.2-0.43-0.27-0.77c-0.18-0.69-0.3-1.39-0.37-2.1c-0.07-0.71-0.08-1.44-0.03-2.17
				c0.09-1.51,0.21-3.01,0.37-4.49c0.16-1.48,0.4-2.98,0.73-4.49c0.31-1.34,0.68-2.64,1.1-3.91c0.42-1.27,0.92-2.53,1.5-3.77
				c0.15-0.31,0.32-0.59,0.48-0.85c0.17-0.25,0.34-0.53,0.52-0.82c0.16-0.27,0.39-0.54,0.7-0.8c0.22-0.2,0.47-0.33,0.73-0.4
				c0.27-0.07,0.52-0.07,0.75-0.02c0.23,0.06,0.44,0.17,0.62,0.35c0.18,0.18,0.3,0.41,0.37,0.7c0.11,0.31,0.16,0.63,0.13,0.97
				c-0.02,0.33-0.09,0.67-0.2,1c-0.27,1-0.61,1.98-1.04,2.94c-0.47,0.98-0.95,1.95-1.45,2.92c-0.5,0.97-1,1.95-1.48,2.95
				c-0.18,0.31-0.38,0.62-0.6,0.93c-0.22,0.31-0.42,0.63-0.6,0.97c-0.11,0.2-0.22,0.4-0.33,0.6s-0.19,0.41-0.23,0.63
				c-0.11,0.91-0.21,1.82-0.28,2.72C101.48,325.36,101.49,326.27,101.58,327.21z M106.52,307.88c-0.38,0.22-0.6,0.36-0.67,0.42
				c-0.07,0.06-0.14,0.16-0.23,0.32c-0.16,0.31-0.32,0.63-0.48,0.95c-0.17,0.32-0.31,0.64-0.42,0.95c-0.38,0.93-0.7,1.87-0.97,2.8
				c-0.27,0.93-0.5,1.89-0.7,2.87c-0.04,0.07-0.06,0.14-0.05,0.22c0.01,0.08,0.02,0.15,0.02,0.22c0.8-1.4,1.52-2.81,2.17-4.22
				C105.83,310.99,106.27,309.49,106.52,307.88z M106.32,329.88c-0.27,0.22-0.47,0.4-0.62,0.53c-0.14,0.13-0.25,0.25-0.32,0.35
				s-0.1,0.19-0.1,0.28c0,0.09,0.02,0.2,0.07,0.33c0.22-0.18,0.4-0.38,0.54-0.6C106.02,330.56,106.16,330.26,106.32,329.88z"/>
			<path class="st1" d="M119.84,325.67l-0.73,1c-0.36,0.51-0.72,1-1.1,1.47c-0.38,0.47-0.79,0.91-1.23,1.33
				c-0.18,0.18-0.37,0.36-0.57,0.54c-0.2,0.18-0.41,0.33-0.63,0.47c-0.56,0.31-1.08,0.4-1.58,0.27c-0.5-0.13-0.85-0.46-1.05-0.97
				c-0.22-0.58-0.3-1.19-0.23-1.84c0.07-0.84,0.19-1.69,0.38-2.54c0.19-0.85,0.47-1.68,0.85-2.5c0.07-0.22,0.21-0.45,0.43-0.67
				c0.07-0.11,0.17-0.14,0.3-0.1c0.04,0.02,0.09,0.05,0.13,0.08c0.04,0.03,0.07,0.07,0.07,0.12c0.02,0.13,0.03,0.27,0.02,0.4
				c-0.01,0.13-0.03,0.26-0.05,0.37c-0.11,0.56-0.22,1.11-0.32,1.65s-0.19,1.1-0.28,1.65c-0.18,0.85-0.19,1.62-0.03,2.34
				c0.02,0.09,0.06,0.18,0.12,0.27c0.06,0.09,0.11,0.17,0.15,0.23c0.22,0.02,0.39-0.02,0.5-0.12s0.22-0.21,0.33-0.32
				c0.38-0.36,0.73-0.73,1.07-1.12c0.33-0.39,0.65-0.79,0.93-1.22l2.97-4.24c0.09-0.11,0.17-0.22,0.23-0.33s0.16-0.22,0.27-0.33
				c0.27-0.27,0.56-0.37,0.87-0.3c0.4,0.07,0.6,0.29,0.6,0.67c0,0.25-0.01,0.5-0.02,0.77c-0.01,0.27-0.03,0.52-0.05,0.77
				c-0.09,0.73-0.18,1.47-0.27,2.22c-0.09,0.75-0.19,1.48-0.3,2.22l-0.1,1.07c0.18,0.04,0.31,0.02,0.38-0.07
				c0.08-0.09,0.16-0.18,0.25-0.27c0.65-0.69,1.22-1.28,1.74-1.79c0.51-0.5,1.01-0.97,1.48-1.42c0.48-0.44,0.96-0.88,1.45-1.32
				c0.49-0.43,1.04-0.93,1.64-1.49c0.31-0.27,0.51-0.31,0.6-0.13c0.09,0.18,0.04,0.38-0.13,0.6c-0.67,0.76-1.29,1.44-1.85,2.05
				c-0.57,0.61-1.12,1.21-1.67,1.8c-0.54,0.59-1.1,1.18-1.67,1.79c-0.57,0.6-1.2,1.26-1.89,1.97c-0.29,0.29-0.5,0.59-0.62,0.9
				c-0.12,0.31-0.21,0.66-0.25,1.03c-0.11,1.11-0.25,2.22-0.4,3.32c-0.16,1.1-0.36,2.21-0.6,3.32c-0.18,0.91-0.41,1.81-0.68,2.69
				c-0.28,0.88-0.64,1.74-1.08,2.59c-0.25,0.51-0.53,1.01-0.85,1.5c-0.32,0.49-0.71,0.93-1.15,1.34c-0.31,0.29-0.63,0.54-0.97,0.77
				c-0.36,0.2-0.71,0.32-1.07,0.35c-0.36,0.03-0.68-0.01-0.98-0.13c-0.3-0.12-0.56-0.31-0.77-0.57c-0.21-0.26-0.34-0.57-0.38-0.95
				c-0.02-0.47,0-0.98,0.07-1.54c0.09-0.8,0.25-1.59,0.5-2.37c0.25-0.78,0.52-1.55,0.83-2.3c0.91-2.09,2.06-4.03,3.44-5.81
				c0.36-0.45,0.72-0.9,1.08-1.35c0.37-0.46,0.73-0.91,1.08-1.35c0.09-0.11,0.17-0.24,0.25-0.38c0.08-0.14,0.13-0.28,0.15-0.42
				c0.11-0.93,0.22-1.87,0.32-2.8c0.1-0.93,0.21-1.88,0.32-2.84c-0.04,0-0.08,0-0.12-0.02S119.88,325.67,119.84,325.67z M119,334.15
				l-0.3,0.3c-0.65,0.78-1.25,1.56-1.8,2.35c-0.56,0.79-1.07,1.61-1.54,2.45c-0.49,0.87-0.92,1.75-1.28,2.65
				c-0.37,0.9-0.64,1.83-0.82,2.79c-0.07,0.27-0.1,0.54-0.1,0.82c0,0.28-0.01,0.55-0.03,0.82c0,0.38,0.17,0.63,0.5,0.75
				c0.33,0.12,0.67,0.06,1-0.18c0.73-0.56,1.29-1.17,1.67-1.83c0.22-0.38,0.43-0.77,0.63-1.17c0.2-0.4,0.38-0.8,0.54-1.2
				c0.49-1.36,0.86-2.72,1.1-4.09c0.25-1.37,0.43-2.75,0.57-4.16C119.16,334.43,119.11,334.33,119,334.15z"/>
		</g>
	</g>
	<g>
		<path class="st1" d="M91.45,253.48v20.19H4.8v-5.38l1.07-0.09c0.72-0.06,1.61-0.25,2.69-0.58c1.07-0.33,2.13-0.86,3.18-1.61
			c1.04-0.75,1.94-1.81,2.69-3.18c0.75-1.37,1.12-3.14,1.12-5.29V155.66c0-2.15-0.37-3.9-1.12-5.24c-0.75-1.34-1.64-2.39-2.69-3.14
			c-1.05-0.75-2.11-1.28-3.18-1.61c-1.08-0.33-1.97-0.52-2.69-0.58L4.8,145v-5.38h48.29V145l-7.25,0.09
			c-0.72,0.06-1.6,0.25-2.64,0.58c-1.05,0.33-2.11,0.87-3.18,1.61c-1.08,0.75-1.97,1.79-2.69,3.14c-0.72,1.35-1.07,3.09-1.07,5.24
			v108.56h33.78c2.09,0,3.82-0.36,5.2-1.07c1.37-0.72,2.43-1.61,3.18-2.69c0.75-1.07,1.28-2.13,1.61-3.18
			c0.33-1.04,0.52-1.93,0.58-2.64l0.09-1.17H91.45z"/>
		<path class="st1" d="M119.64,145v-5.38h48.2V145l-4.75,0.09c-0.72,0.06-1.6,0.25-2.64,0.58c-1.05,0.33-2.11,0.87-3.18,1.61
			c-1.08,0.75-1.97,1.79-2.69,3.14c-0.72,1.35-1.07,3.09-1.07,5.24v80.46l0.27,2.78c0.18,1.79,0.76,4.02,1.75,6.67
			c0.99,2.66,2.61,5.3,4.88,7.93c2.27,2.63,5.44,4.85,9.5,6.67c4.06,1.82,13,2.73,19.45,2.73c6.39,0,11.62-0.91,15.68-2.73
			c4.06-1.82,7.23-4.05,9.5-6.67c2.27-2.63,3.9-5.27,4.88-7.93c0.99-2.66,1.6-4.88,1.84-6.67l0.27-2.78v-80.46
			c0-2.15-0.37-3.9-1.12-5.24c-0.75-1.34-1.64-2.39-2.69-3.14c-1.05-0.75-2.09-1.28-3.14-1.61c-1.05-0.33-1.96-0.52-2.73-0.58
			l-1.07-0.09v-5.38h26.79V145l-1.08,0.09c-0.72,0.06-1.6,0.25-2.64,0.58c-1.05,0.33-2.11,0.87-3.18,1.61
			c-1.07,0.75-1.97,1.79-2.69,3.14c-0.72,1.35-1.07,3.09-1.07,5.24v80.46l-0.27,2.78c-0.18,1.79-0.7,4.11-1.57,6.94
			c-0.87,2.84-2.28,5.85-4.26,9.05s-4.72,6.21-8.24,9.05c-3.53,2.84-8.05,5.17-13.57,6.99c-5.53,1.82-12.32,2.73-20.38,2.73
			c-8.06,0-14.86-0.91-20.38-2.73c-5.53-1.82-10.05-4.15-13.57-6.99c-3.53-2.84-6.27-5.85-8.24-9.05s-3.39-6.21-4.26-9.05
			c-0.87-2.84-1.39-5.15-1.57-6.94l-0.18-2.78v-80.46c0-2.15-0.37-3.9-1.12-5.24c-0.75-1.34-1.64-2.39-2.69-3.14
			c-1.05-0.75-2.11-1.28-3.18-1.61c-1.08-0.33-1.97-0.52-2.69-0.58L119.64,145z"/>
		<path class="st1" d="M255.1,145v-5.38h48.2V145l-4.75,0.09c-0.72,0.06-1.6,0.25-2.64,0.58c-1.05,0.33-2.11,0.87-3.18,1.61
			c-1.08,0.75-1.97,1.79-2.69,3.14c-0.72,1.35-1.07,3.09-1.07,5.24v80.46l0.27,2.78c0.18,1.79,0.76,4.02,1.75,6.67
			c0.99,2.66,2.61,5.3,4.88,7.93c2.27,2.63,5.44,4.85,9.5,6.67c4.06,1.82,13,2.73,19.45,2.73c6.39,0,11.62-0.91,15.68-2.73
			c4.06-1.82,7.23-4.05,9.5-6.67c2.27-2.63,3.9-5.27,4.88-7.93c0.99-2.66,1.6-4.88,1.84-6.67l0.27-2.78v-80.46
			c0-2.15-0.37-3.9-1.12-5.24c-0.75-1.34-1.64-2.39-2.69-3.14c-1.05-0.75-2.09-1.28-3.14-1.61c-1.05-0.33-1.96-0.52-2.73-0.58
			l-1.07-0.09v-5.38h26.79V145l-1.08,0.09c-0.72,0.06-1.6,0.25-2.64,0.58c-1.05,0.33-2.11,0.87-3.18,1.61
			c-1.07,0.75-1.97,1.79-2.69,3.14c-0.72,1.35-1.07,3.09-1.07,5.24v80.46l-0.27,2.78c-0.18,1.79-0.7,4.11-1.57,6.94
			c-0.87,2.84-2.28,5.85-4.26,9.05c-1.97,3.2-4.72,6.21-8.24,9.05c-3.53,2.84-8.05,5.17-13.57,6.99
			c-5.53,1.82-12.32,2.73-20.38,2.73c-8.06,0-14.86-0.91-20.38-2.73c-5.53-1.82-10.05-4.15-13.57-6.99
			c-3.53-2.84-6.27-5.85-8.24-9.05s-3.39-6.21-4.26-9.05c-0.87-2.84-1.39-5.15-1.57-6.94l-0.18-2.78v-80.46
			c0-2.15-0.37-3.9-1.12-5.24c-0.75-1.34-1.64-2.39-2.69-3.14c-1.05-0.75-2.11-1.28-3.18-1.61c-1.08-0.33-1.97-0.52-2.69-0.58
			L255.1,145z"/>
		<path class="st1" d="M402.91,268.29l1.07-0.09c0.72-0.06,1.61-0.25,2.69-0.58c1.07-0.33,2.13-0.86,3.18-1.61
			c1.04-0.75,1.94-1.81,2.69-3.18c0.75-1.37,1.12-3.14,1.12-5.29V155.66c0-2.15-0.37-3.9-1.12-5.24c-0.75-1.34-1.64-2.39-2.69-3.14
			c-1.05-0.75-2.11-1.28-3.18-1.61c-1.08-0.33-1.97-0.52-2.69-0.58l-1.07-0.09v-5.38h37.54l42.92,91.12l37.54-91.12h37.45V145
			l-1.07,0.09c-0.72,0.06-1.6,0.25-2.64,0.58c-1.05,0.33-2.11,0.87-3.18,1.61c-1.08,0.75-1.97,1.79-2.69,3.14
			c-0.72,1.35-1.07,3.09-1.07,5.24v101.87c0,2.15,0.36,3.91,1.07,5.29c0.72,1.37,1.61,2.43,2.69,3.18c1.07,0.75,2.13,1.28,3.18,1.61
			c1.04,0.33,1.93,0.52,2.64,0.58l1.07,0.09v5.38h-48.2v-5.38l1.07-0.09c0.72-0.06,1.61-0.25,2.69-0.58
			c1.07-0.33,2.13-0.86,3.18-1.61c1.04-0.75,1.94-1.81,2.69-3.18c0.75-1.37,1.12-3.14,1.12-5.29V155.66l-48.29,118h-5.38
			l-48.2-112.62v96.49c0,2.15,0.36,3.91,1.07,5.29c0.72,1.37,1.6,2.43,2.64,3.18c1.04,0.75,2.1,1.28,3.18,1.61
			c1.07,0.33,1.97,0.52,2.69,0.58l1.08,0.09v5.38h-26.79V268.29z"/>
	</g>
</g>
</svg>
