<?xml version="1.0" encoding="utf-8"?>
<!-- Generator: Adobe Illustrator 26.5.0, SVG Export Plug-In . SVG Version: 6.00 Build 0)  -->
<svg version="1.1" id="Capa_1" xmlns="http://www.w3.org/2000/svg" xmlns:xlink="http://www.w3.org/1999/xlink" x="0px" y="0px"
	 viewBox="0 0 571.8 284.15" style="enable-background:new 0 0 571.8 284.15;" xml:space="preserve">
<style type="text/css">
	.st0{fill:#FFFFFF;}
	.st1{fill:#CF8F76;}
</style>
<g>
	<path class="st0" d="M93.6,211.65c-1.39,0-2.64-0.05-3.77-0.16c-1.11-0.11-2.19-0.4-3.2-0.88c-1.02-0.48-1.79-0.86-2.32-1.13
		c-0.54-0.27-1.23-0.85-2.08-1.76c-0.86-0.9-1.42-1.51-1.68-1.83c-0.27-0.32-0.88-1.13-1.84-2.4c-0.96-1.29-1.59-2.08-1.92-2.4
		l-31.85-42.28l27.37-37.94c2.45-3.42,5.77-5.12,9.94-5.12h1.27v-4.17H61.74v4.17h1.61c1.38,0,2.41,0.16,3.12,0.48
		c0.69,0.32,1.01,0.77,0.96,1.35c-0.05,0.6-0.19,1.13-0.4,1.61c-0.21,0.48-0.58,1.03-1.11,1.68l-24.18,33.77
		c-0.66,0.9-1.37,1.72-2.12,2.43v12.71l23.25,31.31c2.35,2.98,3.37,5.49,3.05,7.52c-0.32,2.03-1.92,3.04-4.8,3.04h-0.65l0.16,4.17
		h33.47v-4.17H93.6z M3.62,111.59v4.17h0.64c2.98,0,5.52,1.01,7.6,3.04c2.08,2.03,3.13,4.54,3.13,7.52v74.62
		c0,2.98-1.05,5.52-3.13,7.6c-2.08,2.08-4.62,3.12-7.6,3.12H3.62v4.17h35.54v-4.17h-0.48c-3,0-5.56-1.03-7.68-3.12
		c-2.15-2.08-3.21-4.62-3.21-7.6v-74.62c0-2.98,1.06-5.49,3.21-7.52c2.12-2.03,4.68-3.04,7.68-3.04h0.48v-4.17H3.62z"/>
	<path class="st0" d="M206.8,211.65c-2.88,0-5.56-0.82-8.01-2.48c-2.45-1.66-4.22-3.86-5.28-6.65l-29.62-77.98
		c-0.96-2.02-0.85-3.97,0.32-5.84c1.18-1.87,2.89-2.85,5.13-2.96v-4.17h-33.15v4.17h0.97c2.56,0,4.44,0.85,5.68,2.56
		c1.22,1.7,1.42,3.78,0.56,6.23c-1.38,3.85-8.6,22.21-21.61,55.08c-3.42,8.65-3.37,16.33,0.16,23.06c1.71,3.1,2.29,5.37,1.76,6.81
		c-0.54,1.45-2.51,2.16-5.93,2.16h-4.8v4.17h34.42v-4.17h-1.61c-3.52,0-6.86-0.82-10-2.48c-3.14-1.66-5.72-3.93-7.68-6.81
		c-1.98-2.88-3.18-6.08-3.61-9.6c-0.42-3.53,0-6.94,1.29-10.24l0.16-0.65h45.95l7.84,20.65c0.85,2.24,0.61,4.32-0.72,6.25
		c-1.34,1.92-3.24,2.88-5.69,2.88h-1.27v4.17H210v-4.17H206.8z M127.87,176.75L149,121.83l20.81,54.92H127.87z"/>
	<path class="st0" d="M325.9,211.65c-2.88,0-5.56-0.82-8.01-2.48c-2.45-1.66-4.22-3.86-5.28-6.65l-29.62-77.98
		c-0.96-2.02-0.85-3.97,0.32-5.84c1.18-1.87,2.89-2.85,5.13-2.96v-4.17h-33.15v4.17h0.97c2.56,0,4.44,0.85,5.68,2.56
		c1.22,1.7,1.42,3.78,0.56,6.23c-1.38,3.85-8.58,22.21-21.61,55.08c-3.42,8.65-3.37,16.33,0.16,23.06c1.71,3.1,2.29,5.37,1.76,6.81
		c-0.54,1.45-2.51,2.16-5.93,2.16h-4.8v4.17h34.42v-4.17h-1.61c-3.52,0-6.86-0.82-10-2.48c-3.14-1.66-5.72-3.93-7.68-6.81
		c-1.98-2.88-3.18-6.08-3.61-9.6c-0.42-3.53,0-6.94,1.29-10.24l0.16-0.65H291l7.84,20.65c0.85,2.24,0.61,4.32-0.72,6.25
		c-1.34,1.92-3.24,2.88-5.69,2.88h-1.27v4.17h37.94v-4.17H325.9z M246.97,176.75l21.13-54.92l20.81,54.92H246.97z"/>
	<path class="st0" d="M420.49,111.59v4.17h0.64c2.35,0,4.46,0.66,6.33,1.99c1.86,1.34,3.17,3.08,3.91,5.21v69.65l-60.84-81.01
		h-20.02v4.17h0.64c3,0,5.53,1.01,7.61,3.04c2.08,2.03,3.12,4.54,3.12,7.52v74.62c0,2.98-1.03,5.52-3.12,7.6
		c-2.08,2.08-4.62,3.12-7.61,3.12h-0.64v4.17h31.39v-4.17h-0.48c-3,0-5.56-1.03-7.69-3.12c-2.14-2.08-3.2-4.62-3.2-7.6v-67.42
		l60.84,82.3h9.13v-92.86c0.76-2.14,2.06-3.87,3.93-5.21c1.87-1.33,3.98-1.99,6.33-1.99h0.64v-4.17H420.49z"/>
	<path class="st0" d="M564.98,211.65c-2.89,0-5.56-0.82-8.01-2.48c-2.45-1.66-4.22-3.86-5.28-6.65l-29.62-77.98
		c-0.96-2.02-0.86-3.97,0.32-5.84c1.17-1.87,2.88-2.85,5.12-2.96v-4.17h-33.14v4.17h0.96c2.56,0,4.46,0.85,5.69,2.56
		c1.22,1.7,1.41,3.78,0.56,6.23c-1.39,3.85-8.6,22.21-21.61,55.08c-3.42,8.65-3.37,16.33,0.16,23.06c1.7,3.1,2.29,5.37,1.75,6.81
		c-0.53,1.45-2.51,2.16-5.92,2.16h-4.8v4.17h34.42v-4.17h-1.61c-3.52,0-6.86-0.82-10-2.48c-3.16-1.66-5.72-3.93-7.69-6.81
		c-1.98-2.88-3.17-6.08-3.6-9.6c-0.44-3.53,0-6.94,1.27-10.24l0.16-0.65h45.95l7.85,20.65c0.85,2.24,0.61,4.32-0.73,6.25
		c-1.33,1.92-3.22,2.88-5.68,2.88h-1.29v4.17h37.95v-4.17H564.98z M486.04,176.75l21.13-54.92l20.81,54.92H486.04z"/>
	<g>
		<path class="st1" d="M250.35,22.38c1.31,4.49,4.32,6.95,7.78,9.03c4.9,2.95,10.36,4.97,14.7,8.87c7.06,6.35,8.61,13.02,4.95,21.78
			c-0.41,0.98-0.87,1.95-1.36,2.89c-2.31,4.48-2.73,4.63-7.65,3c-10.26-3.41-15.13-11.22-17.33-21.21c-0.18-0.8,0.1-1.78-0.85-2.34
			c-1.42,9.26,3.14,20.69,19.39,30.67C251.96,72.4,232.74,47.78,250.35,22.38L250.35,22.38z"/>
		<path class="st1" d="M288.51,74.12c6.24-10.02,9.99-20.48,6.95-32.29c-1.59-6.2-5.03-11.4-9.85-15.62
			c9.16,15.36,5.55,31.22-1.28,40.3c1.07-4.26,2.48-7.95,1.78-12.01c-1.4-8.16-6.97-13.16-13.18-17.6
			c-3.64-2.6-7.56-4.87-11.54-6.92c-2.5-1.29-2.49-2.38-0.87-4.36c2.3-2.8,4.13-5.93,5.66-9.22c1.93-4.15,3.18-8.45,2.29-13.08
			c-0.29-1.53-0.04-2.04,1.58-1.63c17.4,4.35,31.49,13.1,37.99,30.63C312.4,44.07,309.98,64.19,288.51,74.12L288.51,74.12z"/>
	</g>
	<g>
		<g>
			<path class="st0" d="M428.13,260.07c-0.21-0.34-0.5-0.33-0.88,0.05c-0.31,0.41-0.78,1.07-1.42,1.96
				c-0.64,0.9-1.37,1.84-2.19,2.83c-0.84,0.99-1.7,1.94-2.61,2.85c-0.9,0.92-1.79,1.61-2.65,2.06c-0.86,0.45-1.63,0.58-2.32,0.41
				c-0.69-0.17-1.22-0.86-1.59-2.07c-0.11-0.28-0.19-0.54-0.24-0.81c-0.05-0.25-0.11-0.53-0.17-0.81c-0.17-0.72-0.17-1.42,0.03-2.1
				c0.19-0.68,0.57-1.34,1.15-1.99c0.45-0.49,0.85-0.99,1.21-1.54c0.37-0.53,0.7-1.09,1.01-1.68c0.24-0.34,0.42-0.69,0.54-1.06
				c0.12-0.36,0.25-0.73,0.38-1.11c0.11-0.37,0.09-0.72-0.03-1.03c-0.12-0.31-0.32-0.57-0.58-0.77c-0.6-0.38-1.25-0.36-1.96,0.09
				l-1.61,1.25c-0.96-0.9-2-1.43-3.12-1.61c-1.11-0.17-2.36,0.04-3.74,0.62c-1.1,0.58-2.11,1.42-3.04,2.48
				c-0.93,1.07-1.71,2.26-2.35,3.56c-0.61,1.23-1.03,2.52-1.3,3.85c-0.4,0.57-0.81,1.11-1.22,1.64c-0.92,1.17-1.84,2.18-2.79,3.04
				c-0.96,0.86-1.86,1.41-2.71,1.61c-0.11-0.2-0.2-0.4-0.29-0.57c-0.08-0.17-0.16-0.34-0.23-0.52c-0.11-0.62-0.17-1.25-0.19-1.87
				c-0.01-0.61,0.03-1.26,0.13-1.91c0.2-1.38,0.41-2.76,0.61-4.13c0.21-1.37,0.4-2.73,0.57-4.13c0.21-1.23,0.7-2.37,1.5-3.41
				c2.06-2.77,3.74-5.51,5.05-8.2c1.3-2.69,2.33-5.6,3.09-8.72c0.11-0.44,0.16-0.89,0.19-1.31c0.01-0.44,0.03-0.86,0.03-1.27
				c-0.08-0.41-0.23-0.78-0.44-1.11c-0.23-0.33-0.6-0.54-1.11-0.65c-0.58-0.07-1.06,0.01-1.42,0.27c-0.36,0.24-0.69,0.54-1.01,0.93
				c-1.27,1.53-2.35,3.09-3.25,4.72c-0.89,1.62-1.64,3.29-2.27,5c-0.61,1.71-1.15,3.48-1.59,5.29c-0.45,1.8-0.86,3.69-1.23,5.61
				c-0.08,0.28-0.12,0.58-0.13,0.92c-0.03,0.33-0.21,0.62-0.6,0.9c-0.13,0-0.29,0.01-0.46,0.03c-0.17,0.03-0.34,0.03-0.52,0.03
				c-0.65,0-1.25,0.11-1.8,0.32c-0.54,0.2-1.06,0.49-1.54,0.88c-1.63,1.3-2.8,2.68-3.52,4.15c-0.56,0.5-1.11,1.01-1.7,1.53
				c-0.93,0.81-1.84,1.58-2.76,2.28c-0.92,0.7-1.7,1.23-2.35,1.58c-1.27,0.94-2.24,1.18-2.92,0.73c-0.66-0.45-0.81-1.63-0.44-3.53
				l1.09-5.44c0.07-0.38,0.13-0.76,0.2-1.11c0.08-0.37,0.15-0.74,0.21-1.11c0-0.32-0.11-0.56-0.31-0.73
				c-0.17-0.11-0.38-0.09-0.62,0.03c-0.24,0.12-0.49,0.29-0.74,0.49c-0.27,0.21-0.49,0.42-0.7,0.65c-0.2,0.23-0.34,0.41-0.41,0.54
				c-0.31,0.73-0.62,1.67-0.93,2.85c-0.12,0.48-0.24,0.97-0.33,1.46c-0.04,0.05-0.07,0.11-0.11,0.17c-0.84,1.33-1.72,2.57-2.63,3.73
				c-0.92,1.17-1.84,2.18-2.79,3.04c-0.94,0.86-1.84,1.41-2.71,1.61c-0.11-0.2-0.2-0.4-0.29-0.57c-0.08-0.17-0.16-0.34-0.23-0.52
				c-0.11-0.62-0.16-1.25-0.19-1.87c-0.01-0.61,0.03-1.26,0.13-1.91c0.21-1.38,0.41-2.76,0.62-4.13c0.2-1.37,0.38-2.73,0.56-4.13
				c0.21-1.23,0.72-2.37,1.5-3.41c2.07-2.77,3.75-5.51,5.05-8.2c1.31-2.69,2.33-5.6,3.09-8.72c0.11-0.44,0.17-0.89,0.19-1.31
				c0.01-0.44,0.03-0.86,0.03-1.27c-0.07-0.41-0.21-0.78-0.44-1.11c-0.23-0.33-0.6-0.54-1.11-0.65c-0.58-0.07-1.05,0.01-1.42,0.27
				c-0.36,0.24-0.69,0.54-0.99,0.93c-1.27,1.53-2.36,3.09-3.25,4.72c-0.9,1.62-1.66,3.29-2.27,5c-0.62,1.71-1.15,3.48-1.61,5.29
				c-0.45,1.8-0.86,3.69-1.23,5.61c-0.07,0.28-0.12,0.58-0.13,0.92c-0.01,0.33-0.21,0.62-0.6,0.9c-0.13,0-0.29,0.01-0.46,0.03
				c-0.17,0.03-0.34,0.03-0.5,0.03c-0.66,0-1.26,0.11-1.82,0.32c-0.54,0.2-1.06,0.49-1.54,0.88c-1.83,1.46-3.08,3.01-3.77,4.7
				c-0.48,1.15-0.72,2.37-0.73,3.66c-0.52,0.85-1.05,1.64-1.62,2.37c-0.77,1.01-1.61,1.71-2.49,2.12c-0.52-0.69-0.81-1.51-0.85-2.48
				c-0.05-0.97-0.05-1.99,0-3.06c0.04-1.07,0.07-2.15,0.07-3.24s-0.17-2.1-0.52-3.04c-0.37-0.97-0.93-1.54-1.67-1.71
				c-0.74-0.17-1.55,0.08-2.45,0.73c-0.76,0.48-1.42,1.09-2,1.82c-0.58,0.72-1.13,1.49-1.63,2.28c-0.49,0.8-0.96,1.58-1.39,2.36
				c-0.42,0.77-0.86,1.43-1.31,1.99c-0.03-0.56,0.03-1.11,0.16-1.68c0.13-0.57,0.31-1.15,0.49-1.74s0.38-1.18,0.6-1.79
				c0.2-0.6,0.36-1.23,0.46-1.88c0.13-0.38,0.19-0.74,0.15-1.07c-0.03-0.32-0.12-0.58-0.28-0.77c-0.16-0.19-0.36-0.28-0.62-0.27
				c-0.25,0.03-0.56,0.2-0.9,0.54c-0.48,0.49-0.84,0.97-1.07,1.46c-0.15,0.34-0.27,0.68-0.37,1.01c0,0.03-0.01,0.05-0.01,0.08
				c-0.72,0.58-1.45,1.18-2.23,1.76c-1.33,0.99-2.77,1.79-4.35,2.37l1.39-3.05c0.24-0.49,0.4-0.98,0.49-1.5
				c0.08-0.52,0.15-1.05,0.17-1.57c0.07-0.69-0.09-1.33-0.49-1.91c-0.4-0.6-0.92-1.06-1.57-1.41c-0.66-0.34-1.39-0.52-2.2-0.54
				c-0.8-0.01-1.57,0.23-2.3,0.7c-0.24,0.17-0.48,0.34-0.74,0.52c-0.25,0.17-0.5,0.36-0.74,0.57c-0.8,0.84-1.74,1.49-2.84,1.96
				c-0.24,0.11-0.48,0.28-0.72,0.53c-1.18,1.14-2.1,2.37-2.77,3.7c-0.03,0.05-0.04,0.11-0.07,0.17c-0.25,0.21-0.48,0.42-0.73,0.64
				c-0.99,0.86-1.98,1.68-2.96,2.45c-0.98,0.78-1.82,1.43-2.51,1.95c-0.52,0.37-1.13,0.74-1.83,1.09c-0.7,0.34-1.41,0.58-2.11,0.73
				c-0.7,0.13-1.37,0.12-1.99-0.05c-0.62-0.17-1.11-0.6-1.5-1.25c-0.58-1.25-0.7-2.63-0.36-4.15c0.34-1.51,0.89-2.93,1.66-4.24
				c0.2-0.38,0.46-0.78,0.77-1.19c0.31-0.41,0.65-0.78,1.03-1.09c0.37-0.32,0.78-0.54,1.21-0.68c0.42-0.13,0.9-0.11,1.42,0.11
				c-0.31,0.62-0.6,1.19-0.88,1.71c-0.28,0.52-0.52,1.03-0.73,1.55c-0.34,0.8-0.32,1.54,0.05,2.23c0.17,0.49,0.48,0.78,0.9,0.89
				c0.44,0.09,0.88-0.04,1.31-0.42c0.34-0.24,0.61-0.52,0.78-0.82c0.27-0.41,0.53-0.84,0.77-1.27c0.24-0.44,0.45-0.89,0.62-1.38
				c0.17-0.44,0.34-0.82,0.53-1.14c0.2-0.31,0.46-0.6,0.81-0.88c0.37-0.34,0.54-0.68,0.52-1.01c-0.04-0.33-0.29-0.57-0.78-0.7
				c-0.27-0.07-0.48-0.11-0.61-0.11c-0.34,0.08-0.62,0.07-0.82-0.03c-0.21-0.08-0.42-0.23-0.62-0.44c-0.41-0.41-0.88-0.65-1.39-0.73
				c-0.52-0.07-1.05,0-1.61,0.21c-1.17,0.34-2.2,0.94-3.09,1.79c-0.07,0.07-0.13,0.13-0.2,0.21c-1.3,0.68-2.55,1.38-3.77,2.1
				c-1.25,0.72-2.41,1.59-3.52,2.59c-0.17,0.15-0.32,0.27-0.46,0.38c-0.13,0.13-0.27,0.23-0.41,0.29l-2.73-1.61
				c-0.37-0.24-0.73-0.49-1.05-0.73c-0.33-0.24-0.66-0.5-1.01-0.78c-0.45-0.37-0.61-0.8-0.49-1.26c0.12-0.48,0.46-0.84,1.06-1.11
				c0.5-0.28,1.05-0.36,1.62-0.24c0.57,0.12,1.06,0.37,1.47,0.76c0.13,0.17,0.25,0.34,0.33,0.54c0.09,0.19,0.28,0.31,0.6,0.33
				c0.37-0.31,0.53-0.74,0.46-1.29c-0.07-0.25-0.15-0.49-0.24-0.73c-0.08-0.24-0.21-0.45-0.38-0.62c-0.99-1.25-2.35-1.63-4.07-1.14
				c-0.82,0.28-1.53,0.68-2.08,1.19c-0.57,0.52-0.96,1.17-1.17,1.96c-0.37,1.66,0.16,2.91,1.61,3.74c0.48,0.28,0.92,0.54,1.31,0.8
				c0.38,0.27,0.81,0.53,1.26,0.81c0.31,0.24,0.62,0.46,0.93,0.68c0.04,0.03,0.08,0.05,0.11,0.08c-2.97,1.27-5.94,2.59-8.91,3.95
				c-3.5,1.62-7.07,3.57-10.69,5.85c0.04-2.16,0.03-4.35-0.01-6.55c-0.05-2.2-0.12-4.47-0.23-6.79c1.27-0.94,2.45-1.76,3.56-2.45
				c1.1-0.68,2.15-1.27,3.12-1.79c0.97-0.52,1.87-0.98,2.71-1.42c0.84-0.44,1.61-0.93,2.31-1.46c0.25-0.15,0.48-0.36,0.68-0.62
				c0.19-0.27,0.16-0.66-0.07-1.21c-0.82,0-1.72,0.15-2.69,0.44c-0.97,0.28-1.98,0.68-3.02,1.17c-1.05,0.49-2.12,1.03-3.22,1.62
				c-1.09,0.6-2.19,1.17-3.26,1.74c0.03-1.29,0.05-2.68,0.08-4.18c0.01-1.51,0.03-3.01,0.05-4.51c0.01-1.5,0.03-2.98,0.05-4.44
				c0.03-1.47,0.04-2.83,0.05-4.09c0.6-0.45,1.59-0.85,2.96-1.19c1.38-0.34,2.87-0.61,4.47-0.82c1.62-0.21,3.21-0.36,4.78-0.46
				c1.58-0.09,2.88-0.12,3.87-0.08c0.44,0,0.86-0.03,1.3-0.09c0.44-0.05,0.76-0.36,0.96-0.93c-0.04-0.24-0.2-0.41-0.46-0.52
				c-0.28-0.12-0.6-0.21-0.97-0.29c-0.36-0.07-0.74-0.13-1.15-0.16c-0.4-0.04-0.7-0.08-0.93-0.12c-1.19-0.12-2.43-0.15-3.71-0.09
				c-1.27,0.07-2.55,0.17-3.83,0.32c-1.27,0.16-2.52,0.34-3.74,0.57c-1.21,0.23-2.35,0.45-3.42,0.69c-0.05-0.57-0.09-1.13-0.15-1.67
				c-0.25-1.43-1.84-1.8-2.24,0.28c-0.03,0.25-0.05,0.5-0.08,0.76c-0.07,0.65-0.57,6.91-0.58,8.19c-0.03,1.27-0.05,2.57-0.11,3.91
				c-0.04,1.33-0.09,2.64-0.15,3.95c-0.04,1.3-0.46,6.9-0.46,7.12c-0.25,0.24-2.59,1.91-2.81,2.15c-0.23,0.23-0.5,0.57-0.82,1.02
				c-0.08,0.16-0.12,0.36-0.11,0.62c0,0.28,0.05,0.5,0.16,0.69c0.07,0.19,0.21,0.34,0.42,0.45c0.23,0.12,0.41,0.17,0.6,0.17
				c0.38-0.04,0.84-0.16,1.33-0.37c0.5-0.2,0.98-0.34,1.43-0.42c0.21,2.1,0.31,4.27,0.29,6.53c-0.03,2.27-0.07,4.38-0.13,6.35
				c-0.27,0.54-0.73,1.09-1.38,1.66c-0.65,0.57-1.46,1.37-2.39,2.4c-0.24,0.27-0.4,0.56-0.48,0.88c-0.07,0.33,0.01,0.68,0.27,1.06
				c0.23,0.31,0.49,0.46,0.81,0.5c0.31,0.04,0.61-0.01,0.9-0.16c0.37-0.2,0.72-0.37,1.06-0.54c0.36-0.17,0.69-0.36,1.02-0.54
				l0.41,0.23c0.9,0.31,1.53,0.38,1.86,0.25c0.34-0.13,0.62-0.6,0.85-1.39c0.09-0.31,0.15-0.64,0.17-0.99
				c0.04-0.36,0.09-0.73,0.17-1.11c1.59-1.14,3.29-2.3,5.11-3.48c1.8-1.18,3.63-2.33,5.51-3.48c1.86-1.14,3.73-2.24,5.61-3.28
				c1.09-0.61,2.15-1.18,3.2-1.72c-0.13,0.27-0.25,0.53-0.37,0.77c-0.33,0.68-0.64,1.37-0.9,2.06c-0.24,0.54-0.37,1.1-0.38,1.63
				c-0.03,0.53,0.04,1.06,0.17,1.58c0.28,0.9,0.84,1.45,1.68,1.63c0.84,0.19,1.66-0.05,2.44-0.74c0.17-0.15,0.32-0.31,0.44-0.48
				c0.12-0.17,0.25-0.34,0.38-0.52c0.84-1.27,1.21-2.65,1.14-4.14c-0.07-1.25-0.38-2.49-0.93-3.74c0.45-0.37,0.88-0.74,1.29-1.11
				c0.41-0.36,0.81-0.69,1.19-1.01l2.48-1.94c-0.6,1.07-1.06,2.23-1.38,3.44c-0.32,1.25-0.5,2.44-0.54,3.58
				c-0.03,1.76,0.46,3.13,1.47,4.13c1.02,0.98,2.35,1.41,3.99,1.26c1.14-0.09,2.2-0.4,3.2-0.88c1.01-0.49,1.98-1.07,2.95-1.76
				c0.8-0.58,1.67-1.34,2.65-2.26c0.44-0.4,0.86-0.81,1.29-1.23c-0.03,0.36-0.04,0.73-0.01,1.1c0.03,1.29,0.45,2.31,1.29,3.06
				c0.82,0.76,1.9,1.14,3.25,1.14c0.41,0,0.82-0.07,1.23-0.19c0.41-0.12,0.82-0.27,1.23-0.44c1.17-0.65,2.19-1.43,3.05-2.33
				c0.31-0.28,0.61-0.52,0.93-0.73c0.31-0.2,0.68-0.36,1.13-0.46c0.31-0.11,0.62-0.23,0.93-0.36c0.31-0.13,0.6-0.28,0.88-0.41
				c1.72-0.86,3.28-1.84,4.67-2.93c0.24-0.19,0.48-0.4,0.7-0.6c-0.16,0.84-0.34,1.74-0.52,2.69c-0.28,1.46-0.44,2.77-0.46,3.94
				c-0.04,0.58,0.03,1.09,0.2,1.47c0.17,0.4,0.42,0.65,0.74,0.76c0.33,0.11,0.72,0.04,1.17-0.2c0.45-0.25,0.93-0.72,1.45-1.41
				c0.31-0.58,0.65-1.13,1.03-1.63c0.37-0.5,0.7-1.05,0.98-1.63c0.09-0.32,0.28-0.73,0.56-1.27c0.28-0.53,0.58-1.1,0.93-1.68
				c0.34-0.58,0.7-1.15,1.09-1.68c0.37-0.53,0.76-0.97,1.13-1.3c0.38-0.32,0.73-0.49,1.06-0.49c0.33,0,0.6,0.25,0.8,0.73
				c0.07,1.38,0.11,2.76,0.11,4.15c0,1.38,0.04,2.81,0.11,4.3c0.07,0.97,0.33,1.83,0.77,2.59c0.48,0.9,1.1,1.39,1.86,1.49
				c0.76,0.08,1.57-0.27,2.43-1.06c1.01-1.02,1.92-2.16,2.73-3.42c0.24,0.49,0.61,0.93,1.13,1.29c0.49,0.38,1.01,0.57,1.58,0.57
				c0.57,0,1.13-0.23,1.67-0.66c0.28-0.17,0.53-0.38,0.76-0.62c0.21-0.24,0.41-0.49,0.58-0.73c0.34-0.45,0.73-1.01,1.17-1.68
				c0.42-0.68,0.8-1.25,1.1-1.74c-0.17,0.93-0.21,1.92-0.12,2.96c0.08,1.03,0.29,1.94,0.61,2.72c0.33,0.78,0.8,1.33,1.39,1.66
				c0.61,0.33,1.35,0.29,2.24-0.13c0.93-0.45,1.88-1.15,2.87-2.12c0.98-0.97,1.92-2.07,2.81-3.29c0.38-0.52,0.73-1.05,1.09-1.58
				c-0.04,0.81-0.04,1.58,0.03,2.31c0.08,1.05,0.34,1.8,0.8,2.26c0.37,0.72,1.17,1.02,2.37,0.9c1.19-0.12,2.45-0.68,3.77-1.68
				c0.74-0.52,1.58-1.14,2.49-1.87c0.92-0.72,1.82-1.51,2.71-2.36c0.01,0,0.03-0.01,0.04-0.03c-0.13,0.97-0.13,1.98,0.01,3.01
				c0.13,0.86,0.6,1.58,1.39,2.12c0.48,0.38,1.01,0.57,1.58,0.57c0.56,0,1.11-0.23,1.67-0.66c0.28-0.17,0.52-0.38,0.74-0.62
				s0.42-0.49,0.6-0.73c0.34-0.45,0.73-1.01,1.17-1.68c0.42-0.68,0.8-1.25,1.1-1.74c-0.17,0.93-0.21,1.92-0.13,2.96
				c0.09,1.03,0.29,1.94,0.62,2.72c0.33,0.78,0.8,1.33,1.39,1.66c0.6,0.33,1.35,0.29,2.24-0.13c0.93-0.45,1.88-1.15,2.87-2.12
				c0.9-0.89,1.75-1.88,2.59-3c0.03,0.42,0.08,0.84,0.17,1.23c0.24,0.9,0.62,1.54,1.15,1.92c0.54,0.37,1.14,0.56,1.8,0.54
				c0.68-0.03,1.39-0.2,2.15-0.52c0.76-0.33,1.49-0.74,2.22-1.25c0.72-0.5,1.39-1.06,2.03-1.66c0.64-0.61,1.17-1.18,1.58-1.74
				c0.07,0.8,0.2,1.57,0.38,2.31c0.19,0.74,0.41,1.35,0.65,1.84c0.68,0.99,1.5,1.57,2.41,1.71c0.93,0.13,1.9-0.01,2.89-0.45
				c0.99-0.42,2-1.1,3.02-2.02c1.01-0.92,1.98-1.9,2.88-2.96c0.92-1.05,1.74-2.14,2.48-3.24c0.74-1.1,1.33-2.1,1.78-2.96
				C428.32,260.76,428.34,260.41,428.13,260.07z M398.48,243.96c1.02-2.6,2.15-5.25,3.34-7.96c0.04-0.07,0.11-0.12,0.21-0.17
				c0.11-0.05,0.25-0.16,0.46-0.33c0.07,1.1,0,2.12-0.21,3.08c-0.2,0.96-0.49,1.9-0.88,2.83c-0.37,1.14-0.74,2.14-1.1,2.98
				c-0.37,0.85-0.78,1.83-1.27,2.97c-0.31,0.7-0.64,1.38-0.99,2.06c-0.37,0.68-0.73,1.35-1.11,2.04c-0.04,0.07-0.11,0.16-0.21,0.27
				c-0.09,0.11-0.23,0.24-0.36,0.41C396.74,249.29,397.45,246.57,398.48,243.96z M367.12,243.96c1.03-2.6,2.15-5.25,3.36-7.96
				c0.03-0.07,0.09-0.12,0.2-0.17c0.11-0.05,0.27-0.16,0.46-0.33c0.07,1.1,0,2.12-0.2,3.08c-0.21,0.96-0.5,1.9-0.89,2.83
				c-0.37,1.14-0.74,2.14-1.1,2.98c-0.36,0.85-0.78,1.83-1.26,2.97c-0.32,0.7-0.65,1.38-1.01,2.06c-0.36,0.68-0.73,1.35-1.11,2.04
				c-0.03,0.07-0.11,0.16-0.2,0.27c-0.11,0.11-0.23,0.24-0.36,0.41C365.38,249.29,366.09,246.57,367.12,243.96z M293.73,269.47
				c-0.11,0.74-0.46,1.5-1.09,2.26c-0.07-0.17-0.13-0.31-0.2-0.41c-0.08-0.11-0.11-0.21-0.11-0.31c-0.04-0.7,0.05-1.37,0.28-2
				c0.23-0.64,0.6-1.34,1.11-2.1C293.84,267.88,293.84,268.73,293.73,269.47z M320.65,268.85c-0.48,0.31-0.94,0.45-1.39,0.45
				c-0.48,0.03-0.93-0.05-1.34-0.24c-0.41-0.19-0.72-0.53-0.93-1.01c-0.34-0.84-0.41-1.66-0.2-2.49c0.17-1.02,0.53-2,1.05-2.96
				c0.21-0.27,0.44-0.52,0.65-0.77c0.15-0.17,0.28-0.34,0.41-0.52c0.07,1.31,0.33,2.52,0.77,3.62c0.45,1.11,1.25,2.03,2.37,2.75
				C321.61,268.17,321.14,268.56,320.65,268.85z M326.58,260.97c-0.03,0.37-0.12,0.74-0.25,1.11c-0.45,1.22-1.15,2.4-2.11,3.58
				h-0.37c-0.58-0.24-1.06-0.62-1.45-1.14c-0.37-0.52-0.62-1.07-0.74-1.68c-0.12-0.61-0.11-1.22,0.05-1.87
				c0.16-0.64,0.44-1.19,0.85-1.68c0.48-0.58,1.03-0.94,1.66-1.09c0.61-0.13,1.19-0.05,1.75,0.27c0.54,0.34,0.81,0.81,0.77,1.39
				C326.67,260.24,326.62,260.61,326.58,260.97z M359.74,261.72c-0.11,0.58-0.34,1.18-0.72,1.76c-0.6,0.86-1.15,1.74-1.71,2.61
				c-0.54,0.89-1.1,1.78-1.64,2.68l-1.03,1.14c-0.54-0.25-0.88-0.56-0.98-0.92c-0.09-0.36-0.15-0.73-0.15-1.11
				c-0.08-0.58-0.03-1.18,0.15-1.79c0.09-0.29,0.19-0.58,0.29-0.88c0.27-0.57,0.53-1.14,0.78-1.71c0.49-0.88,1.13-1.72,1.92-2.52
				c0.41-0.37,0.86-0.66,1.37-0.88c0.49-0.21,1.09-0.28,1.78-0.21C359.86,260.53,359.85,261.14,359.74,261.72z M391.11,261.72
				c-0.11,0.58-0.34,1.18-0.73,1.76c-0.58,0.86-1.15,1.74-1.7,2.61c-0.56,0.89-1.1,1.78-1.64,2.68l-1.03,1.14
				c-0.56-0.25-0.88-0.56-0.98-0.92s-0.16-0.73-0.16-1.11c-0.07-0.58-0.01-1.18,0.16-1.79c0.17-0.6,0.4-1.19,0.68-1.79
				c0.5-1.17,1.29-2.28,2.31-3.32c0.41-0.37,0.88-0.66,1.37-0.88c0.5-0.21,1.1-0.28,1.79-0.21
				C391.22,260.53,391.21,261.14,391.11,261.72z M411.99,263.17c-0.07,0.28-0.15,0.56-0.23,0.81c-0.09,0.27-0.25,0.49-0.49,0.7
				c-0.28,0.28-0.66,0.65-1.17,1.14c-0.49,0.48-1.03,0.97-1.59,1.47c-0.57,0.5-1.15,0.94-1.76,1.33c-0.6,0.37-1.15,0.6-1.67,0.65
				c-0.52,0.04-0.94-0.12-1.29-0.49c-0.34-0.38-0.54-1.1-0.62-2.14c-0.03-1.34,0.21-2.61,0.69-3.82c0.19-0.37,0.36-0.73,0.5-1.07
				c0.54-0.99,1.26-1.9,2.16-2.72c0.97-0.9,2.06-1.39,3.28-1.49c1.22-0.08,2.35,0.23,3.37,0.92L411.99,263.17z"/>
			<path class="st0" d="M373.1,253.32c0.24,0.73,0.67,1.12,1.29,1.19c0.62,0,1.12-0.29,1.5-0.88c0.17-0.28,0.31-0.54,0.41-0.78
				c0.1-0.24,0.19-0.48,0.26-0.73l-0.05-0.78c-0.14-0.48-0.48-0.8-1.03-0.96c-0.55-0.16-1.01-0.06-1.39,0.28
				c-0.38,0.38-0.67,0.79-0.88,1.22C373,252.33,372.96,252.81,373.1,253.32L373.1,253.32z"/>
			<path class="st0" d="M254.39,260.07c-0.2-0.34-0.49-0.33-0.88,0.05c-0.31,0.41-0.78,1.07-1.42,1.96
				c-0.64,0.9-1.37,1.84-2.19,2.83c-0.82,0.99-1.7,1.94-2.6,2.85c-0.92,0.92-1.8,1.61-2.65,2.06c-0.86,0.45-1.64,0.58-2.33,0.41
				c-0.68-0.17-1.21-0.86-1.59-2.07c-0.11-0.28-0.19-0.54-0.24-0.81c-0.04-0.25-0.11-0.53-0.17-0.8c-0.17-0.73-0.16-1.43,0.03-2.11
				s0.57-1.34,1.15-1.99c0.45-0.49,0.86-0.99,1.22-1.54c0.36-0.53,0.69-1.09,1.01-1.68c0.24-0.34,0.41-0.69,0.53-1.06
				c0.12-0.36,0.25-0.73,0.4-1.11c0.09-0.37,0.09-0.72-0.04-1.03c-0.12-0.31-0.32-0.57-0.58-0.77c-0.58-0.38-1.23-0.36-1.96,0.09
				l-1.59,1.25c-0.97-0.9-2-1.43-3.13-1.61c-14.66-2.36-19.29,14-19.46,14.31c-0.11-0.34-0.19-0.62-0.24-0.84
				c-0.04-0.21-0.09-0.44-0.12-0.68c-0.21-1.55-0.32-3.13-0.34-4.71c-0.01-1.59-0.04-3.18-0.07-4.78c-0.04-0.34-0.08-0.69-0.11-1.03
				c-0.04-0.34-0.09-0.68-0.16-0.98c0-0.11-0.07-0.21-0.2-0.32c-0.15-0.11-0.27-0.16-0.37-0.16c-0.09,0-0.23,0.05-0.36,0.16
				c-0.13,0.11-0.25,0.21-0.36,0.32c-0.11,0.13-0.19,0.28-0.25,0.44c-0.08,0.16-0.15,0.32-0.21,0.49c-0.13,0.62-0.28,1.25-0.41,1.9
				c-0.15,0.64-0.23,1.26-0.27,1.88c-0.09,1.46-0.07,2.88,0.08,4.26c0.01,0.07,0.03,0.15,0.03,0.21c-1.14,3.91-3.33,9.34-7.16,10.2
				c-0.62,0.15-1.15-0.42-1.54-1.09c-0.4-0.65-0.68-1.51-0.84-2.56c-0.15-1.06-0.24-2.16-0.28-3.32c-0.04-1.17-0.03-2.27,0.03-3.32
				c0.05-1.06,0.11-1.9,0.19-2.52c0.03-0.38,0.09-0.73,0.2-1.06c0.11-0.33,0.24-0.66,0.41-1.01c0.49-1.01,0.96-2.03,1.42-3.06
				c0.46-1.03,0.94-2.08,1.42-3.16c0.58-1.42,1.17-2.83,1.72-4.23c0.57-1.39,1.15-2.83,1.74-4.27c0.58-1.38,1.03-2.75,1.37-4.1
				c0.32-1.35,0.61-2.75,0.85-4.21c0.07-0.48,0.09-0.96,0.08-1.45c-0.03-0.48-0.13-0.96-0.34-1.41c-0.54-1.34-1.58-1.66-3.09-0.93
				c-0.69,0.32-1.29,0.81-1.8,1.5c-0.45,0.6-0.86,1.21-1.23,1.84c-0.38,0.64-0.72,1.33-0.98,2.06c-0.28,0.89-0.56,1.79-0.85,2.69
				c-0.29,0.9-0.54,1.79-0.76,2.69c-0.52,2.24-1.02,4.63-1.54,7.15c-0.52,2.53-0.93,5.08-1.25,7.68c-0.12,1.07-0.23,2.15-0.29,3.24
				c-0.31,0.37-0.62,0.76-0.97,1.14c-1.15,1.33-2.35,2.55-3.58,3.63c-1.23,1.09-2.45,1.95-3.63,2.59c-1.18,0.64-2.24,0.84-3.17,0.6
				c-0.65-0.13-1.19-0.44-1.63-0.9c-0.42-0.48-0.74-1.01-0.94-1.62c-0.21-0.6-0.29-1.26-0.24-1.96c0.05-0.7,0.24-1.38,0.54-2
				c0.85,0,1.82-0.17,2.88-0.54c1.07-0.36,2.1-0.84,3.08-1.42c0.98-0.58,1.86-1.29,2.65-2.07c0.8-0.8,1.34-1.64,1.64-2.55
				c0.34-1.14,0.34-2.08-0.01-2.85c-0.37-0.76-0.96-1.26-1.76-1.5c-0.29-0.09-0.6-0.13-0.93-0.15c-6.74-0.9-11.86,1.42-11.86,1.42
				c-0.7,0.23-1.42,0.49-2.14,0.82c-0.73,0.33-1.43,0.69-2.12,1.09c-0.68,0.4-1.25,0.77-1.7,1.11c-0.78-1.1-1.67-2.1-2.65-2.98
				c-0.98-0.88-2.02-1.68-3.09-2.43c-1.09-0.74-2.22-1.43-3.38-2.06c-1.17-0.62-2.33-1.23-3.5-1.86c-0.62-0.32-1.05-0.69-1.3-1.11
				c-0.24-0.44-0.36-0.89-0.38-1.38c-0.01-0.48,0.05-0.97,0.21-1.47c0.16-0.5,0.34-0.97,0.6-1.38c1.02-1.83,2.19-3.25,3.5-4.25
				c1.3-1.01,2.81-1.75,4.54-2.23c1.68-0.45,3.14-0.42,4.38,0.11c1.25,0.52,2.52,1.53,3.82,3.05c0.11-0.21,0.2-0.36,0.29-0.46
				c0.08-0.11,0.16-0.19,0.23-0.24c0.07-0.05,0.12-0.11,0.16-0.15c0.03-0.05,0.05-0.16,0.05-0.29c-0.04-0.82-0.32-1.57-0.84-2.2
				c-0.5-0.64-1.15-1.15-1.92-1.55c-0.78-0.4-1.62-0.68-2.51-0.84c-0.89-0.16-1.72-0.19-2.47-0.08c-2.65,0.45-5.03,1.49-7.12,3.09
				c-2.1,1.61-3.85,3.82-5.27,6.66c-0.41,0.8-0.62,1.57-0.64,2.31c-0.01,0.74,0.08,1.43,0.28,2.07c0.21,0.64,0.5,1.21,0.88,1.68
				c0.38,0.49,0.78,0.85,1.19,1.09c1.13,0.77,2.24,1.46,3.32,2.11c1.09,0.64,2.14,1.29,3.13,1.94c0.99,0.66,1.94,1.37,2.84,2.1
				c0.89,0.76,1.75,1.61,2.57,2.57c-2.16,1.7-4.36,3.53-6.61,5.52c-2.23,1.99-4.23,4.14-5.98,6.46c-0.58,0.82-1.1,1.71-1.57,2.64
				c-0.46,0.93-0.82,1.92-1.06,2.96c-0.31,1.51-0.2,2.76,0.33,3.73c0.53,0.97,1.45,1.54,2.71,1.71c0.49,0.11,1.01,0.12,1.55,0.05
				c0.54-0.07,1.06-0.17,1.55-0.31c2.27-0.56,4.46-1.45,6.57-2.68c2.12-1.22,3.91-2.72,5.4-4.48c1.47-1.76,2.51-3.74,3.09-5.96
				c0.58-2.22,0.48-4.58-0.31-7.11c-0.08-0.37-0.27-0.81-0.57-1.31c-0.32-0.5-0.5-0.94-0.57-1.33c0.82-0.8,5.78-3.7,11.37-4.01
				c-0.03,0.03-0.05,0.04-0.08,0.07c-2.68,2.45-4.5,5.32-5.47,8.61c-0.54,2.04-0.38,3.97,0.46,5.81c0.38,0.89,0.93,1.61,1.66,2.12
				c0.72,0.52,1.58,0.86,2.57,1.03c0.93,0.13,1.87,0.04,2.81-0.28c0.94-0.33,1.88-0.81,2.84-1.43c0.94-0.62,1.86-1.35,2.76-2.18
				c0.89-0.84,1.72-1.7,2.49-2.59c0.31-0.36,0.6-0.72,0.88-1.07c-0.01,0.65-0.03,1.3-0.03,1.95c0,2.63,0.27,5.16,0.78,7.61
				c0.2,0.94,0.6,1.66,1.18,2.16c0.58,0.49,1.25,0.88,1.99,0.88c5.07,0,7.83-5.27,9.26-9.64c0.07,0.32,0.15,0.64,0.23,0.96
				c0.13,0.38,0.28,0.76,0.44,1.09c0.15,0.36,0.33,0.7,0.54,1.05c0.37,0.52,0.8,0.77,1.29,0.77c4.01,0,3.02-11.05,13.8-14.99
				c-0.27,0.24-0.5,0.5-0.76,0.78c-0.93,1.07-1.71,2.26-2.35,3.56c-0.64,1.3-1.07,2.64-1.34,4.05c-0.25,1.41-0.25,2.69,0.03,3.86
				c0.24,0.9,0.62,1.54,1.17,1.92c0.53,0.37,1.13,0.56,1.8,0.54c0.66-0.03,1.38-0.2,2.14-0.52c0.76-0.33,1.5-0.74,2.22-1.25
				c0.73-0.5,1.41-1.06,2.04-1.66c0.64-0.61,1.15-1.18,1.57-1.74c0.07,0.8,0.2,1.57,0.38,2.31c0.2,0.74,0.41,1.35,0.65,1.84
				c0.69,0.99,1.5,1.57,2.43,1.7c0.93,0.15,1.88,0,2.88-0.44c1.01-0.42,2-1.1,3.02-2.02c1.01-0.92,1.98-1.9,2.89-2.96
				c0.9-1.05,1.72-2.14,2.47-3.24c0.74-1.1,1.34-2.1,1.78-2.96C254.57,260.76,254.6,260.41,254.39,260.07z M206.26,253.27
				c0.24-1.31,0.46-2.61,0.66-3.89c0.21-1.29,0.45-2.57,0.73-3.89c0.24-1.11,0.5-2.19,0.8-3.24c0.29-1.06,0.61-2.11,0.96-3.14
				c0.17-0.48,0.37-0.93,0.61-1.33c0.25-0.4,0.5-0.81,0.78-1.26c0.13-0.21,0.32-0.38,0.57-0.52c0.2,0.13,0.29,0.28,0.28,0.44
				c-0.01,0.16-0.04,0.31-0.08,0.44c-0.07,1.14-0.23,2.26-0.49,3.34c-0.25,1.09-0.57,2.19-0.96,3.29c-0.58,1.74-1.17,3.45-1.75,5.13
				c-0.58,1.7-1.17,3.41-1.75,5.13c-0.04,0.21-0.09,0.4-0.16,0.57c-0.07,0.17-0.13,0.34-0.2,0.52c-0.08,0-0.12,0-0.13-0.03
				c-0.01-0.01-0.07-0.03-0.13-0.03L206.26,253.27z M177.43,269.76c-0.25,0.97-0.64,1.83-1.19,2.59c-1.54,1.87-3.33,3.44-5.33,4.72
				c-2.02,1.27-4.07,2.11-6.17,2.48c-0.41,0.11-0.8,0.11-1.15,0c-0.36-0.09-0.65-0.28-0.88-0.54c-0.23-0.25-0.37-0.58-0.41-1.01
				c-0.05-0.41,0.04-0.86,0.28-1.34c0.07-0.62,0.36-1.39,0.88-2.31c0.52-0.92,1.15-1.87,1.91-2.85c0.76-0.99,1.61-2,2.55-3.04
				c0.96-1.03,1.91-1.99,2.87-2.88c0.97-0.88,1.9-1.64,2.79-2.31c0.89-0.65,1.67-1.14,2.32-1.45c0.54,0.58,0.98,1.33,1.29,2.2
				c0.32,0.88,0.49,1.82,0.54,2.8C177.76,267.81,177.67,268.79,177.43,269.76z M190.3,259.39c0.56-0.82,1.21-1.61,1.92-2.33
				c0.28-0.28,0.57-0.5,0.88-0.69c0.32-0.2,0.64-0.37,0.98-0.56c0.34-0.16,0.76-0.25,1.25-0.25c0.54-0.07,0.94,0.08,1.21,0.44
				c0.25,0.37,0.28,0.81,0.08,1.33c-0.15,0.34-0.29,0.61-0.46,0.77c-0.73,1.01-1.58,1.83-2.59,2.47c-0.99,0.64-2.06,1.17-3.2,1.58
				c-0.17,0.08-0.37,0.09-0.61,0.08s-0.52,0-0.82,0.03C189.27,261.17,189.73,260.23,190.3,259.39z M238.24,263.17
				c-0.07,0.28-0.15,0.56-0.23,0.81c-0.09,0.27-0.25,0.49-0.49,0.7c-0.28,0.28-0.66,0.65-1.15,1.14c-0.5,0.48-1.03,0.97-1.61,1.47
				c-0.57,0.5-1.15,0.94-1.75,1.33c-0.61,0.38-1.17,0.6-1.68,0.65c-0.5,0.05-0.94-0.12-1.29-0.49c-0.34-0.38-0.54-1.1-0.61-2.14
				c-0.04-1.45,0.23-2.83,0.8-4.11c0.57-1.3,1.49-2.4,2.55-3.5c3.08-3.17,5.62-1.26,6.66-0.57L238.24,263.17z"/>
			<path class="st0" d="M373.15,253.28c0.24,0.73,0.67,1.12,1.29,1.19c0.62,0,1.12-0.29,1.5-0.88c0.17-0.28,0.31-0.54,0.41-0.78
				c0.1-0.24,0.19-0.48,0.26-0.73l-0.05-0.78c-0.14-0.48-0.48-0.8-1.03-0.96c-0.55-0.16-1.01-0.06-1.39,0.28
				c-0.38,0.38-0.67,0.79-0.88,1.22C373.05,252.28,373.01,252.76,373.15,253.28L373.15,253.28z"/>
		</g>
		<g>
			<path class="st0" d="M133.96,264.17c0.07-0.13,0.15-0.25,0.23-0.37c0.08-0.12,0.16-0.24,0.23-0.37c0.67-0.98,1.48-1.76,2.42-2.33
				c0.07-0.05,0.15-0.1,0.23-0.15c0.08-0.05,0.17-0.09,0.26-0.12c0.52-0.23,1.01-0.29,1.47-0.16c0.45,0.13,0.8,0.41,1.06,0.84
				c0.11,0.2,0.19,0.41,0.23,0.62c0.05,0.22,0.08,0.43,0.09,0.62c-0.02,0.15-0.02,0.29-0.01,0.44c0.01,0.15,0.02,0.3,0.04,0.46
				c0.74-0.36,1.48-0.81,2.21-1.36c0.73-0.54,1.34-1.11,1.83-1.71c0.09-0.04,0.15-0.03,0.18,0.01c0.03,0.05,0.04,0.1,0.04,0.18
				s-0.02,0.15-0.05,0.24c-0.04,0.09-0.07,0.16-0.11,0.22c-0.47,0.83-1.05,1.53-1.74,2.09c-0.69,0.56-1.44,1.05-2.25,1.47
				c-0.18,0.09-0.32,0.2-0.42,0.33c-0.1,0.13-0.19,0.29-0.29,0.49c-0.16,0.34-0.34,0.68-0.53,1c-0.19,0.33-0.38,0.65-0.58,0.98
				c-0.22,0.4-0.59,0.72-1.11,0.98c-0.42,0.18-0.77,0.18-1.05,0c-0.28-0.18-0.39-0.48-0.34-0.9c0.05-0.27,0.17-0.58,0.35-0.92
				c0.31-0.52,0.76-1.03,1.36-1.52c0.15-0.09,0.27-0.18,0.38-0.27c0.11-0.09,0.23-0.19,0.38-0.3c0.11-0.31,0.17-0.63,0.19-0.96
				c0.02-0.33,0.02-0.66,0-0.99c-0.02-0.07-0.03-0.14-0.04-0.2c-0.01-0.06-0.03-0.12-0.07-0.18c-0.16-0.29-0.41-0.4-0.73-0.33
				c-0.29,0.09-0.55,0.22-0.79,0.38c-0.23,0.16-0.47,0.34-0.71,0.54c-0.29,0.29-0.56,0.59-0.8,0.9c-0.24,0.31-0.45,0.64-0.61,1
				c-0.2,0.36-0.38,0.72-0.54,1.07c-0.16,0.35-0.33,0.7-0.49,1.05c-0.09,0.25-0.18,0.44-0.27,0.57c-0.07,0.13-0.17,0.19-0.3,0.2
				s-0.22-0.05-0.27-0.18c-0.09-0.15-0.16-0.35-0.22-0.62c-0.15-0.56-0.24-1.13-0.3-1.71c-0.05-0.58-0.06-1.17-0.03-1.77
				c0.07-1.23,0.17-2.45,0.3-3.65c0.13-1.2,0.33-2.42,0.6-3.65c0.25-1.09,0.55-2.15,0.9-3.18c0.34-1.03,0.75-2.05,1.22-3.07
				c0.13-0.25,0.26-0.48,0.39-0.69c0.13-0.21,0.27-0.43,0.42-0.66c0.13-0.22,0.32-0.44,0.57-0.65c0.18-0.16,0.38-0.27,0.6-0.33
				c0.22-0.05,0.42-0.06,0.61-0.01c0.19,0.05,0.36,0.14,0.5,0.29s0.24,0.33,0.3,0.57c0.09,0.25,0.13,0.52,0.11,0.79
				c-0.02,0.27-0.07,0.54-0.16,0.81c-0.22,0.81-0.5,1.61-0.84,2.39c-0.38,0.8-0.77,1.59-1.18,2.37c-0.41,0.79-0.81,1.59-1.21,2.4
				c-0.15,0.25-0.31,0.51-0.49,0.76c-0.18,0.25-0.34,0.52-0.49,0.79c-0.09,0.16-0.18,0.33-0.27,0.49s-0.15,0.34-0.19,0.52
				c-0.09,0.74-0.17,1.48-0.23,2.21C133.88,262.66,133.89,263.41,133.96,264.17z M137.98,248.45c-0.31,0.18-0.49,0.29-0.54,0.34
				c-0.05,0.05-0.12,0.13-0.19,0.26c-0.13,0.25-0.26,0.51-0.39,0.77c-0.14,0.26-0.25,0.52-0.34,0.77c-0.31,0.76-0.57,1.52-0.79,2.28
				c-0.22,0.76-0.41,1.54-0.57,2.33c-0.04,0.05-0.05,0.11-0.04,0.18c0.01,0.06,0.01,0.12,0.01,0.18c0.65-1.14,1.24-2.29,1.77-3.44
				C137.42,250.98,137.78,249.75,137.98,248.45z M137.81,266.34c-0.22,0.18-0.38,0.33-0.5,0.43s-0.2,0.2-0.26,0.29
				c-0.05,0.08-0.08,0.16-0.08,0.23c0,0.07,0.02,0.16,0.05,0.27c0.18-0.15,0.33-0.31,0.44-0.49
				C137.57,266.89,137.69,266.65,137.81,266.34z"/>
			<path class="st0" d="M148.81,262.92l-0.6,0.81c-0.29,0.42-0.59,0.81-0.9,1.19c-0.31,0.38-0.64,0.74-1,1.09
				c-0.15,0.15-0.3,0.29-0.46,0.44c-0.16,0.15-0.33,0.27-0.52,0.38c-0.45,0.25-0.88,0.33-1.29,0.22c-0.41-0.11-0.69-0.37-0.86-0.79
				c-0.18-0.47-0.24-0.97-0.19-1.49c0.05-0.69,0.16-1.37,0.31-2.06c0.15-0.69,0.38-1.37,0.69-2.04c0.05-0.18,0.17-0.36,0.35-0.54
				c0.05-0.09,0.13-0.12,0.24-0.08c0.04,0.02,0.07,0.04,0.11,0.07c0.04,0.03,0.05,0.06,0.05,0.09c0.02,0.11,0.02,0.22,0.01,0.33
				c-0.01,0.11-0.02,0.21-0.04,0.3c-0.09,0.45-0.18,0.9-0.26,1.34c-0.08,0.44-0.16,0.89-0.23,1.34c-0.15,0.69-0.15,1.32-0.03,1.9
				c0.02,0.07,0.05,0.15,0.09,0.22c0.05,0.07,0.09,0.14,0.12,0.19c0.18,0.02,0.32-0.01,0.41-0.1c0.09-0.08,0.18-0.17,0.27-0.26
				c0.31-0.29,0.6-0.59,0.87-0.91c0.27-0.32,0.52-0.65,0.76-0.99l2.42-3.45c0.07-0.09,0.14-0.18,0.19-0.27
				c0.05-0.09,0.13-0.18,0.22-0.27c0.22-0.22,0.45-0.3,0.71-0.24c0.33,0.05,0.49,0.23,0.49,0.54c0,0.2-0.01,0.41-0.01,0.62
				c-0.01,0.22-0.02,0.42-0.04,0.62c-0.07,0.6-0.15,1.2-0.22,1.81c-0.07,0.61-0.15,1.21-0.24,1.8l-0.08,0.87
				c0.14,0.04,0.25,0.02,0.31-0.05c0.06-0.07,0.13-0.15,0.2-0.22c0.52-0.56,0.99-1.04,1.41-1.45c0.42-0.41,0.82-0.79,1.21-1.15
				c0.39-0.36,0.78-0.72,1.18-1.07c0.4-0.35,0.84-0.76,1.33-1.21c0.25-0.22,0.42-0.25,0.49-0.11c0.07,0.15,0.04,0.31-0.11,0.49
				c-0.54,0.62-1.05,1.17-1.51,1.67c-0.46,0.5-0.91,0.99-1.36,1.47c-0.44,0.48-0.9,0.96-1.36,1.45c-0.46,0.49-0.97,1.02-1.53,1.6
				c-0.23,0.23-0.4,0.48-0.5,0.73c-0.1,0.25-0.17,0.53-0.2,0.84c-0.09,0.91-0.2,1.81-0.33,2.7c-0.13,0.9-0.29,1.8-0.49,2.7
				c-0.15,0.74-0.33,1.47-0.56,2.19s-0.52,1.42-0.88,2.1c-0.2,0.42-0.43,0.82-0.69,1.22c-0.26,0.4-0.57,0.76-0.94,1.09
				c-0.25,0.23-0.52,0.44-0.79,0.62c-0.29,0.16-0.58,0.26-0.87,0.29c-0.29,0.03-0.56-0.01-0.8-0.11c-0.24-0.1-0.45-0.25-0.62-0.46
				c-0.17-0.21-0.28-0.47-0.31-0.77c-0.02-0.38,0-0.8,0.05-1.25c0.07-0.65,0.21-1.29,0.41-1.93c0.2-0.63,0.42-1.26,0.68-1.87
				c0.74-1.7,1.67-3.28,2.8-4.72c0.29-0.36,0.58-0.73,0.88-1.1c0.3-0.37,0.59-0.74,0.88-1.1c0.07-0.09,0.14-0.19,0.2-0.31
				s0.1-0.23,0.12-0.34c0.09-0.76,0.18-1.52,0.26-2.28c0.08-0.76,0.17-1.53,0.26-2.31c-0.04,0-0.07,0-0.09-0.01
				S148.85,262.92,148.81,262.92z M148.13,269.82l-0.24,0.24c-0.52,0.63-1.01,1.27-1.47,1.91c-0.45,0.64-0.87,1.31-1.25,2
				c-0.4,0.71-0.75,1.43-1.04,2.16c-0.3,0.73-0.52,1.49-0.67,2.27c-0.05,0.22-0.08,0.44-0.08,0.67c0,0.23-0.01,0.45-0.03,0.66
				c0,0.31,0.14,0.51,0.41,0.61c0.27,0.1,0.54,0.05,0.81-0.15c0.6-0.45,1.05-0.95,1.36-1.49c0.18-0.31,0.35-0.62,0.52-0.95
				c0.16-0.33,0.31-0.65,0.44-0.98c0.4-1.11,0.7-2.21,0.9-3.33c0.2-1.11,0.35-2.24,0.46-3.38
				C148.26,270.04,148.22,269.96,148.13,269.82z"/>
		</g>
	</g>
</g>
</svg>
