<svg width="36" height="45" viewBox="0 0 36 45" fill="none" xmlns="http://www.w3.org/2000/svg">
<path d="M18.8659 1.00745C19.356 1.07233 19.8483 1.12019 20.3342 1.20421C25.0772 2.02958 28.8739 4.38442 31.5968 8.34745C33.7903 11.5383 34.7578 15.112 34.4484 18.9921C34.0922 23.4593 32.2156 27.1819 28.9026 30.1877C28.8134 30.2638 28.7433 30.3599 28.6982 30.4682C28.6532 30.5766 28.6343 30.694 28.6432 30.811C28.6496 34.9718 28.6496 39.1327 28.6432 43.2936C28.6432 44.3317 28.2509 44.6295 27.2291 44.3742C24.1812 43.6126 21.1334 42.8539 18.0855 42.0981C17.8688 42.0465 17.643 42.0465 17.4263 42.0981C14.3075 42.8646 11.1887 43.6378 8.06995 44.4178C7.30762 44.6071 6.86746 44.2561 6.8664 43.4605C6.8664 39.2437 6.8664 35.0247 6.8664 30.8035C6.87543 30.6866 6.85674 30.5693 6.81185 30.4609C6.76695 30.3526 6.69711 30.2565 6.60803 30.1803C3.44921 27.334 1.5822 23.7986 1.11119 19.5771C0.634873 15.312 1.69277 11.4117 4.20941 7.92626C6.35923 4.94814 9.20653 2.90387 12.7035 1.79984C13.8549 1.43502 15.0808 1.30951 16.2727 1.07445L16.6437 1L18.8659 1.00745ZM17.7484 2.69008C9.42024 2.70604 2.66243 9.48126 2.6922 17.7849C2.72304 26.0651 9.47446 32.7819 17.7665 32.7755C26.0585 32.7691 32.8185 26.0322 32.8259 17.7668C32.8334 9.45041 26.0564 2.67307 17.7484 2.69008ZM23.6238 33.4073C21.0827 34.2816 18.5331 34.656 15.8952 34.3422C13.2918 34.0368 10.7921 33.1424 8.58562 31.7268V42.548C8.71852 42.5235 8.81633 42.5107 8.90458 42.4863C11.72 41.7875 14.5333 41.0823 17.3497 40.3941C17.6093 40.334 17.8791 40.334 18.1386 40.3941C20.1736 40.8855 22.2044 41.3982 24.2362 41.9034C25.124 42.1247 26.0128 42.3438 26.9219 42.5692V31.7438C26.4647 32.0044 26.0575 32.2586 25.629 32.4713C24.9855 32.8319 24.3163 33.1448 23.627 33.4073H23.6238Z" fill="white" stroke="#231F20"/>
<path d="M17.7653 4.3238C25.1398 4.33124 31.2097 10.3598 31.1831 17.7253C31.1847 19.4901 30.8375 21.2377 30.1616 22.8678C29.4856 24.4978 28.4942 25.9782 27.2444 27.2236C25.9946 28.469 24.511 29.455 22.879 30.1249C21.2469 30.7948 19.4986 31.1353 17.7345 31.1269C10.3186 31.1269 4.30074 25.0526 4.32945 17.7136C4.35815 10.3375 10.3994 4.31635 17.7653 4.3238ZM29.5054 17.7253C29.4958 11.2628 24.2361 6.01282 17.7643 6.00856C11.2925 6.00431 5.98701 11.299 6.01465 17.7583C6.0423 24.2176 11.3201 29.4751 17.7781 29.4581C24.2361 29.4411 29.515 24.1708 29.5054 17.7232V17.7253Z" fill="white" stroke="#231F20"/>
<path d="M12.8249 23.8921C12.9982 22.8732 13.1439 21.7649 13.3895 20.6757C13.5383 20.0216 13.4309 19.5823 12.9057 19.1356C12.1093 18.4581 11.3959 17.6838 10.6389 16.9584C10.3518 16.6829 10.1807 16.3734 10.3125 15.9746C10.4443 15.5757 10.7771 15.4321 11.1631 15.3758C12.3677 15.2034 13.5723 15.0173 14.778 14.8631C14.8949 14.8561 15.0073 14.8154 15.1016 14.746C15.196 14.6765 15.2682 14.5813 15.3096 14.4717C15.8306 13.3889 16.3728 12.3168 16.9045 11.2372C17.082 10.8724 17.3042 10.5852 17.755 10.5842C18.2058 10.5831 18.4312 10.8671 18.6056 11.2319C19.1372 12.3115 19.6763 13.3836 20.2004 14.4664C20.3163 14.7057 20.4482 14.8269 20.732 14.8631C21.9399 15.0163 23.1434 15.2024 24.347 15.3758C24.734 15.4311 25.0678 15.5704 25.1976 15.9703C25.339 16.3894 25.1433 16.7 24.8467 16.985C23.978 17.8189 23.1253 18.6687 22.2514 19.4973C22.0387 19.6972 21.992 19.8834 22.0451 20.1663C22.2673 21.3469 22.463 22.5328 22.666 23.7166C22.7309 24.0963 22.716 24.4611 22.3683 24.7132C22.0207 24.9653 21.657 24.8962 21.2934 24.7026C20.2196 24.1304 19.1361 23.5752 18.0644 23.0008C17.9717 22.9412 17.8637 22.9095 17.7534 22.9095C17.6432 22.9095 17.5352 22.9412 17.4424 23.0008C16.3346 23.5986 15.2203 24.1878 14.0986 24.759C13.4256 25.1014 12.8004 24.71 12.8249 23.8921ZM14.7599 22.5222C15.618 22.0723 16.4016 21.6787 17.166 21.2543C17.3465 21.1424 17.5548 21.0836 17.7671 21.0848C17.9794 21.0859 18.1871 21.1469 18.3664 21.2607C19.1308 21.6862 19.9134 22.0776 20.7597 22.5211C20.6161 21.6755 20.5205 20.8927 20.3418 20.129C20.1866 19.4611 20.3418 18.9772 20.8586 18.5134C21.4423 17.9891 21.943 17.3722 22.4747 16.8021C21.6411 16.6797 20.7501 16.5404 19.857 16.4223C19.6664 16.405 19.4842 16.3357 19.3301 16.2221C19.1761 16.1085 19.056 15.9548 18.983 15.7778C18.7204 15.2141 18.4387 14.6599 18.1622 14.1026C18.041 13.859 17.9124 13.6187 17.754 13.3102C17.3489 14.1303 16.9555 14.8514 16.6333 15.6012C16.3888 16.1692 15.9954 16.4075 15.4 16.4681C14.592 16.55 13.7903 16.6946 13.0684 16.7999C13.6542 17.4307 14.2379 18.0837 14.8493 18.707C15.1682 19.0261 15.3139 19.3452 15.2246 19.8057C15.0545 20.6779 14.9226 21.5575 14.7599 22.5222Z" fill="white" stroke="#231F20"/>
</svg>
