<svg xmlns="http://www.w3.org/2000/svg" xmlns:xlink="http://www.w3.org/1999/xlink" width="80" zoomAndPan="magnify" viewBox="0 0 60 60" height="80" preserveAspectRatio="xMidYMid meet" version="1.0"><defs><clipPath id="54730df7de"><path d="M 1 1.5 L 59.996094 1.5 L 59.996094 56 L 1 56 Z M 1 1.5 " clip-rule="nonzero"/></clipPath></defs><g clip-path="url(#54730df7de)"><path fill="#ffffff" d="M 31.238281 41.78125 C 36.953125 41.78125 41.585938 37.171875 41.585938 31.484375 C 41.585938 25.800781 36.953125 21.191406 31.238281 21.191406 C 25.527344 21.191406 20.894531 25.800781 20.894531 31.484375 C 20.894531 37.171875 25.527344 41.78125 31.238281 41.78125 Z M 3.527344 37.523438 C 5.277344 36.773438 7.265625 37.410156 8.222656 39.089844 L 18.429688 34.710938 C 18.167969 33.679688 18.027344 32.597656 18.027344 31.484375 C 18.027344 28.21875 19.226562 25.234375 21.207031 22.933594 L 15.917969 17.671875 C 14.460938 18.785156 12.363281 18.679688 11.03125 17.351562 C 9.582031 15.90625 9.582031 13.566406 11.03125 12.125 C 12.484375 10.679688 14.835938 10.679688 16.285156 12.125 C 17.632812 13.464844 17.730469 15.582031 16.570312 17.03125 L 21.785156 22.261719 C 24.074219 19.949219 27.398438 18.476562 30.667969 18.351562 L 30.667969 8.859375 C 28.96875 8.621094 27.484375 7.074219 27.484375 5.195312 C 27.484375 3.15625 29.167969 1.5 31.21875 1.5 C 33.269531 1.5 34.96875 3.15625 34.96875 5.195312 C 34.96875 7.09375 33.480469 8.65625 31.714844 8.867188 L 31.714844 18.347656 C 38.582031 18.566406 44.171875 24.015625 44.441406 30.976562 L 52.574219 30.976562 C 52.816406 29.285156 54.371094 27.785156 56.257812 27.785156 C 58.308594 27.785156 59.972656 29.449219 59.972656 31.492188 C 59.972656 33.53125 58.308594 35.171875 56.257812 35.171875 C 54.351562 35.171875 52.78125 33.710938 52.566406 31.886719 L 44.445312 31.886719 C 44.320312 36.117188 42.191406 39.832031 38.96875 42.148438 L 42.773438 48.597656 C 44.40625 47.9375 46.449219 48.550781 47.390625 50.175781 C 48.414062 51.945312 47.796875 54.210938 46.019531 55.230469 C 44.242188 56.25 41.984375 55.636719 40.957031 53.867188 C 40.003906 52.226562 40.414062 50.1875 41.976562 49.046875 L 38.207031 42.65625 C 36.183594 43.90625 33.796875 44.628906 31.238281 44.628906 C 25.386719 44.628906 20.421875 40.839844 18.6875 35.59375 L 8.578125 39.929688 C 9.050781 41.617188 8.199219 43.566406 6.46875 44.308594 C 4.582031 45.117188 2.394531 44.242188 1.582031 42.367188 C 0.769531 40.492188 1.644531 38.332031 3.527344 37.523438 " fill-opacity="1" fill-rule="nonzero"/></g><path fill="#ffffff" d="M 22.636719 34.628906 C 23.621094 37.355469 25.964844 39.464844 28.746094 40.257812 C 31.617188 41.078125 34.789062 40.394531 37.085938 38.507812 C 39.382812 36.617188 40.585938 33.703125 40.375 30.757812 C 40.164062 27.84375 38.453125 25.183594 35.964844 23.671875 C 34.542969 22.8125 32.898438 22.378906 31.238281 22.371094 C 28.28125 22.382812 25.480469 23.8125 23.765625 26.214844 C 22.019531 28.648438 21.625 31.828125 22.636719 34.628906 Z M 31.238281 21.71875 C 34.1875 21.734375 37.007812 23.0625 38.867188 25.339844 C 40.753906 27.652344 41.449219 30.726562 40.820312 33.625 C 40.203125 36.445312 38.257812 38.882812 35.6875 40.191406 C 33.019531 41.554688 29.820312 41.574219 27.101562 40.34375 C 24.46875 39.148438 22.488281 36.742188 21.742188 33.96875 C 20.976562 31.105469 21.613281 27.96875 23.402344 25.609375 C 25.25 23.171875 28.175781 21.734375 31.238281 21.71875 " fill-opacity="1" fill-rule="nonzero"/></svg>