<svg xmlns="http://www.w3.org/2000/svg" xmlns:xlink="http://www.w3.org/1999/xlink" width="80" zoomAndPan="magnify" viewBox="0 0 60 60" height="80" preserveAspectRatio="xMidYMid meet" version="1.0"><defs><clipPath id="54181f5209"><path d="M 0.769531 1.5 L 60 1.5 L 60 56 L 0.769531 56 Z M 0.769531 1.5 " clip-rule="nonzero"/></clipPath></defs><g clip-path="url(#54181f5209)"><path fill="#004aad" d="M 29.527344 41.78125 C 23.8125 41.78125 19.179688 37.171875 19.179688 31.484375 C 19.179688 25.800781 23.8125 21.191406 29.527344 21.191406 C 35.242188 21.191406 39.871094 25.800781 39.871094 31.484375 C 39.871094 37.171875 35.242188 41.78125 29.527344 41.78125 Z M 57.238281 37.523438 C 55.488281 36.773438 53.5 37.410156 52.542969 39.089844 L 42.339844 34.710938 C 42.601562 33.679688 42.738281 32.597656 42.738281 31.484375 C 42.738281 28.21875 41.542969 25.234375 39.5625 22.933594 L 44.851562 17.671875 C 46.308594 18.785156 48.402344 18.679688 49.734375 17.351562 C 51.1875 15.90625 51.1875 13.566406 49.734375 12.125 C 48.285156 10.679688 45.929688 10.679688 44.480469 12.125 C 43.132812 13.464844 43.039062 15.582031 44.195312 17.03125 L 38.980469 22.261719 C 36.691406 19.949219 33.367188 18.476562 30.097656 18.351562 L 30.097656 8.859375 C 31.800781 8.621094 33.28125 7.074219 33.28125 5.195312 C 33.28125 3.15625 31.597656 1.5 29.546875 1.5 C 27.496094 1.5 25.796875 3.15625 25.796875 5.195312 C 25.796875 7.09375 27.285156 8.65625 29.050781 8.867188 L 29.050781 18.347656 C 22.183594 18.566406 16.59375 24.015625 16.324219 30.976562 L 8.191406 30.976562 C 7.953125 29.285156 6.394531 27.785156 4.507812 27.785156 C 2.457031 27.785156 0.792969 29.449219 0.792969 31.492188 C 0.792969 33.53125 2.457031 35.171875 4.507812 35.171875 C 6.417969 35.171875 7.988281 33.710938 8.199219 31.886719 L 16.320312 31.886719 C 16.445312 36.117188 18.574219 39.832031 21.796875 42.148438 L 17.992188 48.597656 C 16.363281 47.9375 14.320312 48.550781 13.375 50.175781 C 12.351562 51.945312 12.96875 54.210938 14.746094 55.230469 C 16.523438 56.25 18.78125 55.636719 19.808594 53.867188 C 20.761719 52.226562 20.351562 50.1875 18.789062 49.046875 L 22.558594 42.65625 C 24.582031 43.90625 26.96875 44.628906 29.527344 44.628906 C 35.382812 44.628906 40.347656 40.839844 42.082031 35.59375 L 52.1875 39.929688 C 51.71875 41.617188 52.566406 43.566406 54.300781 44.308594 C 56.183594 45.117188 58.375 44.242188 59.1875 42.367188 C 60 40.492188 59.125 38.332031 57.238281 37.523438 " fill-opacity="1" fill-rule="nonzero"/></g><path fill="#004aad" d="M 38.128906 34.628906 C 37.148438 37.355469 34.800781 39.464844 32.019531 40.257812 C 29.148438 41.078125 25.976562 40.394531 23.679688 38.507812 C 21.382812 36.617188 20.179688 33.703125 20.394531 30.757812 C 20.601562 27.84375 22.3125 25.183594 24.804688 23.671875 C 26.222656 22.8125 27.867188 22.378906 29.527344 22.371094 C 32.484375 22.382812 35.285156 23.8125 37.003906 26.214844 C 38.746094 28.648438 39.140625 31.828125 38.128906 34.628906 Z M 29.527344 21.71875 C 26.578125 21.734375 23.761719 23.0625 21.898438 25.339844 C 20.011719 27.652344 19.316406 30.726562 19.949219 33.625 C 20.5625 36.445312 22.507812 38.882812 25.078125 40.191406 C 27.746094 41.554688 30.945312 41.574219 33.664062 40.34375 C 36.300781 39.148438 38.277344 36.742188 39.023438 33.96875 C 39.789062 31.105469 39.152344 27.96875 37.363281 25.609375 C 35.515625 23.171875 32.589844 21.734375 29.527344 21.71875 " fill-opacity="1" fill-rule="nonzero"/></svg>