<?xml version="1.0" encoding="utf-8"?>
<!-- Generator: Adobe Illustrator 26.5.0, SVG Export Plug-In . SVG Version: 6.00 Build 0)  -->
<svg version="1.1" id="Capa_1" xmlns="http://www.w3.org/2000/svg" xmlns:xlink="http://www.w3.org/1999/xlink" x="0px" y="0px"
	 viewBox="0 0 563.16 354.22" style="enable-background:new 0 0 563.16 354.22;" xml:space="preserve">
<style type="text/css">
	.st0{fill:#A2A651;}
	.st1{fill:#FFFFFF;}
</style>
<g>
	<g>
		<path class="st0" d="M250.29,28.79c1.62,5.57,5.35,8.61,9.64,11.19c6.07,3.66,12.83,6.15,18.21,10.99
			c8.74,7.87,10.67,16.14,6.13,26.98c-0.51,1.22-1.08,2.41-1.69,3.58c-2.86,5.55-3.39,5.74-9.48,3.71
			c-12.72-4.23-18.74-13.91-21.47-26.29c-0.22-1,0.12-2.2-1.05-2.9c-1.75,11.48,3.9,25.64,24.02,38
			C252.3,90.77,228.48,60.26,250.29,28.79L250.29,28.79z"/>
		<path class="st0" d="M297.59,92.9c7.74-12.41,12.37-25.38,8.62-40.02c-1.97-7.68-6.23-14.13-12.21-19.36
			c11.35,19.03,6.88,38.68-1.59,49.94c1.32-5.28,3.07-9.85,2.2-14.88c-1.74-10.11-8.64-16.31-16.33-21.81
			c-4.51-3.23-9.37-6.03-14.3-8.58c-3.1-1.6-3.09-2.95-1.08-5.4c2.85-3.47,5.12-7.35,7.02-11.43c2.39-5.14,3.94-10.48,2.84-16.21
			c-0.36-1.9-0.05-2.52,1.96-2.02c21.57,5.39,39.02,16.24,47.08,37.95C327.19,55.66,324.19,80.6,297.59,92.9L297.59,92.9z"/>
	</g>
	<g>
		<g>
			<path class="st1" d="M465.95,323.32c-0.26-0.43-0.62-0.41-1.08,0.07c-0.38,0.51-0.97,1.33-1.76,2.43
				c-0.79,1.12-1.69,2.28-2.71,3.5c-1.04,1.23-2.1,2.4-3.24,3.53c-1.12,1.13-2.22,1.99-3.29,2.55c-1.07,0.56-2.02,0.72-2.88,0.51
				c-0.85-0.21-1.51-1.07-1.97-2.56c-0.13-0.35-0.23-0.67-0.3-1c-0.07-0.31-0.13-0.66-0.21-1c-0.21-0.89-0.21-1.76,0.03-2.6
				c0.23-0.84,0.71-1.66,1.43-2.47c0.56-0.61,1.05-1.23,1.5-1.91c0.46-0.66,0.87-1.35,1.25-2.09c0.3-0.43,0.53-0.85,0.67-1.32
				c0.15-0.44,0.31-0.9,0.48-1.38c0.13-0.46,0.12-0.89-0.03-1.28c-0.15-0.38-0.39-0.71-0.72-0.95c-0.74-0.48-1.55-0.44-2.43,0.12
				l-1.99,1.55c-1.18-1.12-2.48-1.78-3.86-1.99c-1.38-0.21-2.93,0.05-4.64,0.77c-1.36,0.72-2.61,1.76-3.76,3.07
				c-1.15,1.33-2.12,2.79-2.91,4.41c-0.76,1.53-1.28,3.12-1.61,4.77c-0.49,0.71-1,1.38-1.51,2.04c-1.13,1.45-2.28,2.7-3.45,3.76
				c-1.18,1.07-2.3,1.74-3.35,1.99c-0.13-0.25-0.25-0.49-0.36-0.71c-0.1-0.21-0.2-0.43-0.28-0.64c-0.13-0.77-0.21-1.55-0.23-2.32
				c-0.02-0.76,0.03-1.56,0.16-2.37c0.25-1.71,0.51-3.42,0.76-5.11c0.26-1.69,0.49-3.39,0.71-5.11c0.26-1.53,0.87-2.94,1.86-4.22
				c2.55-3.44,4.64-6.82,6.26-10.16c1.61-3.34,2.89-6.94,3.83-10.8c0.13-0.54,0.2-1.1,0.23-1.63c0.02-0.54,0.03-1.07,0.03-1.58
				c-0.1-0.51-0.28-0.97-0.54-1.38c-0.28-0.41-0.74-0.67-1.38-0.81c-0.72-0.08-1.32,0.02-1.76,0.33c-0.44,0.3-0.85,0.67-1.25,1.15
				c-1.58,1.89-2.91,3.83-4.03,5.85c-1.1,2.01-2.04,4.08-2.81,6.2c-0.76,2.12-1.43,4.31-1.97,6.56c-0.56,2.24-1.07,4.57-1.53,6.95
				c-0.1,0.35-0.15,0.72-0.16,1.13c-0.03,0.41-0.26,0.77-0.74,1.12c-0.16,0-0.36,0.02-0.58,0.03c-0.21,0.03-0.43,0.03-0.64,0.03
				c-0.81,0-1.55,0.13-2.24,0.39c-0.67,0.25-1.32,0.61-1.91,1.08c-2.02,1.61-3.47,3.32-4.36,5.15c-0.69,0.62-1.38,1.25-2.1,1.89
				c-1.15,1-2.28,1.96-3.42,2.83c-1.13,0.87-2.1,1.53-2.91,1.96c-1.58,1.17-2.78,1.46-3.62,0.9c-0.82-0.56-1-2.02-0.54-4.37
				l1.35-6.74c0.08-0.48,0.16-0.94,0.25-1.38c0.1-0.46,0.18-0.92,0.26-1.38c0-0.39-0.13-0.69-0.38-0.9
				c-0.21-0.13-0.48-0.12-0.77,0.03c-0.3,0.15-0.61,0.36-0.92,0.61c-0.33,0.26-0.61,0.53-0.87,0.81c-0.25,0.28-0.43,0.51-0.51,0.67
				c-0.38,0.9-0.77,2.07-1.15,3.53c-0.15,0.59-0.3,1.2-0.41,1.81c-0.05,0.07-0.08,0.13-0.13,0.21c-1.04,1.64-2.14,3.19-3.25,4.62
				c-1.13,1.45-2.28,2.7-3.45,3.76c-1.17,1.07-2.28,1.74-3.35,1.99c-0.13-0.25-0.25-0.49-0.36-0.71c-0.1-0.21-0.2-0.43-0.28-0.64
				c-0.13-0.77-0.2-1.55-0.23-2.32c-0.02-0.76,0.03-1.56,0.16-2.37c0.26-1.71,0.51-3.42,0.77-5.11c0.25-1.69,0.48-3.39,0.69-5.11
				c0.26-1.53,0.89-2.94,1.86-4.22c2.56-3.44,4.65-6.82,6.26-10.16c1.63-3.34,2.89-6.94,3.83-10.8c0.13-0.54,0.21-1.1,0.23-1.63
				c0.02-0.54,0.03-1.07,0.03-1.58c-0.08-0.51-0.26-0.97-0.54-1.38c-0.28-0.41-0.74-0.67-1.38-0.81c-0.72-0.08-1.3,0.02-1.76,0.33
				c-0.44,0.3-0.85,0.67-1.23,1.15c-1.58,1.89-2.93,3.83-4.03,5.85c-1.12,2.01-2.05,4.08-2.81,6.2c-0.77,2.12-1.43,4.31-1.99,6.56
				c-0.56,2.24-1.07,4.57-1.53,6.95c-0.08,0.35-0.15,0.72-0.16,1.13c-0.02,0.41-0.26,0.77-0.74,1.12c-0.16,0-0.36,0.02-0.58,0.03
				c-0.21,0.03-0.43,0.03-0.62,0.03c-0.82,0-1.56,0.13-2.25,0.39c-0.67,0.25-1.32,0.61-1.91,1.08c-2.27,1.81-3.81,3.73-4.67,5.82
				c-0.59,1.43-0.89,2.94-0.9,4.54c-0.64,1.05-1.3,2.04-2.01,2.94c-0.95,1.25-1.99,2.12-3.09,2.63c-0.64-0.85-1-1.87-1.05-3.07
				c-0.07-1.2-0.07-2.47,0-3.8c0.05-1.33,0.08-2.66,0.08-4.01s-0.21-2.6-0.64-3.76c-0.46-1.2-1.15-1.91-2.07-2.12
				c-0.92-0.21-1.92,0.1-3.04,0.9c-0.94,0.59-1.76,1.35-2.48,2.25c-0.72,0.89-1.4,1.84-2.02,2.83c-0.61,0.99-1.18,1.96-1.73,2.93
				c-0.53,0.95-1.07,1.78-1.63,2.47c-0.03-0.69,0.03-1.38,0.2-2.09c0.16-0.71,0.38-1.43,0.61-2.15c0.23-0.72,0.48-1.46,0.74-2.22
				c0.25-0.74,0.44-1.53,0.58-2.33c0.16-0.48,0.23-0.92,0.18-1.33c-0.03-0.39-0.15-0.72-0.35-0.95c-0.2-0.23-0.44-0.35-0.77-0.33
				c-0.31,0.03-0.69,0.25-1.12,0.67c-0.59,0.61-1.04,1.2-1.33,1.81c-0.18,0.43-0.33,0.84-0.46,1.25c0,0.03-0.02,0.07-0.02,0.1
				c-0.89,0.72-1.79,1.46-2.76,2.19c-1.64,1.23-3.44,2.22-5.39,2.94l1.73-3.78c0.3-0.61,0.49-1.22,0.61-1.86
				c0.1-0.64,0.18-1.3,0.21-1.94c0.08-0.85-0.12-1.64-0.61-2.37c-0.49-0.74-1.13-1.32-1.94-1.74c-0.82-0.43-1.73-0.64-2.73-0.67
				c-0.99-0.02-1.94,0.28-2.84,0.87c-0.3,0.21-0.59,0.43-0.92,0.64c-0.31,0.21-0.62,0.44-0.92,0.71c-0.99,1.04-2.15,1.84-3.52,2.43
				c-0.3,0.13-0.59,0.35-0.89,0.66c-1.46,1.41-2.6,2.94-3.44,4.59c-0.03,0.07-0.05,0.13-0.08,0.21c-0.31,0.26-0.59,0.53-0.9,0.79
				c-1.23,1.07-2.45,2.09-3.67,3.04c-1.22,0.97-2.25,1.78-3.11,2.42c-0.64,0.46-1.4,0.92-2.27,1.35c-0.87,0.43-1.74,0.72-2.61,0.9
				c-0.87,0.16-1.69,0.15-2.47-0.07c-0.77-0.21-1.38-0.74-1.86-1.55c-0.72-1.55-0.87-3.25-0.44-5.15c0.43-1.87,1.1-3.63,2.05-5.26
				c0.25-0.48,0.58-0.97,0.95-1.48c0.38-0.51,0.81-0.97,1.28-1.35c0.46-0.39,0.97-0.67,1.5-0.84c0.53-0.16,1.12-0.13,1.76,0.13
				c-0.38,0.77-0.74,1.48-1.08,2.12c-0.35,0.64-0.64,1.28-0.9,1.92c-0.43,0.99-0.39,1.91,0.07,2.76c0.21,0.61,0.59,0.97,1.12,1.1
				c0.54,0.12,1.08-0.05,1.63-0.53c0.43-0.3,0.76-0.64,0.97-1.02c0.33-0.51,0.66-1.04,0.95-1.58c0.3-0.54,0.56-1.1,0.77-1.71
				c0.21-0.54,0.43-1.02,0.66-1.41c0.25-0.38,0.58-0.74,1-1.08c0.46-0.43,0.67-0.84,0.64-1.25c-0.05-0.41-0.36-0.71-0.97-0.87
				c-0.33-0.08-0.59-0.13-0.76-0.13c-0.43,0.1-0.77,0.08-1.02-0.03c-0.26-0.1-0.53-0.28-0.77-0.54c-0.51-0.51-1.08-0.81-1.73-0.9
				c-0.64-0.08-1.3,0-1.99,0.26c-1.45,0.43-2.73,1.17-3.83,2.22c-0.08,0.08-0.16,0.16-0.25,0.26c-1.61,0.84-3.16,1.71-4.67,2.6
				c-1.55,0.89-2.99,1.97-4.36,3.21c-0.21,0.18-0.39,0.33-0.58,0.48c-0.16,0.16-0.33,0.28-0.51,0.36l-3.39-1.99
				c-0.46-0.3-0.9-0.61-1.3-0.9c-0.41-0.3-0.82-0.62-1.25-0.97c-0.56-0.46-0.76-0.99-0.61-1.56c0.15-0.59,0.58-1.04,1.32-1.38
				c0.62-0.35,1.3-0.44,2.01-0.3c0.71,0.15,1.32,0.46,1.82,0.94c0.16,0.21,0.31,0.43,0.41,0.67c0.12,0.23,0.35,0.38,0.74,0.41
				c0.46-0.38,0.66-0.92,0.58-1.59c-0.08-0.31-0.18-0.61-0.3-0.9c-0.1-0.3-0.26-0.56-0.48-0.77c-1.23-1.55-2.91-2.02-5.05-1.41
				c-1.02,0.35-1.89,0.84-2.58,1.48c-0.71,0.64-1.18,1.45-1.45,2.43c-0.46,2.05,0.2,3.6,1.99,4.64c0.59,0.35,1.13,0.67,1.63,0.99
				c0.48,0.33,1,0.66,1.56,1c0.38,0.3,0.77,0.58,1.15,0.84c0.05,0.03,0.1,0.07,0.13,0.1c-3.68,1.58-7.36,3.21-11.05,4.9
				c-4.34,2.01-8.76,4.42-13.25,7.25c0.05-2.68,0.03-5.39-0.02-8.12c-0.07-2.73-0.15-5.54-0.28-8.42c1.58-1.17,3.04-2.19,4.41-3.04
				c1.36-0.84,2.66-1.58,3.86-2.22c1.2-0.64,2.32-1.22,3.35-1.76c1.04-0.54,1.99-1.15,2.86-1.81c0.31-0.18,0.59-0.44,0.84-0.77
				c0.23-0.33,0.2-0.82-0.08-1.5c-1.02,0-2.14,0.18-3.34,0.54c-1.2,0.35-2.45,0.84-3.75,1.45c-1.3,0.61-2.63,1.28-3.99,2.01
				c-1.35,0.74-2.71,1.45-4.04,2.15c0.03-1.59,0.07-3.32,0.1-5.18c0.02-1.87,0.03-3.73,0.07-5.59c0.02-1.86,0.03-3.7,0.07-5.51
				c0.03-1.82,0.05-3.5,0.07-5.06c0.74-0.56,1.97-1.05,3.67-1.48c1.71-0.43,3.55-0.76,5.54-1.02c2.01-0.26,3.98-0.44,5.92-0.58
				c1.96-0.12,3.57-0.15,4.8-0.1c0.54,0,1.07-0.03,1.61-0.12c0.54-0.07,0.94-0.44,1.18-1.15c-0.05-0.3-0.25-0.51-0.58-0.64
				c-0.35-0.15-0.74-0.26-1.2-0.36c-0.44-0.08-0.92-0.16-1.43-0.2c-0.49-0.05-0.87-0.1-1.15-0.15c-1.48-0.15-3.01-0.18-4.6-0.12
				c-1.58,0.08-3.16,0.21-4.75,0.39c-1.58,0.2-3.12,0.43-4.64,0.71c-1.5,0.28-2.91,0.56-4.24,0.85c-0.07-0.71-0.12-1.4-0.18-2.07
				c-0.31-1.78-2.28-2.24-2.78,0.35c-0.03,0.31-0.07,0.62-0.1,0.94c-0.08,0.81-0.71,8.56-0.72,10.14c-0.03,1.58-0.07,3.19-0.13,4.85
				c-0.05,1.64-0.12,3.27-0.18,4.9c-0.05,1.61-0.58,8.55-0.58,8.83c-0.31,0.3-3.21,2.37-3.48,2.66c-0.28,0.28-0.62,0.71-1.02,1.27
				c-0.1,0.2-0.15,0.44-0.13,0.77c0,0.35,0.07,0.62,0.2,0.85c0.08,0.23,0.26,0.43,0.53,0.56c0.28,0.15,0.51,0.21,0.74,0.21
				c0.48-0.05,1.04-0.2,1.64-0.46c0.62-0.25,1.22-0.43,1.78-0.53c0.26,2.6,0.38,5.29,0.36,8.09c-0.03,2.81-0.08,5.42-0.16,7.87
				c-0.33,0.67-0.9,1.35-1.71,2.05c-0.81,0.71-1.81,1.69-2.96,2.98c-0.3,0.33-0.49,0.69-0.59,1.08c-0.08,0.41,0.02,0.84,0.33,1.32
				c0.28,0.38,0.61,0.58,1,0.62c0.38,0.05,0.76-0.02,1.12-0.2c0.46-0.25,0.89-0.46,1.32-0.67c0.44-0.21,0.85-0.44,1.27-0.67
				l0.51,0.28c1.12,0.38,1.89,0.48,2.3,0.31c0.43-0.16,0.77-0.74,1.05-1.73c0.12-0.38,0.18-0.79,0.21-1.23
				c0.05-0.44,0.12-0.9,0.21-1.38c1.97-1.41,4.08-2.84,6.33-4.31c2.24-1.46,4.5-2.89,6.82-4.31c2.3-1.41,4.62-2.78,6.95-4.06
				c1.35-0.76,2.66-1.46,3.96-2.14c-0.16,0.33-0.31,0.66-0.46,0.95c-0.41,0.84-0.79,1.69-1.12,2.55c-0.3,0.67-0.46,1.36-0.48,2.02
				c-0.03,0.66,0.05,1.32,0.21,1.96c0.35,1.12,1.04,1.79,2.09,2.02c1.04,0.23,2.05-0.07,3.02-0.92c0.21-0.18,0.39-0.38,0.54-0.59
				c0.15-0.21,0.31-0.43,0.48-0.64c1.04-1.58,1.5-3.29,1.41-5.13c-0.08-1.55-0.48-3.09-1.15-4.64c0.56-0.46,1.08-0.92,1.59-1.38
				c0.51-0.44,1-0.85,1.48-1.25l3.07-2.4c-0.74,1.33-1.32,2.76-1.71,4.26c-0.39,1.55-0.62,3.02-0.67,4.44
				c-0.03,2.19,0.58,3.88,1.82,5.11c1.27,1.22,2.91,1.74,4.95,1.56c1.41-0.12,2.73-0.49,3.96-1.08c1.25-0.61,2.45-1.33,3.65-2.19
				c0.99-0.72,2.07-1.66,3.29-2.79c0.54-0.49,1.07-1,1.59-1.53c-0.03,0.44-0.05,0.9-0.02,1.36c0.03,1.59,0.56,2.86,1.59,3.8
				c1.02,0.94,2.35,1.41,4.03,1.41c0.51,0,1.02-0.08,1.53-0.23c0.51-0.15,1.02-0.33,1.53-0.54c1.45-0.81,2.71-1.78,3.78-2.89
				c0.38-0.35,0.76-0.64,1.15-0.9c0.38-0.25,0.84-0.44,1.4-0.58c0.38-0.13,0.77-0.28,1.15-0.44c0.38-0.16,0.74-0.35,1.08-0.51
				c2.14-1.07,4.06-2.28,5.79-3.63c0.3-0.23,0.59-0.49,0.87-0.74c-0.2,1.04-0.43,2.15-0.64,3.34c-0.35,1.81-0.54,3.44-0.58,4.88
				c-0.05,0.72,0.03,1.35,0.25,1.82c0.21,0.49,0.53,0.81,0.92,0.94c0.41,0.13,0.89,0.05,1.45-0.25c0.56-0.31,1.15-0.89,1.79-1.74
				c0.38-0.72,0.81-1.4,1.28-2.02c0.46-0.62,0.87-1.3,1.22-2.02c0.12-0.39,0.35-0.9,0.69-1.58c0.35-0.66,0.72-1.36,1.15-2.09
				c0.43-0.72,0.87-1.43,1.35-2.09c0.46-0.66,0.94-1.2,1.4-1.61c0.48-0.39,0.9-0.61,1.32-0.61c0.41,0,0.74,0.31,0.99,0.9
				c0.08,1.71,0.13,3.42,0.13,5.15c0,1.71,0.05,3.48,0.13,5.33c0.08,1.2,0.41,2.27,0.95,3.21c0.59,1.12,1.36,1.73,2.3,1.84
				c0.94,0.1,1.94-0.33,3.01-1.32c1.25-1.27,2.38-2.68,3.39-4.24c0.3,0.61,0.76,1.15,1.4,1.59c0.61,0.48,1.25,0.71,1.96,0.71
				s1.4-0.28,2.07-0.82c0.35-0.21,0.66-0.48,0.94-0.77c0.26-0.3,0.51-0.61,0.72-0.9c0.43-0.56,0.9-1.25,1.45-2.09
				c0.53-0.84,0.99-1.55,1.36-2.15c-0.21,1.15-0.26,2.38-0.15,3.67c0.1,1.28,0.36,2.4,0.76,3.37c0.41,0.97,0.99,1.64,1.73,2.05
				c0.76,0.41,1.68,0.36,2.78-0.16c1.15-0.56,2.33-1.43,3.55-2.63c1.22-1.2,2.38-2.56,3.48-4.08c0.48-0.64,0.9-1.3,1.35-1.96
				c-0.05,1-0.05,1.96,0.03,2.86c0.1,1.3,0.43,2.24,0.99,2.79c0.46,0.89,1.45,1.27,2.94,1.12c1.48-0.15,3.04-0.84,4.67-2.09
				c0.92-0.64,1.96-1.41,3.09-2.32c1.13-0.89,2.25-1.87,3.35-2.93c0.02,0,0.03-0.02,0.05-0.03c-0.16,1.2-0.16,2.45,0.02,3.73
				c0.16,1.07,0.74,1.96,1.73,2.63c0.59,0.48,1.25,0.71,1.96,0.71c0.69,0,1.38-0.28,2.07-0.82c0.35-0.21,0.64-0.48,0.92-0.77
				c0.28-0.3,0.53-0.61,0.74-0.9c0.43-0.56,0.9-1.25,1.45-2.09c0.53-0.84,0.99-1.55,1.36-2.15c-0.21,1.15-0.26,2.38-0.16,3.67
				c0.12,1.28,0.36,2.4,0.77,3.37c0.41,0.97,0.99,1.64,1.73,2.05c0.74,0.41,1.68,0.36,2.78-0.16c1.15-0.56,2.33-1.43,3.55-2.63
				c1.12-1.1,2.17-2.33,3.21-3.72c0.03,0.53,0.1,1.04,0.21,1.53c0.3,1.12,0.77,1.91,1.43,2.38c0.67,0.46,1.41,0.69,2.24,0.67
				c0.84-0.03,1.73-0.25,2.66-0.64c0.94-0.41,1.84-0.92,2.75-1.55c0.89-0.62,1.73-1.32,2.52-2.05c0.79-0.76,1.45-1.46,1.96-2.15
				c0.08,0.99,0.25,1.94,0.48,2.86c0.23,0.92,0.51,1.68,0.81,2.28c0.84,1.23,1.86,1.94,2.99,2.12c1.15,0.16,2.35-0.02,3.58-0.56
				c1.23-0.53,2.48-1.36,3.75-2.5c1.25-1.13,2.45-2.35,3.57-3.67c1.13-1.3,2.15-2.65,3.07-4.01c0.92-1.36,1.64-2.6,2.2-3.67
				C466.18,324.17,466.21,323.74,465.95,323.32z M429.21,303.36c1.27-3.22,2.66-6.51,4.14-9.86c0.05-0.08,0.13-0.15,0.26-0.21
				s0.31-0.2,0.58-0.41c0.08,1.36,0,2.63-0.26,3.81c-0.25,1.18-0.61,2.35-1.08,3.5c-0.46,1.41-0.92,2.65-1.36,3.7
				c-0.46,1.05-0.97,2.27-1.58,3.68c-0.38,0.87-0.79,1.71-1.23,2.55c-0.46,0.84-0.9,1.68-1.38,2.53c-0.05,0.08-0.13,0.2-0.26,0.33
				c-0.12,0.13-0.28,0.3-0.44,0.51C427.05,309.97,427.92,306.6,429.21,303.36z M390.35,303.36c1.28-3.22,2.66-6.51,4.16-9.86
				c0.03-0.08,0.12-0.15,0.25-0.21s0.33-0.2,0.58-0.41c0.08,1.36,0,2.63-0.25,3.81c-0.26,1.18-0.62,2.35-1.1,3.5
				c-0.46,1.41-0.92,2.65-1.36,3.7c-0.44,1.05-0.97,2.27-1.56,3.68c-0.39,0.87-0.81,1.71-1.25,2.55c-0.44,0.84-0.9,1.68-1.38,2.53
				c-0.03,0.08-0.13,0.2-0.25,0.33c-0.13,0.13-0.28,0.3-0.44,0.51C388.19,309.97,389.06,306.6,390.35,303.36z M299.41,334.97
				c-0.13,0.92-0.58,1.86-1.35,2.79c-0.08-0.21-0.16-0.38-0.25-0.51c-0.1-0.13-0.13-0.26-0.13-0.38c-0.05-0.87,0.07-1.69,0.35-2.48
				c0.28-0.79,0.74-1.66,1.38-2.6C299.54,333,299.54,334.05,299.41,334.97z M332.76,334.2c-0.59,0.38-1.17,0.56-1.73,0.56
				c-0.59,0.03-1.15-0.07-1.66-0.3s-0.89-0.66-1.15-1.25c-0.43-1.04-0.51-2.05-0.25-3.09c0.21-1.27,0.66-2.48,1.3-3.67
				c0.26-0.33,0.54-0.64,0.81-0.95c0.18-0.21,0.35-0.43,0.51-0.64c0.08,1.63,0.41,3.12,0.95,4.49c0.56,1.38,1.55,2.52,2.94,3.4
				C333.95,333.36,333.37,333.84,332.76,334.2z M340.11,324.43c-0.03,0.46-0.15,0.92-0.31,1.38c-0.56,1.51-1.43,2.98-2.61,4.44
				h-0.46c-0.72-0.3-1.32-0.77-1.79-1.41c-0.46-0.64-0.77-1.33-0.92-2.09c-0.15-0.76-0.13-1.51,0.07-2.32
				c0.2-0.79,0.54-1.48,1.05-2.09c0.59-0.72,1.28-1.17,2.05-1.35c0.76-0.16,1.48-0.07,2.17,0.33c0.67,0.43,1,1,0.95,1.73
				C340.22,323.53,340.16,323.99,340.11,324.43z M381.21,325.37c-0.13,0.72-0.43,1.46-0.89,2.19c-0.74,1.07-1.43,2.15-2.12,3.24
				c-0.67,1.1-1.36,2.2-2.04,3.32l-1.28,1.41c-0.67-0.31-1.08-0.69-1.22-1.13c-0.12-0.44-0.18-0.9-0.18-1.38
				c-0.1-0.72-0.03-1.46,0.18-2.22c0.12-0.36,0.23-0.72,0.36-1.08c0.33-0.71,0.66-1.41,0.97-2.12c0.61-1.08,1.4-2.14,2.38-3.12
				c0.51-0.46,1.07-0.82,1.69-1.08c0.61-0.26,1.35-0.35,2.2-0.26C381.35,323.89,381.34,324.65,381.21,325.37z M420.07,325.37
				c-0.13,0.72-0.43,1.46-0.9,2.19c-0.72,1.07-1.43,2.15-2.1,3.24c-0.69,1.1-1.36,2.2-2.04,3.32l-1.28,1.41
				c-0.69-0.31-1.08-0.69-1.22-1.13c-0.13-0.44-0.2-0.9-0.2-1.38c-0.08-0.72-0.02-1.46,0.2-2.22c0.21-0.74,0.49-1.48,0.84-2.22
				c0.62-1.45,1.59-2.83,2.86-4.11c0.51-0.46,1.08-0.82,1.69-1.08c0.62-0.26,1.36-0.35,2.22-0.26
				C420.21,323.89,420.2,324.65,420.07,325.37z M445.94,327.16c-0.08,0.35-0.18,0.69-0.28,1c-0.12,0.33-0.31,0.61-0.61,0.87
				c-0.35,0.35-0.82,0.81-1.45,1.41c-0.61,0.59-1.28,1.2-1.97,1.82c-0.71,0.62-1.43,1.17-2.19,1.64c-0.74,0.46-1.43,0.74-2.07,0.81
				c-0.64,0.05-1.17-0.15-1.59-0.61c-0.43-0.48-0.67-1.36-0.77-2.65c-0.03-1.66,0.26-3.24,0.85-4.73c0.23-0.46,0.44-0.9,0.62-1.33
				c0.67-1.23,1.56-2.35,2.68-3.37c1.2-1.12,2.55-1.73,4.06-1.84c1.51-0.1,2.91,0.28,4.18,1.13L445.94,327.16z"/>
			<path class="st1" d="M397.76,314.96c0.3,0.9,0.83,1.39,1.6,1.48c0.77,0,1.38-0.36,1.85-1.09c0.21-0.34,0.38-0.66,0.51-0.96
				c0.13-0.3,0.23-0.6,0.32-0.9l-0.06-0.96c-0.17-0.6-0.6-1-1.28-1.19c-0.68-0.19-1.26-0.07-1.72,0.35
				c-0.47,0.47-0.83,0.98-1.09,1.51C397.63,313.73,397.59,314.32,397.76,314.96L397.76,314.96z"/>
			<path class="st1" d="M250.65,323.32c-0.25-0.43-0.61-0.41-1.08,0.07c-0.38,0.51-0.97,1.33-1.76,2.43
				c-0.79,1.12-1.69,2.28-2.71,3.5c-1.02,1.23-2.1,2.4-3.22,3.53c-1.13,1.13-2.24,1.99-3.29,2.55c-1.07,0.56-2.04,0.72-2.89,0.51
				c-0.84-0.21-1.5-1.07-1.97-2.56c-0.13-0.35-0.23-0.67-0.3-1c-0.05-0.31-0.13-0.66-0.21-0.99c-0.21-0.9-0.2-1.78,0.03-2.61
				c0.23-0.84,0.71-1.66,1.43-2.47c0.56-0.61,1.07-1.23,1.51-1.91c0.44-0.66,0.85-1.35,1.25-2.09c0.3-0.43,0.51-0.85,0.66-1.32
				c0.15-0.44,0.31-0.9,0.49-1.38c0.12-0.46,0.12-0.89-0.05-1.28c-0.15-0.38-0.39-0.71-0.72-0.95c-0.72-0.48-1.53-0.44-2.43,0.12
				l-1.97,1.55c-1.2-1.12-2.48-1.78-3.88-1.99c-18.16-2.93-23.9,17.34-24.12,17.74c-0.13-0.43-0.23-0.77-0.3-1.04
				c-0.05-0.26-0.12-0.54-0.15-0.84c-0.26-1.92-0.39-3.88-0.43-5.84c-0.02-1.97-0.05-3.95-0.08-5.92c-0.05-0.43-0.1-0.85-0.13-1.28
				c-0.05-0.43-0.12-0.84-0.2-1.22c0-0.13-0.08-0.26-0.25-0.39c-0.18-0.13-0.33-0.2-0.46-0.2c-0.12,0-0.28,0.07-0.44,0.2
				c-0.16,0.13-0.31,0.26-0.44,0.39c-0.13,0.16-0.23,0.35-0.31,0.54c-0.1,0.2-0.18,0.39-0.26,0.61c-0.16,0.77-0.35,1.55-0.51,2.35
				c-0.18,0.79-0.28,1.56-0.33,2.33c-0.12,1.81-0.08,3.57,0.1,5.28c0.02,0.08,0.03,0.18,0.03,0.26c-1.41,4.85-4.13,11.57-8.88,12.64
				c-0.77,0.18-1.43-0.53-1.91-1.35c-0.49-0.81-0.84-1.87-1.04-3.17c-0.18-1.32-0.3-2.68-0.35-4.11c-0.05-1.45-0.03-2.81,0.03-4.11
				c0.07-1.32,0.13-2.35,0.23-3.12c0.03-0.48,0.12-0.9,0.25-1.32c0.13-0.41,0.3-0.82,0.51-1.25c0.61-1.25,1.18-2.52,1.76-3.8
				c0.58-1.28,1.17-2.58,1.76-3.91c0.72-1.76,1.45-3.5,2.14-5.24c0.71-1.73,1.43-3.5,2.15-5.29c0.72-1.71,1.28-3.4,1.69-5.08
				c0.39-1.68,0.76-3.4,1.05-5.21c0.08-0.59,0.12-1.18,0.1-1.79c-0.03-0.59-0.16-1.18-0.43-1.74c-0.67-1.66-1.96-2.05-3.83-1.15
				c-0.85,0.39-1.59,1-2.24,1.86c-0.56,0.74-1.07,1.5-1.53,2.28c-0.48,0.79-0.89,1.64-1.22,2.55c-0.35,1.1-0.69,2.22-1.05,3.34
				c-0.36,1.12-0.67,2.22-0.94,3.34c-0.64,2.78-1.27,5.74-1.91,8.86c-0.64,3.14-1.15,6.3-1.55,9.52c-0.15,1.33-0.28,2.66-0.36,4.01
				c-0.38,0.46-0.77,0.94-1.2,1.41c-1.43,1.64-2.91,3.16-4.44,4.5c-1.53,1.35-3.04,2.42-4.5,3.21c-1.46,0.79-2.78,1.04-3.93,0.74
				c-0.81-0.16-1.48-0.54-2.02-1.12c-0.53-0.59-0.92-1.25-1.17-2.01c-0.26-0.74-0.36-1.56-0.3-2.43c0.07-0.87,0.3-1.71,0.67-2.48
				c1.05,0,2.25-0.21,3.57-0.67c1.33-0.44,2.6-1.04,3.81-1.76c1.22-0.72,2.3-1.59,3.29-2.56c0.99-0.99,1.66-2.04,2.04-3.16
				c0.43-1.41,0.43-2.58-0.02-3.53c-0.46-0.94-1.18-1.56-2.19-1.86c-0.36-0.12-0.74-0.16-1.15-0.18c-8.35-1.12-14.7,1.76-14.7,1.76
				c-0.87,0.28-1.76,0.61-2.65,1.02c-0.9,0.41-1.78,0.85-2.63,1.35c-0.84,0.49-1.55,0.95-2.1,1.38c-0.97-1.36-2.07-2.6-3.29-3.7
				c-1.22-1.08-2.5-2.09-3.83-3.01c-1.35-0.92-2.75-1.78-4.19-2.55c-1.45-0.77-2.89-1.53-4.34-2.3c-0.77-0.39-1.3-0.85-1.61-1.38
				c-0.3-0.54-0.44-1.1-0.48-1.71c-0.02-0.59,0.07-1.2,0.26-1.82s0.43-1.2,0.74-1.71c1.27-2.27,2.71-4.03,4.34-5.26
				c1.61-1.25,3.49-2.17,5.62-2.76c2.09-0.56,3.9-0.53,5.42,0.13c1.55,0.64,3.12,1.89,4.73,3.78c0.13-0.26,0.25-0.44,0.36-0.58
				c0.1-0.13,0.2-0.23,0.28-0.3c0.08-0.07,0.15-0.13,0.2-0.18c0.03-0.07,0.07-0.2,0.07-0.36c-0.05-1.02-0.39-1.94-1.04-2.73
				c-0.62-0.79-1.43-1.43-2.38-1.92c-0.97-0.49-2.01-0.84-3.11-1.04c-1.1-0.2-2.14-0.23-3.06-0.1c-3.29,0.56-6.23,1.84-8.83,3.83
				c-2.6,1.99-4.77,4.73-6.53,8.25c-0.51,0.99-0.77,1.94-0.79,2.86c-0.02,0.92,0.1,1.78,0.35,2.56c0.26,0.79,0.62,1.5,1.08,2.09
				c0.48,0.61,0.97,1.05,1.48,1.35c1.4,0.95,2.78,1.81,4.11,2.61c1.35,0.79,2.65,1.59,3.88,2.4c1.23,0.82,2.4,1.69,3.52,2.6
				c1.1,0.94,2.17,1.99,3.19,3.19c-2.68,2.1-5.41,4.37-8.19,6.84c-2.76,2.47-5.24,5.13-7.41,8.01c-0.72,1.02-1.36,2.12-1.94,3.27
				c-0.58,1.15-1.02,2.38-1.32,3.67c-0.38,1.87-0.25,3.42,0.41,4.62c0.66,1.2,1.79,1.91,3.35,2.12c0.61,0.13,1.25,0.15,1.92,0.07
				c0.67-0.08,1.32-0.21,1.92-0.38c2.81-0.69,5.52-1.79,8.14-3.32c2.63-1.51,4.85-3.37,6.69-5.56c1.82-2.19,3.11-4.64,3.83-7.38
				c0.72-2.75,0.59-5.67-0.38-8.81c-0.1-0.46-0.33-1-0.71-1.63c-0.39-0.62-0.62-1.17-0.71-1.64c1.02-0.99,7.17-4.59,14.09-4.96
				c-0.03,0.03-0.07,0.05-0.1,0.08c-3.32,3.04-5.57,6.59-6.77,10.67c-0.67,2.53-0.48,4.92,0.58,7.2c0.48,1.1,1.15,1.99,2.05,2.63
				c0.89,0.64,1.96,1.07,3.19,1.28c1.15,0.16,2.32,0.05,3.49-0.35c1.17-0.41,2.33-1,3.52-1.78c1.17-0.77,2.3-1.68,3.42-2.7
				c1.1-1.04,2.14-2.1,3.09-3.21c0.38-0.44,0.74-0.89,1.08-1.33c-0.02,0.81-0.03,1.61-0.03,2.42c0,3.25,0.33,6.39,0.97,9.44
				c0.25,1.17,0.74,2.05,1.46,2.68c0.72,0.61,1.55,1.08,2.47,1.08c6.28,0,9.7-6.53,11.47-11.95c0.08,0.39,0.18,0.79,0.28,1.18
				c0.16,0.48,0.35,0.94,0.54,1.35c0.18,0.44,0.41,0.87,0.67,1.3c0.46,0.64,0.99,0.95,1.59,0.95c4.96,0,3.75-13.69,17.1-18.58
				c-0.33,0.3-0.62,0.62-0.94,0.97c-1.15,1.33-2.12,2.79-2.91,4.41c-0.79,1.61-1.33,3.27-1.66,5.01c-0.31,1.74-0.31,3.34,0.03,4.78
				c0.3,1.12,0.77,1.91,1.45,2.38c0.66,0.46,1.4,0.69,2.24,0.67c0.82-0.03,1.71-0.25,2.65-0.64c0.94-0.41,1.86-0.92,2.75-1.55
				c0.9-0.62,1.74-1.32,2.53-2.05c0.79-0.76,1.43-1.46,1.94-2.15c0.08,0.99,0.25,1.94,0.48,2.86c0.25,0.92,0.51,1.68,0.81,2.28
				c0.85,1.23,1.86,1.94,3.01,2.1c1.15,0.18,2.33,0,3.57-0.54c1.25-0.53,2.48-1.36,3.75-2.5c1.25-1.13,2.45-2.35,3.58-3.67
				c1.12-1.3,2.14-2.65,3.06-4.01c0.92-1.36,1.66-2.6,2.2-3.67C250.88,324.17,250.92,323.74,250.65,323.32z M191.01,314.9
				c0.3-1.63,0.58-3.24,0.82-4.82c0.26-1.59,0.56-3.19,0.9-4.82c0.3-1.38,0.62-2.71,0.99-4.01c0.36-1.32,0.76-2.61,1.18-3.9
				c0.21-0.59,0.46-1.15,0.76-1.64c0.31-0.49,0.62-1,0.97-1.56c0.16-0.26,0.39-0.48,0.71-0.64c0.25,0.16,0.36,0.35,0.35,0.54
				c-0.02,0.2-0.05,0.38-0.1,0.54c-0.08,1.41-0.28,2.79-0.61,4.14c-0.31,1.35-0.71,2.71-1.18,4.08c-0.72,2.15-1.45,4.27-2.17,6.36
				c-0.72,2.1-1.45,4.22-2.17,6.36c-0.05,0.26-0.12,0.49-0.2,0.71c-0.08,0.21-0.16,0.43-0.25,0.64c-0.1,0-0.15,0-0.16-0.03
				c-0.02-0.02-0.08-0.03-0.16-0.03L191.01,314.9z M155.29,335.33c-0.31,1.2-0.79,2.27-1.48,3.21c-1.91,2.32-4.13,4.26-6.61,5.85
				c-2.5,1.58-5.05,2.61-7.64,3.07c-0.51,0.13-0.99,0.13-1.43,0c-0.44-0.12-0.81-0.35-1.08-0.67c-0.28-0.31-0.46-0.72-0.51-1.25
				c-0.07-0.51,0.05-1.07,0.35-1.66c0.08-0.77,0.44-1.73,1.08-2.86c0.64-1.13,1.43-2.32,2.37-3.53c0.94-1.23,1.99-2.48,3.16-3.76
				c1.18-1.28,2.37-2.47,3.55-3.57c1.2-1.08,2.35-2.04,3.45-2.86c1.1-0.81,2.07-1.41,2.88-1.79c0.67,0.72,1.22,1.64,1.59,2.73
				c0.39,1.08,0.61,2.25,0.67,3.47C155.7,332.92,155.59,334.13,155.29,335.33z M171.24,322.48c0.69-1.02,1.5-1.99,2.38-2.89
				c0.35-0.35,0.71-0.62,1.08-0.85c0.39-0.25,0.79-0.46,1.22-0.69c0.43-0.2,0.94-0.31,1.55-0.31c0.67-0.08,1.17,0.1,1.5,0.54
				c0.31,0.46,0.35,1,0.1,1.64c-0.18,0.43-0.36,0.76-0.58,0.95c-0.9,1.25-1.96,2.27-3.21,3.06c-1.23,0.79-2.55,1.45-3.96,1.96
				c-0.21,0.1-0.46,0.12-0.76,0.1s-0.64,0-1.02,0.03C169.96,324.68,170.53,323.51,171.24,322.48z M230.65,327.16
				c-0.08,0.35-0.18,0.69-0.28,1c-0.12,0.33-0.31,0.61-0.61,0.87c-0.35,0.35-0.82,0.81-1.43,1.41c-0.62,0.59-1.28,1.2-1.99,1.82
				c-0.71,0.62-1.43,1.17-2.17,1.64c-0.76,0.48-1.45,0.74-2.09,0.81c-0.62,0.07-1.17-0.15-1.59-0.61c-0.43-0.48-0.67-1.36-0.76-2.65
				c-0.05-1.79,0.28-3.5,0.99-5.1c0.71-1.61,1.84-2.98,3.16-4.34c3.81-3.93,6.97-1.56,8.25-0.71L230.65,327.16z"/>
			<path class="st1" d="M397.82,314.9c0.3,0.9,0.83,1.39,1.6,1.48c0.77,0,1.38-0.36,1.85-1.09c0.21-0.34,0.38-0.66,0.51-0.96
				c0.13-0.3,0.23-0.6,0.32-0.9l-0.06-0.96c-0.17-0.6-0.6-1-1.28-1.19c-0.68-0.19-1.26-0.07-1.72,0.35
				c-0.47,0.47-0.83,0.98-1.09,1.51C397.69,313.67,397.65,314.26,397.82,314.9L397.82,314.9z"/>
		</g>
		<g>
			<path class="st1" d="M101.42,328.4c0.09-0.16,0.18-0.31,0.29-0.45c0.1-0.14,0.2-0.3,0.29-0.45c0.83-1.21,1.83-2.18,3-2.89
				c0.09-0.07,0.18-0.13,0.29-0.18s0.21-0.11,0.32-0.15c0.65-0.29,1.26-0.36,1.82-0.2c0.56,0.16,1,0.5,1.31,1.04
				c0.13,0.25,0.23,0.51,0.29,0.77c0.06,0.27,0.09,0.53,0.12,0.77c-0.02,0.18-0.03,0.36-0.02,0.54c0.01,0.18,0.03,0.37,0.05,0.57
				c0.92-0.45,1.83-1.01,2.74-1.68c0.91-0.67,1.67-1.38,2.27-2.12c0.11-0.04,0.18-0.04,0.22,0.02c0.03,0.06,0.05,0.13,0.05,0.22
				s-0.02,0.19-0.07,0.3c-0.04,0.11-0.09,0.2-0.13,0.27c-0.58,1.03-1.3,1.9-2.15,2.59c-0.85,0.7-1.78,1.3-2.79,1.82
				c-0.22,0.11-0.4,0.25-0.52,0.4c-0.12,0.16-0.24,0.36-0.35,0.61c-0.2,0.43-0.42,0.84-0.65,1.24c-0.24,0.4-0.48,0.81-0.72,1.21
				c-0.27,0.49-0.73,0.9-1.38,1.21c-0.52,0.22-0.95,0.22-1.3,0c-0.35-0.22-0.49-0.59-0.42-1.11c0.07-0.34,0.21-0.72,0.44-1.14
				c0.38-0.65,0.94-1.28,1.68-1.88c0.18-0.11,0.34-0.22,0.47-0.34c0.13-0.11,0.29-0.24,0.47-0.37c0.13-0.38,0.21-0.78,0.24-1.19
				c0.02-0.41,0.02-0.82,0-1.23c-0.02-0.09-0.04-0.17-0.05-0.25c-0.01-0.08-0.04-0.15-0.08-0.22c-0.2-0.36-0.5-0.49-0.91-0.4
				c-0.36,0.11-0.68,0.27-0.98,0.47c-0.29,0.2-0.58,0.43-0.87,0.67c-0.36,0.36-0.69,0.73-0.99,1.11c-0.3,0.38-0.56,0.8-0.76,1.24
				c-0.25,0.45-0.47,0.89-0.67,1.33c-0.2,0.44-0.4,0.87-0.61,1.3c-0.11,0.31-0.22,0.55-0.34,0.71c-0.09,0.16-0.21,0.24-0.37,0.25
				c-0.16,0.01-0.27-0.06-0.34-0.22c-0.11-0.18-0.2-0.44-0.27-0.77c-0.18-0.7-0.3-1.4-0.37-2.12c-0.07-0.72-0.08-1.45-0.03-2.19
				c0.09-1.53,0.21-3.03,0.37-4.52s0.4-3,0.74-4.53c0.31-1.35,0.68-2.66,1.11-3.94c0.43-1.28,0.93-2.55,1.51-3.8
				c0.16-0.31,0.32-0.6,0.49-0.86c0.17-0.26,0.34-0.53,0.52-0.82c0.16-0.27,0.39-0.54,0.71-0.81c0.22-0.2,0.47-0.34,0.74-0.4
				c0.27-0.07,0.52-0.07,0.76-0.02c0.24,0.06,0.44,0.17,0.62,0.35c0.18,0.18,0.3,0.41,0.37,0.71c0.11,0.31,0.16,0.64,0.13,0.98
				c-0.02,0.34-0.09,0.67-0.2,1.01c-0.27,1.01-0.62,2-1.04,2.96c-0.47,0.99-0.96,1.97-1.46,2.94c-0.5,0.98-1,1.97-1.5,2.98
				c-0.18,0.31-0.38,0.63-0.61,0.94c-0.22,0.31-0.43,0.64-0.61,0.98c-0.11,0.2-0.22,0.4-0.34,0.61s-0.19,0.42-0.23,0.64
				c-0.11,0.92-0.21,1.83-0.29,2.74C101.33,326.53,101.33,327.46,101.42,328.4z M106.4,308.92c-0.38,0.22-0.61,0.36-0.67,0.42
				c-0.07,0.06-0.15,0.16-0.24,0.32c-0.16,0.31-0.32,0.63-0.49,0.96c-0.17,0.33-0.31,0.65-0.42,0.96c-0.38,0.94-0.71,1.88-0.98,2.83
				c-0.27,0.94-0.5,1.91-0.71,2.89c-0.04,0.07-0.06,0.14-0.05,0.22c0.01,0.08,0.02,0.15,0.02,0.22c0.81-1.41,1.54-2.83,2.19-4.26
				C105.71,312.05,106.15,310.54,106.4,308.92z M106.2,331.09c-0.27,0.22-0.48,0.4-0.62,0.54c-0.15,0.13-0.25,0.25-0.32,0.35
				c-0.07,0.1-0.1,0.2-0.1,0.29c0,0.09,0.02,0.2,0.07,0.34c0.22-0.18,0.4-0.38,0.54-0.61C105.9,331.78,106.04,331.47,106.2,331.09z"
				/>
			<path class="st1" d="M119.83,326.85l-0.74,1.01c-0.36,0.52-0.73,1.01-1.11,1.48c-0.38,0.47-0.8,0.92-1.24,1.35
				c-0.18,0.18-0.37,0.36-0.57,0.54c-0.2,0.18-0.41,0.34-0.64,0.47c-0.56,0.31-1.09,0.4-1.6,0.27c-0.51-0.13-0.86-0.46-1.06-0.98
				c-0.22-0.58-0.3-1.2-0.24-1.85c0.07-0.85,0.2-1.7,0.39-2.56c0.19-0.85,0.48-1.69,0.86-2.52c0.07-0.22,0.21-0.45,0.44-0.67
				c0.07-0.11,0.17-0.15,0.3-0.1c0.04,0.02,0.09,0.05,0.13,0.08c0.04,0.03,0.07,0.07,0.07,0.12c0.02,0.13,0.03,0.27,0.02,0.4
				c-0.01,0.13-0.03,0.26-0.05,0.37c-0.11,0.56-0.22,1.12-0.32,1.67c-0.1,0.55-0.2,1.1-0.29,1.66c-0.18,0.85-0.19,1.64-0.03,2.35
				c0.02,0.09,0.06,0.18,0.12,0.27s0.11,0.17,0.15,0.24c0.22,0.02,0.39-0.02,0.5-0.12s0.22-0.21,0.34-0.32
				c0.38-0.36,0.74-0.73,1.08-1.13c0.34-0.39,0.65-0.8,0.94-1.23l2.99-4.27c0.09-0.11,0.17-0.22,0.24-0.34
				c0.07-0.11,0.16-0.22,0.27-0.34c0.27-0.27,0.56-0.37,0.87-0.3c0.4,0.07,0.61,0.29,0.61,0.67c0,0.25-0.01,0.5-0.02,0.77
				c-0.01,0.27-0.03,0.53-0.05,0.77c-0.09,0.74-0.18,1.49-0.27,2.24s-0.19,1.5-0.3,2.24l-0.1,1.08c0.18,0.04,0.31,0.02,0.39-0.07
				c0.08-0.09,0.16-0.18,0.25-0.27c0.65-0.69,1.23-1.29,1.75-1.8c0.52-0.5,1.01-0.98,1.5-1.43c0.48-0.45,0.97-0.89,1.46-1.33
				c0.49-0.44,1.04-0.94,1.65-1.5c0.31-0.27,0.52-0.31,0.61-0.13c0.09,0.18,0.04,0.38-0.13,0.61c-0.67,0.76-1.3,1.45-1.87,2.07
				c-0.57,0.62-1.13,1.22-1.68,1.82c-0.55,0.59-1.11,1.19-1.68,1.8c-0.57,0.61-1.21,1.27-1.9,1.99c-0.29,0.29-0.5,0.59-0.62,0.91
				c-0.12,0.31-0.21,0.66-0.25,1.04c-0.11,1.12-0.25,2.24-0.4,3.35c-0.16,1.11-0.36,2.22-0.61,3.35c-0.18,0.92-0.41,1.82-0.69,2.71
				c-0.28,0.89-0.65,1.75-1.09,2.61c-0.25,0.52-0.53,1.02-0.86,1.51c-0.32,0.49-0.71,0.94-1.16,1.35c-0.31,0.29-0.64,0.55-0.97,0.77
				c-0.36,0.2-0.72,0.32-1.08,0.35c-0.36,0.03-0.69-0.01-0.99-0.13c-0.3-0.12-0.56-0.31-0.77-0.57c-0.21-0.26-0.34-0.58-0.39-0.96
				c-0.02-0.47,0-0.99,0.07-1.55c0.09-0.81,0.26-1.6,0.5-2.39s0.53-1.56,0.84-2.32c0.92-2.11,2.07-4.06,3.47-5.85
				c0.36-0.45,0.72-0.9,1.09-1.36c0.37-0.46,0.73-0.92,1.09-1.36c0.09-0.11,0.17-0.24,0.25-0.39c0.08-0.15,0.13-0.29,0.15-0.42
				c0.11-0.94,0.22-1.88,0.32-2.83c0.1-0.94,0.21-1.9,0.32-2.86c-0.04,0-0.08,0-0.12-0.02
				C119.91,326.86,119.87,326.85,119.83,326.85z M118.98,335.4l-0.3,0.3c-0.65,0.78-1.26,1.58-1.82,2.37
				c-0.56,0.79-1.08,1.62-1.55,2.47c-0.49,0.87-0.92,1.77-1.29,2.67c-0.37,0.91-0.65,1.84-0.83,2.81c-0.07,0.27-0.1,0.54-0.1,0.83
				c0,0.28-0.01,0.55-0.03,0.82c0,0.38,0.17,0.63,0.51,0.76c0.34,0.12,0.67,0.06,1.01-0.19c0.74-0.56,1.3-1.18,1.68-1.85
				c0.22-0.38,0.44-0.77,0.64-1.18c0.2-0.4,0.38-0.81,0.54-1.21c0.49-1.37,0.86-2.74,1.11-4.12c0.25-1.38,0.44-2.78,0.57-4.19
				C119.14,335.68,119.1,335.58,118.98,335.4z"/>
		</g>
	</g>
	<g>
		<g>
			<path class="st1" d="M40.09,134.81H10.06v2.06h5.71c0.69,0,2.8,0,2.8,6.2v120.41c0,6.2-2.11,6.2-2.8,6.2h-5.71v2.06h26.55v-2.06
				H30.9c-0.69,0-2.8,0-2.8-6.2V143.06c0-0.89,0-1.63,0.08-2.12h10.2c31.43,0,48.04,14.61,48.04,42.25
				c0,15.9-4.59,28.21-13.64,36.59c-9.19,8.51-19.99,12.64-33.04,12.64h-0.43v2.91h0.43c27.48,0,57.07-16.31,57.07-52.13
				C96.81,152.9,75.61,134.81,40.09,134.81z"/>
			<g>
				<path class="st1" d="M175.37,263.72l-26.36-122.97c-0.33-1.41-0.24-2.44,0.26-3.08c0.42-0.53,1.17-0.81,2.21-0.81h3.15v-2.06
					h-28.76v2.06h3.15c1.04,0,1.78,0.27,2.21,0.81c0.51,0.64,0.6,1.68,0.26,3.09l-26.36,122.97c-0.83,4.5-2.09,5.94-5.19,5.94H95.1
					v2.06h26.55v-2.06h-5.02c-1.07,0-1.82-0.29-2.22-0.87c-0.6-0.86-0.52-2.42,0.27-4.56l3.02-13.76c1.04-2.27,4.91-3.42,11.52-3.42
					c2.17,0,5.75,0.51,10.64,1.52c5.82,0.97,9.14,1.37,11.47,1.37c5.83,0,9.08-2.98,10.11-6.36l4.45,20.7
					c0.77,2.08,0.85,3.63,0.25,4.5c-0.4,0.58-1.15,0.87-2.22,0.87h-5.02v2.06h26.55v-2.06h-4.85
					C177.47,269.67,176.21,268.23,175.37,263.72z M150.63,242.97c-1.8,0-5.17-0.5-10.28-1.52c-4.8-1.12-8.54-1.71-10.81-1.71
					c-4.74,0-8.34,1.7-10.72,5.07l21.43-100.03l20.31,94.55C160.2,241.75,156.86,242.97,150.63,242.97z"/>
				<path class="st1" d="M254.23,265.59h-41.6V143.06c0-6.2,2.11-6.2,2.8-6.2h5.71v-2.06h-26.55v2.06h5.71c0.69,0,2.8,0,2.8,6.2
					v120.41c0,6.2-2.11,6.2-2.8,6.2h-5.71v2.06h59.76l4.37-13.11h-2.1L254.23,265.59z"/>
				<path class="st1" d="M366.71,263.47V143.06c0-6.2,2.11-6.2,2.8-6.2h4v-2.06h-24.84v2.06h3.15c1.19,0,2,0.28,2.41,0.82
					c0.46,0.61,0.48,1.63,0.07,3.02l-31.56,91.34L291,140.7c-0.42-1.08-0.38-2.11,0.11-2.82c0.45-0.66,1.27-1.01,2.38-1.01h3.15
					v-2.06h-24.84v2.06h4c0.69,0,2.8,0,2.8,6.2v120.41c0,6.2-2.11,6.2-2.8,6.2h-5.71v2.06h26.55v-2.06h-5.7c-0.69,0-2.8,0-2.8-6.2
					V160.55l34.43,97.24l34.6-97.26v102.93c0,6.2-2.11,6.2-2.8,6.2h-5.7v2.06h26.55v-2.06h-5.71
					C368.81,269.67,366.71,269.67,366.71,263.47z"/>
				<path class="st1" d="M464.14,263.72l-26.36-122.97c-0.33-1.41-0.24-2.44,0.26-3.08c0.42-0.53,1.17-0.81,2.21-0.81h3.15v-2.06
					h-28.76v2.06h3.15c1.04,0,1.78,0.27,2.21,0.81c0.51,0.64,0.6,1.68,0.26,3.09l-26.36,122.97c-0.83,4.5-2.09,5.94-5.19,5.94h-4.85
					v2.06h26.55v-2.06h-5.02c-1.07,0-1.82-0.29-2.22-0.87c-0.6-0.86-0.52-2.42,0.27-4.56l3.02-13.76c1.04-2.27,4.91-3.42,11.52-3.42
					c2.17,0,5.75,0.51,10.64,1.52c5.82,0.97,9.14,1.37,11.47,1.37c5.83,0,9.08-2.98,10.11-6.36l4.45,20.7
					c0.77,2.08,0.85,3.63,0.25,4.5c-0.4,0.58-1.15,0.87-2.22,0.87h-5.02v2.06h26.55v-2.06h-4.85
					C466.24,269.67,464.98,268.23,464.14,263.72z M439.4,242.97c-1.8,0-5.17-0.5-10.28-1.52c-4.8-1.12-8.54-1.71-10.81-1.71
					c-4.74,0-8.34,1.7-10.72,5.07l21.43-100.03l20.31,94.55C448.97,241.75,445.63,242.97,439.4,242.97z"/>
				<path class="st1" d="M537.82,206.86c-4.59-4.22-9.16-8.07-13.97-11.75c-1.97-1.6-3.88-3.11-5.73-4.57
					c-7.56-5.96-14.09-11.1-18.84-18.29c-2.77-4.41-4.18-9.19-4.18-14.22c0-5.26,1.91-9.89,5.83-14.16
					c4.03-4.2,9.71-6.33,16.86-6.33c7.21,0,13.18,2.3,18.25,7.04c5.12,4.46,7.81,9.07,8.01,13.71l-4.13,9.7h2.13l7.51-16.94
					l-0.6-1.2c-4.18-8.51-14.89-18.44-31.34-18.44c-9.31,0-17.07,2.78-23.08,8.28c-5.96,5.45-8.98,12.25-8.98,20.22
					c0,17.39,13.87,27.37,28.56,37.93c14.72,10.58,29.94,21.53,29.94,40.64c0,7.92-2.43,14.87-7.21,20.64
					c-4.65,5.65-11.24,8.52-19.56,8.52c-7.49,0-13.79-2.41-19.27-7.37c-5.32-4.82-8.02-11.47-8.02-19.75
					c0-7.49,2.3-13.34,6.82-17.36c4.72-4.05,9.53-6.02,14.68-6.02c1.48,0,2.91,0.26,4.6,0.82c1.58,0.66,2.2-0.09,2.36-0.34
					c0.43-0.69,0.13-1.69-0.71-2.43c-1.81-1.63-4.68-2.49-8.28-2.49c-6.55,0-12.72,2.67-18.32,7.94c-5.7,5.18-8.48,12.19-8.48,21.41
					c0,9.34,3.22,16.84,9.84,22.94c6.51,5.83,14.79,8.78,24.61,8.78c10.49,0,19.23-3.24,25.98-9.65c6.63-6.46,10-15.09,10-25.65
					C553.1,226.93,547.38,215.11,537.82,206.86z"/>
			</g>
		</g>
	</g>
</g>
</svg>
