<?xml version="1.0" encoding="utf-8"?>
<!-- Generator: Adobe Illustrator 26.5.0, SVG Export Plug-In . SVG Version: 6.00 Build 0)  -->
<svg version="1.1" id="Layer_1" xmlns="http://www.w3.org/2000/svg" xmlns:xlink="http://www.w3.org/1999/xlink" x="0px" y="0px"
	 viewBox="0 0 3983.2 561" style="enable-background:new 0 0 3983.2 561;" xml:space="preserve">
<style type="text/css">
	.st0{fill:#2C2A29;}
</style>
<path class="st0" d="M1406,120.8c-81.9,0-149.1,71.9-149.1,160.6S1323.9,442,1406,442c82.2,0,149.4-71.9,149.4-160.6
	S1488.2,120.8,1406,120.8 M927.9,266.2L793.7,6.1H641.1v550h153.6V251l119.4,242.3l121.8-241.9v303.9h153.6v-96.2
	c-43.1-49.2-60.4-111.9-60.4-180.8s17.3-131.4,61.6-181.2V5.4h-127.8L927.9,266.2z M480,317.5L315.2,4H185.4v552.6h136.7V245.1
	l166.7,311.4H617V4H480V317.5L480,317.5z M0,556.6h135.1V4H0V556.6z M3771.3,433.9v-99.5h149.8V222.9h-149.8v-96.7h199V4h-336.5
	v552.6h349.3v-123L3771.3,433.9L3771.3,433.9z M2889.8,4l-184.3,552.6h141.7l26.5-101.6h166l26.9,101.6h140.7L3023,4H2889.8
	L2889.8,4z M2905.9,331.5l49.9-188.7l50.8,188.7H2905.9z M3586.8,208.4C3588,78.2,3495.9,2.8,3358.7,0.7C3311.7,0,3255,1.4,3214.3,4
	v552.6h137.9v-140c14,1.6,26.7,0.7,38.4,0l11.7-0.7l43.3,140.5h151.3l-69.5-196.9C3562.9,325.5,3586.8,275.3,3586.8,208.4
	 M3383.1,292.7c-11.2,2.1-20.8,2.1-30.9,1.6V122.7c7-0.7,16.6-0.7,28.1,0.7c37.5,3.7,70.2,29.3,69.8,84.3
	C3449.4,255,3422.9,287.3,3383.1,292.7 M2552.4,556.6h135.1V4h-135.1V556.6z M2350.8,3.5h-137.9v552.6h317.7V433.2h-180.1
	L2350.8,3.5L2350.8,3.5z M1901.2,256.4c45-20.1,71.9-61.1,71.9-114.7c0-61.8-32.8-141.7-200.2-141.7c-36.3,0-77.7,1.6-144,3.3v96.2
	c44,49.2,59.7,110.7,59.7,178.6c0,67.4-15.7,129.2-59.7,178.4V556c44,2.1,89.7,4.9,141.2,4.9c152.7,0,232.5-59,232.5-163.4
	C2002.8,317,1954.6,273.7,1901.2,256.4 M1760.7,119.6c22.2-1.6,22.2-2.8,33.5-1.2c22.2,1.6,45.4,13.3,46.6,46.6
	c0,29.7-16.6,47.1-43.8,50.8c-11,1.6-14,1.6-36.3,0L1760.7,119.6L1760.7,119.6z M1798.9,442.1c-14.5,0.7-16.6,0.7-38.9,0V321.5
	c22.2-1.6,21.5-1.6,32.8-1.2c42.6,2.8,66,24.8,66,61.1C1859.1,420.7,1833.6,439.9,1798.9,442.1 M2027,556.6h135.1V4H2027V556.6
	L2027,556.6z"/>
</svg>
