<?xml version="1.0" encoding="utf-8"?>
<!-- Generator: Adobe Illustrator 26.5.0, SVG Export Plug-In . SVG Version: 6.00 Build 0)  -->
<svg version="1.1" id="Capa_1" xmlns="http://www.w3.org/2000/svg" xmlns:xlink="http://www.w3.org/1999/xlink" x="0px" y="0px"
	 viewBox="0 0 671 285.42" style="enable-background:new 0 0 671 285.42;" xml:space="preserve">
<style type="text/css">
	.st0{fill:#FFFFFF;}
</style>
<g>
	<path id="XMLID_00000096770922822989492480000002559133780087174786_" class="st0" d="M199.01,200.77"/>
	<path id="XMLID_00000165225576312929775690000015495087962045929127_" class="st0" d="M199.01,198.36"/>
	<g>
		<path class="st0" d="M665.39,279.34h-1.05l-2.3-3h-1.13v3h-0.86v-6.6h2.8c1.45,0,2.21,0.71,2.21,1.82c0,1.05-0.69,1.72-2,1.78
			L665.39,279.34z M660.92,273.51v2.12h1.93c0.83,0,1.32-0.38,1.32-1.06c0-0.68-0.49-1.06-1.32-1.06H660.92z"/>
		<circle class="st0" cx="662.41" cy="276.21" r="6.49"/>
	</g>
	<g>
		<path class="st0" d="M1.6,283.51v-32.77h4.27v28.91h16.65v3.86H1.6z"/>
		<path class="st0" d="M68.4,283.51l-3.07-7.54H49.07l-3.05,7.54h-4.55l13.46-32.77h4.55l13.53,32.77H68.4z M50.61,272.14h13.17
			l-6.61-16.23L50.61,272.14z"/>
		<path class="st0" d="M92.67,283.51v-32.77h4.79l16.43,26.36v-26.36h4.2v32.77h-4.79l-16.43-26.35v26.35H92.67z"/>
		<path class="st0" d="M139.96,283.51v-32.77h12.28c9.82,0,15.89,6.78,15.89,16.41c0,9.58-6.07,16.36-15.89,16.36H139.96z
			 M144.24,279.65h8.01c7.2,0,11.45-5.18,11.45-12.5c0-7.37-4.25-12.55-11.45-12.55h-8.01V279.65z"/>
		<path class="st0" d="M212.37,283.51v-32.77h12.28c9.82,0,15.89,6.78,15.89,16.41c0,9.58-6.07,16.36-15.89,16.36H212.37z
			 M216.64,279.65h8.01c7.2,0,11.45-5.18,11.45-12.5c0-7.37-4.25-12.55-11.45-12.55h-8.01V279.65z"/>
		<path class="st0" d="M261.75,283.51v-32.77h22.13v3.86h-17.86v10.22h16.82v3.86h-16.82v10.98h17.86v3.86H261.75z"/>
		<path class="st0" d="M328.39,250.74h4.57l-12.58,32.77h-4.72l-12.58-32.77h4.64l10.32,27.54L328.39,250.74z"/>
		<path class="st0" d="M352.62,283.51v-32.77h22.13v3.86h-17.86v10.22h16.82v3.86h-16.82v10.98h17.86v3.86H352.62z"/>
		<path class="st0" d="M396.18,283.51v-32.77h4.27v28.91h16.65v3.86H396.18z"/>
		<path class="st0" d="M435.05,267.12c0-9.92,6.09-16.87,15.72-16.87c9.63,0,15.72,6.95,15.72,16.87c0,9.9-6.09,16.88-15.72,16.88
			C441.14,284,435.05,277.02,435.05,267.12z M462.02,267.12c0-7.66-4.22-12.89-11.25-12.89c-7.03,0-11.25,5.23-11.25,12.89
			c0,7.64,4.22,12.9,11.25,12.9C457.79,280.02,462.02,274.76,462.02,267.12z"/>
		<path class="st0" d="M501.89,250.74c7.17,0,10.95,3.61,10.95,9.43c0,5.85-3.78,9.46-10.95,9.46h-9.92v13.88h-4.27v-32.77H501.89z
			 M501.84,265.78c4.13,0,6.53-1.96,6.53-5.6c0-3.61-2.41-5.57-6.53-5.57h-9.87v11.17H501.84z"/>
		<path class="st0" d="M533.61,283.51v-32.77h22.13v3.86h-17.86v10.22h16.82v3.86h-16.82v10.98h17.86v3.86H533.61z"/>
		<path class="st0" d="M603.62,283.51h-5.21l-11.4-14.88h-5.6v14.88h-4.25v-32.77h13.88c7.17,0,10.95,3.54,10.95,9.04
			c0,5.23-3.44,8.52-9.95,8.82L603.62,283.51z M581.42,254.6v10.51H591c4.13,0,6.54-1.89,6.54-5.26c0-3.39-2.41-5.25-6.54-5.25
			H581.42z"/>
		<path class="st0" d="M621.54,274.67l4.18-1.08c0.66,4.44,4.3,6.51,9.24,6.51c4.72,0,7.74-1.99,7.74-5.43
			c0-1.99-1.03-3.76-4.13-4.57l-8.65-2.29c-5.48-1.42-7.12-4.86-7.12-8.28c0-5.16,4.35-9.28,11.4-9.28c6.88,0,11.69,3.59,12.5,8.94
			l-4.22,1.05c-0.71-4.17-4.13-6.09-8.28-6.09c-3.91,0-6.93,1.96-6.93,5.21c0,1.94,1.03,3.83,4.1,4.64l8.67,2.31
			c5.33,1.42,7.13,4.72,7.13,8.18c0,5.43-4.3,9.51-12.21,9.51C627.31,284,622.35,280.27,621.54,274.67z"/>
	</g>
	<g>
		<rect x="250.56" y="138.7" class="st0" width="15.02" height="88.17"/>
		<path class="st0" d="M337.64,191.1c12.97-3.41,20.1-12.66,20.1-26.17c0-17.4-10.67-26.23-31.7-26.23H290.3v88.17h15.02V192.6
			h17.08l23.76,34.27h16.61v-2.77L337.64,191.1z M342.86,165.22c0,9.44-6.1,14.23-18.12,14.23h-19.42V151.7h19.56
			C339.8,151.7,342.86,157.11,342.86,165.22z"/>
		<path class="st0" d="M424.7,138.7h-18.78l-34.24,88.17h15.74l8.79-24.19h37.78l8.79,24.19h16.02L424.7,138.7z M416.23,152.14
			c2.74,9.02,6.42,19.9,9.91,29.23l3.46,9.47h-29.15l3.45-9.46c3.48-9.32,7.13-19.94,10.05-29.23H416.23z"/>
		<path class="st0" d="M520.5,191.1c12.97-3.41,20.1-12.66,20.1-26.17c0-17.4-10.67-26.23-31.7-26.23h-35.73v88.17h15.02V192.6
			h17.08l23.76,34.27h16.61v-2.77L520.5,191.1z M525.73,165.22c0,9.44-6.1,14.23-18.12,14.23h-19.42V151.7h19.56
			C522.67,151.7,525.73,157.11,525.73,165.22z"/>
		<path class="st0" d="M603.5,136.97c-26.93,0-43.65,17.5-43.65,45.67c0,28.35,16.73,45.96,43.65,45.96s43.66-17.61,43.66-45.96
			C647.16,154.48,630.43,136.97,603.5,136.97z M632.28,182.5c0,21.16-10.22,32.81-28.78,32.81c-18.56,0-28.78-11.65-28.78-32.81
			c0-20.39,10.49-32.09,28.78-32.09S632.28,162.11,632.28,182.5z"/>
	</g>
	<polygon class="st0" points="46.06,97.65 160.11,1.42 1.6,1.42 1.6,226.97 46.06,226.97 	"/>
	<g>
		<path class="st0" d="M123.35,185.31v41.66h25.89l-13.79-39.49c-4.13-11.21-8.15-23.25-11.34-33.97h-0.88
			c0.19,7.36,0.16,16.21,0.14,24.06C123.36,180.25,123.35,182.86,123.35,185.31z"/>
		<path class="st0" d="M183.6,1.42L61.21,104.69v122.28h47.99v-86.18h23.53l15.62,40.6c2.07,5.65,6.13,17.39,9.05,27.08h1.43
			c3.14-9.99,6.89-21.16,9.18-27.36l16.07-40.32h22.22v86.18h20.86V1.42H183.6z"/>
		<path class="st0" d="M179.02,188.08l-14.05,38.89h26.45v-41.66c0-8.01,0.21-19.84,0.55-31.81h-1.17
			C188.47,161.22,184,175.39,179.02,188.08z"/>
	</g>
	<g>
		<path id="XMLID_00000123402538041844440130000011535102883048855179_" class="st0" d="M200.86,200.84"/>
		<path id="XMLID_00000050646760634064428530000009531092196694465448_" class="st0" d="M200.86,198.43"/>
	</g>
	<g>
		<path class="st0" d="M249.98,89.86c0-16.86,8.47-27.86,25.33-27.86c13.63,0,21.05,6.99,23.15,18.87l-7.51,1.66
			c-2.01-9.08-6.81-13.54-15.72-13.54c-12.4,0-17.12,8.12-17.12,20.88c0,12.05,5.15,19.56,17.56,19.56c12.58,0,15.9-6.64,15.9-13.8
			l0.09,0.35v-0.7H275.4v-6.81h23.76v26.9h-7.43v-11.88h-0.79c-2.27,7.07-7.69,12.75-17.9,12.75
			C259.24,116.24,249.98,107.33,249.98,89.86z"/>
		<path class="st0" d="M337.24,94.58h-11.18v20.79h-8.04V62.96h21.14c12.93,0,18.69,5.59,18.69,15.37c0,8.3-4.46,13.71-12.58,15.55
			l15.64,20.53v0.96h-9.26L337.24,94.58z M326.06,69.77v17.91h12.32c7.43,0,11.53-2.97,11.53-9.17c0-5.85-2.88-8.73-11.44-8.73
			H326.06z"/>
		<path class="st0" d="M413.22,95.1V62.96h8.04v32.58c0,13.54-7.43,20.79-21.23,20.79c-13.97,0-22.01-7.07-22.01-20.79V62.96h8.04
			v31.71c0,8.56,3.23,14.59,13.97,14.59C410.25,109.26,413.22,103.67,413.22,95.1z"/>
		<path class="st0" d="M449.73,96.68v18.69h-8.04V62.96h20.44c12.31,0,18.52,5.68,18.52,16.86c0,9.78-6.46,16.86-18.34,16.86H449.73
			z M449.73,69.86v20.09h11.71c7.95,0,11.27-3.14,11.27-10.05c0-6.99-2.88-10.04-11.36-10.04H449.73z"/>
		<path class="st0" d="M493.66,89.08c0-16.33,9.52-27.16,25.94-27.16c16.51,0,25.94,10.83,25.94,27.16
			c0,16.25-9.26,27.34-25.94,27.34C502.83,116.42,493.66,105.33,493.66,89.08z M537.59,88.99c0-11.88-5.77-20-17.99-20
			c-12.23,0-17.99,8.12-17.99,20c0,12.14,5.59,20.44,17.99,20.44C531.92,109.43,537.59,101.22,537.59,88.99z"/>
	</g>
</g>
</svg>
