<?xml version="1.0" encoding="utf-8"?>
<!-- Generator: Adobe Illustrator 26.5.0, SVG Export Plug-In . SVG Version: 6.00 Build 0)  -->
<svg version="1.1" id="Layer_1" xmlns="http://www.w3.org/2000/svg" xmlns:xlink="http://www.w3.org/1999/xlink" x="0px" y="0px"
	 viewBox="0 0 4363.6 561" style="enable-background:new 0 0 4363.6 561;" xml:space="preserve">
<style type="text/css">
	.st0{fill:#2C2A29;}
</style>
<g>
	<path class="st0" d="M3911.7,404.9c-17.9,13.8-48.9,40.5-65.8,57.9l-60.5-54.3v-3.3c7.9-2.1,9.5-9.8,9.5-18.6V238.8
		c-14.1-10-42.7-35-58.4-49.3l-19.5,17.4v179.5l15.3,13.3c2.9,2.6,6.4,6.2,11.9,6.2c6.4,0,11-2.4,17.4-7.9l6.2,6.7
		c-16.7,11.9-47.2,37.7-66.3,57.9l-60.5-55.1v-2.9c6.2-2.1,9.5-6.2,9.5-15.7V239c-14.5-11.2-45-37.4-58.4-49.8l-19.5,16.9v180.2
		l14.1,12.4c5,4.3,8.3,7.4,13.6,7.4c6.2,0,10-1.2,16.9-7.9l6.2,6.7c-19.5,15.3-46.9,39.3-66.3,57.9l-60.5-53.9v-3.3
		c6.7-1.7,9.5-7.4,9.5-17.4V209.7l-15.7-12.2c-4.1-3.1-7.6-5-11.2-5c-5,0-10.2,2.6-16.9,8.3l-6.2-7.9c18.1-12.2,46.5-38.1,66.7-57.2
		l53.1,49.8l57.2-49.8c26.7,22.4,58.4,48.4,76.7,59.6l67.9-59.6c25.3,20.7,71.7,57.9,95.3,72v2.9c-6.7,2.1-11.2,7.4-11.2,17.4v158.2
		l12.4,11.9c4.3,4.1,9.3,8.3,14.5,8.3c6.7,0,11.9-3.6,17.4-8.3L3911.7,404.9z"/>
	<path class="st0" d="M3463.9,58.6l-22.4,20c-18.1,16.4-32.9,23.6-46.5,23.6c-10.7,0-21-5-31.9-14.5c-4.1-3.3-7.6-6.7-12.9-6.7
		c-6,0-11.2,2.6-16.2,7.9l-6.2-6.7l66.7-57.7l33.6,29.8c4.1,3.6,9.3,5.5,14.1,5.5c5.7,0,11.9-3.3,15.7-7.9L3463.9,58.6z"/>
	<path class="st0" d="M3477.5,404.9c-17.2,13.8-49.8,42.2-66.3,58.4L3350,409v-3.3c6.4-1.7,9.5-7.9,9.5-15.7V209.2l-14.1-11.2
		c-4.1-3.1-6.4-5.5-11.7-5.5c-6,0-12.4,2.6-17.4,7.9l-6.2-7.4c16.7-11.9,47.4-37.7,66.7-57.9l60.5,52.2v2.9
		c-5,1.9-11.2,6.2-11.2,16.2v180.2l15.7,14.1c3.8,3.6,8.6,5.5,13.3,5.5c5.7,0,10.7-2.9,15.7-7.9L3477.5,404.9z"/>
	<path class="st0" d="M2303.6,404.9c-16.4,12.4-45.5,37.4-66.3,58.4l-60.5-55.1v-3.3c5.2-1.7,8.8-7.9,8.8-17.4V100.1l-16.2-12.4
		c-3.6-2.6-6.9-5-10-5c-6.9,0-12.2,4.8-16.9,9.5l-6.7-7.4c20.3-15.3,49.3-40.3,67.2-59.1l60.5,52.2V80c-6,1.7-11.2,10.2-11.2,19.5
		v286.2l16.2,14.5c4.1,3.6,8.8,5,13.3,5c5,0,11-3.6,15.3-7.9L2303.6,404.9z"/>
	<path class="st0" d="M1646.3,404.9c-18.1,13.1-50.8,41.2-66.3,57.9l-60.5-53.9v-3.3c5.7-1.9,9.5-7.1,9.5-20.3V239.5
		c-15-11.4-43.6-36-58.4-49.8l-19.5,16.9v180.2l18.1,15.7c6.9,6.2,18.1,5,26.9-3.3l5.5,6.2c-18.6,13.8-48.4,40.3-66.3,57.9
		l-60.5-53.9v-3.3c6.2-2.6,9.5-7.9,9.5-16.9v-180l-16.2-11.9c-3.6-2.6-6.2-5-9.5-5c-7.6,0-12.9,4.1-17.4,7.9l-6.7-7.4
		c16-11.4,43.1-34.3,66.7-57.2l53.1,49.8l57.2-49.8c20,17.4,70.3,55.8,95.3,72.4v2.9c-8.8,2.4-11.2,8.8-11.2,12.9v162.8l19.1,17.4
		c3.3,3.1,14.1,4.5,25.3-6.2L1646.3,404.9z"/>
	<path class="st0" d="M4289.5,411.1v-83.6l-38.8-18.1l-81.3,86.5l1.2,0.5c12.9-6.9,32.4-10.7,59.1-10.7c20.7,0,46,11.7,58.9,25.7
		L4289.5,411.1z M4363.6,382c-41.5,20-94.1,53.6-124.6,80.8c-17.6-14.3-40.3-28.6-67.2-28.6c-25.3,0-33.1,8.8-33.1,17.4
		c0,5.2,7.9,4.5,7.9,12.4c0,3.6-3.6,7.9-8.3,7.9c-6,0-11.9-6.2-11.9-16.9c0-16.7,10-38.6,40.3-72.4l52.2-57.9l-66.7-34.3v-3.3
		c5.5-1.7,7.4-6,7.4-12.4v-49.8c0-5.2-3.1-10.5-7.4-12.9v-4.1c43.1-21.4,92.7-48.9,121.3-72.9c7.4,8.3,28.6,20.3,49.8,20.3
		c18.1,0,20.3-5.5,20.3-11.9c0-3.6-2.9-4.5-2.9-7.4c0-4.8,2.6-6.7,6.2-6.7c5.2,0,9.5,4.1,9.5,14.1c0,26.7-25.3,59.6-66.7,59.6
		c-29.6,0-47.7-9.3-60.1-24.1l-2.9,1.7V254l41,19.5L4285,256l78.6,39.8v3.3c-4.1,1.7-6.7,5.7-6.7,10.7v56.7c0,7.4,3.1,9.8,6.7,11.9
		V382L4363.6,382L4363.6,382z"/>
	<path class="st0" d="M4070,266.9c-18.1-22.4-49.1-63.4-66.3-89.8l-1.2,0.5v132.5L4070,266.9z M4133.6,241.7l-130.8,82.5v51.7
		c16.4,5.5,51.2,23.8,68.4,33.6l33.1-31.5c1.7-9.5,5-19.1,15.3-19.1c4.8,0,7.4,4.1,7.4,7.9c0,4.8-2.6,8.3-5,10.7l-85.3,84.6
		c-24.8-15.7-80.6-44.6-109.4-57.2v-3.3c5.5-2.1,8.3-8.1,8.3-14.8V225.2c0-6.9-3.6-13.6-8.8-14.5v-3.3c37.9-18.1,88.7-47.2,128.5-72
		C4078.1,169.9,4111.7,215.4,4133.6,241.7"/>
	<path class="st0" d="M3175.6,103.2l-11.2-2.1c-68.2,12.9-147,73.2-147,172.8c0,65.8,35,110.8,84.1,133.7c14.8-10.2,31-28.8,31-61.7
		c0-58.4-37.7-90.1-37.7-143C3094.8,162.5,3120.8,127.3,3175.6,103.2 M3243.5,398.9V111.5c-3.3,0.2-6.7,0.7-10,0.7
		c-13.6,0-26.2-2.6-42.2-5.5c-20.5,9.8-38.8,31-38.8,63.9c0,62,34.8,76.5,34.8,139.2c0,49.3-41.5,85.6-75.3,102.2
		c18.4,6.9,38.6,9.5,59.6,9.5C3195.4,421.1,3227.8,409.7,3243.5,398.9 M3320.2,39.1c0,44.3-29.6,65.8-66.3,71.3v281.2
		c20.5-14.8,36.9-34.8,45.5-55.5c0.7-1.9,1.2-3.8,1.2-5c0-2.9-2.9-4.8-2.9-8.3c0-3.8,0.7-8.3,6.2-8.3c4.8,0,7.9,3.6,7.9,8.3
		c0,67.2-48.9,153.2-186.4,153.2c-98.2,0-179-74.1-179-177.3c0-138,114.4-186.6,192.1-203.8c-25.7-4.3-62.2-10.7-96-10.7
		c-64.6,0-85.1,30.5-90.3,52.7l-6.7-3.3c1.2-31.2,28.6-116.8,112.7-116.8c82.5,0,135.1,34.3,199.2,34.3c42.4,0,50-19.1,53.9-38.8
		l7.4,2.9C3319.3,17.4,3320.2,33.6,3320.2,39.1"/>
	<path class="st0" d="M2670.4,411.1v-83.6l-38.8-18.1l-81.3,86.5l1.2,0.5c12.9-6.9,32.4-10.7,58.9-10.7c20.7,0,46,11.7,59.1,25.7
		L2670.4,411.1z M2744.5,382c-41.5,20-94.1,53.6-124.6,80.8c-17.6-14.3-40.3-28.6-67.2-28.6c-25.3,0-33.1,8.8-33.1,17.4
		c0,5.2,7.9,4.5,7.9,12.4c0,3.6-3.6,7.9-8.3,7.9c-6,0-11.9-6.2-11.9-16.9c0-16.7,10-38.6,40.3-72.4l52.2-57.9l-66.7-34.3v-4.1
		c5.5-1.7,7.4-5.5,7.4-11.9v-49.8c0-6.7-2.1-10.7-7.4-12.9v-4.1c43.1-21.4,92.7-48.9,121.3-72.9c7.6,8.6,28.6,20.3,49.8,20.3
		c18.1,0,20.3-5.5,20.3-11.9c0-3.6-2.9-5-2.9-7.4c0-4.8,2.6-6.7,6.2-6.7c5.2,0,9.5,4.1,9.5,14.1c0,26.7-25.7,59.6-66.7,59.6
		c-29.6,0-47.7-9.3-60.1-24.1l-2.9,1.7v73.4l41,19.5l17.4-17.4l78.6,39.8v4.1c-4.1,1.7-6.7,5.7-6.7,10.7v55.5
		c0,7.4,2.9,10.7,6.7,11.9L2744.5,382L2744.5,382z"/>
	<path class="st0" d="M2454.9,266.9c-18.1-22.4-49.1-63.4-66.3-89.8l-1.2,0.5v132.5L2454.9,266.9z M2518.5,241.7l-130.8,82.5v51.7
		c16.4,5.5,51.2,23.8,68.4,33.6l33.1-31.5c2.1-9.5,5-19.1,15.3-19.1c4.8,0,7.4,4.1,7.4,7.9c0,4.8-2.1,8.3-4.5,10.7l-85.8,84.6
		c-24.8-15.7-80.6-44.6-109.4-57.2v-3.3c4.8-1.7,8.6-8.1,8.6-14.8V225.2c0-6.9-3.6-13.6-9.1-14.5v-3.3c37.9-18.1,88.7-47.2,128.5-72
		C2463,169.9,2496.6,215.4,2518.5,241.7"/>
	<path class="st0" d="M2083.6,266.9c-18.1-22.4-49.1-63.4-66.3-89.8l-1.2,0.5v132.5L2083.6,266.9z M2147.5,241.7l-131.3,82.5v51.7
		c16.4,5.5,51.2,23.8,68.4,33.6l33.1-31.5c2.1-10,5-19.1,15.7-19.1c4.8,0,6.7,4.1,6.7,7.9c0,4.8-2.1,8.3-4.5,10.7l-85.8,85.3
		c-24.8-15.7-80.6-45.3-109.4-57.9v-3.3c4.8-1.7,8.3-8.1,8.3-14.8V225.2c0-6.9-3.6-13.6-8.8-14.5v-3.3c37.9-18.1,89.4-47.2,128.9-72
		C2092,169.9,2125.6,215.4,2147.5,241.7"/>
	<path class="st0" d="M1815.7,410.6V238.8c-17.6-11.7-58.6-41.2-79.6-57.7l-2.9,2.1V373c22.4,11,62,34.8,74.1,43.9L1815.7,410.6z
		 M1916.3,439.2c-1.7,70.3-34.3,121.8-99.9,121.8c-51.2,0-83.6-26.9-130.4-26.9c-27.2,0-42.2,9.1-49.8,18.6l-7.4-6.2
		c10-48.4,42.7-79.1,88.7-79.1c50.8,0,82.7,32.6,136.3,32.6c24.8,0,39.6-11.9,46.5-30.3l-0.7-1.2c-7.9,2.6-16.2,4.1-24.1,4.1
		c-27.6,0-52.7-18.8-57.9-50.5c-13.3,9.3-39.8,29.6-52.7,41c-32.6-21-82.2-47.7-107.7-59.1v-3.3c5.2-1.7,9.1-6.9,9.1-13.3V226.6
		c0-9.3-3.6-14.5-10-15.7V208c45.5-17.4,95.8-47.7,128.5-72.9c28.4,22.4,75.3,55.1,105.6,72.4v2.9c-4.1,1.7-7.9,6.2-7.9,15.7v176.1
		c0,21.9,5.5,33.6,21.4,33.6c2.6,0,5.5,0.2,8.6-0.5L1916.3,439.2z"/>
	<path class="st0" d="M1195.6,279.3l-57.2-168.5h-1.2L1080,279.3H1195.6z M1360.1,409.9c-18.8,32.6-38.4,56.7-66.7,56.7
		c-22.4,0-38.4-12.9-46.5-36.9l-37-107.7h-143.7l-20.7,60.1c22.9,1.7,44.1,15.7,49.8,15.7c6.4,0,11.9-5,19.1-16.9l8.8,5.5
		l-47.7,76.3c-12.9-11.2-33.4-22.9-60.5-22.9c-37.2,0-60.3,10-77.5,22.9l-6.2-2.1c8.3-40.3,41.5-74.8,99.4-79.1l99.9-292.9l-3.3-10
		c-6.9-20.7-20.5-31.9-35.5-31.9c-15.3,0-23.4,6.9-28.6,12.2l-4.5-4.1c4.1-22.9,25.3-48.4,57.7-48.4c27.2,0,45.5,13.3,55.5,29.3h1.2
		c4.8-12.4,13.6-22.4,22.9-23.6l1.7,2.9c-3.6,2.6-7.9,13.8-7.9,25.7c0,6,1.4,12.2,3.3,18.1l117.7,348.7c2.6,8.3,8.6,12.4,15,12.4
		c9.3,0,15.3-5.5,22.9-16.9L1360.1,409.9z"/>
	<path class="st0" d="M728.1,411.1v-83.6l-38.8-18.1L608,395.9l1.2,0.5c12.9-6.9,32.4-10.7,59.1-10.7c20.7,0,46,11.7,59.1,25.7
		L728.1,411.1z M802.4,382c-41.5,20-94.1,53.6-124.6,80.8c-17.6-14.3-40.3-28.6-67.2-28.6c-25.3,0-33.1,8.8-33.1,17.4
		c0,5.2,7.9,4.5,7.9,12.4c0,3.6-3.6,7.9-8.3,7.9c-6,0-11.9-6.2-11.9-16.9c0-16.7,10-38.6,40.3-72.4l52.2-57.9L591,290.4v-4.1
		c5.5-1.7,7.4-5.5,7.4-11.9v-49.8c0-5.2-3.1-10.5-7.4-12.9v-4.1c43.1-21.4,92.7-48.9,121.3-72.9c7.6,8.6,28.6,20.3,49.8,20.3
		c18.1,0,20.3-5.5,20.3-11.9c0-3.6-2.9-5-2.9-7.4c0-4.8,2.6-6.7,6.2-6.7c5.2,0,9.5,4.1,9.5,14.1c0,26.7-21.9,59.6-66.7,59.6
		c-29.6,0-47.7-9.3-60.1-24.1l-2.9,1.7v73.4l41,19.5l17.4-17.4l78.6,39.8v4.5c-4.1,1.7-6.7,5.7-6.7,10.7v55.1c0,7.4,3.1,10,6.7,11.9
		L802.4,382L802.4,382z"/>
	<path class="st0" d="M477.1,416.3V235c-23.6-14.1-59.6-38.8-78.6-53.9l-3.3,2.1v180.2c25.3,14.1,58.4,38.1,79.6,54.3L477.1,416.3z
		 M554.1,389.6c-36.9,15.3-98.2,49.8-127.5,72.9c-33.1-21.9-76.7-55.1-107.2-72.4V386c6.7-2.1,8.6-8.6,8.6-16.9V230.7
		c0-12.9-2.4-18.1-9.5-19.5v-3.3c43.9-17.4,88.2-42.2,127.5-73.2c27.4,21.9,77.5,54.3,106.1,72.4v3.3c-6,2.4-7.4,7.4-7.4,14.5v146.6
		c0,7.9,4.8,12.9,9.5,14.8v3.3H554.1z"/>
	<path class="st0" d="M165.2,369.6V82.2c-14.8-6.4-26.9-16.7-39.3-31L70.8,95.6c0,82.7,43.1,120.1,43.1,186.8
		c0,46.7-33.1,95.3-58.4,120.1l2.1,0.7C91.5,383.9,135.1,373.7,165.2,369.6 M309.3,359.4l-53.9,103.4
		c-20.7-17.6-51.2-30.3-91.5-30.3c-60.3,0-135.4,15.7-156.6,29.1L0,453.8c23.6-20.7,48.4-74.4,48.4-138
		c0-67.9-38.8-100.1-38.8-167.3c0-69.1,31-107.5,88.2-136.3l6.7,6.2C84,35.6,73.5,55.8,71.4,81.3L169.9,0
		c18.4,17.6,47.4,37.7,73.9,37.7c20,0,30.3-4.1,30.3-12.9c0-4.8-4.1-6.2-4.1-8.8c0-4.8,3.3-6.7,7.4-6.7c5.2,0,8.8,6.4,8.8,13.3
		c0,37.2-38.1,68.4-77.5,68.4c-13.1,0-24.1-1.2-33.6-4.1v281.7c6-0.7,11-1.2,15.3-1.2c37.2,0,70.3,15.7,79.1,15.7
		c12.9,0,17.6-9.3,28.1-29.1L309.3,359.4z"/>
</g>
</svg>
