<?xml version="1.0" encoding="utf-8"?>
<!-- Generator: Adobe Illustrator 26.5.0, SVG Export Plug-In . SVG Version: 6.00 Build 0)  -->
<svg version="1.1" id="Layer_1" xmlns="http://www.w3.org/2000/svg" xmlns:xlink="http://www.w3.org/1999/xlink" x="0px" y="0px"
	 viewBox="0 0 8192 561" style="enable-background:new 0 0 8192 561;" xml:space="preserve">
<style type="text/css">
	.st0{fill:#2C2A29;}
	.st1{fill-rule:evenodd;clip-rule:evenodd;fill:#2C2A29;}
</style>
<g>
	<g>
		<path class="st0" d="M2021.26,22.93c34.67,0,67.92,0,101.08,0c4.17,0,8.34,4.17,11.08,8.34
			c44.24,85.83,88.48,170.14,133.95,255.68c1.52,1.52,2.65,4.17,4.17,6.92c15.25-28.99,28.99-56.84,42.72-84.31
			c30.5-59.49,62.24-118.98,93.88-178.28c1.52-2.65,5.4-8.34,8.34-8.34c33.16,0,66.41,0,101.08,0V535.8h-113.3V251.04
			c-1.52,0-1.52,0-2.65-1.52c-5.4,9.57-11.08,20.65-16.48,30.5c-30.5,59.49-60.72,118.98-92.74,177.05
			c-1.52,4.17-6.92,6.92-11.08,6.92c-31.73,1.52-31.73,1.52-45.75-26.34c-31.73-62.24-63.66-122.87-95.39-185.39
			c-1.52-1.52-1.52-2.65-4.17-5.4V535.8h-114.81L2021.26,22.93L2021.26,22.93z"/>
		<path class="st0" d="M3557.5,320.19V24.44h114.81v512.87c-19.42,0-38.56-1.52-56.84,0c-30.5,4.17-46.99-6.92-63.66-33.16
			c-59.49-89.99-121.73-177.05-183.87-265.53c-1.52-2.65-2.65-4.17-6.92-8.34V535.8h-116.04V22.93h38.56c17.9,0,35.9,0,53.81,0
			c8.34,0,12.6,2.65,16.48,8.34c66.41,93.88,132.81,189.27,199.12,283.53C3553.34,316.02,3554.85,317.44,3557.5,320.19"/>
		<path class="st0" d="M3827.3,537.31V24.44c2.65,0,4.17-1.52,5.4-1.52c67.92,0,133.95,0,201.87,0c33.16,0,66.41,6.92,98.05,19.42
			c64.89,26.34,107.99,73.23,125.9,141.15c17.9,66.41,16.48,132.81-2.65,197.7c-23.59,77.49-77.49,124.38-154.88,142.38
			c-28.99,6.92-59.49,9.57-89.99,11.08c-56.84,1.52-111.88,0-168.62,0h-15.25L3827.3,537.31L3827.3,537.31z M3948.74,132.34v299.92
			c33.16-1.52,64.89-1.52,95.39-5.4c52.67-8.34,84.31-40.07,96.91-92.74c8.34-35.9,8.34-71.81,0-107.99
			c-11.08-53.81-45.75-85.83-99.56-92.74C4010.88,129.41,3980.67,132.34,3948.74,132.34"/>
		<path class="st0" d="M4609.58,545.65c-128.55,0-225.46-85.83-241.94-212.95c-8.34-60.72-4.17-120.21,20.65-177.05
			c45.75-103.73,143.9-149.2,247.62-139.63c130.06,11.08,207.55,107.99,219.77,226.69c5.4,57.98,0,114.81-24.82,168.62
			C4789.38,497.24,4709.24,545.65,4609.58,545.65 M4732.83,281.54c0-35.9-6.92-69.06-24.82-99.56
			c-41.59-70.57-132.81-78.91-183.87-16.48c-49.64,60.72-48.41,175.54,4.17,235.03c46.99,53.81,128.55,51.15,171.37-5.4
			C4724.49,360.26,4732.83,321.61,4732.83,281.54"/>
		<path class="st0" d="M2667.23,24.44h122.87v13.74c0,101.08,0,201.87,0,302.95c0,30.5,8.34,57.98,34.67,75.97
			c31.73,22.17,67.92,23.59,102.31,6.92c33.16-16.48,45.75-45.75,45.75-81.66c0-101.08,0-203.39,0-304.18V24.44h122.96v13.74
			c0,102.31,0,203.39,0,305.6c0,34.67-6.92,67.92-22.17,99.56c-24.82,49.64-66.41,78.91-118.98,92.74
			c-51.15,13.74-103.73,13.74-154.88-1.52c-75.97-22.17-124.38-82.79-131.3-161.8c-1.52-16.48-1.52-34.67-1.52-51.15
			c0-93.88,0-186.62,0-280.78L2667.23,24.44L2667.23,24.44z"/>
		<polygon class="st0" points="533.81,24.44 900.13,24.44 900.13,128.17 654.02,128.17 654.02,220.54 831.07,220.54 831.07,324.36 
			654.02,324.36 654.02,430.84 904.3,430.84 904.3,536.08 533.81,536.08 		"/>
		<polygon class="st0" points="1509.91,24.44 1876.23,24.44 1876.23,128.17 1630.12,128.17 1630.12,220.54 1807.17,220.54 
			1807.17,325.88 1628.6,325.88 1628.6,430.84 1878.98,430.84 1878.98,536.08 1509.91,536.08 		"/>
		<polygon class="st0" points="0,130.83 0,22.93 414.82,22.93 414.82,129.41 268.28,129.41 268.28,536.08 146.55,536.08 
			146.55,130.83 		"/>
		<polygon class="st0" points="1168.4,429.61 1399.26,429.61 1399.26,536.08 1048.19,536.08 1048.19,22.93 1168.4,22.93 		"/>
	</g>
	<g>
		<path class="st1" d="M5658.34,189.65c-10.52-54.47-56.17-69.91-106.38-74.55c-162.56-15.06-191.45,106.38-191.45,157.92
			c0,88,25.96,160.85,185.2,160.85c28.89,0,111.02-30.22,111.02-80.43h229.15c-9.19,145.88-255.11,182.36-361.11,182.36
			c-221.67,0-411.41-41.02-402.23-261.08c5.87-156.31,153.37-265.62,447.88-259.75c163.88,4.64,320.47,54.47,321.8,173.07
			L5658.34,189.65L5658.34,189.65z M7958.21,189.65c-10.51-54.47-56.17-69.91-106.38-74.55
			c-162.56-15.06-191.45,106.48-191.45,158.01c0,88,25.96,160.85,185.2,160.85c28.89,0,111.02-30.22,111.02-80.43h229.15
			c-9.19,145.79-255.11,182.26-361.21,182.26c-221.67,0-411.41-41.02-402.23-261.08c5.87-156.31,153.27-265.62,447.88-259.75
			c163.88,4.64,320.47,54.47,321.8,173.07L7958.21,189.65L7958.21,189.65z M5929.93,27.19h297.45l255.11,356.57h1.61V27.19h191.54
			v496.48h-285.33l-267.23-356.57h-1.61v356.57h-191.45V27.19H5929.93z M6734.76,27.19h361.21c174.68,0,276.14,48.6,276.14,122.77
			c0,43.95-42.34,97.19-138.21,112.26v1.61c115.29,7.58,157.92,80.43,157.92,122.77c0,88-100.13,136.6-294.52,136.6h-362.53V27.19z
			 M6944.21,219.87h60.72c92.55,0,141.15-7.58,141.15-45.66c0-41.02-41.02-54.47-124.48-54.47h-77.49v100.13H6944.21z
			 M6944.21,418.9h60.72c111.02,0,151.66-12.13,151.66-50.21c0-41.02-51.53-54.47-134.99-54.47h-77.49V418.9H6944.21z"/>
	</g>
</g>
</svg>
