<?xml version="1.0" encoding="utf-8"?>
<!-- Generator: Adobe Illustrator 26.5.0, SVG Export Plug-In . SVG Version: 6.00 Build 0)  -->
<svg version="1.1" id="Layer_1" xmlns="http://www.w3.org/2000/svg" xmlns:xlink="http://www.w3.org/1999/xlink" x="0px" y="0px"
	 viewBox="0 0 3622.4 561" style="enable-background:new 0 0 3622.4 561;" xml:space="preserve">
<style type="text/css">
	.st0{fill:#2C2A29;}
</style>
<path class="st0" d="M1298.1,543.6c-64,0-80.3-109.8-80.3-215.9c0-107.4,16.8-219,80.9-219c64,0,80.5,110.6,80.5,217.8
	S1362.2,543.6,1298.1,543.6 M1298.1,95c-86.6,0-151.5,102.2-151.5,232.8c0,129.3,64.7,230.5,151.3,230.5
	c86.6,0,152.7-101.4,152.7-231.7C1450.6,196,1384.9,95,1298.1,95 M2438.6,319c-4.5,0-17.9,0.8-19.3-1.2c0-54.4,0.2-143.7,0.2-179.8
	c0-18.1,4.7-23.8,22.4-23.8c33.9,0,53.4,35.9,53.4,100.2C2495,288.2,2472.9,319,2438.6,319 M2586.4,520.8l-43.1-97.1l-45.6-98.1
	l8.8-4.7c28.7-17.4,55.4-44.7,55.4-104.5c0-77.2-46.8-115-97.3-115c-8.8,0-44.1-0.2-77.2-0.2c-26.1,0-58.5,0.2-65.5,0.2v11.7h15.2
	c13.3,0,17.7,7,17.7,33.7v359.4c0,26.7-4.1,33-17.7,33H2322v12.5h121.3v-12.5h-7.8c-13.3,0-17.7-6.4-17.7-33V339.7
	c0-5.3,1-6.4,5.1-6.4c14,0,20.9,9.9,27.9,26.7c38.4,91.1,61.4,145.5,68.8,162.8c0,0,10.1,27.5,37.6,28.1c24,0.6,60.3,0.8,60.3,0.8
	l0.4-12.1C2609.4,539.9,2592.5,534.7,2586.4,520.8 M2194.9,540.1c-16.6,0-31.4-0.6-40.6-1.2c-8.8-0.6-12.1-16-12.1-26.5
	c0-33,0.2-151.1,0.2-179h17.7c37.6,0,51.5,35.1,53.2,82.7l9.2,0.4c0-9.2-0.2-45.2-0.2-85.8c0-45.8,1-90.1,1-94.2l-9.9-0.4
	c0,35.3-15.2,81.9-53.6,81.9h-17.7c0-20.9-0.4-172.6-0.4-199.9c0-2.9,0.8-4.1,4.7-4.7c6.6-0.6,13.5-0.6,27.9-0.6
	c49.5,0,68.6,33.9,96.9,98.3l11.7-0.6c-5.1-29.6-10.1-72.9-15.6-107.2c-0.4-1.6-1.4-2.9-3.7-2.9c-22.2,1.6-88.1,1-149.8,1
	c-21.3,0-49.3,0-66.7,0c-8,0-29.1,0-46.4,0h-50.5v10.9c1.8,0,13.8,0.4,15.2,0.4c14.8,0,24.6,16.8,16.4,49.3
	c-19.1,75.3-65.1,258.4-65.1,258.4s-50.9-209.6-67.1-275.7c-6-23.8-4.5-31.8,8.8-31.8h12.5v-11.7c-7.8,0-36.7-0.2-61-0.2
	c-24,0-56.2,0.2-64.2,0.2l0,0c-8.8,0-28.1-0.2-45.8-0.2h-51.7l0.4,11.7c26.1,0,40,8,40,52.1l0,0c0,7.6,0,197.1,0,246.3
	c0,79.4-15.6,130.1-65.9,130.1c-42.3,0-59.3-38.4-59.3-103.9V147.2c0-26.7,3.7-33.7,17.7-33.7h11.3v-12.1c-7.8,0-36.7-0.2-60.8-0.2
	c-24.6,0-56.2,0.2-64.2,0.2v12.1h15.4c13.5,0,17.7,7,17.7,33.7V437c0,63.2,34.7,121.3,111.5,121.3c77.4,0,93.2-67.9,93.2-146.8V165
	l0,0c0-43.5,13.8-51.9,42.1-51.9l0,0h16.8c11.1,0,14.8,9.9,22.2,40c17.7,71.2,92.6,373.8,100,405.2h8.6
	c7.8-30.8,79.2-307.1,99.1-383.6c13.3-51.5,32.4-61.4,52.8-61.4c2.9,0,12.9,0.4,14.4,0.4c13.3,0,17.7,7,17.7,33.7v359.4
	c0,26.7-4.1,33.7-17.7,33.7h-14v12.1h223.9c2.9,0,3.9,1.2,4.3-0.6c9.2-37.2,16-93.8,23.6-126.2l-11.9-0.4
	C2258.2,498.6,2237.2,540.1,2194.9,540.1 M3519.7,101l0.4,11.7c25.9,0,40.4,19.9,40.4,63.8v217.4
	c-22.6-43.5-135.3-255.1-152.9-289.4c-1.4-2.3-1.8-3.5-4.5-3.5c-1.4,0-20.9-0.2-41.7-0.2c-19.3,0-38.6,0.2-41.1,0.2
	c-8,0-28.7-0.2-47.2-0.2h-51.7l0.4,11.7c26.1,0,40,8,40,52.1c0,7.6,0,197.1,0,246.3c0,79.6-15.6,130.1-65.9,130.1
	c-42.3,0-59.3-38.4-59.3-103.9V146.8c0-26.7,3.7-33.7,17.7-33.7h11.3V101c-7.8,0-36.7-0.2-60.8-0.2c-24.6,0-56.2,0.2-64.2,0.2v12.1
	h15.4c13.3,0,17.7,7,17.7,33.7v289.8c0,63.2,34.7,121.3,111.5,121.3c77.4,0,93.2-67.9,93.2-146.8c0-61.2,0-233.2,0-246.3
	c0-43.3,13.5-51.9,41.7-51.9c13.3,0,20.5,5.5,27.9,18.9c5.1,9.2,12.3,24.8,18.5,36.3V483c0,43.5-15.2,56.7-29.1,56.7
	c-1.2,0-10.5-0.4-11.9-0.6v12.3c4.3,0,27.9,0.2,46,0.2h53v-12.1H3411c-17,0-27.7-17.4-27.7-62.6V201
	c72.9,139.8,107.6,208.8,185.4,357.2l10.1-0.2c0-27.3-1.2-365.8-1.2-381.4c0-43.5,16.6-63.8,45-63.8V101c-7.8,0-32.2-0.2-50.7-0.2
	H3520L3519.7,101L3519.7,101z M1077.3,120.7c-36.1-29.6-70.4-25.7-70.4-25.7c-73.7,0-154.6,80.3-154.6,232.8
	c0,112.5,50.9,230.5,150.3,230.5c49.3,0,87.9-32,113.7-59.3c0-20.9-0.2-87.6-0.2-97.5l-9.4,0.4c-18.5,85.6-35.3,141.6-100,141.6
	c-46.8,0-81.5-58.7-81.5-215.9c0-146.2,28.3-219,82.1-219c71.6,0,83.1,67.9,98.3,127.7l10.7-0.2V99.8h-11.9
	C1101.1,147.2,1077.3,120.7,1077.3,120.7 M2944,249.2c-11.7-10.5-56.2-50.3-72.5-64.2c-26.9-23.4-36.7-38.4-45-73.3
	c-3.5-15-4.5-95.5,63.6-95.5c39,0,72.9,45,94.6,130.1l10.9-0.4c-4.5-71.2-4.3-72.9-8.8-142.7L2976.7,3l-1.6,8.2
	c-0.6,3.5-2.9,20.7-10.1,20.7c-3.3,0-6.8-0.6-13.3-5.7c-20.3-15.8-46-26.3-68.6-26.3c-54.6,0-117.6,46.6-113.9,150.7
	c1.4,39,19.5,71,46.2,100.8c31.4,35.3,70.2,67.7,97.1,93.6c27.3,26.5,36.9,49.5,41.7,82.7c6,40.8-5.7,115.2-59.5,115
	c-56.7-0.2-96.1-56.9-119.1-160.9l-10.9,1.2c0,9.9,3.9,142.9,3.9,171.4l11.3-0.2c7.4-33.5,12.9-41.1,32.4-24.4
	c18.5,16,42.1,31.2,82.7,31.2c77.6,0,121.5-68.8,121.5-149C3016.4,333.2,2979.3,280.4,2944,249.2 M167.1,558.3h13.3
	c9.4-36.9,94-368.5,118-460.4c16.2-62,35.1-74.7,59.7-74.7V10.1c-9.4,0-36.3-0.4-57.1-0.4h-56.9v14c2.3,0,17.2-0.4,18.9-0.4
	c17.9,0,29.4,19.9,19.3,58.9c-22.8,90.1-77.8,308.3-77.8,308.3s-61.4-249.2-81.1-328.8c-7.2-28.5-5.5-38.4,10.7-38.4h13.5V10.1
	c-9.4,0-44.3-0.4-73.5-0.4C45.4,9.6,9.6,10.1,0,10.1v13.1h20.7c13.3,0,17.9,11.9,26.9,48.2C69,157.2,158.3,520.8,167.1,558.3
	 M383.9,205.7l39.8,149h-73.3L383.9,205.7z M253.7,540.1v12.1h96.7v-12.1c-28.3,0-39-23.8-30.2-61c12.9-55.6,23.6-105.1,24.6-110.2
	h84.8c15.8,59.1,16.6,65.7,35.7,135.7c5.1,19.1,4.1,35.3-11.1,35.3h-12.9V552H647v-12.1h-13.3c-17,0-27.7-17.4-27.7-62.6V201.6
	c72.9,139.8,110.2,208.6,188,357h7.4c0-27.3-1-365.8-1-381.4c0-43.5,16.6-63.8,44.7-63.8v-11.7c-7.8,0-32.2-0.2-50.7-0.2h-51.7
	l0.4,11.7c25.9,0,40.4,19.7,40.4,63.8v217.4C760.7,350.8,648.2,139,630.6,104.9c-1.4-2.3-1.8-3.5-4.7-3.5c-1.4,0-20.9-0.2-41.7-0.2
	c-19.5,0-38.8,0.2-41.3,0.2v11.7c13.3,0,20.5,5.5,27.9,18.9c5.1,9.2,12.3,24.8,18.3,36.3v315.1c0,40.2-10.7,53.6-25.7,56
	c-0.4,0-1,0.2-1.4,0.2c-0.2,0-0.4,0-0.6,0c-13.1-1.4-23-10.5-26.5-23.2c-46.8-168.1-72-237.9-123.6-421.2h-14.6
	c-6.2,26.1-92,375.2-97.7,400.3C291.3,531,274.6,540.1,253.7,540.1"/>
</svg>
