<?xml version="1.0" encoding="utf-8"?>
<!-- Generator: Adobe Illustrator 26.5.0, SVG Export Plug-In . SVG Version: 6.00 Build 0)  -->
<svg version="1.1" id="Capa_1" xmlns="http://www.w3.org/2000/svg" xmlns:xlink="http://www.w3.org/1999/xlink" x="0px" y="0px"
	 viewBox="0 0 563.16 354.22" style="enable-background:new 0 0 563.16 354.22;" xml:space="preserve">
<style type="text/css">
	.st0{fill:#FFFFFF;}
	.st1{fill:#CE9075;}
</style>
<g>
	<g>
		<g>
			<path class="st0" d="M97.18,132.04v5.61h0.86c3.16,0,6,0.89,8.51,2.69c2.52,1.79,4.29,4.14,5.29,7.01v93.8L29.9,132.04H2.95v5.61
				h0.85c4.02,0,7.44,1.37,10.25,4.1c0.91,0.89,1.68,1.85,2.29,2.88l13.55,16.96l81.95,110.84h12.29V147.35
				c1-2.87,2.77-5.21,5.28-7.01c2.52-1.8,5.36-2.69,8.52-2.69h0.86v-5.61H97.18z M31.71,262.61c-2.88-2.81-4.32-6.22-4.32-10.24
				v-84.06l-6.63-7.56v91.62c0,4.02-2.66,7.43-5.45,10.24c-2.81,2.81-7.48,4.21-11.5,4.21H2.95v5.6h42.26v-5.6h-0.64
				C40.54,266.82,34.58,265.42,31.71,262.61z"/>
			<path class="st0" d="M287.73,266.82c-3.87,0-7.47-1.12-10.78-3.35c-3.31-2.23-5.68-5.21-7.12-8.95l-39.89-105.02
				c-1.29-2.73-1.15-5.35,0.43-7.87c1.58-2.52,3.89-3.85,6.91-3.99v-5.61h-44.64v5.61h1.29c3.46,0,6,1.15,7.66,3.45
				c1.65,2.31,1.9,5.1,0.75,8.41c-1.87,5.18-11.57,29.9-29.11,74.18c-4.6,11.64-4.52,21.99,0.23,31.06
				c2.29,4.17,3.08,7.23,2.37,9.16c-0.73,1.94-3.38,2.92-7.98,2.92h-6.47v5.6h46.37v-5.6h-2.17c-4.74,0-9.24-1.12-13.47-3.35
				c-4.24-2.23-7.69-5.29-10.35-9.16c-2.66-3.89-4.27-8.2-4.85-12.95c-0.58-4.74,0-9.34,1.73-13.8l0.21-0.86h61.88l10.56,27.82
				c1.15,3.02,0.83,5.81-0.97,8.41c-1.8,2.58-4.35,3.88-7.66,3.88h-1.73v5.6h51.11v-5.6H287.73z M181.42,219.82l28.47-73.97
				l28.02,73.97H181.42z"/>
			<path class="st0" d="M435.72,266.82c-3.89,0-7.48-1.12-10.79-3.35c-3.31-2.23-5.68-5.21-7.11-8.95l-39.9-105.02
				c-1.29-2.73-1.15-5.35,0.44-7.87c1.58-2.52,3.87-3.85,6.89-3.99v-5.61h-44.63v5.61h1.29c3.45,0,6,1.15,7.66,3.45
				c1.64,2.31,1.89,5.1,0.75,8.41c-1.87,5.18-11.58,29.9-29.11,74.18c-4.6,11.64-4.52,21.99,0.21,31.06
				c2.31,4.17,3.1,7.23,2.37,9.16c-0.71,1.94-3.37,2.92-7.97,2.92h-6.47v5.6h46.36v-5.6h-2.16c-4.75,0-9.24-1.12-13.47-3.35
				c-4.25-2.23-7.7-5.29-10.35-9.16c-2.67-3.89-4.29-8.2-4.86-12.95c-0.58-4.74,0-9.34,1.73-13.8l0.21-0.86h61.9l10.56,27.82
				c1.15,3.02,0.83,5.81-0.98,8.41c-1.79,2.58-4.35,3.88-7.64,3.88h-1.73v5.6h51.11v-5.6H435.72z M329.41,219.82l28.46-73.97
				l28.03,73.97H329.41z"/>
			<path class="st0" d="M517.94,132.04v5.61h0.65c4.31,0,10.61,0.7,12.77,3.43c2.16,2.73,1.47,10.2-0.68,14.22l-29.11,50.89
				l-31.71-54.32c-2.29-4.31-2.23-7.76,0.21-10.35c2.44-2.58,5.9-3.87,10.35-3.87h0.65v-5.61H431.9v5.61h0.86
				c3.02,0,5.74,0.71,8.18,2.16c2.44,1.44,4.21,2.91,5.29,4.41c1.08,1.52,2.56,3.71,4.42,6.58c0.29,0.44,0.5,0.79,0.64,1.08
				l35.8,61.9v39.03c0,4.02-1.44,7.48-4.31,10.35c-2.88,2.87-6.33,4.31-10.35,4.31h-0.65v5.61h47.87v-5.61h-0.86
				c-4.02,0-7.44-1.44-10.24-4.31c-2.81-2.87-4.21-6.33-4.21-10.35v-38.81l35.37-62.11c6.75-9.49,13.3-14.22,19.63-14.22h0.86v-5.61
				H517.94z"/>
		</g>
	</g>
	<g>
		<path class="st1" d="M249.47,30.84c1.6,5.49,5.28,8.49,9.51,11.04c5.99,3.61,12.65,6.07,17.96,10.84
			c8.62,7.76,10.52,15.91,6.04,26.61c-0.5,1.2-1.07,2.38-1.66,3.53c-2.82,5.48-3.34,5.66-9.35,3.66
			c-12.54-4.17-18.48-13.71-21.17-25.92c-0.22-0.98,0.12-2.17-1.04-2.86c-1.73,11.32,3.84,25.29,23.69,37.48
			C251.45,91.96,227.96,61.88,249.47,30.84L249.47,30.84z"/>
		<path class="st1" d="M296.11,94.07c7.63-12.24,12.2-25.02,8.5-39.46c-1.94-7.57-6.15-13.94-12.04-19.09
			c11.19,18.77,6.78,38.15-1.57,49.24c1.3-5.21,3.03-9.71,2.17-14.67c-1.71-9.97-8.52-16.09-16.1-21.5
			c-4.45-3.18-9.24-5.95-14.1-8.46c-3.05-1.58-3.05-2.91-1.07-5.32c2.81-3.42,5.05-7.25,6.92-11.27c2.36-5.07,3.89-10.33,2.8-15.98
			c-0.36-1.88-0.05-2.49,1.93-1.99c21.27,5.31,38.48,16.01,46.43,37.42C325.31,57.34,322.35,81.94,296.11,94.07L296.11,94.07z"/>
	</g>
	<g>
		<g>
			<path class="st0" d="M462.13,321.29c-0.26-0.42-0.62-0.41-1.07,0.06c-0.37,0.5-0.96,1.31-1.73,2.4c-0.78,1.1-1.67,2.25-2.67,3.45
				c-1.02,1.22-2.07,2.37-3.19,3.49c-1.1,1.12-2.19,1.96-3.24,2.51c-1.05,0.55-1.99,0.71-2.84,0.5c-0.84-0.21-1.49-1.05-1.95-2.53
				c-0.13-0.34-0.23-0.66-0.29-0.99c-0.06-0.31-0.13-0.65-0.21-0.99c-0.21-0.88-0.21-1.73,0.03-2.56c0.23-0.83,0.7-1.64,1.41-2.43
				c0.55-0.6,1.04-1.22,1.48-1.88c0.45-0.65,0.86-1.33,1.23-2.06c0.29-0.42,0.52-0.84,0.66-1.3c0.15-0.44,0.31-0.89,0.47-1.36
				c0.13-0.45,0.11-0.88-0.03-1.26c-0.15-0.37-0.39-0.7-0.71-0.94c-0.73-0.47-1.52-0.44-2.4,0.11l-1.96,1.52
				c-1.17-1.1-2.45-1.75-3.81-1.96c-1.36-0.21-2.89,0.05-4.57,0.76c-1.35,0.71-2.58,1.73-3.71,3.03c-1.13,1.31-2.09,2.76-2.87,4.34
				c-0.75,1.51-1.26,3.08-1.59,4.7c-0.49,0.7-0.99,1.36-1.49,2.01c-1.12,1.43-2.25,2.66-3.4,3.71c-1.17,1.05-2.27,1.72-3.31,1.96
				c-0.13-0.24-0.24-0.49-0.36-0.7c-0.1-0.21-0.19-0.42-0.28-0.63c-0.13-0.76-0.21-1.52-0.23-2.29c-0.02-0.75,0.03-1.54,0.16-2.33
				c0.24-1.69,0.5-3.37,0.75-5.04c0.26-1.67,0.49-3.34,0.7-5.04c0.26-1.51,0.86-2.9,1.83-4.17c2.51-3.39,4.57-6.73,6.18-10.02
				c1.59-3.29,2.85-6.84,3.78-10.65c0.13-0.53,0.19-1.09,0.23-1.6c0.02-0.53,0.03-1.05,0.03-1.56c-0.1-0.5-0.28-0.96-0.53-1.36
				c-0.28-0.41-0.73-0.66-1.36-0.79c-0.71-0.08-1.3,0.02-1.73,0.32c-0.44,0.29-0.84,0.66-1.23,1.13c-1.56,1.86-2.87,3.78-3.97,5.77
				c-1.09,1.98-2.01,4.02-2.77,6.11c-0.75,2.09-1.41,4.25-1.95,6.47c-0.55,2.2-1.05,4.51-1.51,6.86c-0.1,0.34-0.15,0.71-0.16,1.12
				c-0.03,0.41-0.26,0.76-0.73,1.1c-0.16,0-0.36,0.02-0.57,0.03c-0.21,0.03-0.42,0.03-0.63,0.03c-0.79,0-1.52,0.13-2.2,0.39
				c-0.66,0.24-1.3,0.6-1.88,1.07c-1.99,1.59-3.42,3.27-4.3,5.07c-0.68,0.62-1.36,1.23-2.07,1.86c-1.13,0.99-2.25,1.93-3.37,2.79
				c-1.12,0.86-2.07,1.51-2.87,1.93c-1.56,1.15-2.74,1.44-3.57,0.89c-0.81-0.55-0.99-1.99-0.53-4.31l1.33-6.65
				c0.08-0.47,0.16-0.92,0.24-1.36c0.1-0.45,0.18-0.91,0.26-1.36c0-0.39-0.13-0.68-0.37-0.89c-0.21-0.13-0.47-0.11-0.76,0.03
				c-0.29,0.15-0.6,0.36-0.91,0.6c-0.32,0.26-0.6,0.52-0.86,0.79c-0.24,0.28-0.42,0.5-0.5,0.66c-0.37,0.89-0.76,2.04-1.13,3.49
				c-0.15,0.58-0.29,1.18-0.41,1.78c-0.05,0.06-0.08,0.13-0.13,0.21c-1.02,1.62-2.11,3.14-3.21,4.56c-1.12,1.43-2.25,2.66-3.4,3.71
				c-1.15,1.05-2.25,1.72-3.31,1.96c-0.13-0.24-0.24-0.49-0.36-0.7c-0.1-0.21-0.19-0.42-0.28-0.63c-0.13-0.76-0.19-1.52-0.23-2.29
				c-0.02-0.75,0.03-1.54,0.16-2.33c0.26-1.69,0.5-3.37,0.76-5.04c0.24-1.67,0.47-3.34,0.68-5.04c0.26-1.51,0.88-2.9,1.83-4.17
				c2.53-3.39,4.59-6.73,6.18-10.02c1.6-3.29,2.85-6.84,3.78-10.65c0.13-0.53,0.21-1.09,0.23-1.6c0.02-0.53,0.03-1.05,0.03-1.56
				c-0.08-0.5-0.26-0.96-0.53-1.36c-0.28-0.41-0.73-0.66-1.36-0.79c-0.71-0.08-1.28,0.02-1.73,0.32c-0.44,0.29-0.84,0.66-1.22,1.13
				c-1.56,1.86-2.89,3.78-3.97,5.77c-1.1,1.98-2.03,4.02-2.77,6.11c-0.76,2.09-1.41,4.25-1.96,6.47c-0.55,2.2-1.05,4.51-1.51,6.86
				c-0.08,0.34-0.15,0.71-0.16,1.12c-0.02,0.41-0.26,0.76-0.73,1.1c-0.16,0-0.36,0.02-0.57,0.03c-0.21,0.03-0.42,0.03-0.62,0.03
				c-0.81,0-1.54,0.13-2.22,0.39c-0.66,0.24-1.3,0.6-1.88,1.07c-2.24,1.78-3.76,3.68-4.6,5.74c-0.58,1.41-0.88,2.9-0.89,4.47
				c-0.63,1.04-1.28,2.01-1.98,2.9c-0.94,1.23-1.96,2.09-3.05,2.59c-0.63-0.84-0.99-1.85-1.04-3.03c-0.06-1.18-0.06-2.43,0-3.74
				c0.05-1.31,0.08-2.63,0.08-3.96c0-1.33-0.21-2.56-0.63-3.71c-0.45-1.18-1.13-1.88-2.04-2.09c-0.91-0.21-1.9,0.1-3,0.89
				c-0.92,0.58-1.73,1.33-2.45,2.22c-0.71,0.88-1.38,1.82-1.99,2.79c-0.6,0.97-1.17,1.93-1.7,2.89c-0.52,0.94-1.05,1.75-1.6,2.43
				c-0.03-0.68,0.03-1.36,0.19-2.06c0.16-0.7,0.37-1.41,0.6-2.12c0.23-0.71,0.47-1.44,0.73-2.19c0.24-0.73,0.44-1.51,0.57-2.3
				c0.16-0.47,0.23-0.91,0.18-1.31c-0.03-0.39-0.15-0.71-0.34-0.94c-0.19-0.23-0.44-0.34-0.76-0.32c-0.31,0.03-0.68,0.24-1.1,0.66
				c-0.58,0.6-1.02,1.18-1.31,1.78c-0.18,0.42-0.32,0.83-0.45,1.23c0,0.03-0.02,0.06-0.02,0.1c-0.88,0.71-1.77,1.44-2.72,2.16
				c-1.62,1.22-3.39,2.19-5.32,2.9l1.7-3.73c0.29-0.6,0.49-1.2,0.6-1.83c0.1-0.63,0.18-1.28,0.21-1.91c0.08-0.84-0.11-1.62-0.6-2.33
				c-0.49-0.73-1.12-1.3-1.91-1.72c-0.81-0.42-1.7-0.63-2.69-0.66c-0.97-0.02-1.91,0.28-2.8,0.86c-0.29,0.21-0.58,0.42-0.91,0.63
				c-0.31,0.21-0.62,0.44-0.91,0.7c-0.97,1.02-2.12,1.82-3.47,2.4c-0.29,0.13-0.58,0.34-0.88,0.65c-1.44,1.39-2.56,2.9-3.39,4.52
				c-0.03,0.06-0.05,0.13-0.08,0.21c-0.31,0.26-0.58,0.52-0.89,0.78c-1.22,1.05-2.42,2.06-3.61,3c-1.2,0.96-2.22,1.75-3.06,2.38
				c-0.63,0.45-1.38,0.91-2.24,1.33c-0.86,0.42-1.72,0.71-2.58,0.89c-0.86,0.16-1.67,0.15-2.43-0.06c-0.76-0.21-1.36-0.73-1.83-1.52
				c-0.71-1.52-0.86-3.21-0.44-5.07c0.42-1.85,1.09-3.58,2.03-5.19c0.24-0.47,0.57-0.96,0.94-1.46c0.37-0.5,0.79-0.96,1.26-1.33
				c0.45-0.39,0.96-0.66,1.48-0.83c0.52-0.16,1.1-0.13,1.73,0.13c-0.37,0.76-0.73,1.46-1.07,2.09c-0.34,0.63-0.63,1.26-0.89,1.9
				c-0.42,0.97-0.39,1.88,0.06,2.72c0.21,0.6,0.58,0.96,1.1,1.09c0.53,0.11,1.07-0.05,1.6-0.52c0.42-0.29,0.75-0.63,0.96-1.01
				c0.32-0.5,0.65-1.02,0.94-1.56c0.29-0.53,0.55-1.09,0.76-1.69c0.21-0.53,0.42-1.01,0.65-1.39c0.24-0.37,0.57-0.73,0.99-1.07
				c0.45-0.42,0.66-0.83,0.63-1.23c-0.05-0.41-0.36-0.7-0.96-0.86c-0.32-0.08-0.58-0.13-0.75-0.13c-0.42,0.1-0.76,0.08-1.01-0.03
				c-0.26-0.1-0.52-0.28-0.76-0.53c-0.5-0.5-1.07-0.79-1.7-0.89c-0.63-0.08-1.28,0-1.96,0.26c-1.43,0.42-2.69,1.15-3.78,2.19
				c-0.08,0.08-0.16,0.16-0.24,0.26c-1.59,0.83-3.11,1.69-4.6,2.56c-1.52,0.88-2.95,1.95-4.3,3.16c-0.21,0.18-0.39,0.32-0.57,0.47
				c-0.16,0.16-0.32,0.28-0.5,0.36l-3.34-1.96c-0.45-0.29-0.89-0.6-1.28-0.89c-0.41-0.29-0.81-0.62-1.23-0.96
				c-0.55-0.45-0.75-0.97-0.6-1.54c0.15-0.58,0.57-1.02,1.3-1.36c0.62-0.34,1.28-0.44,1.98-0.29c0.7,0.15,1.3,0.45,1.8,0.92
				c0.16,0.21,0.31,0.42,0.41,0.66c0.11,0.23,0.34,0.37,0.73,0.41c0.45-0.37,0.65-0.91,0.57-1.57c-0.08-0.31-0.18-0.6-0.29-0.89
				c-0.1-0.29-0.26-0.55-0.47-0.76c-1.22-1.52-2.87-1.99-4.98-1.39c-1.01,0.34-1.86,0.83-2.55,1.46c-0.7,0.63-1.17,1.43-1.43,2.4
				c-0.45,2.03,0.19,3.55,1.96,4.57c0.58,0.34,1.12,0.66,1.6,0.97c0.47,0.32,0.99,0.65,1.54,0.99c0.37,0.29,0.76,0.57,1.13,0.83
				c0.05,0.03,0.1,0.06,0.13,0.1c-3.63,1.56-7.26,3.16-10.89,4.83c-4.28,1.98-8.64,4.36-13.07,7.15c0.05-2.64,0.03-5.32-0.02-8.01
				c-0.06-2.69-0.15-5.46-0.28-8.3c1.56-1.15,3-2.16,4.34-3c1.35-0.83,2.63-1.56,3.81-2.19c1.18-0.63,2.29-1.2,3.31-1.73
				c1.02-0.53,1.96-1.13,2.82-1.78c0.31-0.18,0.58-0.44,0.83-0.76c0.23-0.32,0.19-0.81-0.08-1.48c-1.01,0-2.11,0.18-3.29,0.53
				c-1.18,0.34-2.42,0.83-3.7,1.43c-1.28,0.6-2.59,1.26-3.94,1.98c-1.33,0.73-2.67,1.43-3.99,2.12c0.03-1.57,0.06-3.27,0.1-5.11
				c0.02-1.85,0.03-3.68,0.06-5.51c0.02-1.83,0.03-3.65,0.06-5.43c0.03-1.8,0.05-3.45,0.06-4.99c0.73-0.55,1.95-1.04,3.61-1.46
				c1.69-0.42,3.5-0.75,5.46-1.01c1.98-0.26,3.92-0.44,5.84-0.57c1.93-0.11,3.52-0.15,4.73-0.1c0.53,0,1.05-0.03,1.59-0.11
				c0.53-0.06,0.92-0.44,1.17-1.13c-0.05-0.29-0.24-0.5-0.57-0.63c-0.34-0.15-0.73-0.26-1.18-0.36c-0.44-0.08-0.91-0.16-1.41-0.19
				c-0.49-0.05-0.86-0.1-1.13-0.15c-1.46-0.15-2.97-0.18-4.54-0.11c-1.56,0.08-3.11,0.21-4.68,0.39c-1.56,0.19-3.08,0.42-4.57,0.7
				c-1.48,0.28-2.87,0.55-4.18,0.84c-0.06-0.7-0.11-1.38-0.18-2.04c-0.31-1.75-2.25-2.2-2.74,0.34c-0.03,0.31-0.06,0.62-0.1,0.92
				c-0.08,0.79-0.7,8.45-0.71,10c-0.03,1.56-0.06,3.14-0.13,4.78c-0.05,1.62-0.11,3.23-0.18,4.83c-0.05,1.59-0.57,8.43-0.57,8.7
				c-0.31,0.29-3.16,2.33-3.44,2.63c-0.28,0.28-0.62,0.7-1.01,1.25c-0.1,0.19-0.15,0.44-0.13,0.76c0,0.34,0.06,0.62,0.19,0.84
				c0.08,0.23,0.26,0.42,0.52,0.55c0.28,0.15,0.5,0.21,0.73,0.21c0.47-0.05,1.02-0.19,1.62-0.45c0.62-0.24,1.2-0.42,1.75-0.52
				c0.26,2.56,0.37,5.22,0.36,7.98c-0.03,2.77-0.08,5.35-0.16,7.76c-0.32,0.66-0.89,1.33-1.69,2.03c-0.79,0.7-1.78,1.67-2.92,2.93
				c-0.29,0.32-0.49,0.68-0.58,1.07c-0.08,0.41,0.02,0.83,0.32,1.3c0.28,0.37,0.6,0.57,0.99,0.62c0.37,0.05,0.75-0.02,1.1-0.19
				c0.45-0.24,0.88-0.45,1.3-0.66c0.44-0.21,0.84-0.44,1.25-0.66l0.5,0.28c1.1,0.37,1.86,0.47,2.27,0.31
				c0.42-0.16,0.76-0.73,1.04-1.7c0.11-0.37,0.18-0.78,0.21-1.22c0.05-0.44,0.11-0.89,0.21-1.36c1.95-1.39,4.02-2.8,6.24-4.25
				c2.2-1.44,4.44-2.85,6.73-4.25c2.27-1.39,4.56-2.74,6.86-4c1.33-0.75,2.63-1.44,3.91-2.11c-0.16,0.32-0.31,0.65-0.45,0.94
				c-0.41,0.83-0.78,1.67-1.1,2.51c-0.29,0.66-0.45,1.35-0.47,1.99c-0.03,0.65,0.05,1.3,0.21,1.93c0.34,1.1,1.02,1.77,2.06,1.99
				c1.02,0.23,2.03-0.06,2.98-0.91c0.21-0.18,0.39-0.37,0.53-0.58c0.15-0.21,0.31-0.42,0.47-0.63c1.02-1.56,1.48-3.24,1.39-5.06
				c-0.08-1.52-0.47-3.05-1.13-4.57c0.55-0.45,1.07-0.91,1.57-1.36c0.5-0.44,0.99-0.84,1.46-1.23l3.03-2.37
				c-0.73,1.31-1.3,2.72-1.69,4.2c-0.39,1.52-0.62,2.98-0.66,4.38c-0.03,2.16,0.57,3.83,1.8,5.04c1.25,1.2,2.87,1.72,4.88,1.54
				c1.39-0.11,2.69-0.49,3.91-1.07c1.23-0.6,2.42-1.31,3.6-2.16c0.97-0.71,2.04-1.64,3.24-2.76c0.53-0.49,1.05-0.99,1.57-1.51
				c-0.03,0.44-0.05,0.89-0.02,1.35c0.03,1.57,0.55,2.82,1.57,3.74c1.01,0.92,2.32,1.39,3.97,1.39c0.5,0,1.01-0.08,1.51-0.23
				c0.5-0.15,1.01-0.32,1.51-0.53c1.43-0.79,2.67-1.75,3.73-2.85c0.37-0.34,0.75-0.63,1.13-0.89c0.37-0.24,0.83-0.44,1.38-0.57
				c0.37-0.13,0.76-0.28,1.13-0.44c0.37-0.16,0.73-0.34,1.07-0.5c2.11-1.05,4-2.25,5.71-3.58c0.29-0.23,0.58-0.49,0.86-0.73
				c-0.19,1.02-0.42,2.12-0.63,3.29c-0.34,1.78-0.53,3.39-0.57,4.81c-0.05,0.71,0.03,1.33,0.24,1.8c0.21,0.49,0.52,0.79,0.91,0.92
				c0.41,0.13,0.88,0.05,1.43-0.24c0.55-0.31,1.13-0.88,1.77-1.72c0.37-0.71,0.79-1.38,1.26-1.99c0.45-0.62,0.86-1.28,1.2-1.99
				c0.11-0.39,0.34-0.89,0.68-1.56c0.34-0.65,0.71-1.35,1.13-2.06c0.42-0.71,0.86-1.41,1.33-2.06c0.45-0.65,0.92-1.18,1.38-1.59
				c0.47-0.39,0.89-0.6,1.3-0.6c0.41,0,0.73,0.31,0.97,0.89c0.08,1.69,0.13,3.37,0.13,5.07c0,1.69,0.05,3.44,0.13,5.25
				c0.08,1.18,0.41,2.24,0.94,3.16c0.58,1.1,1.35,1.7,2.27,1.82c0.92,0.1,1.91-0.32,2.97-1.3c1.23-1.25,2.35-2.64,3.34-4.18
				c0.29,0.6,0.75,1.13,1.38,1.57c0.6,0.47,1.23,0.7,1.93,0.7c0.7,0,1.38-0.28,2.04-0.81c0.34-0.21,0.65-0.47,0.92-0.76
				c0.26-0.29,0.5-0.6,0.71-0.89c0.42-0.55,0.89-1.23,1.43-2.06c0.52-0.83,0.97-1.52,1.35-2.12c-0.21,1.13-0.26,2.35-0.15,3.61
				c0.1,1.26,0.36,2.37,0.75,3.32c0.41,0.96,0.97,1.62,1.7,2.03c0.75,0.41,1.65,0.36,2.74-0.16c1.13-0.55,2.3-1.41,3.5-2.59
				s2.35-2.53,3.44-4.02c0.47-0.63,0.89-1.28,1.33-1.93c-0.05,0.99-0.05,1.93,0.03,2.82c0.1,1.28,0.42,2.2,0.97,2.76
				c0.45,0.88,1.43,1.25,2.9,1.1c1.46-0.15,3-0.83,4.6-2.06c0.91-0.63,1.93-1.39,3.05-2.29c1.12-0.88,2.22-1.85,3.31-2.89
				c0.02,0,0.03-0.02,0.05-0.03c-0.16,1.18-0.16,2.42,0.02,3.68c0.16,1.05,0.73,1.93,1.7,2.59c0.58,0.47,1.23,0.7,1.93,0.7
				c0.68,0,1.36-0.28,2.04-0.81c0.34-0.21,0.63-0.47,0.91-0.76c0.28-0.29,0.52-0.6,0.73-0.89c0.42-0.55,0.89-1.23,1.43-2.06
				c0.52-0.83,0.97-1.52,1.35-2.12c-0.21,1.13-0.26,2.35-0.16,3.61c0.11,1.26,0.36,2.37,0.76,3.32c0.41,0.96,0.97,1.62,1.7,2.03
				c0.73,0.41,1.65,0.36,2.74-0.16c1.13-0.55,2.3-1.41,3.5-2.59c1.1-1.09,2.14-2.3,3.16-3.66c0.03,0.52,0.1,1.02,0.21,1.51
				c0.29,1.1,0.76,1.88,1.41,2.35c0.66,0.45,1.39,0.68,2.2,0.66c0.83-0.03,1.7-0.24,2.63-0.63c0.92-0.41,1.82-0.91,2.71-1.52
				c0.88-0.62,1.7-1.3,2.48-2.03c0.78-0.75,1.43-1.44,1.93-2.12c0.08,0.97,0.24,1.91,0.47,2.82c0.23,0.91,0.5,1.65,0.79,2.25
				c0.83,1.22,1.83,1.91,2.95,2.09c1.13,0.16,2.32-0.02,3.53-0.55c1.22-0.52,2.45-1.35,3.7-2.46c1.23-1.12,2.42-2.32,3.52-3.61
				c1.12-1.28,2.12-2.61,3.03-3.96c0.91-1.35,1.62-2.56,2.17-3.61C462.36,322.13,462.39,321.71,462.13,321.29z M425.9,301.61
				c1.25-3.18,2.63-6.42,4.08-9.73c0.05-0.08,0.13-0.15,0.26-0.21c0.13-0.06,0.31-0.19,0.57-0.41c0.08,1.35,0,2.59-0.26,3.76
				c-0.24,1.17-0.6,2.32-1.07,3.45c-0.45,1.39-0.91,2.61-1.35,3.65c-0.45,1.04-0.96,2.24-1.56,3.63c-0.37,0.86-0.78,1.69-1.22,2.51
				c-0.45,0.83-0.89,1.65-1.36,2.5c-0.05,0.08-0.13,0.19-0.26,0.32c-0.11,0.13-0.28,0.29-0.44,0.5
				C423.78,308.12,424.64,304.8,425.9,301.61z M387.58,301.61c1.26-3.18,2.63-6.42,4.1-9.73c0.03-0.08,0.11-0.15,0.24-0.21
				c0.13-0.06,0.32-0.19,0.57-0.41c0.08,1.35,0,2.59-0.24,3.76c-0.26,1.17-0.62,2.32-1.09,3.45c-0.45,1.39-0.91,2.61-1.35,3.65
				c-0.44,1.04-0.96,2.24-1.54,3.63c-0.39,0.86-0.79,1.69-1.23,2.51c-0.44,0.83-0.89,1.65-1.36,2.5c-0.03,0.08-0.13,0.19-0.24,0.32
				c-0.13,0.13-0.28,0.29-0.44,0.5C385.46,308.12,386.32,304.8,387.58,301.61z M297.91,332.78c-0.13,0.91-0.57,1.83-1.33,2.76
				c-0.08-0.21-0.16-0.37-0.24-0.5c-0.1-0.13-0.13-0.26-0.13-0.37c-0.05-0.86,0.06-1.67,0.34-2.45c0.28-0.78,0.73-1.64,1.36-2.56
				C298.04,330.84,298.04,331.87,297.91,332.78z M330.8,332.02c-0.58,0.37-1.15,0.55-1.7,0.55c-0.58,0.03-1.13-0.06-1.64-0.29
				c-0.5-0.23-0.88-0.65-1.13-1.23c-0.42-1.02-0.5-2.03-0.24-3.05c0.21-1.25,0.65-2.45,1.28-3.61c0.26-0.32,0.53-0.63,0.79-0.94
				c0.18-0.21,0.34-0.42,0.5-0.63c0.08,1.6,0.41,3.08,0.94,4.43c0.55,1.36,1.52,2.48,2.9,3.36
				C331.97,331.19,331.4,331.66,330.8,332.02z M338.04,322.39c-0.03,0.45-0.15,0.91-0.31,1.36c-0.55,1.49-1.41,2.93-2.58,4.38h-0.45
				c-0.71-0.29-1.3-0.76-1.77-1.39c-0.45-0.63-0.76-1.31-0.91-2.06c-0.15-0.75-0.13-1.49,0.06-2.29c0.19-0.78,0.53-1.46,1.04-2.06
				c0.58-0.71,1.26-1.15,2.03-1.33c0.75-0.16,1.46-0.06,2.14,0.32c0.66,0.42,0.99,0.99,0.94,1.7
				C338.16,321.5,338.09,321.95,338.04,322.39z M378.57,323.31c-0.13,0.71-0.42,1.44-0.88,2.16c-0.73,1.05-1.41,2.12-2.09,3.19
				c-0.66,1.09-1.35,2.17-2.01,3.27l-1.26,1.39c-0.66-0.31-1.07-0.68-1.2-1.12c-0.11-0.44-0.18-0.89-0.18-1.36
				c-0.1-0.71-0.03-1.44,0.18-2.19c0.11-0.36,0.23-0.71,0.36-1.07c0.32-0.7,0.65-1.39,0.96-2.09c0.6-1.07,1.38-2.11,2.35-3.08
				c0.5-0.45,1.05-0.81,1.67-1.07c0.6-0.26,1.33-0.34,2.17-0.26C378.72,321.86,378.7,322.6,378.57,323.31z M416.89,323.31
				c-0.13,0.71-0.42,1.44-0.89,2.16c-0.71,1.05-1.41,2.12-2.07,3.19c-0.68,1.09-1.35,2.17-2.01,3.27l-1.26,1.39
				c-0.68-0.31-1.07-0.68-1.2-1.12s-0.19-0.89-0.19-1.36c-0.08-0.71-0.02-1.44,0.19-2.19c0.21-0.73,0.49-1.46,0.83-2.19
				c0.62-1.43,1.57-2.79,2.82-4.05c0.5-0.45,1.07-0.81,1.67-1.07c0.62-0.26,1.35-0.34,2.19-0.26
				C417.04,321.86,417.02,322.6,416.89,323.31z M442.41,325.08c-0.08,0.34-0.18,0.68-0.28,0.99c-0.11,0.32-0.31,0.6-0.6,0.86
				c-0.34,0.34-0.81,0.79-1.43,1.39c-0.6,0.58-1.26,1.18-1.95,1.8c-0.7,0.62-1.41,1.15-2.16,1.62c-0.73,0.45-1.41,0.73-2.04,0.79
				c-0.63,0.05-1.15-0.15-1.57-0.6c-0.42-0.47-0.66-1.35-0.76-2.61c-0.03-1.64,0.26-3.19,0.84-4.67c0.23-0.45,0.44-0.89,0.62-1.31
				c0.66-1.22,1.54-2.32,2.64-3.32c1.18-1.1,2.51-1.7,4-1.82c1.49-0.1,2.87,0.28,4.12,1.12L442.41,325.08z"/>
			<path class="st0" d="M394.89,313.05c0.29,0.89,0.82,1.37,1.58,1.46c0.76,0,1.37-0.36,1.83-1.08c0.21-0.34,0.38-0.65,0.51-0.95
				c0.13-0.3,0.23-0.59,0.31-0.89l-0.06-0.95c-0.17-0.59-0.59-0.98-1.26-1.17c-0.67-0.19-1.24-0.07-1.7,0.35
				c-0.46,0.46-0.82,0.96-1.07,1.49C394.77,311.84,394.72,312.42,394.89,313.05L394.89,313.05z"/>
			<path class="st0" d="M249.83,321.29c-0.24-0.42-0.6-0.41-1.07,0.06c-0.37,0.5-0.96,1.31-1.73,2.4c-0.78,1.1-1.67,2.25-2.67,3.45
				c-1.01,1.22-2.07,2.37-3.18,3.49c-1.12,1.12-2.2,1.96-3.24,2.51c-1.05,0.55-2.01,0.71-2.85,0.5c-0.83-0.21-1.48-1.05-1.95-2.53
				c-0.13-0.34-0.23-0.66-0.29-0.99c-0.05-0.31-0.13-0.65-0.21-0.97c-0.21-0.89-0.19-1.75,0.03-2.58c0.23-0.83,0.7-1.64,1.41-2.43
				c0.55-0.6,1.05-1.22,1.49-1.88c0.44-0.65,0.84-1.33,1.23-2.06c0.29-0.42,0.5-0.84,0.65-1.3c0.15-0.44,0.31-0.89,0.49-1.36
				c0.11-0.45,0.11-0.88-0.05-1.26c-0.15-0.37-0.39-0.7-0.71-0.94c-0.71-0.47-1.51-0.44-2.4,0.11l-1.95,1.52
				c-1.18-1.1-2.45-1.75-3.83-1.96c-17.91-2.89-23.57,17.1-23.78,17.49c-0.13-0.42-0.23-0.76-0.29-1.02
				c-0.05-0.26-0.11-0.53-0.15-0.83c-0.26-1.9-0.39-3.83-0.42-5.75c-0.02-1.95-0.05-3.89-0.08-5.84c-0.05-0.42-0.1-0.84-0.13-1.26
				c-0.05-0.42-0.11-0.83-0.19-1.2c0-0.13-0.08-0.26-0.24-0.39c-0.18-0.13-0.32-0.19-0.45-0.19c-0.11,0-0.28,0.06-0.44,0.19
				c-0.16,0.13-0.31,0.26-0.44,0.39c-0.13,0.16-0.23,0.34-0.31,0.53c-0.1,0.19-0.18,0.39-0.26,0.6c-0.16,0.76-0.34,1.52-0.5,2.32
				c-0.18,0.78-0.28,1.54-0.32,2.3c-0.11,1.78-0.08,3.52,0.1,5.2c0.02,0.08,0.03,0.18,0.03,0.26c-1.39,4.78-4.07,11.41-8.75,12.47
				c-0.76,0.18-1.41-0.52-1.88-1.33c-0.49-0.79-0.83-1.85-1.02-3.13c-0.18-1.3-0.29-2.64-0.34-4.05c-0.05-1.43-0.03-2.77,0.03-4.05
				c0.06-1.3,0.13-2.32,0.23-3.08c0.03-0.47,0.11-0.89,0.24-1.3c0.13-0.41,0.29-0.81,0.5-1.23c0.6-1.23,1.17-2.48,1.73-3.74
				c0.57-1.26,1.15-2.55,1.73-3.86c0.71-1.73,1.43-3.45,2.11-5.17c0.7-1.7,1.41-3.45,2.12-5.22c0.71-1.69,1.26-3.36,1.67-5.01
				c0.39-1.65,0.75-3.36,1.04-5.14c0.08-0.58,0.11-1.17,0.1-1.77c-0.03-0.58-0.16-1.17-0.42-1.72c-0.66-1.64-1.93-2.03-3.78-1.13
				c-0.84,0.39-1.57,0.99-2.2,1.83c-0.55,0.73-1.05,1.48-1.51,2.25c-0.47,0.78-0.88,1.62-1.2,2.51c-0.34,1.09-0.68,2.19-1.04,3.29
				c-0.36,1.1-0.66,2.19-0.92,3.29c-0.63,2.74-1.25,5.66-1.88,8.74c-0.63,3.1-1.13,6.21-1.52,9.39c-0.15,1.31-0.28,2.63-0.36,3.96
				c-0.37,0.45-0.76,0.92-1.18,1.39c-1.41,1.62-2.87,3.11-4.38,4.44c-1.51,1.33-3,2.38-4.44,3.16c-1.44,0.78-2.74,1.02-3.87,0.73
				c-0.79-0.16-1.46-0.53-1.99-1.1c-0.52-0.58-0.91-1.23-1.15-1.98c-0.26-0.73-0.36-1.54-0.29-2.4c0.06-0.86,0.29-1.69,0.66-2.45
				c1.04,0,2.22-0.21,3.52-0.66c1.31-0.44,2.56-1.02,3.76-1.73c1.2-0.71,2.27-1.57,3.24-2.53c0.97-0.97,1.64-2.01,2.01-3.11
				c0.42-1.39,0.42-2.55-0.02-3.49c-0.45-0.92-1.17-1.54-2.16-1.83c-0.36-0.11-0.73-0.16-1.13-0.18c-8.23-1.1-14.49,1.73-14.49,1.73
				c-0.86,0.28-1.73,0.6-2.61,1.01c-0.89,0.41-1.75,0.84-2.59,1.33c-0.83,0.49-1.52,0.94-2.07,1.36c-0.96-1.35-2.04-2.56-3.24-3.65
				c-1.2-1.07-2.46-2.06-3.78-2.97c-1.33-0.91-2.71-1.75-4.13-2.51c-1.43-0.76-2.85-1.51-4.28-2.27c-0.76-0.39-1.28-0.84-1.59-1.36
				c-0.29-0.53-0.44-1.09-0.47-1.69c-0.02-0.58,0.06-1.18,0.26-1.8s0.42-1.18,0.73-1.69c1.25-2.24,2.67-3.97,4.28-5.19
				c1.59-1.23,3.44-2.14,5.54-2.72c2.06-0.55,3.84-0.52,5.35,0.13c1.52,0.63,3.08,1.86,4.67,3.73c0.13-0.26,0.24-0.44,0.36-0.57
				c0.1-0.13,0.19-0.23,0.28-0.29c0.08-0.06,0.15-0.13,0.19-0.18c0.03-0.06,0.06-0.19,0.06-0.36c-0.05-1.01-0.39-1.91-1.02-2.69
				c-0.62-0.78-1.41-1.41-2.35-1.9c-0.96-0.49-1.98-0.83-3.06-1.02c-1.09-0.19-2.11-0.23-3.02-0.1c-3.24,0.55-6.14,1.82-8.7,3.78
				c-2.56,1.96-4.7,4.67-6.44,8.14c-0.5,0.97-0.76,1.91-0.78,2.82c-0.02,0.91,0.1,1.75,0.34,2.53c0.26,0.78,0.62,1.48,1.07,2.06
				c0.47,0.6,0.96,1.04,1.46,1.33c1.38,0.94,2.74,1.78,4.05,2.58c1.33,0.78,2.61,1.57,3.83,2.37c1.22,0.81,2.37,1.67,3.47,2.56
				c1.09,0.92,2.14,1.96,3.14,3.14c-2.64,2.07-5.33,4.31-8.07,6.74c-2.72,2.43-5.17,5.06-7.31,7.89c-0.71,1.01-1.35,2.09-1.91,3.23
				c-0.57,1.13-1.01,2.35-1.3,3.61c-0.37,1.85-0.24,3.37,0.41,4.56c0.65,1.18,1.77,1.88,3.31,2.09c0.6,0.13,1.23,0.15,1.9,0.06
				c0.66-0.08,1.3-0.21,1.9-0.37c2.77-0.68,5.45-1.77,8.02-3.27c2.59-1.49,4.78-3.32,6.6-5.48c1.8-2.16,3.06-4.57,3.78-7.28
				c0.71-2.71,0.58-5.59-0.37-8.69c-0.1-0.45-0.32-0.99-0.7-1.6c-0.39-0.62-0.62-1.15-0.7-1.62c1.01-0.97,7.07-4.52,13.89-4.9
				c-0.03,0.03-0.06,0.05-0.1,0.08c-3.27,3-5.5,6.5-6.68,10.52c-0.66,2.5-0.47,4.85,0.57,7.1c0.47,1.09,1.13,1.96,2.03,2.59
				c0.88,0.63,1.93,1.05,3.14,1.26c1.13,0.16,2.29,0.05,3.44-0.34c1.15-0.41,2.3-0.99,3.47-1.75c1.15-0.76,2.27-1.65,3.37-2.66
				c1.09-1.02,2.11-2.07,3.05-3.16c0.37-0.44,0.73-0.88,1.07-1.31c-0.02,0.79-0.03,1.59-0.03,2.38c0,3.21,0.32,6.31,0.96,9.3
				c0.24,1.15,0.73,2.03,1.44,2.64c0.71,0.6,1.52,1.07,2.43,1.07c6.19,0,9.56-6.44,11.31-11.78c0.08,0.39,0.18,0.78,0.28,1.17
				c0.16,0.47,0.34,0.92,0.53,1.33c0.18,0.44,0.41,0.86,0.66,1.28c0.45,0.63,0.97,0.94,1.57,0.94c4.9,0,3.7-13.5,16.86-18.32
				c-0.32,0.29-0.62,0.62-0.92,0.96c-1.13,1.31-2.09,2.76-2.87,4.34c-0.78,1.59-1.31,3.23-1.64,4.94c-0.31,1.72-0.31,3.29,0.03,4.72
				c0.29,1.1,0.76,1.88,1.43,2.35c0.65,0.45,1.38,0.68,2.2,0.66c0.81-0.03,1.69-0.24,2.61-0.63c0.92-0.41,1.83-0.91,2.71-1.52
				c0.89-0.62,1.72-1.3,2.5-2.03c0.78-0.75,1.41-1.44,1.91-2.12c0.08,0.97,0.24,1.91,0.47,2.82c0.24,0.91,0.5,1.65,0.79,2.25
				c0.84,1.22,1.83,1.91,2.97,2.07c1.13,0.18,2.3,0,3.52-0.53c1.23-0.52,2.45-1.35,3.7-2.46c1.23-1.12,2.42-2.32,3.53-3.61
				c1.1-1.28,2.11-2.61,3.02-3.96c0.91-1.35,1.64-2.56,2.17-3.61C250.05,322.13,250.09,321.71,249.83,321.29z M191.02,312.99
				c0.29-1.6,0.57-3.19,0.81-4.75c0.26-1.57,0.55-3.14,0.89-4.75c0.29-1.36,0.62-2.67,0.97-3.96c0.36-1.3,0.75-2.58,1.17-3.84
				c0.21-0.58,0.45-1.13,0.75-1.62c0.31-0.49,0.62-0.99,0.96-1.54c0.16-0.26,0.39-0.47,0.7-0.63c0.24,0.16,0.36,0.34,0.34,0.53
				c-0.02,0.19-0.05,0.37-0.1,0.53c-0.08,1.39-0.28,2.76-0.6,4.09c-0.31,1.33-0.7,2.67-1.17,4.02c-0.71,2.12-1.43,4.21-2.14,6.27
				c-0.71,2.07-1.43,4.17-2.14,6.27c-0.05,0.26-0.11,0.49-0.19,0.7c-0.08,0.21-0.16,0.42-0.24,0.63c-0.1,0-0.15,0-0.16-0.03
				c-0.02-0.02-0.08-0.03-0.16-0.03L191.02,312.99z M155.79,333.14c-0.31,1.18-0.78,2.24-1.46,3.16c-1.88,2.29-4.07,4.2-6.52,5.77
				c-2.46,1.56-4.98,2.58-7.54,3.03c-0.5,0.13-0.97,0.13-1.41,0c-0.44-0.11-0.79-0.34-1.07-0.66c-0.28-0.31-0.45-0.71-0.5-1.23
				c-0.06-0.5,0.05-1.05,0.34-1.64c0.08-0.76,0.44-1.7,1.07-2.82c0.63-1.12,1.41-2.29,2.33-3.49c0.92-1.22,1.96-2.45,3.11-3.71
				c1.17-1.26,2.33-2.43,3.5-3.52c1.18-1.07,2.32-2.01,3.4-2.82c1.09-0.79,2.04-1.39,2.84-1.77c0.66,0.71,1.2,1.62,1.57,2.69
				c0.39,1.07,0.6,2.22,0.66,3.42C156.2,330.75,156.08,331.95,155.79,333.14z M171.52,320.46c0.68-1.01,1.48-1.96,2.35-2.85
				c0.34-0.34,0.7-0.62,1.07-0.84c0.39-0.24,0.78-0.45,1.2-0.68c0.42-0.19,0.92-0.31,1.52-0.31c0.66-0.08,1.15,0.1,1.48,0.53
				c0.31,0.45,0.34,0.99,0.1,1.62c-0.18,0.42-0.36,0.75-0.57,0.94c-0.89,1.23-1.93,2.24-3.16,3.02c-1.22,0.78-2.51,1.43-3.91,1.93
				c-0.21,0.1-0.45,0.11-0.75,0.1c-0.29-0.02-0.63,0-1.01,0.03C170.25,322.63,170.82,321.48,171.52,320.46z M230.1,325.08
				c-0.08,0.34-0.18,0.68-0.28,0.99c-0.11,0.32-0.31,0.6-0.6,0.86c-0.34,0.34-0.81,0.79-1.41,1.39c-0.62,0.58-1.26,1.18-1.96,1.8
				c-0.7,0.62-1.41,1.15-2.14,1.62c-0.75,0.47-1.43,0.73-2.06,0.79c-0.62,0.06-1.15-0.15-1.57-0.6c-0.42-0.47-0.66-1.35-0.75-2.61
				c-0.05-1.77,0.28-3.45,0.97-5.03c0.7-1.59,1.82-2.93,3.11-4.28c3.76-3.87,6.87-1.54,8.14-0.7L230.1,325.08z"/>
			<path class="st0" d="M394.95,312.99c0.29,0.89,0.82,1.37,1.58,1.46c0.76,0,1.36-0.36,1.83-1.08c0.21-0.34,0.38-0.65,0.51-0.95
				c0.13-0.3,0.23-0.59,0.31-0.89l-0.06-0.95c-0.17-0.59-0.59-0.98-1.26-1.17c-0.67-0.19-1.24-0.07-1.7,0.35
				c-0.46,0.46-0.82,0.96-1.07,1.49C394.82,311.78,394.78,312.36,394.95,312.99L394.95,312.99z"/>
		</g>
		<g>
			<path class="st0" d="M102.67,326.3c0.09-0.15,0.18-0.3,0.28-0.45c0.1-0.14,0.19-0.29,0.28-0.45c0.82-1.19,1.8-2.15,2.95-2.85
				c0.09-0.07,0.18-0.13,0.28-0.18c0.1-0.06,0.2-0.1,0.32-0.15c0.64-0.29,1.24-0.35,1.79-0.2c0.55,0.16,0.98,0.5,1.29,1.03
				c0.13,0.24,0.23,0.5,0.28,0.76c0.06,0.27,0.09,0.52,0.12,0.76c-0.02,0.18-0.03,0.35-0.02,0.53c0.01,0.18,0.03,0.36,0.05,0.56
				c0.91-0.44,1.81-1,2.7-1.66c0.9-0.66,1.64-1.36,2.24-2.09c0.11-0.04,0.18-0.04,0.22,0.02c0.03,0.06,0.05,0.13,0.05,0.22
				s-0.02,0.19-0.07,0.3s-0.09,0.2-0.13,0.27c-0.57,1.02-1.28,1.87-2.12,2.56c-0.84,0.69-1.76,1.28-2.75,1.79
				c-0.22,0.11-0.39,0.24-0.51,0.4c-0.12,0.16-0.24,0.35-0.35,0.6c-0.2,0.42-0.41,0.83-0.65,1.23c-0.23,0.4-0.47,0.8-0.71,1.2
				c-0.27,0.49-0.72,0.88-1.36,1.19c-0.51,0.22-0.94,0.22-1.28,0c-0.34-0.22-0.48-0.59-0.41-1.09c0.07-0.33,0.21-0.71,0.43-1.13
				c0.38-0.64,0.93-1.26,1.66-1.86c0.18-0.11,0.33-0.22,0.47-0.33s0.29-0.23,0.46-0.37c0.13-0.38,0.21-0.77,0.23-1.18
				c0.02-0.41,0.02-0.81,0-1.21c-0.02-0.09-0.04-0.17-0.05-0.25c-0.01-0.08-0.04-0.15-0.08-0.22c-0.2-0.35-0.5-0.49-0.9-0.4
				c-0.35,0.11-0.67,0.26-0.96,0.46c-0.29,0.2-0.57,0.42-0.86,0.66c-0.35,0.35-0.68,0.72-0.98,1.1c-0.3,0.38-0.55,0.79-0.75,1.23
				c-0.24,0.44-0.47,0.88-0.66,1.31c-0.2,0.43-0.4,0.86-0.6,1.28c-0.11,0.31-0.22,0.54-0.33,0.7c-0.09,0.16-0.21,0.24-0.37,0.25
				c-0.16,0.01-0.27-0.06-0.33-0.22c-0.11-0.18-0.2-0.43-0.27-0.76c-0.18-0.69-0.3-1.38-0.37-2.09c-0.07-0.71-0.08-1.43-0.03-2.16
				c0.09-1.5,0.21-2.99,0.37-4.46c0.16-1.47,0.4-2.96,0.73-4.46c0.31-1.33,0.67-2.62,1.1-3.88c0.42-1.26,0.92-2.51,1.49-3.75
				c0.15-0.31,0.32-0.59,0.48-0.85c0.16-0.25,0.34-0.53,0.51-0.81c0.16-0.27,0.39-0.53,0.7-0.8c0.22-0.2,0.46-0.33,0.73-0.4
				c0.26-0.07,0.51-0.07,0.75-0.02c0.23,0.06,0.44,0.17,0.61,0.35s0.3,0.41,0.36,0.7c0.11,0.31,0.16,0.63,0.13,0.96
				c-0.02,0.33-0.09,0.66-0.2,0.99c-0.27,1-0.61,1.97-1.03,2.92c-0.47,0.97-0.95,1.94-1.44,2.9c-0.5,0.96-0.99,1.94-1.48,2.94
				c-0.18,0.31-0.38,0.62-0.6,0.93s-0.42,0.63-0.6,0.96c-0.11,0.2-0.22,0.4-0.33,0.6c-0.11,0.2-0.19,0.41-0.23,0.63
				c-0.11,0.91-0.21,1.81-0.28,2.7C102.57,324.46,102.58,325.37,102.67,326.3z M107.58,307.09c-0.38,0.22-0.6,0.36-0.66,0.41
				c-0.07,0.06-0.14,0.16-0.23,0.32c-0.16,0.31-0.32,0.63-0.48,0.95c-0.17,0.32-0.3,0.64-0.41,0.95c-0.38,0.93-0.7,1.86-0.96,2.79
				c-0.26,0.93-0.5,1.88-0.7,2.85c-0.04,0.07-0.06,0.14-0.05,0.22c0.01,0.08,0.02,0.15,0.02,0.22c0.8-1.39,1.51-2.79,2.16-4.2
				C106.89,310.18,107.33,308.68,107.58,307.09z M107.38,328.96c-0.27,0.22-0.47,0.4-0.61,0.53c-0.14,0.13-0.25,0.25-0.32,0.35
				c-0.07,0.1-0.1,0.19-0.1,0.28s0.02,0.2,0.07,0.33c0.22-0.18,0.4-0.38,0.53-0.6C107.08,329.63,107.22,329.33,107.38,328.96z"/>
			<path class="st0" d="M120.82,324.77l-0.73,1c-0.35,0.51-0.72,1-1.1,1.46c-0.38,0.46-0.79,0.91-1.23,1.33
				c-0.18,0.18-0.37,0.35-0.57,0.53c-0.2,0.18-0.41,0.33-0.63,0.46c-0.55,0.31-1.08,0.4-1.58,0.27c-0.5-0.13-0.85-0.45-1.04-0.96
				c-0.22-0.57-0.3-1.18-0.23-1.83c0.07-0.84,0.19-1.68,0.38-2.52c0.19-0.84,0.47-1.67,0.85-2.49c0.07-0.22,0.21-0.44,0.43-0.66
				c0.07-0.11,0.16-0.14,0.3-0.1c0.04,0.02,0.09,0.05,0.13,0.08c0.04,0.03,0.07,0.07,0.07,0.12c0.02,0.13,0.03,0.27,0.02,0.4
				c-0.01,0.13-0.03,0.25-0.05,0.36c-0.11,0.55-0.22,1.1-0.32,1.64c-0.1,0.54-0.19,1.09-0.28,1.64c-0.18,0.84-0.19,1.61-0.03,2.32
				c0.02,0.09,0.06,0.18,0.12,0.27c0.06,0.09,0.1,0.17,0.15,0.23c0.22,0.02,0.39-0.02,0.5-0.12c0.11-0.1,0.22-0.2,0.33-0.32
				c0.38-0.35,0.73-0.72,1.06-1.11c0.33-0.39,0.64-0.79,0.93-1.21l2.95-4.21c0.09-0.11,0.17-0.22,0.23-0.33
				c0.07-0.11,0.16-0.22,0.27-0.33c0.26-0.26,0.55-0.36,0.86-0.3c0.4,0.07,0.6,0.29,0.6,0.66c0,0.24-0.01,0.5-0.02,0.76
				c-0.01,0.27-0.03,0.52-0.05,0.76c-0.09,0.73-0.18,1.47-0.27,2.21c-0.09,0.74-0.19,1.48-0.3,2.21l-0.1,1.06
				c0.18,0.04,0.3,0.02,0.38-0.07c0.08-0.09,0.16-0.18,0.25-0.27c0.64-0.68,1.22-1.28,1.73-1.77c0.51-0.5,1-0.97,1.48-1.41
				c0.48-0.44,0.96-0.88,1.44-1.31c0.49-0.43,1.03-0.92,1.63-1.48c0.31-0.27,0.51-0.31,0.6-0.13c0.09,0.18,0.04,0.38-0.13,0.6
				c-0.66,0.75-1.28,1.43-1.84,2.04c-0.56,0.61-1.12,1.21-1.66,1.79c-0.54,0.59-1.09,1.18-1.66,1.77c-0.56,0.6-1.19,1.25-1.87,1.96
				c-0.29,0.29-0.49,0.59-0.61,0.9c-0.12,0.31-0.21,0.65-0.25,1.03c-0.11,1.11-0.24,2.21-0.4,3.3c-0.16,1.09-0.35,2.19-0.6,3.3
				c-0.18,0.91-0.4,1.8-0.68,2.67s-0.64,1.73-1.08,2.57c-0.24,0.51-0.53,1.01-0.85,1.49c-0.32,0.49-0.7,0.93-1.14,1.33
				c-0.31,0.29-0.63,0.54-0.96,0.76c-0.35,0.2-0.71,0.32-1.06,0.35c-0.35,0.03-0.68-0.01-0.98-0.13c-0.3-0.12-0.55-0.31-0.76-0.56
				c-0.21-0.25-0.34-0.57-0.38-0.95c-0.02-0.46,0-0.97,0.07-1.53c0.09-0.8,0.25-1.58,0.5-2.36s0.52-1.54,0.83-2.29
				c0.91-2.08,2.05-4,3.42-5.77c0.35-0.44,0.71-0.89,1.08-1.34c0.36-0.45,0.72-0.9,1.08-1.34c0.09-0.11,0.17-0.24,0.25-0.38
				c0.08-0.14,0.13-0.28,0.15-0.41c0.11-0.93,0.22-1.86,0.32-2.79c0.1-0.93,0.2-1.87,0.32-2.82c-0.04,0-0.08,0-0.12-0.02
				C120.9,324.78,120.86,324.77,120.82,324.77z M119.99,333.2l-0.3,0.3c-0.64,0.77-1.24,1.55-1.79,2.34
				c-0.55,0.78-1.06,1.6-1.53,2.44c-0.49,0.86-0.91,1.74-1.28,2.64c-0.37,0.9-0.64,1.82-0.81,2.77c-0.07,0.27-0.1,0.54-0.1,0.81
				c0,0.28-0.01,0.55-0.03,0.81c0,0.38,0.17,0.63,0.5,0.75c0.33,0.12,0.66,0.06,0.99-0.18c0.73-0.55,1.28-1.16,1.66-1.82
				c0.22-0.38,0.43-0.76,0.63-1.16c0.2-0.4,0.38-0.8,0.53-1.19c0.49-1.35,0.85-2.7,1.09-4.07c0.24-1.36,0.43-2.74,0.57-4.13
				C120.14,333.48,120.1,333.38,119.99,333.2z"/>
		</g>
	</g>
</g>
</svg>
