<?xml version="1.0" encoding="utf-8"?>
<!-- Generator: Adobe Illustrator 25.3.1, SVG Export Plug-In . SVG Version: 6.00 Build 0)  -->
<svg version="1.1" id="Layer_1" xmlns="http://www.w3.org/2000/svg" xmlns:xlink="http://www.w3.org/1999/xlink" x="0px" y="0px"
	 viewBox="0 0 1000 1000" style="enable-background:new 0 0 1000 1000;" xml:space="preserve">
<style type="text/css">
	.st0{fill:none;}
	.st1{fill:#FFFFFF;}
</style>
<path class="st0" d="M952,255.4c0-53.4-43-96.3-96.3-96.3h-81.5l0,111.2c0,11.8-10.4,22.2-22.2,22.2c-11.8,0-22.2-10.4-22.2-22.2
	V159.1H270.2v111.2c0,11.8-10.4,22.2-22.2,22.2c-11.8,0-22.2-10.4-22.2-22.2V159.1h-81.5l0,0c-53.4,0-96.3,43-96.3,96.3l0,154.1H952
	V255.4z"/>
<path class="st0" d="M47.9,818.7c0,53.4,43,96.3,96.3,96.3h711.5c53.4,0,96.3-43,96.3-96.3V454.1H47.9L47.9,818.7z"/>
<path class="st0" d="M952,255.4c0-53.4-43-96.3-96.3-96.3h-81.5l0,111.2c0,11.8-10.4,22.2-22.2,22.2c-11.8,0-22.2-10.4-22.2-22.2
	V159.1H270.2v111.2c0,11.8-10.4,22.2-22.2,22.2c-11.8,0-22.2-10.4-22.2-22.2V159.1h-81.5l0,0c-53.4,0-96.3,43-96.3,96.3l0,154.1H952
	V255.4z"/>
<path class="st0" d="M47.9,818.7c0,53.4,43,96.3,96.3,96.3h711.5c53.4,0,96.3-43,96.3-96.3V454.1H47.9L47.9,818.7z"/>
<path class="st1" d="M855.7,114.6L855.7,114.6h-81.5V62.7c0-11.9-10.4-22.2-22.2-22.2c-11.9,0-22.2,10.4-22.2,22.2v51.9H270.2V62.7
	c0-11.9-10.4-22.2-22.2-22.2c-11.9,0-22.2,10.4-22.2,22.2l0,51.9h-81.5c-77.1,0-140.8,63.7-140.8,140.8v563.2
	c0,77.1,63.7,140.8,140.8,140.8h711.5c77.1,0,140.8-63.7,140.8-140.8V255.4C996.5,176.9,932.8,114.6,855.7,114.6z M952.1,454.1v89.8
	v274.8c0,53.3-43,96.3-96.3,96.3H144.3c-53.4,0-96.3-43-96.3-96.3l0-364.6h0v-44.5h0l0-154.1c0-53.4,43-96.3,96.3-96.3l0,0h81.5
	v111.2c0,11.9,10.4,22.2,22.2,22.2c11.9,0,22.2-10.4,22.2-22.2V159.1h459.5v111.2c0,11.9,10.4,22.2,22.2,22.2
	c11.9,0,22.2-10.4,22.2-22.2l0-111.2h81.5c53.4,0,96.3,43,96.3,96.3v106.5h0V454.1z"/>
</svg>
