<?xml version="1.0" encoding="utf-8"?>
<!-- Generator: Adobe Illustrator 26.5.0, SVG Export Plug-In . SVG Version: 6.00 Build 0)  -->
<svg version="1.1" id="Layer_1" xmlns="http://www.w3.org/2000/svg" xmlns:xlink="http://www.w3.org/1999/xlink" x="0px" y="0px"
	 viewBox="0 0 600 600" style="enable-background:new 0 0 600 600;" xml:space="preserve">
<style type="text/css">
	.st0{fill:#FFFFFF;}
</style>
<g>
	<path class="st0" d="M537.3,117.6c-44.5-58-103.3-95.3-174.8-110.8c-8.7-1.9-17.8-3-26.5-4.1c-4.1-0.5-8.4-1-12.6-1.6
		c-1.3-0.2-2.6-0.4-3.8-0.7c-0.6-0.1-1.2-0.2-1.8-0.3l-35.2,0l-0.2,0c-3.6,0.5-7.1,0.9-10.7,1.4c-7.6,0.9-15.5,1.9-23.2,3.3
		c-67.5,12-125.1,44-171.2,95.3c-42.7,47.4-68,104.5-75.2,169.8c-0.3,2.8-0.6,5.7-1,8.5l-0.5,4l0,35.1l0,0.2
		c0.5,3.6,0.9,7.2,1.3,10.7c0.9,7.6,1.9,15.5,3.3,23.2c16.6,89.1,64.4,158.4,142,206.1c39.1,24,83.1,37.9,130.7,41.3
		c0.9,0.1,1.8,0.3,2.8,0.6c0.5,0.1,1,0.3,1.5,0.4l35.3,0l0.1,0c3.6-0.5,7.1-0.9,10.7-1.4c7.6-0.9,15.5-1.9,23.2-3.3
		c68.7-12.3,127.1-45.2,173.5-98c42.2-48,66.6-104.2,72.7-167.2C605.4,251.3,585.1,179.8,537.3,117.6z M571.7,300.3
		c-0.3,72.6-28.8,141-80.2,192.5c-51.3,51.2-119,79.4-190.7,79.4c-0.3,0-0.7,0-1,0C149.6,571.7,27.8,449.4,28.4,299.7
		c0.3-72.6,28.8-141,80.2-192.5c51.3-51.2,119-79.4,190.7-79.4c0.3,0,0.7,0,1,0C450.5,28.3,572.2,150.6,571.7,300.3z"/>
	<path class="st0" d="M416.3,286.3c-21.3-13.8-42.7-27.5-64-41.3c-34.6-22.3-69.1-44.5-103.7-66.8c-5.1-3.3-10.8-5.9-17.2-2.3
		c-6.5,3.6-7.4,9.7-7.3,15.8c0.1,26.9,0.1,54.3,0.1,80.8l0,46.7c0,29.6,0,59.1,0,88.7l0,1.1c0,1.8,0,3.7,0.4,5.6
		c1,4.7,3.7,8.2,7.7,9.8c1.6,0.7,3.4,1,5.2,1c3.4,0,7.1-1.2,10.6-3.4c54.3-35,111.1-71.5,168.7-108.7c6-3.9,9.2-8.5,9.2-13.4
		C425.8,295.1,422.5,290.3,416.3,286.3z M386,300l-133.7,86.1V213.9L386,300z"/>
</g>
</svg>
