<svg width="18" height="17" viewBox="0 0 18 17" fill="none" xmlns="http://www.w3.org/2000/svg">
<path fill-rule="evenodd" clip-rule="evenodd" d="M12.5058 0.186035H5.8641C3.11301 0.186035 0.882812 2.41623 0.882812 5.16732V11.809C0.882812 14.5601 3.11301 16.7903 5.8641 16.7903H12.5058C15.2569 16.7903 17.4871 14.5601 17.4871 11.809V5.16732C17.4871 2.41623 15.2569 0.186035 12.5058 0.186035ZM2.54307 5.16711C2.54307 3.33305 4.02987 1.84625 5.86393 1.84625H12.5056C14.3397 1.84625 15.8265 3.33305 15.8265 5.16711V11.8088C15.8265 13.6429 14.3397 15.1297 12.5056 15.1297H5.86393C4.02987 15.1297 2.54307 13.6429 2.54307 11.8088V5.16711ZM9.1849 12.6392C6.89233 12.6392 5.03383 10.7807 5.03383 8.48817C5.03383 6.1956 6.89233 4.3371 9.1849 4.3371C11.4775 4.3371 13.336 6.1956 13.336 8.48817C13.336 10.7807 11.4775 12.6392 9.1849 12.6392ZM9.18479 10.9785C10.5603 10.9785 11.6754 9.86344 11.6754 8.4879C11.6754 7.11235 10.5603 5.99725 9.18479 5.99725C7.80924 5.99725 6.69415 7.11235 6.69415 8.4879C6.69415 9.86344 7.80924 10.9785 9.18479 10.9785ZM14.166 4.33711C14.166 4.79563 13.7943 5.16733 13.3357 5.16733C12.8772 5.16733 12.5055 4.79563 12.5055 4.33711C12.5055 3.8786 12.8772 3.5069 13.3357 3.5069C13.7943 3.5069 14.166 3.8786 14.166 4.33711Z" fill="white"/>
</svg>
