<svg width="17" height="17" viewBox="0 0 17 17" fill="none" xmlns="http://www.w3.org/2000/svg">
<path d="M14.4851 14.4852H11.9662V10.5404C11.9662 9.59969 11.9494 8.38876 10.6561 8.38876C9.34411 8.38876 9.14336 9.41362 9.14336 10.4719V14.4849H6.6245V6.37279H9.04262V7.48137H9.07653C9.56888 6.63953 10.4877 6.13486 11.4624 6.17105C14.0154 6.17105 14.4862 7.85032 14.4862 10.035L14.4851 14.4852ZM3.78232 5.2639C2.98042 5.2639 2.32025 4.6041 2.32025 3.80218C2.32025 3.00026 2.98011 2.34039 3.78202 2.34039C4.58385 2.34039 5.24364 3.00011 5.24379 3.80188C5.24379 4.60364 4.58408 5.26382 3.78232 5.2639ZM5.04175 14.4852H2.52023V6.37279H5.04175V14.4852ZM15.7408 0.00117283H1.25441C0.574398 -0.00650721 0.00828823 0.546454 0 1.22648V15.7732C0.00798408 16.4536 0.574018 17.0072 1.25441 16.9999H15.7408C16.4229 17.0085 16.9909 16.455 17 15.7732V1.22549C16.9909 0.544021 16.4221 -0.00886502 15.7408 0.00010769" fill="white"/>
</svg>
