<svg width="13" height="13" viewBox="0 0 13 13" fill="none" xmlns="http://www.w3.org/2000/svg">
<path fill-rule="evenodd" clip-rule="evenodd" d="M6.18322 6.81564C5.74321 6.37522 5.37959 5.89931 5.18664 5.51377C5.12329 5.38718 5.08388 5.28098 5.06658 5.20506L5.45684 4.81456C5.54245 4.72887 5.58361 4.68715 5.63681 4.63125C5.7495 4.51281 5.84346 4.40458 5.92612 4.29319C6.29797 3.79209 6.43616 3.24659 5.99598 2.75538C5.16255 1.58956 4.60187 0.868496 4.24241 0.51342C3.50071 -0.219228 2.29232 -0.121079 1.64909 0.512697C1.33849 0.818721 1.23292 0.92424 0.913994 1.24816C-0.948537 3.1116 0.162282 6.96399 3.0973 9.90176C6.03181 12.839 9.8845 13.9505 11.752 12.0821C12.0451 11.7996 12.2956 11.5489 12.4939 11.3394C13.1214 10.6762 13.2161 9.51986 12.4891 8.76444C12.1434 8.40524 11.4558 7.87172 10.2398 7.0017C9.79493 6.60735 9.27467 6.69289 8.81245 6.99612C8.60425 7.13271 8.45776 7.26629 8.18193 7.54239L7.79206 7.93245C7.71623 7.91515 7.61019 7.87577 7.48379 7.81248C7.09842 7.61949 6.6229 7.25574 6.18322 6.81564ZM8.84647 9.17514L9.33072 8.69065C9.41343 8.60786 9.47886 8.54399 9.53296 8.49387C10.5134 9.20067 11.0872 9.65018 11.3189 9.89094C11.3977 9.9728 11.3832 10.15 11.3142 10.2229C11.1349 10.4124 10.9012 10.6462 10.6139 10.9233C9.55381 11.9838 6.63083 11.1405 4.24622 8.75363C1.86069 6.36586 1.01763 3.44208 2.06697 2.39221C2.38424 2.07 2.48402 1.97027 2.78893 1.66985C2.83734 1.62215 3.03712 1.60592 3.1011 1.66913C3.35138 1.91635 3.82001 2.51364 4.50499 3.46363C4.49093 3.47894 4.47603 3.49487 4.46026 3.51145C4.41907 3.55473 4.38436 3.58992 4.30792 3.66642L3.82398 4.15061C2.8922 5.08228 3.63162 6.55978 5.0343 7.96378C6.43618 9.36697 7.9147 10.1074 8.84647 9.17514Z" fill="#fff"/>
</svg>
