<?xml version="1.0" encoding="utf-8"?>
<!-- Generator: Adobe Illustrator 25.3.1, SVG Export Plug-In . SVG Version: 6.00 Build 0)  -->
<svg version="1.1" id="Layer_1" xmlns="http://www.w3.org/2000/svg" xmlns:xlink="http://www.w3.org/1999/xlink" x="0px" y="0px"
	 viewBox="0 0 1000 1000" style="enable-background:new 0 0 1000 1000;" xml:space="preserve">
<style type="text/css">
	.st0{fill:#FFFFFF;}
</style>
<g>
	<path class="st0" d="M181.7,520.9c5.5,0,10.9-2.2,14.8-6c4-3.9,6.3-9.4,6.3-15.1c0-5.6-2.3-11.1-6.3-15.1c-4-3.9-9.5-6.1-15.1-6
		h-160c-5.6-0.1-11.1,2.1-15.1,6c-4,3.9-6.3,9.4-6.3,15.1c0,5.6,2.3,11.2,6.3,15.1c4,3.9,9.5,6.1,15.1,6h160
		C181.5,520.9,181.6,520.9,181.7,520.9z"/>
	<path class="st0" d="M993.7,484.7c-4-3.9-9.5-6.1-15.1-6h-160c-0.1,0-0.2,0-0.3,0c-5.5,0-10.9,2.2-14.8,6c-4,3.9-6.3,9.4-6.3,15.1
		c0,5.6,2.3,11.1,6.3,15.1c3.9,3.9,9.3,6,14.8,6c0.1,0,0.2,0,0.3,0h160c5.6,0.1,11.1-2.1,15.1-6c4-3.9,6.3-9.4,6.3-15.1
		C1000,494.1,997.7,488.6,993.7,484.7z"/>
	<path class="st0" d="M274.2,703.8L274.2,703.8c-5.5,0.2-10.6,2.5-14.5,6.4L145.9,825.1l-0.2,0.2c-8,8.3-7.9,21.5,0.3,29.7
		c4.1,4.1,9.5,6.1,14.9,6.1c5.4,0,10.9-2.1,15-6.2L289.8,740c6.2-6.1,8-15.3,4.6-23.4C290.9,708.5,283,703.5,274.2,703.8z"/>
	<path class="st0" d="M725.2,295.6C725.2,295.6,725.2,295.6,725.2,295.6c5.7,0,11-2.2,15-6.2l116.1-116.6c6.1-6,8-15.4,4.6-23.3
		c-3.4-8.1-11.3-13.1-20.1-12.8c-5.5,0.2-10.6,2.4-14.5,6.4L710.2,259.5c-4,4-6.2,9.3-6.1,14.9c0,5.6,2.3,11,6.2,14.9
		C714.3,293.4,719.6,295.6,725.2,295.6z"/>
	<path class="st0" d="M499.7,0c-11.6,0.2-20.9,9.7-20.8,21.3v160.1c-0.1,5.6,2.1,11.1,6,15.1c3.9,4,9.4,6.4,15.1,6.4
		c5.6,0,11.1-2.3,15.1-6.3c3.9-4,6.1-9.5,6-15.1V21.4c0.1-5.7-2.2-11.2-6.2-15.2C510.9,2.2,505.3-0.1,499.7,0z"/>
	<path class="st0" d="M499.7,797.1c-11.6,0.2-20.9,9.7-20.8,21.3v160.1c-0.1,5.6,2.1,11.1,6,15.1c3.9,4,9.4,6.3,15.1,6.3
		c5.6,0,11.1-2.3,15.1-6.3c3.9-4,6.1-9.5,6-15.1V818.5c0.1-5.6-2.2-11.2-6.2-15.2C510.9,799.3,505.4,797,499.7,797.1z"/>
	<path class="st0" d="M176.8,146.5c-4-4.1-9.5-6.4-15.1-6.4c-8.6,0-16.3,5.2-19.6,13.1c-3.2,8-1.4,17,4.7,23l112.9,113.4
		c3.9,4,9.3,6.4,14.9,6.5c0.1,0,0.2,0,0.3,0c5.5,0,11-2.2,14.9-6.2c4-4,6.3-9.5,6.2-15.1c0-5.6-2.4-11.1-6.4-15L176.8,146.5z"/>
	<path class="st0" d="M740.2,710.2c-3.9-4-9.4-6.4-15.1-6.4h0c0,0,0,0,0,0c-8.6,0-16.3,5.2-19.6,13.1c-3.2,8-1.4,17,4.7,23
		l115.2,115.8l2.9,2.9h0.6c3.4,2.2,7.3,3.5,11.4,3.5c0.1,0,0.2,0,0.3,0c5.6,0,11-2.2,14.9-6.2c4-4,6.3-9.5,6.2-15.1
		c0-5.6-2.4-11.1-6.4-15L740.2,710.2z"/>
</g>
</svg>
