<?xml version="1.0" encoding="utf-8"?>
<!-- Generator: Adobe Illustrator 25.3.1, SVG Export Plug-In . SVG Version: 6.00 Build 0)  -->
<svg version="1.1" id="Layer_1" xmlns="http://www.w3.org/2000/svg" xmlns:xlink="http://www.w3.org/1999/xlink" x="0px" y="0px"
	 viewBox="0 0 875 1000" style="enable-background:new 0 0 875 1000;" xml:space="preserve">
<style type="text/css">
	.st0{fill:#FFFFFF;}
</style>
<path class="st0" d="M875,237.5v170.8c-87.5,3.2-165.3-26-240.5-74.5v26.3c-0.2,111.8,1.3,223.6-0.8,335.4
	c-2.5,135.8-98.1,255.7-229.5,291.7c-19.1,5.3-38.9,8.5-58.4,12.8h-58.4c-3.1-1.1-6.2-2.9-9.3-3.4C142.1,979.1,35.6,880.8,7.4,746.7
	c-2.7-12.8-5-25.6-7.4-38.4v-54.1c1.1-3.3,2.7-6.3,3.2-9.6C22.6,512.8,96.1,425,220.9,380.4c44.8-16.1,91.5-17.9,140-11.9
	c0,54.7,0.1,107.4,0,160.1c0,3.9-0.9,7.9-1.5,13c-5-1-9-1.6-12.9-2.4C246.7,520.9,156.9,605.7,173,703
	c12.6,76,78.8,130.6,152.3,125.5c78.6-5.3,136.8-67.4,137.6-147.4c0.5-56.9,0.2-113.9,0.1-170.7c-0.2-170.2-0.3-340.3-0.5-510.4
	h170.9c3.4,55.1,17.9,106.4,54.3,149.1C736.6,206.4,797.1,240.7,875,237.5"/>
</svg>
