<?xml version="1.0" encoding="utf-8"?>
<!-- Generator: Adobe Illustrator 25.3.1, SVG Export Plug-In . SVG Version: 6.00 Build 0)  -->
<svg version="1.1" id="Layer_1" xmlns="http://www.w3.org/2000/svg" xmlns:xlink="http://www.w3.org/1999/xlink" x="0px" y="0px"
	 viewBox="0 0 1000 1000" style="enable-background:new 0 0 1000 1000;" xml:space="preserve">
<style type="text/css">
	.st0{fill:#FFFFFF;}
</style>
<g>
	<path class="st0" d="M1.6,814.6c111.9,10.1,210.7-16.9,300.5-84.2c-93.6-8.4-155.9-55.6-191-142.9c31.1,3.6,60,4.2,91.4-4.1
		c-49.3-12.1-88.1-36.1-117.9-73.6C55,472.2,40.3,429.4,40.2,381.1c14.9,5.6,28.8,12.1,43.3,16.1c14.6,4,29.8,5.7,44.8,7.6
		C39.5,328.7,18.6,238.6,68.6,130.4c111.9,131.6,251.8,203.7,421.8,215.2c-0.7-20.4-2.5-39.8-2-59.1c2.5-84.3,67-164.3,148.8-185.1
		c75.7-19.2,142.2-2,199.1,51.6c4.2,4,7.8,5.6,13.7,3.7c20.4-6.5,41.5-11.2,61.5-18.7c20-7.5,39-17.6,59.6-27.2
		c-6.5,23-17.2,43.6-32.5,61c-15.2,17.4-32.8,32.8-49,48.8c36.4-4,72.6-15.3,110-30.4c-26.2,38.5-55.4,70.7-90.7,96.8
		c-9,6.6-11.3,13.6-11.1,24.4c2,94.1-18.9,183.3-59.7,267.9c-49,101.5-120.1,183.6-216.3,243.2C553.4,864.8,478.8,890,399,900.6
		c-70.1,9.3-139.6,7-208.7-7.7c-65.8-14.1-127.2-39.3-184.2-74.9C5.3,817.4,4.6,816.8,1.6,814.6z"/>
</g>
</svg>
