<?xml version="1.0" encoding="utf-8"?>
<!-- Generator: Adobe Illustrator 25.3.1, SVG Export Plug-In . SVG Version: 6.00 Build 0)  -->
<svg version="1.1" id="Layer_1" xmlns="http://www.w3.org/2000/svg" xmlns:xlink="http://www.w3.org/1999/xlink" x="0px" y="0px"
	 viewBox="0 0 1000 1000" style="enable-background:new 0 0 1000 1000;" xml:space="preserve">
<style type="text/css">
	.st0{fill:#FFFFFF;}
</style>
<path class="st0" d="M500,1000l-17.3-15.4c-8.1-7.2-198.1-175.8-254.2-234.2c-102.9-107.1-153-213.7-153-325.9
	C75.6,190.4,266,0,500,0s424.4,190.4,424.4,424.5c0,118.7-57.6,234.1-176.2,352.8C729.7,795.8,526,976.9,517.3,984.6L500,1000z
	 M500,52.1c-205.3,0-372.3,167-372.3,372.3c0,98.1,45.3,192.9,138.4,289.8c45,46.8,184.7,172.1,233.9,215.9
	c67.3-59.9,198.1-176.6,211.3-189.8c108.3-108.3,161-211.7,161-315.9C872.3,219.1,705.3,52.1,500,52.1L500,52.1z"/>
</svg>
