<?xml version="1.0" encoding="utf-8"?>
<!-- Generator: Adobe Illustrator 25.3.1, SVG Export Plug-In . SVG Version: 6.00 Build 0)  -->
<svg version="1.1" id="Layer_1" xmlns="http://www.w3.org/2000/svg" xmlns:xlink="http://www.w3.org/1999/xlink" x="0px" y="0px"
	 viewBox="0 0 1000 1000" style="enable-background:new 0 0 1000 1000;" xml:space="preserve">
<style type="text/css">
	.st0{fill:#FFFFFF;}
</style>
<g>
	<path class="st0" d="M253.3,452.6h120.8c7.7,0,14-6.3,14-14V317.7c0-7.7-6.3-14-14-14H253.3v0c-7.7,0-14,6.3-14,14v120.8
		C239.3,446.3,245.6,452.6,253.3,452.6z M267.4,424.5v-92.8h92.8v92.8H267.4z"/>
	<path class="st0" d="M445.6,452.6h120.8c7.7,0,14-6.3,14-14V317.7c0-7.7-6.3-14-14-14H445.6v0c-7.7,0-14,6.3-14,14v120.8
		C431.6,446.3,437.8,452.6,445.6,452.6z M459.6,424.5v-92.8h92.8v92.8H459.6z"/>
	<path class="st0" d="M634.2,452.6H755c7.7,0,14-6.3,14-14V317.7c0-7.7-6.3-14-14-14H634.2v0c-7.7,0-14,6.3-14,14v120.8
		C620.1,446.3,626.4,452.6,634.2,452.6z M648.2,424.5v-92.8H741v92.8H648.2z"/>
	<path class="st0" d="M253.3,249.3h120.8c7.7,0,14-6.3,14-14V114.4c0-7.7-6.3-14-14-14H253.3c-7.7,0-14,6.3-14,14v120.8
		C239.3,243,245.6,249.3,253.3,249.3z M267.4,221.3v-92.8h92.8v92.8H267.4z"/>
	<path class="st0" d="M445.6,249.3h120.8c7.7,0,14-6.3,14-14V114.4c0-7.7-6.3-14-14-14H445.6c-7.7,0-14,6.3-14,14v120.8
		C431.6,243,437.8,249.3,445.6,249.3z M459.6,221.3v-92.8h92.8v92.8H459.6z"/>
	<path class="st0" d="M634.2,249.3H755c7.7,0,14-6.3,14-14V114.4c0-7.7-6.3-14-14-14H634.2c-7.7,0-14,6.3-14,14v120.8
		C620.1,243,626.4,249.3,634.2,249.3z M648.2,221.3v-92.8H741v92.8H648.2z"/>
	<path class="st0" d="M253.3,655.8h120.8c7.7,0,14-6.3,14-14V520.9c0-7.7-6.3-14-14-14H253.3c-7.7,0-14,6.3-14,14v120.8
		C239.3,649.5,245.6,655.8,253.3,655.8z M267.4,627.8V535h92.8v92.8H267.4z"/>
	<path class="st0" d="M445.6,655.8h120.8c7.7,0,14-6.3,14-14V520.9c0-7.7-6.3-14-14-14H445.6c-7.7,0-14,6.3-14,14v120.8
		C431.6,649.5,437.8,655.8,445.6,655.8z M459.6,627.8V535h92.8v92.8H459.6z"/>
	<path class="st0" d="M634.2,655.8H755c7.7,0,14-6.3,14-14V520.9c0-7.7-6.3-14-14-14H634.2c-7.7,0-14,6.3-14,14v120.8
		C620.1,649.5,626.4,655.8,634.2,655.8z M648.2,627.8V535H741v92.8H648.2z"/>
	<path class="st0" d="M953.9,972H833.1V14.1C833.1,6.3,826.8,0,819,0H181c-7.8,0-14.1,6.3-14.1,14.1V972H46.1c-7.7,0-14,6.3-14,14
		c0,7.7,6.3,14,14,14H181h638h134.9c7.7,0,14-6.3,14-14C967.9,978.3,961.6,972,953.9,972z M595.3,971.8H404.7V722.8h190.6V971.8z
		 M804.9,971.8H623.5V708.7c0-7.8-6.3-14.1-14.1-14.1H390.5c-7.8,0-14.1,6.3-14.1,14.1v263.1H195.1V28.2h609.8V971.8z"/>
</g>
</svg>
