<?xml version="1.0" encoding="utf-8"?>
<!-- Generator: Adobe Illustrator 26.5.0, SVG Export Plug-In . SVG Version: 6.00 Build 0)  -->
<svg version="1.1" id="Capa_1" xmlns="http://www.w3.org/2000/svg" xmlns:xlink="http://www.w3.org/1999/xlink" x="0px" y="0px"
	 viewBox="0 0 638.94 284.15" style="enable-background:new 0 0 638.94 284.15;" xml:space="preserve">
<style type="text/css">
	.st0{fill:#FFFFFF;}
	.st1{fill:#94C13D;}
</style>
<g>
	<g>
		<path class="st0" d="M63.56,269.75c0-3.41-2.38-5.7-5.92-5.7h-7.51v18.57h2.77v-7.17h3.2l4.52,7.05l0.08,0.12h3.28l-4.91-7.42
			C61.37,274.83,63.56,273.06,63.56,269.75z M52.9,272.96v-6.38h4.48c2,0,3.34,1.28,3.34,3.18c0,1.89-1.37,3.2-3.34,3.2H52.9z"/>
		<polygon class="st0" points="72,282.63 84.35,282.63 84.35,280.1 74.77,280.1 74.77,274.4 84.16,274.4 84.16,271.87 74.77,271.87 
			74.77,266.58 84.35,266.58 84.35,264.05 72,264.05 		"/>
		<path class="st0" d="M99.3,271.62c-2.23-0.61-4.15-1.13-4.15-2.7c0-1.54,1.42-2.61,3.45-2.61c2.02,0,3.81,0.74,5.03,2.08l0.2,0.22
			l1.69-2.06l-0.16-0.17c-1.64-1.73-3.86-2.6-6.6-2.6c-3.74,0-6.46,2.22-6.46,5.27c0,3.68,3.29,4.58,6.19,5.36
			c2.42,0.66,4.5,1.22,4.5,3.16c0,1.38-1.05,2.85-3.99,2.85c-2.83,0-4.66-1.56-5.49-2.49l-0.21-0.23l-1.65,2.12l0.14,0.16
			c1.2,1.35,3.4,2.96,7.12,2.96c5.1,0,6.92-2.87,6.92-5.57C105.84,273.39,102.21,272.41,99.3,271.62z"/>
		<rect x="114.09" y="264.05" class="st0" width="2.77" height="18.57"/>
		<path class="st0" d="M132.4,264.05h-6.43v18.57h6.43c5.6,0,9.52-3.81,9.52-9.27C141.92,267.88,138,264.05,132.4,264.05z
			 M132.4,280.1h-3.66v-13.53h3.66c3.99,0,6.67,2.72,6.67,6.78C139.07,277.39,136.39,280.1,132.4,280.1z"/>
		<polygon class="st0" points="150.32,282.63 162.67,282.63 162.67,280.1 153.09,280.1 153.09,274.4 162.49,274.4 162.49,271.87 
			153.09,271.87 153.09,266.58 162.67,266.58 162.67,264.05 150.32,264.05 		"/>
		<polygon class="st0" points="183.83,277.62 173.91,264.16 173.83,264.05 171.14,264.05 171.14,282.63 173.91,282.63 
			173.91,268.77 183.96,282.52 184.04,282.63 186.6,282.63 186.6,264.05 183.83,264.05 		"/>
		<path class="st0" d="M209.26,277.92c-1.03,1.55-2.85,2.51-4.74,2.51c-3.88,0-6.69-2.98-6.69-7.08c0-4.1,2.82-7.07,6.69-7.07
			c1.87,0,3.69,0.96,4.74,2.51l0.13,0.2l2.36-1.31l-0.17-0.24c-1.19-1.68-3.38-3.68-7.06-3.68c-5.53,0-9.54,4.04-9.54,9.6
			c0,5.56,4.01,9.6,9.54,9.6c2.9,0,5.29-1.24,7.08-3.68l0.18-0.24l-2.39-1.31L209.26,277.92z"/>
		<rect x="219.42" y="264.05" class="st0" width="2.77" height="18.57"/>
		<path class="st0" d="M239.91,264.05h-3.14l-7.46,18.57h3.13l1.6-4h8.63l1.6,4h3.14l-7.43-18.41L239.91,264.05z M234.9,276.1
			l3.46-8.75l3.43,8.75H234.9z"/>
		<polygon class="st0" points="257.29,264.05 254.52,264.05 254.52,282.63 265.68,282.63 265.68,280.1 257.29,280.1 		"/>
		<path class="st0" d="M293.65,264.05h-7.51v18.57h2.77v-7.17h4.75c3.48,0,5.92-2.34,5.92-5.7
			C299.57,266.4,297.13,264.05,293.65,264.05z M293.38,272.93h-4.48v-6.35h4.48c2,0,3.34,1.28,3.34,3.18
			C296.72,271.65,295.38,272.93,293.38,272.93z"/>
		<path class="st0" d="M319.91,275.3c0,3.26-1.77,5.13-4.85,5.13c-3.09,0-4.86-1.87-4.86-5.13v-11.25h-2.77v11.3
			c0,4.83,2.78,7.6,7.62,7.6c4.84,0,7.62-2.78,7.62-7.62v-11.28h-2.77V275.3z"/>
		<polygon class="st0" points="331.79,282.63 344.14,282.63 344.14,280.1 334.56,280.1 334.56,274.4 343.95,274.4 343.95,271.87 
			334.56,271.87 334.56,266.58 344.14,266.58 344.14,264.05 331.79,264.05 		"/>
		<path class="st0" d="M366.04,269.75c0-3.41-2.38-5.7-5.92-5.7h-7.51v18.57h2.77v-7.17h3.2l4.52,7.05l0.08,0.12h3.28l-4.91-7.42
			C363.84,274.83,366.04,273.06,366.04,269.75z M355.37,272.96v-6.38h4.48c2,0,3.34,1.28,3.34,3.18c0,1.89-1.37,3.2-3.34,3.2H355.37
			z"/>
		<polygon class="st0" points="372.96,266.58 378.67,266.58 378.67,282.63 381.44,282.63 381.44,266.58 387.17,266.58 
			387.17,264.05 372.96,264.05 		"/>
		<path class="st0" d="M402.8,263.75c-5.34,0-9.22,4.04-9.22,9.6c0,5.56,3.88,9.6,9.22,9.6c5.34,0,9.22-4.04,9.22-9.6
			C412.02,267.79,408.14,263.75,402.8,263.75z M402.8,280.43c-3.81,0-6.37-2.84-6.37-7.08c0-4.23,2.56-7.07,6.37-7.07
			c3.81,0,6.37,2.84,6.37,7.07C409.17,277.52,406.55,280.43,402.8,280.43z"/>
		<polygon class="st0" points="441.91,277.22 436.55,264.21 436.48,264.05 432.82,264.05 432.82,282.63 435.59,282.63 
			435.59,268.82 441.21,282.46 441.27,282.63 442.54,282.63 448.25,268.82 448.25,282.63 451.02,282.63 451.02,264.05 
			447.36,264.05 		"/>
		<path class="st0" d="M468.62,263.75c-5.34,0-9.22,4.04-9.22,9.6c0,5.56,3.88,9.6,9.22,9.6s9.22-4.04,9.22-9.6
			C477.84,267.79,473.96,263.75,468.62,263.75z M468.62,280.43c-3.81,0-6.37-2.84-6.37-7.08c0-4.23,2.56-7.07,6.37-7.07
			s6.37,2.84,6.37,7.07C474.99,277.52,472.37,280.43,468.62,280.43z"/>
		<path class="st0" d="M499.68,269.75c0-3.41-2.38-5.7-5.92-5.7h-7.51v18.57h2.77v-7.17h3.2l4.52,7.05l0.08,0.12h3.28l-4.91-7.42
			C497.49,274.83,499.68,273.06,499.68,269.75z M489.02,272.96v-6.38h4.48c2,0,3.34,1.28,3.34,3.18c0,1.89-1.37,3.2-3.34,3.2H489.02
			z"/>
		<polygon class="st0" points="508.12,282.63 520.47,282.63 520.47,280.1 510.89,280.1 510.89,274.4 520.28,274.4 520.28,271.87 
			510.89,271.87 510.89,266.58 520.47,266.58 520.47,264.05 508.12,264.05 		"/>
		<polygon class="st0" points="531.7,264.05 528.93,264.05 528.93,282.63 540.09,282.63 540.09,280.1 531.7,280.1 		"/>
		<path class="st0" d="M555.72,263.75c-5.34,0-9.22,4.04-9.22,9.6c0,5.56,3.88,9.6,9.22,9.6c5.34,0,9.22-4.04,9.22-9.6
			C564.93,267.79,561.06,263.75,555.72,263.75z M555.72,280.43c-3.81,0-6.37-2.84-6.37-7.08c0-4.23,2.56-7.07,6.37-7.07
			c3.81,0,6.37,2.84,6.37,7.07C562.09,277.52,559.47,280.43,555.72,280.43z"/>
		<path class="st0" d="M579.83,271.62c-2.23-0.61-4.15-1.13-4.15-2.7c0-1.54,1.42-2.61,3.45-2.61c2.02,0,3.81,0.74,5.03,2.08
			l0.2,0.22l1.69-2.06l-0.16-0.17c-1.64-1.73-3.86-2.6-6.6-2.6c-3.74,0-6.46,2.22-6.46,5.27c0,3.68,3.29,4.58,6.19,5.36
			c2.42,0.66,4.5,1.22,4.5,3.16c0,1.38-1.05,2.85-3.99,2.85c-2.83,0-4.66-1.56-5.49-2.49l-0.21-0.23l-1.65,2.12l0.14,0.16
			c1.2,1.35,3.4,2.96,7.12,2.96c5.1,0,6.92-2.87,6.92-5.57C586.37,273.39,582.74,272.41,579.83,271.62z"/>
	</g>
	<g>
		<path class="st1" d="M279.48,32.57c0.58-0.92,1.95-0.81,2.39,0.18c2.14,4.86,5.91,7.8,10.15,10.36
			c6.95,4.18,14.69,7.04,20.84,12.58c10.01,9,12.21,18.47,7.02,30.89c-0.58,1.39-1.24,2.76-1.93,4.1
			c-3.28,6.36-3.88,6.57-10.85,4.25c-14.56-4.84-21.46-15.92-24.58-30.09c0-0.01,0-0.02-0.01-0.03c-0.19-0.9-1.48-0.81-1.52,0.1
			c-0.45,11.75,5.92,25.47,24.3,37.86c0.72,0.48,0.22,1.61-0.62,1.38C281.02,97.63,258.39,65.85,279.48,32.57z"/>
		<path class="st1" d="M306.91,4l0.03,0.83c0.72,5.97-0.98,11.57-3.49,16.98c-2.17,4.67-4.78,9.1-8.04,13.08
			c-2.3,2.81-2.31,4.35,1.24,6.18c5.65,2.92,11.21,6.13,16.37,9.82c8.8,6.29,16.7,13.38,18.69,24.96c0.74,4.31-0.19,8.32-1.34,12.59
			c-0.23,0.86,0.95,1.36,1.4,0.59c7.33-12.26,10.54-30.63,1.58-48.98c-0.39-0.79,0.64-1.51,1.24-0.87
			c4.97,5.3,8.55,11.53,10.39,18.7c4.08,15.89-1.51,28.66-9.55,42.19c-0.39,0.66,1.35,2.82,2.03,2.47
			c28.27-14.44,31.37-41.93,25.35-58.16c-9.01-24.31-28.32-36.72-52.26-43.03c-0.16-0.04-0.33-0.08-0.49-0.13c0,0,0,0,0,0
			c-0.04-0.01-0.08-0.01-0.12-0.02c-0.11-0.01-0.22-0.02-0.34-0.02c-0.25,0-0.5,0.03-0.74,0.1c-0.26,0.1-0.86,0.37-1.34,1
			C307,3,306.93,3.73,306.91,4"/>
	</g>
	<g>
		<g>
			<path class="st1" d="M635.94,219.73c-0.2-0.46-0.47-0.85-0.8-1.18c-0.34-0.33-0.73-0.59-1.19-0.78
				c-0.45-0.18-0.94-0.28-1.45-0.28c-0.51,0-0.99,0.09-1.45,0.28c-0.46,0.19-0.85,0.44-1.19,0.78c-0.34,0.33-0.61,0.72-0.8,1.18
				c-0.2,0.45-0.3,0.95-0.3,1.49c0,0.53,0.1,1.02,0.3,1.47c0.2,0.45,0.47,0.84,0.8,1.18c0.34,0.33,0.73,0.59,1.19,0.78
				c0.46,0.19,0.94,0.28,1.45,0.28c0.51,0,1-0.09,1.45-0.28c0.46-0.19,0.85-0.45,1.19-0.78c0.34-0.33,0.61-0.72,0.8-1.18
				c0.2-0.45,0.3-0.94,0.3-1.47C636.24,220.69,636.14,220.19,635.94,219.73z M635.42,222.5c-0.16,0.39-0.39,0.73-0.67,1.01
				c-0.29,0.29-0.62,0.51-1.01,0.67c-0.39,0.16-0.81,0.24-1.25,0.24c-0.44,0-0.86-0.08-1.25-0.24c-0.39-0.16-0.72-0.38-1.01-0.67
				c-0.28-0.28-0.51-0.62-0.67-1.01c-0.16-0.39-0.24-0.81-0.24-1.27c0-0.47,0.08-0.89,0.24-1.28c0.16-0.39,0.39-0.73,0.67-1.01
				c0.29-0.28,0.62-0.51,1.01-0.67c0.39-0.16,0.81-0.24,1.25-0.24c0.45,0,0.86,0.08,1.25,0.24c0.39,0.16,0.72,0.39,1.01,0.67
				c0.28,0.28,0.51,0.62,0.67,1.01c0.16,0.39,0.24,0.82,0.24,1.28C635.67,221.68,635.59,222.11,635.42,222.5z"/>
			<path class="st1" d="M633.08,221.4c0.32-0.08,0.57-0.23,0.74-0.45c0.17-0.23,0.25-0.51,0.25-0.84c0-0.23-0.05-0.42-0.16-0.58
				c-0.11-0.16-0.25-0.29-0.41-0.4c-0.16-0.1-0.33-0.18-0.52-0.23c-0.18-0.05-0.35-0.07-0.5-0.07h-1.13v4.71h0.57v-2.11h0.46h0.11
				c0.16,0.36,0.33,0.72,0.5,1.06c0.17,0.35,0.33,0.69,0.5,1.05h0.6c-0.16-0.36-0.33-0.72-0.5-1.07
				C633.42,222.12,633.24,221.76,633.08,221.4z M632.5,220.9h-0.58v-1.55h0.6c0.27,0,0.51,0.08,0.7,0.23
				c0.19,0.15,0.29,0.33,0.29,0.53c0,0.09-0.02,0.17-0.04,0.27c-0.03,0.09-0.08,0.18-0.17,0.26c-0.08,0.08-0.18,0.14-0.31,0.19
				C632.87,220.88,632.71,220.9,632.5,220.9z"/>
		</g>
		<path class="st1" d="M623,136.6c-8.49-0.4-16.97-0.86-25.5-1.08c-8.29-0.22-16.6-0.36-25.77,0.86c-2.29,0.41-4.23,1.81-4.15,4.42
			c0.07,2.5,2.11,2.81,4.83,2.59c3.32-0.27,6.66-0.31,9.94-0.23c0.96,0.02,1.93,0.05,2.89,0.07c-2.36,17.09-2.69,34.92-3.65,52.51
			c-0.25,4.63-0.57,9.3-0.1,14.64c-4.23-0.07-8.57,0.03-13.12,0.46c-2.3,0.33-4.28,1.65-4.28,4.26c0,2.5,2.03,2.89,4.75,2.78
			c3.33-0.14,6.66-0.06,9.94,0.15c13.39,0.84,26.86,1.34,39.99,3.22c2.25,0.32,4.06,0.07,5.52-1.8c2.54-3.26,0.64-5.97-4.7-6.43
			c-3.54-0.3-7.09-0.61-10.63-0.91c0.01-0.34,0.01-0.69,0-1.06c-0.08-4.37,0.06-8.74,0.33-13.04c1.09-17.51,1.83-35.16,3.96-52.28
			c0.07-0.57,0.12-1.11,0.14-1.64c3.02,0.19,6.02,0.43,9.01,0.74c2.26,0.24,4.06-0.08,5.47-2.01
			C630.32,139.49,628.34,136.85,623,136.6z M605.03,144.2c-0.88,11.08-1.82,22.13-2.53,33.27c-0.69,10.83-1.3,21.7-0.6,33.81
			c0.01,0.09,0.02,0.17,0.03,0.26c-2.59-0.2-5.18-0.4-7.78-0.57c-1.72-0.11-3.43-0.22-5.16-0.31c0.04-2.98-0.08-6.01,0.06-8.95
			c0.89-18.91,1.87-37.79,3.98-56.26c0.08-0.72,0.11-1.41,0.09-2.07c3.99,0.08,7.98,0.17,11.95,0.32
			C605.06,143.87,605.05,144.03,605.03,144.2z"/>
		<g>
			<path class="st0" d="M452.38,178.43c0.35,0.13,0.71,0.19,1.07,0.19c1.66,0,3.35-1.34,4.15-3.45c0.44-1.17,0.53-2.4,0.26-3.47
				c-0.3-1.17-1.03-2.05-2.01-2.42c-0.98-0.37-2.11-0.19-3.11,0.48c-0.92,0.62-1.67,1.6-2.11,2.77c-0.44,1.17-0.53,2.4-0.26,3.47
				C450.67,177.18,451.4,178.06,452.38,178.43z"/>
			<path class="st0" d="M230.45,229.41l-0.01-1.73c0,0,0-0.01,0-0.01C230.44,227.61,230.44,229.46,230.45,229.41z"/>
			<path class="st0" d="M554.36,197.51c-0.17-0.58-0.54-0.75-0.74-0.79c-0.2-0.05-0.6-0.06-1,0.39c-0.91,1.02-5.14,6.3-7.16,8.83
				c-2.59,2.4-4.85,3.42-5.82,3.19c-1.01-0.25-1.76-1.21-2.43-3.1c0,0-0.09-0.29-0.2-0.67c-0.53-3.3-0.01-4.9,0.01-4.95
				c2.57-8.93,2.61-10.86,2.6-11.08c0.04-0.54,0.03-1.03-0.02-1.48c-0.52-4.15-2.98-6.37-3.07-6.45c-2.1-1.96-4.41-3.15-6.87-3.53
				c-2.44-0.38-5.18,0.07-8.14,1.33l-0.12,0.06c-2.35,1.26-4.55,3.06-6.53,5.35c-1.97,2.28-3.67,4.84-5.03,7.61
				c-0.57,1.17-1.07,2.37-1.5,3.59c-1.48,2.18-3.9,5.48-6.81,8.88c-5.75,6.72-8.27,7.31-8.69,7.37c-0.23-0.27-1.07-1.56-1.07-6.34
				l0-2.38c0-2.19,0-4.46,0.01-6.73c0.23-4.23,0.61-8.45,1.16-12.6l7.39-13.56c2.8-4.9,16.6-29.69,13.4-36.67
				c-0.43-0.94-1.15-1.62-2.09-1.97c-0.06-0.09-0.14-0.16-0.24-0.21c-2.56-1.28-5.33-0.37-8.48,2.78
				c-2.94,2.94-12.08,18-15.59,47.69c-7.7,0.51-14.22,5.08-17.46,11.5l-0.16,0.19c-9.9,12.03-15.58,13.49-15.67,13.51l-0.01,0
				c-0.92,0.23-1.56,0.17-1.98-0.15c-0.65-0.52-0.95-1.83-0.91-4.03c0.02-1.53,0.62-4.45,1.25-7.55c1.07-5.27,2.18-10.73,1.26-12.56
				c-0.27-0.55-1.09-1.17-2.13-1.29c-1.05-0.15-2.05,0.29-2.82,1.19l-0.1,0.11c-0.66,0.76-1.42,1.62-2.74,6.92
				c-0.18,0.72-0.34,1.48-0.48,2.25c-1.39,4.03-3.1,6.48-3.17,6.58c-1.32,1.79-2.93,3.85-4.74,5.96c-5.75,6.72-8.27,7.31-8.69,7.37
				c-0.23-0.27-1.07-1.56-1.07-6.34l0-2.4c0-2.18,0-4.45,0.01-6.71c0.23-4.24,0.61-8.45,1.16-12.61l7.4-13.56
				c2.8-4.9,16.6-29.69,13.4-36.67c-0.43-0.94-1.16-1.62-2.09-1.97c-0.06-0.09-0.14-0.16-0.24-0.21c-2.56-1.28-5.33-0.37-8.48,2.78
				c-2.94,2.94-12.08,18-15.59,47.69c-9.45,0.62-17.13,7.37-19.14,16.16c-0.62,1.93-1.61,4.85-1.94,5.81c-1.1,1.92-2.3,3.8-3.36,5
				c-1.21,1.36-2.45,1.96-3.33,1.61c-0.81-0.32-1.28-1.44-1.23-2.92c0.03-0.72,0.72-16.83-1.66-21.42
				c-0.86-1.66-2.16-2.62-3.74-2.78c-2.78-0.26-6.34,1.96-9.74,6.16c-2.56,3.16-4.36,6.3-5.67,8.6c-0.77,1.35-1.63,2.84-2.07,3.33
				c0.05-1.57,1.5-7.06,3.03-11.98c0.14-0.39,1.3-3.87,0.06-5.33c-0.32-0.38-0.94-0.79-2.07-0.58c-2.19,0.49-4.36,4.9-5.43,7.4
				c-5.27,4.99-10.06,6.78-11.86,7.32c1.85-3.29,2.9-6.39,3.05-7.33l0.03,0.01c0.39-1.05,0.59-2.16,0.59-3.29
				c0-5.23-4.26-9.49-9.49-9.49c-1.63,0-3.23,0.42-4.66,1.23c-4.77,2.38-9.56,7.09-11.64,9.28c-0.86,0.76-1.55,1.45-2.45,2.54
				c-0.51,0.62-0.95,1.22-1.34,1.81c-4.86,5.44-15.3,15.97-23.25,15.97c-0.23,0-0.46-0.01-0.68-0.02c-2.12-0.15-3.69-0.94-4.69-2.34
				c-2.29-3.21-0.85-8.66-0.83-8.76c0.02-0.11,1.66-10.75,8.71-14.42c0.74-0.36,1.36-0.37,1.67-0.04c0.37,0.4,0.28,1.23-0.23,2.11
				c-0.17,0.3-0.36,0.61-0.54,0.91c-1.05,1.72-2.23,3.68-2.4,6.62c-0.01,0.59,0.08,1.49,0.62,2.45c0.77,1.34,2.46,1.83,3.85,1.13
				c0.17-0.09,0.35-0.18,0.52-0.29c0.72-0.42,1.37-0.94,1.93-1.55c0.28-0.26,4.47-4.32,3.87-10.98c-0.2-2.2-0.98-3.85-2.31-4.91
				c-1.97-1.56-4.42-1.24-4.48-1.23c-0.25,0-5.39,0.16-10.21,5.69l-2.37,1.41l-12.75,7.68c-0.65,0.35-1.3,0.7-1.95,1.05l-4.71-3.29
				c-0.83-0.53-1.55-1.03-2.21-1.52c-0.69-0.51-1.39-1.05-2.1-1.62c-0.78-0.67-1.07-1.37-0.87-2.15c0.22-0.83,0.85-1.49,1.97-2.02
				c0.98-0.53,1.99-0.67,3.07-0.44c1.09,0.23,2.04,0.71,2.83,1.44c0.23,0.29,0.43,0.6,0.63,0.89l0.1,0.15
				c0.3,0.45,0.71,0.73,1.15,0.8c0.4,0.06,0.77-0.04,1.1-0.31c2.49-1.98-0.43-5.78-0.58-5.96c-2.46-2.76-5.44-3.61-9.16-2.56
				c-1.8,0.6-3.35,1.49-4.6,2.63c-1.27,1.16-2.14,2.65-2.6,4.43c-0.85,3.73,0.37,6.58,3.62,8.45c0.69,0.4,2.56,1.58,3.93,2.44
				c0.64,0.4,1.18,0.75,1.49,0.93c0.05,0.03,0.36,0.22,0.77,0.51l0.55,0.33c-20.29,11.67-38.95,25.65-39.15,25.74
				c-0.29,0.14-0.42,0.13-0.42,0.14c-0.04-0.05-0.06-0.21-0.05-0.37v-33.49c0.37-0.38,1.8-1.69,5.55-3.95
				c3.47-2.09,12.15-6.8,15.73-8.72l1.32-0.69c1.76-0.88,2.93-1.51,3.23-2.22c0.25-0.59,0.38-1.48-0.06-2.05
				c-0.23-0.29-0.57-0.46-0.97-0.46c-0.21-0.02-0.81,0.11-1.12,0.18c-4.71,0.62-22.37,8.23-23.45,8.86
				c-0.07,0.04-0.11,0.06-0.14,0.08c-0.04-0.14-0.06-4.24-0.02-4.52c0-0.27-0.05-26.9,0-28.85l0.01-0.62
				c0.01-1.41,0.02-1.63,1.87-2.36c10.79-4.43,34.63-4.19,34.87-4.19c1.16,0,2.11-0.86,2.11-1.92c0-0.99-0.7-1.69-1.89-1.91
				c-0.07-0.01-7.11-1.55-18.26-1.23c-11.15,0.31-24.88,3.92-25.02,3.95l-1.31,1.09l-0.49,88.1l0,0.27c0.01,2.23,2,4.03,4.44,4.03
				c1.21,0,2.34-0.44,3.18-1.24c4-3.15,5.98-4.97,6.09-5.05c15.92-12.25,26.45-19,33.87-23.14l0.12,0.25
				c-0.04,0.02-0.08,0-0.11-0.03c-0.04-0.04-0.04-0.11-0.03-0.14l-0.62,1.27c-0.58,1.18-1.19,2.4-1.59,3.69
				c-2.89,9.29,3,11.42,3.11,11.46c0.42,0.09,0.83,0.14,1.25,0.14c1.47,0,2.92-0.61,4.38-1.84c0.19-0.17,4.76-4.26,4.69-11.79
				c-0.03-2.6-0.51-4.81-1.61-7.39l-0.16-0.38c3.06-1.4,5.33-2.33,7.41-3.58c-1.62,4.33-1.88,7.38-1.88,7.4
				c-0.04,0.2-0.96,4.89,1.97,8.68c2.33,3.02,6.13,4.6,11.03,4.6c0.38,0,0.76-0.01,1.15-0.03c5.47-0.26,9.21-3.09,12.51-5.58
				c2.14-1.61,4.08-3.46,5.82-5.53c-0.01,0.08-0.01,0.16-0.02,0.23c-0.03,0.47-0.01,0.73-0.01,0.73c0,5.44,4.42,9.86,9.86,9.86
				c1.32,0,2.6-0.26,3.8-0.76c1.34-0.51,3.59-1.65,6.68-4.14c1.22-0.96,2.4-2.03,3.51-3.17c0.77-0.35,1.55-0.63,2.37-0.84
				c6.59-2.61,11.52-5.78,13.55-7.18c-0.54,3.07-1.08,6.95-1.1,10.35c-0.02,4.63,1.54,5.81,2.47,6.1c1.4,0.44,3.03-0.47,4.37-2.43
				c2.36-3.45,12.02-18.83,12.09-18.95c0.51-0.7,2.1-2.53,3.32-2.56c0.37,0.03,0.64,0.14,0.9,0.47c0.78,0.97,0.63,4.4,0.47,8.03
				c-0.18,4.18-0.39,8.91,0.57,12.46c1.17,4.33,3.14,5.84,4.59,6.34c0.5,0.17,1.01,0.26,1.54,0.26c1.29,0,2.65-0.5,3.97-1.48
				c2.37-1.77,5-5.21,6.43-7.23c1.15,2.14,3.41,3.52,5.97,3.52c2.17,0,4.85-1.9,6.13-3.18c1.29-1.29,3.14-3.58,4.74-6.14
				c-0.01,0.65-0.01,1.3-0.01,1.95c0,2.61,0,10.55,5.33,12.14c0.55,0.17,1.13,0.25,1.73,0.25c3.6,0,7.85-3.03,13.38-9.53
				c0.76-0.9,1.49-1.8,2.18-2.67c0.2,2.05,0.8,4.61,2.45,6.26c1.08,1.08,2.46,1.62,4.12,1.62c0.25,0,0.51-0.01,0.77-0.04
				c6.33-0.6,13.33-6.62,16.1-9.24c0.09,1.26,0.27,2.45,0.51,3.37c0.7,3.07,3.42,5.22,6.61,5.22c2.17,0,4.85-1.9,6.13-3.18
				c1.29-1.29,3.14-3.58,4.74-6.14c-0.01,0.65-0.01,1.3-0.01,1.95c0,2.61,0,10.55,5.33,12.14c0.55,0.17,1.13,0.25,1.73,0.25
				c3.6,0,7.85-3.03,13.38-9.53c0.2-0.24,0.4-0.48,0.59-0.73c0.07,0.48,0.16,0.95,0.27,1.43c0.54,2.01,1.43,3.47,2.65,4.34
				c1.22,0.86,2.62,1.29,4.13,1.24c1.48-0.04,3.06-0.42,4.71-1.14c1.62-0.7,3.23-1.6,4.77-2.68c1.53-1.06,3-2.25,4.36-3.55
				c0.95-0.91,1.8-1.8,2.56-2.69c0.41,1.84,1.08,3.66,1.58,4.89c0.53,1.3,1.32,2.44,2.29,3.31c1.13,1.02,2.39,1.63,3.75,1.84
				c0.5,0.08,1,0.11,1.51,0.11c1.58,0,3.2-0.36,4.79-1.05c0.17-0.04,4.15-1.07,8.33-8.02c0.6-1.2,0.88-2.12,0.91-2.83
				C554.38,200.7,554.64,198.48,554.36,197.51z M504.39,143.25L504.39,143.25l0.12-0.24c1.45-3.12,3.79-6.18,5.14-6.79
				c0.18,2.72-2.7,13.34-13.34,31.96l-0.76,1.39C498.29,157.72,501.82,148.8,504.39,143.25z M440.35,143.24L440.35,143.24l0.12-0.23
				c1.45-3.12,3.79-6.18,5.14-6.79c0.18,2.72-2.7,13.34-13.34,31.96l-0.76,1.39C434.24,157.72,437.77,148.79,440.35,143.24z
				 M283.35,207.35l-0.09,0.6c-0.2,1.17-1.07,4.53-2.57,4.37c-0.21-0.02-0.37-0.12-0.51-0.33c-0.71-1.1-0.29-4.2,0.08-5.27
				l0.18-0.54c0.39-1.21,1.29-3.95,2.4-3.95c0.06,0,0.12,0.01,0.18,0.02C284.1,202.54,283.56,206.04,283.35,207.35z M341.76,205.31
				L341.76,205.31c-0.38,0.41-1.02,1.02-2,1.63l-0.04-0.02l-0.17,0.12c-0.88,0.64-1.93,0.98-3.03,0.98c-2.85,0-5.17-2.32-5.17-5.2
				l0.02-0.27c0.01-0.18,0.02-0.35,0.05-0.54c0.2-1.6,1.01-5.63,4.33-9.69c0.06,1.08,0.28,2.99,1.07,5.17
				c1.01,2.77,2.63,5.12,4.83,7l0.07,0.06c0.11,0.09,0.17,0.22,0.18,0.36C341.91,205.06,341.86,205.2,341.76,205.31z M352.35,189.16
				c-0.34,3.82-1.53,7.03-3.52,9.56c-0.21,0.28-0.44,0.56-0.7,0.86c-0.05,0.07-0.11,0.14-0.18,0.21l-0.05,0.04
				c-0.28,0.24-0.66,0.37-1.04,0.34h-0.01c-0.19-0.01-0.37-0.07-0.54-0.15l-0.15-0.05l-0.09-0.04c-0.16-0.08-0.19-0.09-0.41-0.24
				c-2.3-1.56-3.67-4.14-3.67-6.91c0-2.83,1.42-5.45,3.8-7c0.97-0.63,1.78-0.94,2.49-0.97l0.02,0.01l0.25-0.01
				c0.88,0,1.7,0.3,2.41,0.87c0.85,0.57,1.34,1.42,1.43,2.45l0.02,0.36C352.41,188.7,352.4,188.92,352.35,189.16z M422.12,191.94
				c-2.73,8.52-8.79,16.9-11.11,16.35c-1.38-0.2-1.43-2.74-1.43-2.76c0-7.2,3.12-13.29,8.37-16.28c1.66-0.98,2.69-1.26,3.33-1.26
				c0.2,0,0.36,0.03,0.49,0.07c0.26,0.09,0.46,0.25,0.6,0.52C422.27,189.68,422.19,190.81,422.12,191.94z M486.16,191.94
				c-2.73,8.52-8.8,16.9-11.11,16.35c-1.38-0.2-1.43-2.74-1.43-2.76c0-7.2,3.12-13.29,8.37-16.28c1.66-0.98,2.69-1.26,3.33-1.26
				c0.2,0,0.36,0.03,0.49,0.07c0.26,0.09,0.46,0.25,0.6,0.52C486.32,189.68,486.24,190.81,486.16,191.94z M533.54,189.6
				c-0.01,0.08-0.02,0.19-0.05,0.34c-0.07,0.54-0.21,1.05-0.44,1.56c-0.66,1.84-2.22,4.99-5.87,9.51c-3.78,4.69-7.14,6.28-9.36,6.8
				c-0.64,0.24-1.25,0.31-1.91,0.2l-0.14-0.03c-0.22-0.05-0.39-0.11-0.54-0.18c-0.8-0.39-1.38-1.15-1.68-2.21l-0.05-0.14
				c-0.26-0.86-1.88-7.07,3.67-14.34c4.15-5.32,7.93-7.97,10.94-7.69l0.24,0.05c2.96,0.28,5.2,2.73,5.2,5.71l-0.01,0.25
				L533.54,189.6z"/>
		</g>
		<path class="st0" d="M196.21,200.3c-0.17-0.58-0.54-0.74-0.74-0.79c-0.2-0.05-0.6-0.06-1,0.39c-0.59,0.66-2.58,3.12-4.45,5.45
			c-0.78,0.6-1.56,1.28-2.25,1.97c-2.88,2.88-5.47,4.1-6.53,3.85c-1.01-0.25-1.76-1.21-2.43-3.1c0,0-0.09-0.29-0.2-0.67
			c-0.53-3.3-0.01-4.9,0.01-4.95c0.65-2.27,2.62-9.27,2.57-11.03l0.03,0c0.05-0.57,0.04-1.07-0.02-1.54
			c-0.52-4.15-2.98-6.37-3.07-6.45c-1.66-1.55-3.46-2.61-5.35-3.18l0.13-0.07l-0.69-0.09c-0.32-0.08-0.64-0.14-0.96-0.19
			c-0.94-0.14-1.92-0.16-2.94-0.07c-8.82,0.16-19.93,5.2-25.75,10.51c-8.15,7.45-11.96,15.34-13.22,18.38l-0.47,1.1
			c-0.13,0.26-0.23,0.41-0.3,0.5c-0.63-1.07-0.95-6.84-0.89-11.89c0.05-2.08,0.21-12.51-1.69-13.85c-0.3-0.21-0.65-0.25-0.89-0.15
			c-0.6,0.09-3.16,1.15-3.45,12.02c-0.04,0.08-0.07,0.16-0.11,0.24c-0.29,0.4-3.72,5.01-8.09,9.51c-3.09,3.19-5.75,5.4-7.82,6.52
			c-0.76,0.27-1.4,0.25-1.93-0.07c-1.31-0.78-2.12-3.4-2.28-7.35c0.01-3.89,0.19-7.8,0.54-11.64l12.98-21.7
			c11.11-20.25,15.36-33.07,12.65-38.08c-0.74-1.37-2-2.27-3.55-2.55c-4.5-0.81-8.18,4.03-9.93,6.91c-2.22,2.63-5.52,7.27-8.6,14.43
			c-3.93,9.13-8.9,23.93-10.32,42.56l-0.88,2.18c-0.02,0.03-0.04,0.07-0.06,0.1c-0.29,0.52-0.54,0.97-0.77,1.24
			c-0.66,0.76-1.36,1.61-2.09,2.48c-1.84,2.22-3.92,4.73-5.73,6.31c-2.49,2.19-4.97,3.96-7.36,5.25c-2.3,1.24-4.37,1.64-6.16,1.17
			c-1.25-0.27-2.25-0.82-3.06-1.71c-0.83-0.89-1.45-1.94-1.85-3.12c-0.4-1.16-0.55-2.45-0.45-3.83c0.09-1.28,0.4-2.49,0.93-3.63
			c1.73-0.04,3.66-0.43,5.76-1.14c2.21-0.75,4.36-1.75,6.39-2.96c2.04-1.22,3.9-2.68,5.54-4.33c1.67-1.67,2.84-3.49,3.51-5.42
			c0.74-2.45,0.71-4.54-0.08-6.21c-0.73-1.53-1.88-2.59-3.42-3.18c-2.41-1.2-6.61-2.36-13.89-2.99
			c-13.06,0.41-24.77,5.43-24.77,5.43c-1.88-2.24-4.17-4.26-6.78-6.02c-0.07-0.05-7.27-5.23-17.33-10.54
			c-4.91-2.65-7.5-5.74-7.71-9.17c-0.4-6.47,7.79-12.19,7.88-12.26c5.9-4.23,11.52-5.89,16.7-4.93c7.55,1.41,11.63,8.01,11.65,8.05
			c0.58,1.08,1.26,1.32,1.73,1.32c0.01,0,0.01,0,0.02,0c0.67-0.01,1.29-0.48,1.68-1.3c0.87-1.78,0.63-4.76-1.49-7.01
			c-0.13-0.15-13.63-15.15-34.15-0.67c-6.57,4.64-10.54,9.27-12.11,14.07c-0.05,0.1-5.24,10.21,11.63,19.96
			c10.65,5.85,19.32,11.75,19.43,13.2c-16.15,9.66-26.2,21.78-26.3,21.91l-0.21,0.26c-0.77,0.86-1.54,1.74-2.28,2.64
			c-1.33,1.73-2.55,3.6-3.62,5.58c-1.07,1.97-1.89,4.08-2.45,6.29c-0.73,3.28-0.45,6.01,0.82,8.13c1.29,2.16,3.5,3.45,6.57,3.83
			c0.03,0,0.63,0.07,1.69,0.07c4.27,0,16.02-1.01,27.99-10.98c3.37-2.81,6.23-5.97,8.5-9.4c1.84-2.78,2.97-5.24,3.65-7.93
			c0.13-0.42,3.08-10.29-2.35-20.39c7.52-3.44,14.81-5.52,18.96-5.52c2.75,0,4.47,0.18,5.35,0.3c-8.83,5.54-13.05,18.87-13.28,19.6
			c-1.21,4.5-0.92,9.17,0.79,12.82c0.81,1.92,2,3.46,3.55,4.57c1.54,1.1,3.38,1.85,5.51,2.22c0.58,0.09,1.17,0.13,1.76,0.13
			c1.41,0,2.83-0.25,4.24-0.74c1.97-0.68,3.96-1.68,5.93-2.98c1.95-1.29,3.88-2.8,5.72-4.52c1.26-1.17,4.2-4.6,6.33-7.48
			c-0.01,0.56-0.01,1.12-0.01,1.68c-0.01,2.96-0.04,11.95,6.36,13.74c0.68,0.19,1.39,0.29,2.11,0.29c4.12,0,8.96-3.02,15.22-9.49
			c1.37-1.41,2.55-2.86,3.53-4.21c0.23,1.93,0.57,4.63,0.77,5.46c1.26,5.28,5,5.53,5.67,5.53c0.07,0,0.1,0,0.1,0
			c3.75,0,5.58-3.58,7.9-8.11c3.03-5.92,7.08-13.78,17.47-18.91c-0.93,1.37-1.77,2.82-2.51,4.32c-1.26,2.57-2.19,5.31-2.75,8.1
			c-0.05,0.19-1.11,4.68-0.06,8.95c0.54,2.01,1.43,3.47,2.65,4.34c1.22,0.87,2.62,1.31,4.13,1.24c1.48-0.04,3.06-0.42,4.71-1.14
			c1.62-0.7,3.23-1.6,4.77-2.68c1.53-1.06,3-2.25,4.36-3.55c0.95-0.9,1.8-1.8,2.56-2.69c0.41,1.83,1.08,3.65,1.58,4.89
			c0.54,1.32,1.31,2.43,2.29,3.31c1.13,1.02,2.39,1.63,3.75,1.84c0.5,0.08,1,0.11,1.51,0.11c1.58,0,3.2-0.36,4.79-1.05
			c0.16-0.04,4.03-1.05,8.13-7.71C195.98,205.16,196.59,201.6,196.21,200.3z M111.66,155.07c4.82-11.25,9.66-17.76,10.13-18.4
			c0.6-0.51,1.02-0.7,1.24-0.73c0,0.01,0.01,0.01,0.01,0.02c0.3,0.56,2.52,6.27-12.59,33.84l-6.61,11.06
			C105.55,171.84,108.18,163.18,111.66,155.07z M43.57,205.63l-0.01,0.03c-5.58,13.71-20.41,20.8-27.16,20.92
			c-1.38,0.04-3.19-0.21-3.78-1.51c-1.9-4.19,0.44-8.68,1.52-10.4c1.39-2.06,2.6-3.6,2.6-3.61c1.69-2.02,3.63-4.14,5.76-6.29
			c0.22-0.22,0.43-0.42,0.65-0.63l0.47-0.44c3.81-3.67,7.86-7.02,12.04-9.93c1.08-0.72,2-1.28,2.82-1.73h0
			c0.24-0.13,0.51-0.31,0.8-0.49c0.64-0.41,1.59-1.01,2.09-1.01c0.03,0,0.06,0,0.09,0.01c0.02,0,0.06,0.04,0.08,0.06l0.09,0.12
			C41.69,190.77,46.31,196.75,43.57,205.63z M69.93,196.05c0.58-1.43,1.27-2.74,2.07-3.9c1.12-1.64,2.41-3.19,3.82-4.61
			c0.52-0.52,1.08-0.97,1.67-1.33c0.59-0.36,1.24-0.72,1.93-1.07c0.61-0.31,1.38-0.47,2.32-0.47c0.92-0.12,1.56,0.1,1.97,0.68
			c0.42,0.59,0.45,1.3,0.1,2.18c-0.25,0.63-0.53,1.1-0.87,1.45c-1.41,1.96-3.11,3.58-5.04,4.82c-1.96,1.26-4.09,2.31-6.34,3.13
			c-0.27,0.11-0.61,0.15-1.02,0.12c-0.23-0.02-0.43-0.14-0.55-0.33C69.87,196.52,69.84,196.28,69.93,196.05z M175.15,191.63
			c-0.01,0.08-0.02,0.2-0.05,0.36c-0.07,0.54-0.21,1.05-0.44,1.56c-0.66,1.84-2.22,4.98-5.87,9.51c-3.78,4.69-7.15,6.28-9.36,6.8
			c-0.65,0.24-1.28,0.31-1.95,0.19l-0.1-0.02c-0.23-0.06-0.39-0.11-0.54-0.19c-0.8-0.39-1.38-1.15-1.68-2.21l-0.05-0.14
			c-0.26-0.86-1.88-7.07,3.67-14.34c4.15-5.32,7.91-7.95,10.94-7.69l0.24,0.05c2.96,0.28,5.2,2.73,5.2,5.71l-0.01,0.25
			L175.15,191.63z"/>
	</g>
</g>
</svg>
