<?xml version="1.0" encoding="utf-8"?>
<!-- Generator: Adobe Illustrator 26.5.0, SVG Export Plug-In . SVG Version: 6.00 Build 0)  -->
<svg version="1.1" id="Capa_1" xmlns="http://www.w3.org/2000/svg" xmlns:xlink="http://www.w3.org/1999/xlink" x="0px" y="0px"
	 viewBox="0 0 457.63 153.52" style="enable-background:new 0 0 457.63 153.52;" xml:space="preserve">
<style type="text/css">
	.st0{fill:#FFFFFF;}
</style>
<g>
	<path class="st0" d="M70.03,66.11c0.67,1.67,1.38,3.46,2.15,5.38c3.88,9.71,7.91,19.79,12.07,30.25h2.89
		c4.1-9.83,8.13-19.39,11.99-28.44c3.91-9.16,6.88-16.01,8.84-20.35c0.59-1.25,1.21-2.35,1.82-3.27c0.65-0.97,1.52-1.78,2.58-2.39
		c0.74-0.43,1.69-0.81,2.82-1.1c0.87-0.23,1.66-0.38,2.35-0.45v-1.82H95.48v1.82c0.85,0.08,1.7,0.17,2.54,0.29
		c1.02,0.14,2.04,0.35,3.03,0.63c1.05,0.32,1.91,0.71,2.56,1.17c0.75,0.53,1.14,1.23,1.14,2.04c0,0.64-0.08,1.43-0.25,2.43
		c-0.17,1-0.73,2.73-1.72,5.28c-0.99,2.56-2.96,7.34-5.85,14.22c-2.88,6.86-5.47,12.9-7.69,17.95L88.69,91
		c0,0-4.63-11.56-8.02-20.02c0,0-1.38,0.36-3.18-0.94c-1.79-1.3-1.63-1.47-2.61-2.12c-0.98-0.65-0.03,0.17-2.44-0.81
		C70.03,66.11,70.03,66.11,70.03,66.11z"/>
	<path class="st0" d="M120.61,101.01v-1.82c0.82-0.06,1.83-0.17,3.02-0.31c1.55-0.19,2.51-0.38,3.01-0.6
		c1.05-0.46,1.8-1.08,2.22-1.84c0.41-0.74,0.62-1.67,0.62-2.78V51.81c0-0.98-0.18-1.87-0.54-2.64c-0.38-0.83-1.16-1.49-2.31-1.99
		c-0.82-0.37-1.93-0.7-3.29-0.98c-1.08-0.22-2-0.37-2.73-0.45v-1.83h47.12v12.9h-2.31c-0.65-2.03-1.92-4.19-3.79-6.42
		c-2.03-2.44-4.03-3.8-5.92-4.04c-0.92-0.11-2.03-0.19-3.3-0.25c-1.27-0.05-2.73-0.08-4.33-0.08h-10.37V70.3h7.6
		c2.35,0,4.03-0.21,5.15-0.63c1.12-0.43,2.13-1.15,2.98-2.15c0.69-0.85,1.28-1.98,1.75-3.36c0.4-1.17,0.69-2.3,0.86-3.37h2.24v21.68
		h-2.22c-0.15-1.2-0.46-2.47-0.92-3.79c-0.54-1.54-1.1-2.64-1.71-3.36c-0.98-1.15-2.11-1.91-3.38-2.27c-1.2-0.34-2.8-0.51-4.75-0.51
		h-7.6v18.02c0,1.79,0.14,3.23,0.41,4.28c0.3,1.14,0.89,2.02,1.77,2.62c0.84,0.57,1.97,0.94,3.37,1.1c1.34,0.15,3.25,0.23,5.69,0.23
		h3.82c1.59,0,2.96-0.06,4.06-0.17c1.13-0.11,2.32-0.32,3.53-0.61c1.3-0.31,2.21-0.75,2.79-1.32c1.38-1.34,2.84-3.4,4.34-6.1
		c1.37-2.46,2.27-4.3,2.74-5.6h2.15l-1.11,16.02H120.61z"/>
	<path class="st0" d="M229.69,101.58l-38.63-48.69v31.66c0,3.4,0.23,6.05,0.7,7.89c0.48,1.92,1.25,3.32,2.28,4.16
		c0.73,0.65,2.18,1.25,4.4,1.79c1.71,0.42,2.95,0.68,3.74,0.79v1.83h-24.44v-1.84c0.83-0.11,2.01-0.36,3.57-0.76
		c2.63-0.67,3.39-1.12,3.73-1.4c1.11-0.83,1.89-2.12,2.3-3.81c0.4-1.63,0.59-4.31,0.59-8.2V56.32c0-1.32-0.25-2.65-0.74-3.97
		c-0.5-1.34-1.19-2.4-2.05-3.14c-1.1-0.94-2.61-1.76-4.46-2.42c-1.57-0.56-2.91-0.91-4-1.03v-1.82h16.97l35.89,45.45V60.05
		c0-3.42-0.24-6.1-0.72-7.96c-0.51-1.97-1.24-3.27-2.25-3.96c-0.9-0.57-2.26-1.09-4.2-1.6c-1.6-0.42-2.86-0.68-3.82-0.79v-1.83
		h24.22v1.82c-0.83,0.08-1.93,0.29-3.34,0.63c-1.77,0.43-3.02,0.86-3.81,1.34c-1.2,0.78-2,2.23-2.4,4.32
		c-0.37,1.97-0.56,4.49-0.56,7.49v42.06H229.69z"/>
	<path class="st0" d="M248.44,101.01v-1.82c0.82-0.06,1.83-0.17,3.02-0.31c1.56-0.19,2.51-0.38,3.02-0.6
		c1.05-0.46,1.8-1.08,2.22-1.84c0.41-0.74,0.62-1.67,0.62-2.78V51.81c0-0.98-0.18-1.87-0.54-2.64c-0.38-0.83-1.16-1.49-2.31-1.99
		c-0.82-0.37-1.93-0.7-3.29-0.98c-1.08-0.22-2-0.37-2.73-0.45v-1.83h47.12v12.9h-2.31c-0.65-2.03-1.92-4.18-3.79-6.42
		c-2.03-2.44-4.03-3.8-5.93-4.04c-0.92-0.11-2.03-0.19-3.3-0.25c-1.27-0.05-2.73-0.08-4.33-0.08h-10.37V70.3h7.6
		c2.35,0,4.03-0.21,5.15-0.63c1.12-0.43,2.13-1.15,2.98-2.15c0.69-0.85,1.28-1.98,1.75-3.36c0.4-1.18,0.69-2.31,0.86-3.37h2.24
		v21.68h-2.22c-0.15-1.2-0.46-2.47-0.92-3.79c-0.54-1.54-1.1-2.64-1.71-3.36c-0.98-1.15-2.11-1.91-3.38-2.27
		c-1.2-0.34-2.8-0.51-4.75-0.51h-7.6v18.02c0,1.81,0.14,3.21,0.41,4.28c0.3,1.14,0.89,2.02,1.77,2.62c0.84,0.57,1.97,0.94,3.37,1.1
		c1.34,0.15,3.25,0.23,5.69,0.23h3.82c1.59,0,2.96-0.06,4.05-0.17c1.13-0.11,2.32-0.32,3.53-0.61c1.3-0.31,2.21-0.75,2.79-1.32
		c1.38-1.34,2.84-3.39,4.34-6.1c1.37-2.47,2.27-4.31,2.74-5.6h2.15l-1.11,16.02H248.44z"/>
	<path class="st0" d="M334.65,102.4c-3.63,0-7.15-0.68-10.48-2.01c-3.33-1.33-6.31-3.28-8.88-5.79c-2.54-2.51-4.59-5.61-6.11-9.24
		c-1.52-3.62-2.28-7.77-2.28-12.32c0-4.56,0.75-8.75,2.24-12.45c1.49-3.7,3.57-6.93,6.2-9.61c2.6-2.64,5.71-4.71,9.25-6.15
		c3.54-1.44,7.39-2.18,11.42-2.18c3,0,5.76,0.35,8.19,1.04c2.43,0.7,4.78,1.69,6.99,2.94l0.47,0.27l1.92-2.98h2.65l0.37,19.63h-2.58
		c-0.47-1.92-1.15-4.01-2.03-6.23c-0.95-2.41-2.09-4.47-3.37-6.15c-1.44-1.91-3.19-3.43-5.18-4.52c-2.01-1.09-4.33-1.65-6.9-1.65
		c-2.91,0-5.66,0.61-8.17,1.82c-2.51,1.21-4.71,3.02-6.54,5.38c-1.74,2.27-3.11,5.18-4.09,8.65c-0.97,3.45-1.47,7.36-1.47,11.61
		c0,3.76,0.52,7.27,1.54,10.42c1.03,3.16,2.51,5.97,4.42,8.37c1.91,2.38,4.21,4.27,6.83,5.61c2.63,1.35,5.6,2.03,8.84,2.03
		c2.42,0,4.69-0.36,6.73-1.08c2.04-0.71,3.83-1.68,5.34-2.86c1.5-1.24,2.84-2.65,3.97-4.22c1.02-1.41,1.88-2.94,2.57-4.58l2.24,1.01
		c-2.43,5.37-5.64,9.27-9.55,11.6C345.15,101.18,340.25,102.4,334.65,102.4z"/>
	<path class="st0" d="M364.72,101.01v-1.82c0.74-0.05,1.71-0.12,2.9-0.21c1.56-0.11,2.64-0.29,3.31-0.52
		c1.08-0.4,1.88-0.95,2.38-1.66c0.51-0.71,0.77-1.69,0.77-2.89V51.72c0-1.04-0.18-1.93-0.54-2.65c-0.39-0.78-1.24-1.41-2.6-1.9
		c-0.89-0.33-2.04-0.65-3.39-0.94c-1.09-0.24-2.04-0.4-2.83-0.48v-1.83h26.95v1.8c-0.81,0.05-1.73,0.14-2.76,0.29
		c-1.28,0.18-2.42,0.42-3.38,0.69c-1.26,0.37-2.13,1.01-2.59,1.88c-0.42,0.82-0.63,1.73-0.63,2.72v42.14c0,1,0.24,1.91,0.72,2.69
		c0.49,0.8,1.31,1.44,2.45,1.89c0.67,0.24,1.68,0.48,3.12,0.75c1.16,0.22,2.19,0.36,3.07,0.41v1.81H364.72z"/>
	<path class="st0" d="M432.85,101.01v-1.81c2.08-0.15,3.85-0.42,5.27-0.8c1.15-0.31,2.68-0.87,2.68-2.07c0-0.28-0.03-0.6-0.1-0.99
		c-0.07-0.4-0.17-0.76-0.3-1.07l-5.3-13.39h-22.65l-0.15,0.34c-0.82,1.91-1.5,3.6-2.01,5.04c-0.51,1.43-0.98,2.74-1.39,3.95
		c-0.39,1.2-0.66,2.19-0.81,2.94c-0.15,0.77-0.23,1.41-0.23,1.92c0,1.36,1.06,2.4,3.16,3.08c1.74,0.57,3.71,0.93,5.85,1.06v1.81
		h-22.35v-1.83c0.69-0.08,1.5-0.23,2.42-0.43c1.2-0.27,2.2-0.65,2.98-1.11c1.23-0.78,2.2-1.6,2.88-2.45
		c0.67-0.84,1.33-2.01,1.97-3.47c3.12-7.28,6.62-15.57,10.37-24.62c3.72-8.96,7.04-16.95,9.96-23.98h2.76l20.64,49.87
		c0.46,1.12,0.99,2.04,1.58,2.73s1.42,1.39,2.46,2.04c0.74,0.42,1.68,0.76,2.81,1.04c0.86,0.21,1.63,0.34,2.29,0.41v1.82H432.85z
		 M413.51,78.34h20.45l-10.3-24.64L413.51,78.34z"/>
	<g>
		<path class="st0" d="M206.62,152.83h-7.73c-1.71-2.68-3.26-5-4.64-6.96c-1.38-1.96-2.88-3.97-4.5-6.05h-2.94v9.1
			c0,0.47,0.07,0.89,0.22,1.24s0.47,0.63,0.95,0.82c0.24,0.09,0.67,0.18,1.27,0.26s1.12,0.13,1.54,0.14v1.44h-12.14v-1.44
			c0.32-0.03,0.79-0.07,1.41-0.14c0.61-0.07,1.04-0.15,1.28-0.26c0.4-0.17,0.7-0.43,0.88-0.77s0.27-0.77,0.27-1.29v-20.75
			c0-0.47-0.07-0.89-0.2-1.25c-0.13-0.36-0.45-0.64-0.95-0.83c-0.34-0.12-0.78-0.23-1.31-0.33c-0.54-0.1-1-0.16-1.38-0.19v-1.44
			h13.25c1.21,0,2.35,0.12,3.42,0.37c1.07,0.25,2.03,0.65,2.89,1.2c0.84,0.54,1.5,1.24,2,2.11c0.5,0.87,0.75,1.92,0.75,3.15
			c0,1.11-0.17,2.08-0.51,2.93c-0.34,0.85-0.84,1.58-1.5,2.21c-0.61,0.58-1.33,1.08-2.18,1.51s-1.79,0.79-2.81,1.08
			c1.42,1.88,2.59,3.45,3.53,4.73c0.94,1.28,2.09,2.84,3.45,4.67c0.59,0.81,1.13,1.41,1.61,1.79c0.48,0.38,0.95,0.7,1.43,0.94
			c0.35,0.18,0.79,0.31,1.31,0.41c0.53,0.09,0.96,0.15,1.31,0.16V152.83z M195.98,131.44c0-1.74-0.5-3.11-1.5-4.13
			s-2.41-1.52-4.23-1.52h-3.44v12.3h2.65c1.86,0,3.41-0.6,4.65-1.79C195.36,135.1,195.98,133.48,195.98,131.44z"/>
		<path class="st0" d="M231.86,144.37l-0.55,8.46h-23.83v-1.44c0.4-0.03,0.94-0.08,1.62-0.17c0.67-0.09,1.11-0.18,1.31-0.27
			c0.43-0.2,0.73-0.47,0.9-0.79c0.17-0.32,0.25-0.74,0.25-1.23v-20.63c0-0.45-0.07-0.84-0.22-1.18s-0.46-0.62-0.93-0.84
			c-0.36-0.18-0.85-0.33-1.47-0.47s-1.1-0.21-1.47-0.24v-1.44h22.21v6.92h-1.52c-0.27-1.02-0.85-2.11-1.75-3.27
			c-0.9-1.15-1.75-1.78-2.56-1.89c-0.42-0.05-0.92-0.09-1.5-0.12c-0.58-0.03-1.24-0.04-1.98-0.04h-4.51v11.41h3.24
			c1.04,0,1.8-0.1,2.28-0.29s0.9-0.52,1.26-0.98c0.3-0.39,0.55-0.91,0.76-1.57s0.35-1.27,0.41-1.85h1.52v11.25h-1.52
			c-0.05-0.65-0.2-1.33-0.43-2.05c-0.24-0.72-0.48-1.24-0.74-1.57c-0.42-0.53-0.89-0.87-1.43-1.03s-1.24-0.24-2.11-0.24h-3.24v8.6
			c0,0.86,0.06,1.54,0.18,2.04c0.12,0.5,0.36,0.88,0.71,1.13s0.83,0.42,1.44,0.5c0.61,0.07,1.47,0.11,2.59,0.11
			c0.45,0,1.03,0,1.76,0c0.73,0,1.34-0.03,1.84-0.08c0.51-0.05,1.04-0.15,1.59-0.29c0.55-0.14,0.93-0.33,1.16-0.58
			c0.62-0.65,1.27-1.63,1.95-2.94s1.12-2.28,1.3-2.9H231.86z"/>
		<path class="st0" d="M252.66,139.66c0.61,0.67,1.05,1.41,1.35,2.21c0.29,0.8,0.43,1.74,0.43,2.8c0,2.54-0.94,4.63-2.81,6.27
			c-1.88,1.65-4.2,2.47-6.98,2.47c-1.28,0-2.56-0.2-3.84-0.6c-1.28-0.4-2.39-0.88-3.32-1.45l-0.87,1.48H235l-0.28-9.83h1.64
			c0.34,1.21,0.73,2.31,1.18,3.29s1.05,1.89,1.79,2.74c0.7,0.79,1.52,1.43,2.46,1.9c0.94,0.47,2.03,0.71,3.27,0.71
			c0.93,0,1.74-0.12,2.44-0.37c0.69-0.24,1.26-0.59,1.69-1.03c0.43-0.45,0.75-0.97,0.96-1.57s0.31-1.29,0.31-2.08
			c0-1.15-0.32-2.22-0.97-3.21c-0.65-0.99-1.61-1.75-2.89-2.26c-0.88-0.35-1.88-0.74-3.01-1.16s-2.11-0.82-2.93-1.2
			c-1.62-0.73-2.88-1.68-3.77-2.86s-1.35-2.72-1.35-4.62c0-1.09,0.22-2.11,0.67-3.05c0.45-0.94,1.08-1.79,1.9-2.53
			c0.78-0.7,1.71-1.25,2.77-1.65s2.18-0.6,3.34-0.6c1.32,0,2.5,0.2,3.55,0.61c1.04,0.4,2,0.88,2.86,1.42l0.83-1.38h1.62l0.16,9.53
			h-1.64c-0.3-1.09-0.63-2.14-1-3.13s-0.85-1.9-1.45-2.71c-0.58-0.78-1.29-1.41-2.12-1.87c-0.84-0.47-1.86-0.7-3.07-0.7
			c-1.28,0-2.37,0.41-3.28,1.23c-0.9,0.82-1.36,1.83-1.36,3.01c0,1.24,0.29,2.27,0.87,3.08c0.58,0.82,1.42,1.49,2.53,2.01
			c0.98,0.47,1.95,0.88,2.9,1.22s1.87,0.71,2.76,1.1c0.81,0.35,1.59,0.75,2.34,1.19C251.46,138.55,252.11,139.07,252.66,139.66z"/>
		<path class="st0" d="M270.58,152.83h-12.93v-1.44c0.36-0.03,0.89-0.07,1.58-0.12s1.17-0.13,1.46-0.24
			c0.45-0.17,0.77-0.41,0.97-0.72s0.3-0.72,0.3-1.26v-20.79c0-0.47-0.07-0.87-0.22-1.18c-0.15-0.32-0.5-0.58-1.05-0.8
			c-0.4-0.16-0.91-0.31-1.53-0.46c-0.61-0.14-1.12-0.23-1.51-0.25v-1.44h12.93v1.44c-0.42,0.01-0.92,0.06-1.5,0.15
			c-0.58,0.09-1.09,0.2-1.52,0.33c-0.51,0.16-0.86,0.42-1.03,0.79c-0.18,0.36-0.26,0.77-0.26,1.21v20.78c0,0.44,0.1,0.84,0.29,1.18
			c0.2,0.34,0.53,0.62,1,0.82c0.28,0.11,0.75,0.23,1.39,0.35s1.18,0.2,1.63,0.21V152.83z"/>
		<path class="st0" d="M301.67,138.65c0,2.44-0.46,4.56-1.38,6.35c-0.92,1.79-2.11,3.26-3.58,4.41c-1.48,1.15-3.15,2-5,2.57
			s-3.76,0.85-5.72,0.85H274.1v-1.44c0.39,0,0.9-0.04,1.53-0.11c0.63-0.07,1.04-0.16,1.24-0.25c0.4-0.17,0.7-0.43,0.88-0.78
			s0.27-0.76,0.27-1.24v-20.71c0-0.46-0.08-0.87-0.23-1.23c-0.16-0.36-0.46-0.65-0.92-0.87c-0.42-0.2-0.87-0.35-1.36-0.45
			c-0.49-0.09-0.9-0.15-1.25-0.18v-1.44h12.54c1.73,0,3.43,0.27,5.1,0.8c1.67,0.53,3.13,1.25,4.37,2.15
			c1.69,1.2,3.01,2.77,3.96,4.71C301.19,133.73,301.67,136.02,301.67,138.65z M296.72,138.64c0-1.93-0.26-3.67-0.77-5.22
			s-1.26-2.91-2.25-4.07c-0.93-1.1-2.07-1.97-3.43-2.61c-1.36-0.63-2.86-0.95-4.52-0.95c-0.55,0-1.18,0.01-1.87,0.03
			c-0.69,0.02-1.21,0.04-1.55,0.05v22.05c0,1.23,0.36,2.08,1.07,2.55s1.81,0.71,3.3,0.71c1.71,0,3.21-0.3,4.49-0.91
			c1.28-0.61,2.32-1.45,3.12-2.53c0.84-1.13,1.45-2.44,1.83-3.93C296.52,142.31,296.72,140.59,296.72,138.64z"/>
		<path class="st0" d="M329.35,144.37l-0.55,8.46h-23.83v-1.44c0.41-0.03,0.94-0.08,1.62-0.17c0.67-0.09,1.11-0.18,1.31-0.27
			c0.43-0.2,0.73-0.47,0.9-0.79c0.17-0.32,0.25-0.74,0.25-1.23v-20.63c0-0.45-0.07-0.84-0.22-1.18s-0.46-0.62-0.93-0.84
			c-0.36-0.18-0.85-0.33-1.47-0.47s-1.1-0.21-1.47-0.24v-1.44h22.21v6.92h-1.52c-0.27-1.02-0.85-2.11-1.75-3.27
			c-0.9-1.15-1.75-1.78-2.56-1.89c-0.42-0.05-0.92-0.09-1.5-0.12c-0.58-0.03-1.24-0.04-1.98-0.04h-4.51v11.41h3.24
			c1.04,0,1.8-0.1,2.28-0.29s0.9-0.52,1.26-0.98c0.3-0.39,0.55-0.91,0.76-1.57c0.21-0.65,0.35-1.27,0.41-1.85h1.52v11.25h-1.52
			c-0.05-0.65-0.2-1.33-0.43-2.05c-0.24-0.72-0.48-1.24-0.74-1.57c-0.42-0.53-0.89-0.87-1.43-1.03c-0.53-0.16-1.24-0.24-2.11-0.24
			h-3.24v8.6c0,0.86,0.06,1.54,0.18,2.04s0.36,0.88,0.71,1.13s0.83,0.42,1.44,0.5c0.61,0.07,1.47,0.11,2.59,0.11
			c0.45,0,1.03,0,1.76,0c0.73,0,1.34-0.03,1.84-0.08c0.51-0.05,1.04-0.15,1.59-0.29c0.55-0.14,0.93-0.33,1.16-0.58
			c0.62-0.65,1.27-1.63,1.95-2.94s1.12-2.28,1.3-2.9H329.35z"/>
		<path class="st0" d="M361.73,125.56c-0.38,0.01-0.96,0.12-1.74,0.32s-1.34,0.41-1.68,0.63c-0.49,0.34-0.81,0.98-0.98,1.94
			c-0.17,0.96-0.25,2.17-0.25,3.64v21.02h-1.76l-17.4-23.49v14.81c0,1.66,0.1,2.93,0.31,3.82c0.21,0.89,0.53,1.52,0.96,1.9
			c0.31,0.3,0.95,0.57,1.92,0.83c0.97,0.26,1.61,0.39,1.92,0.4v1.44h-11.77v-1.44c0.36-0.03,0.98-0.16,1.84-0.39
			c0.86-0.24,1.4-0.45,1.62-0.64c0.47-0.38,0.8-0.95,0.97-1.73c0.17-0.78,0.26-2.1,0.26-3.97v-14.14c0-0.62-0.11-1.24-0.32-1.86
			s-0.5-1.1-0.87-1.44c-0.49-0.44-1.14-0.83-1.97-1.14c-0.83-0.32-1.5-0.49-2.01-0.52v-1.44h8.2l16.13,21.88v-13.65
			c0-1.67-0.11-2.96-0.32-3.85c-0.22-0.9-0.53-1.49-0.93-1.79c-0.38-0.26-1-0.5-1.85-0.75s-1.51-0.38-1.95-0.4v-1.44h11.67V125.56z"
			/>
		<path class="st0" d="M376.69,153.52c-1.71,0-3.35-0.34-4.92-1.01c-1.57-0.67-2.96-1.65-4.17-2.92c-1.2-1.27-2.16-2.82-2.87-4.65
			c-0.71-1.83-1.07-3.89-1.07-6.18s0.35-4.38,1.05-6.25c0.7-1.87,1.67-3.48,2.91-4.83c1.23-1.34,2.67-2.37,4.34-3.1
			c1.67-0.73,3.46-1.09,5.36-1.09c1.42,0,2.69,0.17,3.84,0.53c1.15,0.35,2.24,0.84,3.27,1.48l0.83-1.38h1.62l0.18,10.24h-1.66
			c-0.22-1-0.54-2.08-0.97-3.25c-0.43-1.17-0.94-2.15-1.52-2.96c-0.65-0.92-1.41-1.63-2.3-2.15c-0.89-0.52-1.91-0.78-3.05-0.78
			c-1.31,0-2.52,0.29-3.65,0.87c-1.12,0.58-2.1,1.44-2.92,2.57c-0.78,1.09-1.39,2.48-1.84,4.17c-0.44,1.69-0.67,3.57-0.67,5.65
			c0,1.83,0.23,3.52,0.7,5.05s1.13,2.88,1.99,4.04c0.86,1.15,1.88,2.04,3.06,2.69c1.18,0.65,2.5,0.97,3.95,0.97
			c1.09,0,2.09-0.17,3.01-0.52c0.92-0.34,1.71-0.8,2.38-1.37c0.67-0.59,1.27-1.27,1.78-2.02s0.93-1.58,1.25-2.47l1.52,0.73
			c-1.16,2.85-2.69,4.88-4.61,6.1C381.61,152.91,379.33,153.52,376.69,153.52z"/>
		<path class="st0" d="M403.2,152.83h-12.93v-1.44c0.36-0.03,0.89-0.07,1.58-0.12s1.17-0.13,1.46-0.24
			c0.45-0.17,0.77-0.41,0.97-0.72s0.3-0.72,0.3-1.26v-20.79c0-0.47-0.07-0.87-0.22-1.18c-0.15-0.32-0.5-0.58-1.05-0.8
			c-0.4-0.16-0.91-0.31-1.53-0.46c-0.61-0.14-1.12-0.23-1.51-0.25v-1.44h12.93v1.44c-0.42,0.01-0.92,0.06-1.5,0.15
			c-0.58,0.09-1.09,0.2-1.52,0.33c-0.51,0.16-0.86,0.42-1.03,0.79c-0.18,0.36-0.26,0.77-0.26,1.21v20.78c0,0.44,0.1,0.84,0.29,1.18
			c0.2,0.34,0.53,0.62,1,0.82c0.28,0.11,0.75,0.23,1.39,0.35s1.18,0.2,1.63,0.21V152.83z"/>
		<path class="st0" d="M433.56,152.83h-11.93v-1.44c1.05-0.07,1.92-0.2,2.62-0.4s1.04-0.45,1.04-0.75c0-0.12-0.01-0.27-0.04-0.45
			c-0.03-0.17-0.07-0.33-0.12-0.47l-2.38-6.43h-10.08c-0.38,0.94-0.69,1.77-0.92,2.47s-0.45,1.35-0.64,1.94
			c-0.18,0.58-0.3,1.05-0.37,1.42c-0.07,0.36-0.1,0.66-0.1,0.89c0,0.54,0.42,0.96,1.27,1.25s1.81,0.47,2.87,0.53v1.44h-10.81v-1.44
			c0.35-0.03,0.79-0.1,1.31-0.23c0.53-0.13,0.96-0.3,1.29-0.52c0.54-0.36,0.96-0.75,1.25-1.14c0.3-0.4,0.59-0.95,0.87-1.65
			c1.44-3.6,3.03-7.65,4.77-12.14c1.74-4.49,3.29-8.49,4.65-12h1.62l9.57,24.76c0.2,0.53,0.43,0.95,0.69,1.27
			c0.26,0.32,0.61,0.64,1.07,0.95c0.31,0.19,0.71,0.35,1.21,0.48s0.92,0.2,1.25,0.21V152.83z M422.01,141.1l-4.35-11.14l-4.29,11.14
			H422.01z"/>
		<path class="st0" d="M457.63,144.29l-0.61,8.54h-22.43v-1.44c0.32-0.03,0.79-0.07,1.41-0.14c0.61-0.07,1.04-0.15,1.28-0.26
			c0.4-0.17,0.7-0.43,0.88-0.77s0.27-0.77,0.27-1.29v-20.55c0-0.46-0.08-0.86-0.23-1.21s-0.46-0.63-0.92-0.85
			c-0.31-0.16-0.75-0.32-1.3-0.48c-0.56-0.15-1.02-0.25-1.39-0.27v-1.44h12.12v1.44c-0.38,0.01-0.87,0.08-1.47,0.2
			c-0.6,0.12-1.04,0.23-1.3,0.32c-0.46,0.16-0.77,0.44-0.94,0.83c-0.17,0.39-0.25,0.81-0.25,1.25v19.28c0,0.89,0.04,1.58,0.13,2.07
			c0.09,0.49,0.29,0.87,0.62,1.14c0.31,0.24,0.77,0.4,1.39,0.47c0.61,0.07,1.47,0.11,2.58,0.11c0.5,0,1.02-0.01,1.56-0.04
			c0.54-0.03,1.05-0.08,1.54-0.16c0.47-0.08,0.91-0.19,1.3-0.33s0.69-0.32,0.88-0.54c0.55-0.62,1.2-1.56,1.93-2.82
			c0.74-1.26,1.24-2.28,1.53-3.06H457.63z"/>
	</g>
	<path class="st0" d="M72.12,70.41c-5.56-10.15-12.67-19.08-23.43-24.88c-2.74-1.48-5.25-3.38-8.24-5.34
		c-0.79,9.44-2.37,18.51-1.25,27.55c0.63,5.1,3.93,9.7,4.86,14.92c0.27,1.52,1.67,3.11-0.11,4.59c-1.09,0.9-2.23,0.73-3.14-0.18
		c-1.51-1.49-0.6-2.98,0.1-4.54c1.87-4.15-1.52-11.04-7.73-12.95c-6.15-1.89-9.23-6.75-13.34-10.66c-2.57-2.44-2.42-5.58-1.29-8.83
		c0.74-2.13,0.83-4.28-2.6-3.25c-2.66,0.8-3.84-0.64-4.18-2.87c-0.89-5.84-4.29-9.88-8.83-13.29c-1.71-1.28-3.5-2.88-2.77-5.41
		c0.84-2.88,3.48-2.13,5.47-2.21c11.51-0.46,22.55,0.86,32.29,10.04c-0.32-12.62,5.38-21.73,12.71-30.13
		c1.62-1.85,3.28-3.69,5.86-2.7c2.31,0.88,1.96,3.39,1.85,5.27c-0.33,5.73,0.74,10.87,4.7,15.29c1.47,1.64,1.7,3.77-0.24,5.31
		c-2.91,2.31-0.91,3.35,1.05,4.06c4.5,1.64,5.29,5.17,5.93,9.4c0.84,5.53,0.39,10.72-1,16.1c-1.64,6.36,0.94,10.4,7.04,13.17"/>
</g>
</svg>
