<?xml version="1.0" encoding="utf-8"?>
<!-- Generator: Adobe Illustrator 25.3.1, SVG Export Plug-In . SVG Version: 6.00 Build 0)  -->
<svg version="1.1" id="Capa_1" xmlns="http://www.w3.org/2000/svg" xmlns:xlink="http://www.w3.org/1999/xlink" x="0px" y="0px"
	 viewBox="0 0 577.2 283.6" style="enable-background:new 0 0 577.2 283.6;" xml:space="preserve">
<style type="text/css">
	.st0{fill:#8DC649;}
	.st1{fill:#FFFFFF;}
</style>
<g>
	<g>
		<path class="st0" d="M248.4,32.5c0.6-1,2-0.8,2.5,0.2c2.2,5,6.1,8.1,10.5,10.7c7.2,4.3,15.2,7.3,21.6,13
			c10.4,9.3,12.7,19.1,7.3,32c-0.6,1.4-1.3,2.9-2,4.3c-3.4,6.6-4,6.8-11.2,4.4c-15.1-5-22.2-16.5-25.5-31.2c0,0,0,0,0,0
			c-0.2-0.9-1.5-0.8-1.6,0.1c-0.5,12.2,6.1,26.4,25.2,39.2c0.7,0.5,0.2,1.7-0.6,1.4C250,99.9,226.6,67,248.4,32.5z"/>
		<path class="st0" d="M276.8,2.9l0,0.9c0.7,6.2-1,12-3.6,17.6c-2.3,4.8-5,9.4-8.3,13.6c-2.4,2.9-2.4,4.5,1.3,6.4
			c5.9,3,11.6,6.4,17,10.2c9.1,6.5,17.3,13.9,19.4,25.9c0.8,4.5-0.2,8.6-1.4,13.1c-0.2,0.9,1,1.4,1.5,0.6
			c7.6-12.7,10.9-31.7,1.6-50.8c-0.4-0.8,0.7-1.6,1.3-0.9c5.1,5.5,8.9,12,10.8,19.4c4.2,16.5-1.6,29.7-9.9,43.7
			c-0.4,0.7,1.4,2.9,2.1,2.6c29.3-15,32.5-43.5,26.3-60.3c-9.3-25.2-29.4-38.1-54.2-44.6c-0.2,0-0.3-0.1-0.5-0.1c0,0,0,0,0,0
			c0,0-0.1,0-0.1,0c-0.1,0-0.2,0-0.3,0c-0.3,0-0.5,0-0.8,0.1c-0.3,0.1-0.9,0.4-1.4,1C276.9,1.9,276.9,2.6,276.8,2.9"/>
	</g>
	<g>
		<path class="st1" d="M34.5,270.4c0-3.4-2.4-5.7-5.9-5.7h-7.5v18.5h2.8v-7.2H27l4.5,7l0.1,0.1h3.3l-4.9-7.4
			C32.3,275.5,34.5,273.7,34.5,270.4z M23.8,273.6v-6.4h4.5c2,0,3.3,1.3,3.3,3.2c0,1.9-1.4,3.2-3.3,3.2H23.8z"/>
		<polygon class="st1" points="42.9,283.3 55.2,283.3 55.2,280.8 45.6,280.8 45.6,275.1 55,275.1 55,272.6 45.6,272.6 45.6,267.3 
			55.2,267.3 55.2,264.7 42.9,264.7 		"/>
		<path class="st1" d="M70.1,272.3c-2.2-0.6-4.1-1.1-4.1-2.7c0-1.5,1.4-2.6,3.4-2.6c2,0,3.8,0.7,5,2.1l0.2,0.2l1.7-2.1l-0.2-0.2
			c-1.6-1.7-3.9-2.6-6.6-2.6c-3.7,0-6.4,2.2-6.4,5.3c0,3.7,3.3,4.6,6.2,5.4c2.4,0.7,4.5,1.2,4.5,3.2c0,1.4-1,2.8-4,2.8
			c-2.8,0-4.6-1.6-5.5-2.5l-0.2-0.2l-1.6,2.1l0.1,0.2c1.2,1.3,3.4,3,7.1,3c5.1,0,6.9-2.9,6.9-5.6C76.7,274.1,73,273.1,70.1,272.3z"
			/>
		<rect x="84.9" y="264.7" class="st1" width="2.8" height="18.5"/>
		<path class="st1" d="M103.2,264.7h-6.4v18.5h6.4c5.6,0,9.5-3.8,9.5-9.3C112.6,268.6,108.7,264.7,103.2,264.7z M103.2,280.8h-3.7
			v-13.5h3.7c4,0,6.7,2.7,6.7,6.8C109.8,278.1,107.1,280.8,103.2,280.8z"/>
		<polygon class="st1" points="121,283.3 133.4,283.3 133.4,280.8 123.8,280.8 123.8,275.1 133.2,275.1 133.2,272.6 123.8,272.6 
			123.8,267.3 133.4,267.3 133.4,264.7 121,264.7 		"/>
		<polygon class="st1" points="154.5,278.3 144.6,264.9 144.5,264.7 141.8,264.7 141.8,283.3 144.6,283.3 144.6,269.4 154.6,283.2 
			154.7,283.3 157.2,283.3 157.2,264.7 154.5,264.7 		"/>
		<path class="st1" d="M179.8,278.6c-1,1.5-2.8,2.5-4.7,2.5c-3.9,0-6.7-3-6.7-7.1c0-4.1,2.8-7.1,6.7-7.1c1.9,0,3.7,1,4.7,2.5
			l0.1,0.2l2.4-1.3l-0.2-0.2c-1.2-1.7-3.4-3.7-7-3.7c-5.5,0-9.5,4-9.5,9.6c0,5.5,4,9.6,9.5,9.6c2.9,0,5.3-1.2,7.1-3.7l0.2-0.2
			l-2.4-1.3L179.8,278.6z"/>
		<rect x="190" y="264.7" class="st1" width="2.8" height="18.5"/>
		<path class="st1" d="M210.4,264.7h-3.1l-7.4,18.5h3.1l1.6-4h8.6l1.6,4h3.1l-7.4-18.4L210.4,264.7z M205.4,276.8l3.5-8.7l3.4,8.7
			H205.4z"/>
		<polygon class="st1" points="227.8,264.7 225,264.7 225,283.3 236.1,283.3 236.1,280.8 227.8,280.8 		"/>
		<path class="st1" d="M264,264.7h-7.5v18.5h2.8v-7.2h4.7c3.5,0,5.9-2.3,5.9-5.7C270,267.1,267.5,264.7,264,264.7z M263.8,273.6
			h-4.5v-6.3h4.5c2,0,3.3,1.3,3.3,3.2C267.1,272.3,265.8,273.6,263.8,273.6z"/>
		<path class="st1" d="M290.3,276c0,3.3-1.8,5.1-4.8,5.1c-3.1,0-4.8-1.9-4.8-5.1v-11.2h-2.8V276c0,4.8,2.8,7.6,7.6,7.6
			c4.8,0,7.6-2.8,7.6-7.6v-11.3h-2.8V276z"/>
		<polygon class="st1" points="302.1,283.3 314.4,283.3 314.4,280.8 304.9,280.8 304.9,275.1 314.2,275.1 314.2,272.6 304.9,272.6 
			304.9,267.3 314.4,267.3 314.4,264.7 302.1,264.7 		"/>
		<path class="st1" d="M336.3,270.4c0-3.4-2.4-5.7-5.9-5.7h-7.5v18.5h2.8v-7.2h3.2l4.5,7l0.1,0.1h3.3l-4.9-7.4
			C334.1,275.5,336.3,273.7,336.3,270.4z M325.6,273.6v-6.4h4.5c2,0,3.3,1.3,3.3,3.2c0,1.9-1.4,3.2-3.3,3.2H325.6z"/>
		<polygon class="st1" points="343.2,267.3 348.9,267.3 348.9,283.3 351.6,283.3 351.6,267.3 357.4,267.3 357.4,264.7 343.2,264.7 
					"/>
		<path class="st1" d="M373,264.4c-5.3,0-9.2,4-9.2,9.6c0,5.5,3.9,9.6,9.2,9.6c5.3,0,9.2-4,9.2-9.6
			C382.2,268.5,378.3,264.4,373,264.4z M373,281.1c-3.8,0-6.4-2.8-6.4-7.1c0-4.2,2.6-7.1,6.4-7.1c3.8,0,6.4,2.8,6.4,7.1
			C379.3,278.2,376.7,281.1,373,281.1z"/>
		<polygon class="st1" points="412,277.9 406.6,264.9 406.6,264.7 402.9,264.7 402.9,283.3 405.7,283.3 405.7,269.5 411.3,283.1 
			411.3,283.3 412.6,283.3 418.3,269.5 418.3,283.3 421.1,283.3 421.1,264.7 417.4,264.7 		"/>
		<path class="st1" d="M438.6,264.4c-5.3,0-9.2,4-9.2,9.6c0,5.5,3.9,9.6,9.2,9.6s9.2-4,9.2-9.6C447.8,268.5,444,264.4,438.6,264.4z
			 M438.6,281.1c-3.8,0-6.4-2.8-6.4-7.1c0-4.2,2.6-7.1,6.4-7.1c3.8,0,6.4,2.8,6.4,7.1C445,278.2,442.4,281.1,438.6,281.1z"/>
		<path class="st1" d="M469.6,270.4c0-3.4-2.4-5.7-5.9-5.7h-7.5v18.5h2.8v-7.2h3.2l4.5,7l0.1,0.1h3.3l-4.9-7.4
			C467.4,275.5,469.6,273.7,469.6,270.4z M459,273.6v-6.4h4.5c2,0,3.3,1.3,3.3,3.2c0,1.9-1.4,3.2-3.3,3.2H459z"/>
		<polygon class="st1" points="478,283.3 490.4,283.3 490.4,280.8 480.8,280.8 480.8,275.1 490.2,275.1 490.2,272.6 480.8,272.6 
			480.8,267.3 490.4,267.3 490.4,264.7 478,264.7 		"/>
		<polygon class="st1" points="501.6,264.7 498.8,264.7 498.8,283.3 509.9,283.3 509.9,280.8 501.6,280.8 		"/>
		<path class="st1" d="M525.5,264.4c-5.3,0-9.2,4-9.2,9.6c0,5.5,3.9,9.6,9.2,9.6c5.3,0,9.2-4,9.2-9.6
			C534.7,268.5,530.9,264.4,525.5,264.4z M525.5,281.1c-3.8,0-6.4-2.8-6.4-7.1c0-4.2,2.6-7.1,6.4-7.1c3.8,0,6.4,2.8,6.4,7.1
			C531.9,278.2,529.3,281.1,525.5,281.1z"/>
		<path class="st1" d="M549.6,272.3c-2.2-0.6-4.1-1.1-4.1-2.7c0-1.5,1.4-2.6,3.4-2.6c2,0,3.8,0.7,5,2.1l0.2,0.2l1.7-2.1l-0.2-0.2
			c-1.6-1.7-3.8-2.6-6.6-2.6c-3.7,0-6.4,2.2-6.4,5.3c0,3.7,3.3,4.6,6.2,5.4c2.4,0.7,4.5,1.2,4.5,3.2c0,1.4-1,2.8-4,2.8
			c-2.8,0-4.6-1.6-5.5-2.5l-0.2-0.2l-1.6,2.1l0.1,0.2c1.2,1.3,3.4,3,7.1,3c5.1,0,6.9-2.9,6.9-5.6
			C556.1,274.1,552.5,273.1,549.6,272.3z"/>
	</g>
	<g>
		<g>
			<g>
				<g>
					<path class="st1" d="M574.2,222.3l-1.3-1.9h-1v1.9h-0.6v-4.9h2c0.9,0,1.5,0.6,1.5,1.5c0,0.9-0.6,1.4-1.3,1.4l1.3,2H574.2z
						 M574.2,218.9c0-0.6-0.4-0.9-1-0.9H572v1.9h1.3C573.8,219.8,574.2,219.5,574.2,218.9z"/>
				</g>
				<path class="st1" d="M576.9,218.3c-0.2-0.5-0.5-0.9-0.9-1.3c-0.4-0.4-0.8-0.6-1.3-0.8c-0.5-0.2-1-0.3-1.6-0.3
					c-0.6,0-1.1,0.1-1.6,0.3c-0.5,0.2-0.9,0.5-1.3,0.8c-0.4,0.4-0.7,0.8-0.9,1.3c-0.2,0.5-0.3,1-0.3,1.6c0,0.6,0.1,1.1,0.3,1.6
					c0.2,0.5,0.5,0.9,0.9,1.3c0.4,0.4,0.8,0.6,1.3,0.8c0.5,0.2,1,0.3,1.6,0.3c0.6,0,1.1-0.1,1.6-0.3c0.5-0.2,0.9-0.5,1.3-0.8
					c0.4-0.4,0.7-0.8,0.9-1.3c0.2-0.5,0.3-1,0.3-1.6C577.2,219.3,577.1,218.8,576.9,218.3z M576.3,221.3c-0.2,0.4-0.4,0.8-0.7,1.1
					c-0.3,0.3-0.7,0.5-1.1,0.7c-0.4,0.2-0.9,0.3-1.4,0.3c-0.5,0-0.9-0.1-1.4-0.3c-0.4-0.2-0.8-0.4-1.1-0.7c-0.3-0.3-0.5-0.7-0.7-1.1
					c-0.2-0.4-0.3-0.9-0.3-1.4c0-0.5,0.1-1,0.3-1.4c0.2-0.4,0.4-0.8,0.7-1.1c0.3-0.3,0.7-0.5,1.1-0.7c0.4-0.2,0.9-0.3,1.4-0.3
					c0.5,0,0.9,0.1,1.4,0.3c0.4,0.2,0.8,0.4,1.1,0.7c0.3,0.3,0.5,0.7,0.7,1.1c0.2,0.4,0.3,0.9,0.3,1.4
					C576.6,220.4,576.5,220.8,576.3,221.3z"/>
			</g>
			<path class="st1" d="M461.8,183.9c0.4,0.1,0.7,0.2,1.1,0.2c1.7,0,3.4-1.4,4.3-3.5c0.5-1.2,0.5-2.5,0.3-3.6
				c-0.3-1.2-1.1-2.1-2.1-2.5c-1-0.4-2.2-0.2-3.2,0.5c-0.9,0.6-1.7,1.6-2.2,2.8c-0.5,1.2-0.5,2.5-0.3,3.6
				C460.1,182.6,460.8,183.5,461.8,183.9z"/>
			<path class="st1" d="M233.9,236.2l0-1.8c0,0,0,0,0,0C233.9,234.4,233.9,236.3,233.9,236.2z"/>
			<path class="st1" d="M565.8,202.7c-0.2-0.1-0.6-0.1-1,0.4c-0.9,1-5.3,6.5-7.4,9.1c-2.7,2.5-5,3.5-6,3.3c-1-0.3-1.8-1.2-2.5-3.2
				c0,0-0.1-0.3-0.2-0.7c-0.5-3.4,0-5,0-5.1c2.6-9.2,2.7-11.2,2.7-11.4c0-0.6,0-1.1,0-1.5c-0.5-4.3-3.1-6.5-3.2-6.6
				c-2.2-2-4.5-3.2-7.1-3.6c-2.5-0.4-5.3,0.1-8.4,1.4l-0.1,0.1c-2.4,1.3-4.7,3.1-6.7,5.5c-2,2.3-3.8,5-5.2,7.8
				c-0.6,1.2-1.1,2.4-1.5,3.7c-1.5,2.2-4,5.6-7,9.1c-5.9,6.9-8.5,7.5-8.9,7.6c-0.2-0.3-1.1-1.6-1.1-6.5l0-2.4c0-2.2,0-4.6,0-6.9
				c0.2-4.3,0.6-8.7,1.2-12.9l7.6-13.9c2.9-5,17.1-30.5,13.8-37.7c-0.4-1-1.2-1.7-2.2-2c-0.1-0.1-0.1-0.2-0.2-0.2
				c-2.6-1.3-5.5-0.4-8.7,2.9c-3,3-12.4,18.5-16,49c-7.9,0.5-14.6,5.2-17.9,11.8l-0.2,0.2c-10.2,12.4-16,13.9-16.1,13.9l0,0
				c-0.9,0.2-1.6,0.2-2-0.2c-0.7-0.5-1-1.9-0.9-4.1c0-1.6,0.6-4.6,1.3-7.8c1.1-5.4,2.2-11,1.3-12.9c-0.3-0.6-1.1-1.2-2.2-1.3
				c-1.1-0.2-2.1,0.3-2.9,1.2l-0.1,0.1c-0.7,0.8-1.5,1.7-2.8,7.1c-0.2,0.7-0.3,1.5-0.5,2.3c-1.4,4.1-3.1,6.6-3.2,6.8
				c-1.4,1.8-3,4-4.9,6.2c-5.9,6.9-8.5,7.5-8.9,7.6c-0.2-0.3-1.1-1.6-1.1-6.5l0-2.5c0-2.2,0-4.6,0-6.9c0.2-4.4,0.6-8.7,1.2-12.9
				l7.6-13.9c2.9-5,17.1-30.5,13.8-37.7c-0.4-1-1.2-1.7-2.2-2c-0.1-0.1-0.1-0.2-0.2-0.2c-2.6-1.3-5.5-0.4-8.7,2.9
				c-3,3-12.4,18.5-16,49c-9.6,0.6-17.5,7.5-19.6,16.4c-0.6,2-1.7,5.1-2.1,6.2c-1.1,2-2.4,3.9-3.5,5.1c-1.2,1.4-2.5,2-3.4,1.7
				c-0.8-0.3-1.3-1.5-1.3-3c0-0.7,0.7-17.3-1.7-22c-0.9-1.7-2.2-2.7-3.8-2.9c-2.9-0.3-6.5,2-10,6.3c-2.6,3.2-4.5,6.5-5.8,8.8
				c-0.8,1.4-1.7,2.9-2.1,3.4c0-1.6,1.5-7.3,3.1-12.3c0.1-0.4,1.3-4,0.1-5.5c-0.3-0.4-1-0.8-2.1-0.6c-2.2,0.5-4.5,5-5.6,7.5
				c-5.4,5.1-10.4,7-12.2,7.6c1.9-3.4,3-6.6,3.1-7.5l0,0c0.4-1.1,0.6-2.2,0.6-3.4c0-5.4-4.4-9.7-9.7-9.7c-1.7,0-3.3,0.4-4.8,1.3
				c-4.9,2.4-9.8,7.3-12,9.5c-0.9,0.8-1.6,1.5-2.5,2.6c-0.5,0.6-0.9,1.2-1.3,1.8c-5,5.6-15.7,16.5-23.9,16.5c-0.2,0-0.5,0-0.7,0
				c-2.2-0.2-3.8-1-4.8-2.4c-2.3-3.3-0.9-8.9-0.9-9c0-0.1,1.7-11,8.9-14.8c0.8-0.4,1.4-0.4,1.7,0c0.4,0.4,0.3,1.3-0.2,2.2
				c-0.2,0.3-0.4,0.6-0.6,0.9c-1.1,1.8-2.3,3.8-2.5,6.8c0,0.6,0.1,1.5,0.6,2.5c0.8,1.4,2.5,1.9,4,1.2c0.2-0.1,0.4-0.2,0.5-0.3
				c0.7-0.4,1.4-1,2-1.6c0.3-0.3,4.6-4.4,4-11.3c-0.2-2.3-1-4-2.4-5c-2-1.6-4.5-1.3-4.6-1.3c-0.3,0-5.5,0.2-10.5,5.8l-2.4,1.5
				l-13.1,7.9c-0.7,0.4-1.3,0.7-2,1.1l-4.8-3.4c-0.9-0.5-1.6-1.1-2.3-1.6c-0.7-0.5-1.4-1.1-2.2-1.7c-0.8-0.7-1.1-1.4-0.9-2.2
				c0.2-0.9,0.9-1.5,2-2.1c1-0.5,2-0.7,3.2-0.5c1.1,0.2,2.1,0.7,2.9,1.5c0.2,0.3,0.4,0.6,0.6,0.9l0.1,0.2c0.3,0.5,0.7,0.8,1.2,0.8
				c0.4,0.1,0.8,0,1.1-0.3c2.6-2-0.4-5.9-0.6-6.1c-2.5-2.8-5.6-3.7-9.4-2.6c-1.9,0.6-3.4,1.5-4.7,2.7c-1.3,1.2-2.2,2.7-2.7,4.6
				c-0.9,3.8,0.4,6.8,3.7,8.7c0.7,0.4,2.6,1.6,4,2.5c0.7,0.4,1.2,0.8,1.5,1c0.1,0,0.4,0.2,0.8,0.5l0.6,0.3
				c-20.8,12-40,26.3-40.2,26.4c-0.3,0.1-0.4,0.1-0.4,0.1c0,0-0.1-0.2-0.1-0.4v-34.4c0.4-0.4,1.8-1.7,5.7-4.1c3.6-2.2,12.5-7,16.2-9
				l1.4-0.7c1.8-0.9,3-1.6,3.3-2.3c0.3-0.6,0.4-1.5-0.1-2.1c-0.2-0.3-0.6-0.5-1-0.5c-0.2,0-0.8,0.1-1.1,0.2
				c-4.8,0.6-23,8.4-24.1,9.1c-0.1,0-0.1,0.1-0.1,0.1c0-0.1-0.1-4.4,0-4.6c0-0.3-0.1-27.6,0-29.6l0-0.6c0-1.5,0-1.7,1.9-2.4
				c11.1-4.6,35.6-4.3,35.8-4.3c1.2,0,2.2-0.9,2.2-2c0-1-0.7-1.7-1.9-2c-0.1,0-7.3-1.6-18.8-1.3c-11.5,0.3-25.6,4-25.7,4.1l-1.3,1.1
				l-0.5,90.5l0,0.3c0,2.3,2,4.1,4.6,4.1c1.2,0,2.4-0.5,3.3-1.3c4.1-3.2,6.1-5.1,6.3-5.2c16.4-12.6,27.2-19.5,34.8-23.8l0.1,0.3
				c0,0-0.1,0-0.1,0c0,0,0-0.1,0-0.1l-0.6,1.3c-0.6,1.2-1.2,2.5-1.6,3.8c-3,9.5,3.1,11.7,3.2,11.8c0.4,0.1,0.9,0.1,1.3,0.1
				c1.5,0,3-0.6,4.5-1.9c0.2-0.2,4.9-4.4,4.8-12.1c0-2.7-0.5-4.9-1.6-7.6l-0.2-0.4c3.1-1.4,5.5-2.4,7.6-3.7
				c-1.7,4.5-1.9,7.6-1.9,7.6c0,0.2-1,5,2,8.9c2.4,3.1,6.3,4.7,11.3,4.7c0.4,0,0.8,0,1.2,0c5.6-0.3,9.5-3.2,12.8-5.7
				c2.2-1.7,4.2-3.6,6-5.7c0,0.1,0,0.2,0,0.2c0,0.5,0,0.8,0,0.8c0,5.6,4.5,10.1,10.1,10.1c1.4,0,2.7-0.3,3.9-0.8
				c1.4-0.5,3.7-1.7,6.9-4.2c1.2-1,2.5-2.1,3.6-3.3c0.8-0.4,1.6-0.6,2.4-0.9c6.8-2.7,11.8-5.9,13.9-7.4c-0.6,3.2-1.1,7.1-1.1,10.6
				c0,4.8,1.6,6,2.5,6.3c1.4,0.4,3.1-0.5,4.5-2.5c2.4-3.5,12.3-19.3,12.4-19.5c0.5-0.7,2.2-2.6,3.4-2.6c0.4,0,0.7,0.1,0.9,0.5
				c0.8,1,0.6,4.5,0.5,8.2c-0.2,4.3-0.4,9.2,0.6,12.8c1.2,4.4,3.2,6,4.7,6.5c0.5,0.2,1,0.3,1.6,0.3c1.3,0,2.7-0.5,4.1-1.5
				c2.4-1.8,5.2-5.4,6.6-7.4c1.2,2.2,3.5,3.6,6.1,3.6c2.2,0,5-1.9,6.3-3.3c1.3-1.3,3.2-3.7,4.9-6.3c0,0.7,0,1.3,0,2
				c0,2.7,0,10.8,5.5,12.5c0.6,0.2,1.2,0.3,1.8,0.3c3.7,0,8.1-3.1,13.7-9.8c0.8-0.9,1.5-1.8,2.2-2.7c0.2,2.1,0.8,4.7,2.5,6.4
				c1.1,1.1,2.5,1.7,4.2,1.7c0.3,0,0.5,0,0.8,0c6.5-0.6,13.7-6.8,16.5-9.5c0.1,1.3,0.3,2.5,0.5,3.5c0.7,3.2,3.5,5.4,6.8,5.4
				c2.2,0,5-1.9,6.3-3.3c1.3-1.3,3.2-3.7,4.9-6.3c0,0.7,0,1.3,0,2c0,2.7,0,10.8,5.5,12.5c0.6,0.2,1.2,0.3,1.8,0.3
				c3.7,0,8.1-3.1,13.7-9.8c0.2-0.3,0.4-0.5,0.6-0.8c0.1,0.5,0.2,1,0.3,1.5c0.6,2.1,1.5,3.6,2.7,4.5c1.2,0.9,2.7,1.3,4.2,1.3
				c1.5,0,3.1-0.4,4.8-1.2c1.7-0.7,3.3-1.6,4.9-2.7c1.6-1.1,3.1-2.3,4.5-3.6c1-0.9,1.9-1.8,2.6-2.8c0.4,1.9,1.1,3.8,1.6,5
				c0.5,1.3,1.4,2.5,2.3,3.4c1.2,1,2.5,1.7,3.9,1.9c0.5,0.1,1,0.1,1.6,0.1c1.6,0,3.3-0.4,4.9-1.1c0.2,0,4.3-1.1,8.6-8.2
				c0.6-1.2,1-2,1.3-3c1-3,0.9-4.6,0.7-5.6C566.4,202.9,566,202.7,565.8,202.7z M515.3,147.8L515.3,147.8l0.1-0.2
				c1.5-3.2,3.9-6.3,5.3-7c0.2,2.8-2.8,13.7-13.7,32.8l-0.8,1.4C509,162.6,512.6,153.5,515.3,147.8z M449.5,147.7L449.5,147.7
				l0.1-0.2c1.5-3.2,3.9-6.3,5.3-7c0.2,2.8-2.8,13.7-13.7,32.8l-0.8,1.4C443.2,162.6,446.8,153.4,449.5,147.7z M288.2,213.6
				l-0.1,0.6c-0.2,1.2-1.1,4.7-2.6,4.5c-0.2,0-0.4-0.1-0.5-0.3c-0.7-1.1-0.3-4.3,0.1-5.4l0.2-0.6c0.4-1.2,1.3-4.1,2.5-4.1
				c0.1,0,0.1,0,0.2,0C289,208.6,288.4,212.2,288.2,213.6z M348.2,211.5L348.2,211.5c-0.4,0.4-1,1-2.1,1.7l0,0l-0.2,0.1
				c-0.9,0.7-2,1-3.1,1c-2.9,0-5.3-2.4-5.3-5.3l0-0.3c0-0.2,0-0.4,0.1-0.6c0.2-1.6,1-5.8,4.4-9.9c0.1,1.1,0.3,3.1,1.1,5.3
				c1,2.8,2.7,5.3,5,7.2l0.1,0.1c0.1,0.1,0.2,0.2,0.2,0.4C348.4,211.2,348.3,211.4,348.2,211.5z M359.1,194.9
				c-0.4,3.9-1.6,7.2-3.6,9.8c-0.2,0.3-0.5,0.6-0.7,0.9c-0.1,0.1-0.1,0.1-0.2,0.2l0,0c-0.3,0.3-0.7,0.4-1.1,0.3h0
				c-0.2,0-0.4-0.1-0.6-0.2l-0.2-0.1l-0.1,0c-0.2-0.1-0.2-0.1-0.4-0.2c-2.4-1.6-3.8-4.3-3.8-7.1c0-2.9,1.5-5.6,3.9-7.2
				c1-0.6,1.8-1,2.6-1l0,0l0.3,0c0.9,0,1.7,0.3,2.5,0.9c0.9,0.6,1.4,1.5,1.5,2.5l0,0.4C359.2,194.4,359.2,194.7,359.1,194.9z
				 M430.8,197.8c-2.8,8.7-9,17.4-11.4,16.8c-1.4-0.2-1.5-2.8-1.5-2.8c0-7.4,3.2-13.6,8.6-16.7c1.7-1,2.8-1.3,3.4-1.3
				c0.2,0,0.4,0,0.5,0.1c0.3,0.1,0.5,0.3,0.6,0.5C430.9,195.4,430.8,196.6,430.8,197.8z M496.5,197.8c-2.8,8.7-9,17.4-11.4,16.8
				c-1.4-0.2-1.5-2.8-1.5-2.8c0-7.4,3.2-13.6,8.6-16.7c1.7-1,2.8-1.3,3.4-1.3c0.2,0,0.4,0,0.5,0.1c0.3,0.1,0.5,0.3,0.6,0.5
				C496.7,195.4,496.6,196.6,496.5,197.8z M545.2,195.4c0,0.1,0,0.2,0,0.3c-0.1,0.6-0.2,1.1-0.4,1.6c-0.7,1.9-2.3,5.1-6,9.8
				c-3.9,4.8-7.3,6.4-9.6,7c-0.7,0.2-1.3,0.3-2,0.2l-0.1,0c-0.2-0.1-0.4-0.1-0.6-0.2c-0.8-0.4-1.4-1.2-1.7-2.3l-0.1-0.1
				c-0.3-0.9-1.9-7.3,3.8-14.7c4.3-5.5,8.1-8.2,11.2-7.9l0.2,0.1c3,0.3,5.3,2.8,5.3,5.9l0,0.3L545.2,195.4z"/>
		</g>
		<path class="st1" d="M198.7,206.3c-0.2-0.6-0.6-0.8-0.8-0.8c-0.2-0.1-0.6-0.1-1,0.4c-0.6,0.7-2.6,3.2-4.6,5.6
			c-0.8,1-1.3,1.5-2,2.2c-3,3-5.9,4-7,3.8c-1-0.3-1.8-1.2-2.5-3.2c0,0-0.1-0.3-0.2-0.7c-0.5-3.4,0-5,0-5.1c0.7-2.3,2.7-9.5,2.6-11.3
			l0,0c0-0.6,0-1.1,0-1.6c-0.5-4.3-3.1-6.5-3.2-6.6c-1.7-1.6-3.6-2.7-5.5-3.3l0.2-0.1l-1-0.1c-0.2,0-0.4-0.1-0.7-0.2
			c-0.9-0.1-1.8-0.1-2.7-0.1c-9.1,0.1-20.7,5.3-26.7,10.8c-8.4,7.6-12.3,15.8-13.6,18.9l-0.5,1.1c-0.1,0.3-0.2,0.4-0.3,0.5
			c-0.6-1.1-1-7-0.9-12.2c0.1-2.1,0.2-12.9-1.7-14.2c-0.3-0.2-0.7-0.3-0.9-0.2c-0.6,0.1-3.2,1.2-3.5,12.3c0,0.1-0.1,0.2-0.1,0.2
			c-0.3,0.4-3.8,5.1-8.3,9.8c-3.2,3.3-5.9,5.5-8,6.7c-0.8,0.3-1.4,0.3-2-0.1c-1.3-0.8-2.2-3.5-2.3-7.6c0-4,0.2-8,0.6-12l13.3-22.3
			c11.4-20.8,15.8-34,13-39.1c-0.8-1.4-2.1-2.3-3.7-2.6c-4.6-0.8-8.4,4.1-10.2,7.1c-2.3,2.7-5.7,7.5-8.8,14.8
			c-4,9.4-9.1,24.6-10.6,43.7l-0.9,2.3c0,0,0,0.1-0.1,0.1c-0.3,0.5-0.6,1-0.8,1.3c-0.7,0.8-1.4,1.7-2.1,2.6c-1.9,2.3-4,4.9-5.9,6.5
			c-2.6,2.3-5.1,4.1-7.6,5.4c-2.4,1.3-4.5,1.7-6.3,1.2c-1.3-0.3-2.3-0.8-3.1-1.8c-0.8-0.9-1.5-2-1.9-3.2c-0.4-1.2-0.6-2.5-0.5-3.9
			c0.1-1.3,0.4-2.6,1-3.7c1.8,0,3.8-0.4,5.9-1.2c2.3-0.8,4.5-1.8,6.6-3c2.1-1.3,4-2.8,5.7-4.4c1.7-1.7,2.9-3.6,3.6-5.6
			c0.8-2.5,0.7-4.7-0.1-6.4c-0.7-1.5-1.8-2.5-3.3-3.1c-2.4-1.3-6.8-2.5-14.5-3.2c-13.4,0.4-25.4,5.6-25.4,5.6
			c-1.9-2.3-4.3-4.4-7-6.2c-0.1-0.1-7.5-5.4-17.8-10.8c-5-2.7-7.7-5.9-7.9-9.4c-0.4-6.6,8-12.5,8.1-12.6c6.1-4.3,11.8-6.1,17.1-5.1
			c7.8,1.4,11.9,8.2,12,8.3c0.6,1.1,1.3,1.4,1.8,1.4c0,0,0,0,0,0c0.7,0,1.3-0.5,1.7-1.3c0.9-1.8,0.6-4.9-1.5-7.2
			c-0.1-0.2-14-15.6-35.1-0.7c-6.7,4.8-10.8,9.5-12.4,14.4c-0.1,0.1-5.4,10.5,11.9,20.5c10.9,6,19.8,12.1,20,13.6
			c-16.6,9.9-26.9,22.4-27,22.5L9,214c-0.8,0.9-1.6,1.8-2.3,2.7c-1.4,1.8-2.6,3.7-3.7,5.7c-1.1,2-1.9,4.2-2.5,6.5
			c-0.7,3.4-0.5,6.2,0.8,8.3c1.3,2.2,3.6,3.5,6.7,3.9c0,0,0.6,0.1,1.7,0.1c4.4,0,16.5-1,28.8-11.3c3.5-2.9,6.4-6.1,8.7-9.7
			c1.9-2.9,3.1-5.4,3.8-8.1c0.1-0.4,3.2-10.6-2.4-20.9c7.7-3.5,15.2-5.7,19.5-5.7c2.9,0,4.6,0.2,5.5,0.3
			c-9.1,5.7-13.4,19.4-13.6,20.1c-1.2,4.6-0.9,9.4,0.8,13.2c0.8,2,2.1,3.6,3.7,4.7c1.6,1.1,3.5,1.9,5.7,2.3c0.6,0.1,1.2,0.1,1.8,0.1
			c1.4,0,2.9-0.3,4.4-0.8c2-0.7,4.1-1.7,6.1-3.1c2-1.3,4-2.9,5.9-4.6c1.3-1.2,4.3-4.7,6.5-7.7c0,0.6,0,1.2,0,1.7
			c0,3,0,12.3,6.5,14.1c0.7,0.2,1.4,0.3,2.2,0.3c4.2,0,9.2-3.1,15.6-9.7c1.4-1.5,2.6-2.9,3.6-4.3c0.2,2,0.6,4.8,0.8,5.6
			c1.3,5.4,5.1,5.7,5.8,5.7c0.1,0,0.1,0,0.1,0c3.8,0,5.7-3.7,8.1-8.3c3.1-6.1,7.3-14.1,17.9-19.4c-1,1.4-1.8,2.9-2.6,4.4
			c-1.3,2.6-2.2,5.5-2.8,8.3c0,0.2-1.1,4.8-0.1,9.2c0.6,2.1,1.5,3.6,2.7,4.5c1.3,0.9,2.7,1.3,4.2,1.3c1.5,0,3.1-0.4,4.8-1.2
			c1.7-0.7,3.3-1.6,4.9-2.7c1.6-1.1,3.1-2.3,4.5-3.6c1-0.9,1.9-1.8,2.6-2.8c0.4,1.9,1.1,3.8,1.6,5c0.6,1.4,1.3,2.5,2.4,3.4
			c1.2,1,2.5,1.7,3.9,1.9c0.5,0.1,1,0.1,1.6,0.1c1.6,0,3.3-0.4,4.9-1.1c0.2,0,4.1-1.1,8.3-7.9C198.5,211.3,199.1,207.7,198.7,206.3z
			 M111.9,159.9c4.9-11.6,9.9-18.2,10.4-18.9c0.6-0.5,1.1-0.7,1.3-0.8c0,0,0,0,0,0c0.3,0.6,2.6,6.4-12.9,34.8l-6.8,11.4
			C105.6,177.1,108.3,168.2,111.9,159.9z M42,211.8L42,211.8c-5.7,14.1-21,21.4-27.9,21.5c-1.4,0-3.3-0.2-3.9-1.5
			c-2-4.3,0.4-8.9,1.6-10.7c1.4-2.1,2.7-3.7,2.7-3.7c1.7-2.1,3.7-4.3,5.9-6.5c0.2-0.2,0.4-0.4,0.7-0.6l0.5-0.5
			c3.9-3.8,8.1-7.2,12.4-10.2c1.1-0.7,2.1-1.3,2.9-1.8h0c0.2-0.1,0.5-0.3,0.8-0.5c0.7-0.4,1.6-1,2.1-1c0,0,0.1,0,0.1,0
			c0,0,0.1,0,0.1,0.1l0.1,0.1C40,196.6,44.8,202.7,42,211.8z M69,202c0.6-1.5,1.3-2.8,2.1-4c1.1-1.7,2.5-3.3,3.9-4.7
			c0.5-0.5,1.1-1,1.7-1.4c0.6-0.4,1.3-0.7,2-1.1c0.6-0.3,1.4-0.5,2.4-0.5c0.9-0.1,1.6,0.1,2,0.7c0.4,0.6,0.5,1.3,0.1,2.2
			c-0.3,0.6-0.5,1.1-0.9,1.5c-1.4,2-3.2,3.7-5.2,4.9c-2,1.3-4.2,2.4-6.5,3.2c-0.3,0.1-0.6,0.2-1,0.1c-0.2,0-0.4-0.1-0.6-0.3
			C69,202.5,69,202.2,69,202z M177.1,197.4c0,0.1,0,0.2-0.1,0.4c-0.1,0.6-0.2,1.1-0.5,1.6c-0.7,1.9-2.3,5.1-6,9.8
			c-3.9,4.8-7.3,6.4-9.6,7c-0.7,0.2-1.3,0.3-2,0.2l-0.1,0c-0.2-0.1-0.4-0.1-0.6-0.2c-0.8-0.4-1.4-1.2-1.7-2.3l-0.1-0.1
			c-0.3-0.9-1.9-7.3,3.8-14.7c4.3-5.5,8.1-8.2,11.2-7.9l0.2,0.1c3,0.3,5.3,2.8,5.3,5.9l0,0.3L177.1,197.4z"/>
	</g>
</g>
</svg>
