<?xml version="1.0" encoding="utf-8"?>
<!-- Generator: Adobe Illustrator 26.0.0, SVG Export Plug-In . SVG Version: 6.00 Build 0)  -->
<svg version="1.1" id="Layer_1" xmlns="http://www.w3.org/2000/svg" xmlns:xlink="http://www.w3.org/1999/xlink" x="0px" y="0px"
	 viewBox="0 0 3856.8 561" style="enable-background:new 0 0 3856.8 561;" xml:space="preserve">
<style type="text/css">
	.st0{fill:#FFFFFF;}
</style>
<g>
	<polygon class="st0" points="0,10.5 4.9,58.6 4.9,551.5 365.6,551.5 365.6,474 94.9,474 94.9,309.7 280.3,309.7 280.3,231.3 
		94.9,231.3 94.9,135.1 91.1,88.9 362.5,88.9 362.5,10.5 	"/>
	<polygon class="st0" points="758,10.5 630.2,219.7 502.4,10.5 420.1,10.5 420.1,30.5 568.7,270 403.1,532.6 403.1,551.5 
		480.5,551.5 619.2,333.8 754.1,551.5 836.1,551.5 836.1,532.6 677.6,280.5 833.3,30.5 833.3,10.5 	"/>
	<path class="st0" d="M2422.7,0c-108,0-186.2,55.4-186.2,152.7c0,99.4,105,139.2,164.5,164.3c58.4,24.1,106.1,41.9,106.1,82.7
		c0,49.2-40.6,79.5-97.1,79.5c-49.6,0-99.2-23-135.7-50.3h-27.7l-9,68.1c41.7,35.7,110,61.9,173.3,61.9
		c106.1,0,188.4-62.7,188.4-163.2c0-91.1-85.3-124.6-143.7-149.7c-64.4-27.3-128.9-49.2-128.9-98.4c0-41.9,36.7-64.9,97.1-64.9
		c38.7,0,83.3,14.6,105,32.4h28.8l8.8-73.2C2536.7,22.1,2485.2,0,2422.7,0 M3489.1,552.6V174.8l288.4,377.8h79.3v-540h-91.3V385
		L3483.1,12.7H3392l6,52.4v487.5H3489.1z M2659.6,551.5h89.1v-541h-89.1V551.5z M1814.2,12.7h-91.1l6,52.4 M1362.3,354.8l90.2-251.1
		l88.3,251.1H1362.3z M1568.5,432.1l45.5,120.3h83.3v-18.9l-202-525.1H1410l-206.2,525.1v18.9h82.3l48.5-120.3L1568.5,432.1
		L1568.5,432.1z M969.1,312.9V142.4l-4.9-52.2h96.2c67.4,0,111,29.2,111,110.8c0,75.4-43.6,113-111.9,113L969.1,312.9z M877.8,552.6
		h91.1V390.5H1070c99.2,0,189.2-60.8,189.2-191.6c0-120.3-75.4-187.3-180.4-187.3h-207l6,53.3L877.8,552.6L877.8,552.6z
		 M1729.2,64.9v487.5h91.3V174.8l288.2,377.8h79.3v-540h-91.1V385L1814.2,12.7"/>
	<path class="st0" d="M3073.9,485.6c-103.1,0-183.4-85.7-183.4-204s75.4-196.7,180.4-196.7c102,0,185.4,79.5,185.4,196.7
		C3255.2,407,3169.9,485.6,3073.9,485.6 M3073.9,3.2c-153.6,0-272.6,121.3-272.6,278.4c0,158.1,116,279.4,272.6,279.4
		c154.6,0,272.6-121.3,272.6-279.4C3345.4,122.4,3227.5,3.2,3073.9,3.2"/>
	<polygon class="st0" points="3276.9,10.5 3106.5,190.5 3213.5,190.5 3384,10.5 	"/>
</g>
</svg>
