<?xml version="1.0" encoding="utf-8"?>
<!-- Generator: Adobe Illustrator 26.0.0, SVG Export Plug-In . SVG Version: 6.00 Build 0)  -->
<svg version="1.1" id="Layer_1" xmlns="http://www.w3.org/2000/svg" xmlns:xlink="http://www.w3.org/1999/xlink" x="0px" y="0px"
	 viewBox="0 0 2226.6 561" style="enable-background:new 0 0 2226.6 561;" xml:space="preserve">
<style type="text/css">
	.st0{fill-rule:evenodd;clip-rule:evenodd;fill:#FFFFFF;}
	.st1{fill:#FFFFFF;}
</style>
<g>
	<g id="XMLID_00000098934549751911423240000014371557736552714939_">
		<g id="XMLID_00000126324378712400119900000003091847524973349795_">
			<path id="XMLID_00000010304233243301316040000002334994028608751801_" class="st0" d="M1356.3,161.8c-35.7,0-64,7.4-92.3,22.8
				c0-81.9,0-155.9,2.5-181.7l-171.3,30.8v15.4l17.9,2.5c22.8,5,30.8,17.9,35.7,48.7c5,61.6,2.5,389.2,0,442.8
				c46.2,10.4,94.8,17.9,143.5,17.9c135.5,0,217.4-84.4,217.4-217.4C1510.2,238.3,1443.7,161.8,1356.3,161.8L1356.3,161.8z
				 M1297.7,532.7c-10.4,0-22.8,0-30.8-2.5c-2.5-35.7-5-186.7-2.5-319.7c15.4-5,25.8-7.4,38.2-7.4c56.1,0,86.9,66.5,86.9,148.4
				C1389.6,453.3,1351.4,532.7,1297.7,532.7L1297.7,532.7z"/>
			<path id="XMLID_00000017502616893845410770000009680221942027497106_" class="st0" d="M450.8,13.4H0v22.8l25.8,2.5
				c33.3,5,46.2,25.8,51.1,74c7.4,92.3,5,258.7,0,337.6c-5,48.7-17.9,71.5-51.1,74l-25.8,5v20.4h288.9v-20.4l-30.8-5
				c-33.3-2.5-46.2-25.8-51.1-74c-2.5-33.3-5-86.9-5-153.4l61.6,2.5c38.2,0,56.1,30.8,64,74h22.8V192.6h-22.8
				c-7.4,43.7-25.8,74-64,74l-61.6,2.5c0-86.9,2.5-168.8,5-217.4h89.4c69,0,104.8,43.7,130.6,120.1l25.8-7.4L450.8,13.4L450.8,13.4z
				"/>
			<path id="XMLID_00000061448136609642566050000012018446054473030023_" class="st0" d="M596.2,156.9
				c128.1,0,192.1,86.9,192.1,202.1c0,110.2-71.5,202.1-199.6,202.1S396.6,474.2,396.6,359C396.7,248.7,468.7,156.9,596.2,156.9
				L596.2,156.9z M588.8,182.2c-56.1,0-71.5,77-71.5,176.7c0,97.3,25.8,176.7,77,176.7c59.1,0,74-77,74-176.7
				C668.2,261.6,642.4,182.2,588.8,182.2L588.8,182.2z"/>
			<path id="XMLID_00000115493275077439746350000014405060688565376684_" class="st0" d="M1543.5,361.4
				c0-104.8,66.5-204.5,197.1-204.5c107.2,0,158.9,79.4,158.9,184.2h-237.8c-2.5,94.8,43.7,163.8,135.5,163.8
				c40.7,0,61.6-10.4,86.9-28.3l10.4,12.9c-25.8,35.7-81.9,71.5-153.4,71.5C1625.4,561,1543.5,479.1,1543.5,361.4L1543.5,361.4z
				 M1661.2,312.8l120.1-2.5c0-51.1-7.4-128.1-51.1-128.1C1686.5,182.2,1663.6,253.7,1661.2,312.8L1661.2,312.8z"/>
			<path id="XMLID_00000103244265345607635680000016033522071449174405_" class="st0" d="M2203.8,177.2
				c-30.8-12.9-71.5-20.4-117.7-20.4c-94.8,0-153.4,56.1-153.4,122.6s43.7,94.8,104.8,115.2c64,22.8,81.9,40.7,81.9,71.5
				s-22.8,59.1-64,59.1c-48.7,0-84.4-28.3-112.7-104.8l-17.9,5l2.5,112.7c30.8,12.9,86.9,22.8,135.5,22.8
				c99.8,0,163.8-51.1,163.8-130.6c0-53.6-28.3-84.4-94.8-110.2c-71.5-28.3-97.3-46.2-97.3-79.4s22.8-56.1,53.6-56.1
				c46.2,0,77,28.3,99.8,97.3l17.9-5L2203.8,177.2L2203.8,177.2z"/>
			<path id="XMLID_00000031166180185103524780000011867422568276788615_" class="st0" d="M1121,166.8
				c-43.7-25.8-120.1-12.9-161.3,79.4l2.5-89.4l-171.3,33.3v15.4l17.9,2.5c22.8,2.5,33.3,15.4,35.7,48.7c5,61.6,2.5,168.8,0,222.4
				c-2.5,30.8-12.9,46.2-35.7,48.7l-17.9,2.5v20.4h237.8v-20.4l-30.8-2.5c-25.8-2.5-33.3-17.9-35.7-48.7c-5-48.7-5-146-2.5-207.5
				c12.9-17.9,69-33.3,120.1,0L1121,166.8L1121,166.8z"/>
		</g>
		<g>
			<path class="st1" d="M1665.6,31.8h22.8l25.3,67.5l25.3-67.5h22.8v83.9H1748V46.2h-2l-25.3,66.5h-14.4L1681,46.2h-2v70h-13.9V31.8
				H1665.6z"/>
			<path class="st1" d="M1801.2,31.8h60.1v11.4h-46.7v25.3h38.2v10.9h-38.2v25.3h46.7v11.4h-60.1V31.8z M1846.8,0l4.5,10.4
				l-32.8,9.9l-4.5-9.4L1846.8,0z"/>
			<path class="st1" d="M1926.3,65.5l21.8-33.3h15.4l-28.3,42.2l28.3,41.7h-15.4l-21.8-32.8l-22.3,32.8h-15.4l28.3-41.7l-28.3-42.2
				h15.4L1926.3,65.5z"/>
			<path class="st1" d="M1994.3,31.8h13.9v83.9h-13.9V31.8z"/>
			<path class="st1" d="M2104.5,114.7c0,0-15.9,3-27.3,3c-29.3,0-36.2-14.9-36.2-43.2c0-29.3,7.9-43.7,36.2-43.7
				c12.4,0,27.3,3,27.3,3l-0.5,10.4c0,0-15.9-2-25.3-2c-19.4,0-23.3,9.4-23.3,31.8s3.5,31.8,23.8,31.8c8.4,0,24.8-2,24.8-2
				L2104.5,114.7z"/>
			<path class="st1" d="M2132.8,74.5c0-27.8,8.9-43.7,38.7-43.7c30.3,0,39.2,15.9,39.2,43.7c0,28.8-8.9,42.7-39.2,42.7
				S2132.8,102.8,2132.8,74.5z M2196.3,74.5c0-20.9-4.5-32.3-24.8-32.3c-20.4,0-24.8,11.4-24.8,32.3s4.5,31.3,24.8,31.3
				C2191.9,106.2,2196.3,96.3,2196.3,74.5z"/>
		</g>
	</g>
</g>
</svg>
