<?xml version="1.0" encoding="utf-8"?>
<!-- Generator: Adobe Illustrator 26.0.0, SVG Export Plug-In . SVG Version: 6.00 Build 0)  -->
<svg version="1.1" id="Layer_1" xmlns="http://www.w3.org/2000/svg" xmlns:xlink="http://www.w3.org/1999/xlink" x="0px" y="0px"
	 viewBox="0 0 5387 550.7" style="enable-background:new 0 0 5387 550.7;" xml:space="preserve">
<style type="text/css">
	.st0{fill:#FFFFFF;}
</style>
<g>
	<g>
		<path class="st0" d="M2369.4,544.6c0-39.9,0-77.7,0-117.6c16.3,0,31.3,0,48.6,0c0-99.7,0-197.2,0-296.9c-15.7-1-31.3-2.2-48.3-3.2
			c0-40.9,0-80.2,0-120.5c3.8-1,8-2.6,12.1-2.6C2486,4.4,2589.9,5.1,2694,6.4c16.3,0.3,32.6,2.9,48.6,6.1
			c129.4,26.8,189.8,156.6,124.3,271.7c-14.1,24.6-40.9,42.2-63.3,64.6c16.6,20.8,35.2,45.4,55.6,68.4c5.1,5.8,16.3,7.4,24.9,8.6
			c8.9,1.6,18.2,0.3,29.1,0.3c0,41.2,0,79.3,0,119.2c-82.5,0-163.9,0-247.4,0c0-37.7,0-74.8,0-113.1c10.9-1,21.7-1.9,32.9-2.9
			c-24.9-60.4-55.9-74.5-132-59.4c0,18.9,0,38.4,0,59.1c12.5,1,24.3,1.9,37.4,2.9c0,37.1,0,73.8,0,112.8
			C2526.4,544.6,2448.7,544.6,2369.4,544.6z M2566,123.4c0,47.9,0,91.1,0,134.9c42.2,0,83.1,2.2,123.7-0.6
			c34.5-2.6,48.6-23.3,49.5-60.1c1-37.4-14.1-62-47-66.2C2651.3,126,2609.5,125.6,2566,123.4z"/>
		<path class="st0" d="M4103.5,546.9c0-41.2,0-78.9,0-119.5c16-1,31.6-1.6,48.9-2.6c0-98.4,0-196.2,0-295c-16.3-1-31.3-1.6-48.3-2.6
			c0-40.9,0-80.9,0-122.1c4.5-0.6,8.6-1.9,12.5-1.9c94.6,1,189.2,0.6,283.8,3.5c30.4,1,61.7,7,90.8,16
			c101.3,30.4,160.1,102.6,166.8,208.1c2.6,40.6,1.6,83.1-7,122.7c-22.4,102.6-98.8,169.7-210.6,183.4
			c-67.1,8.3-135.5,7.4-203.3,9.3C4194,547.8,4150.2,546.9,4103.5,546.9z M4303.3,131.7c0,98.8,0,193,0,289.9
			c66.8-1.9,135.5,10.9,181.8-53.7c31-43.1,33.2-136.5,3.2-179.6C4442.3,122.1,4371.4,136.2,4303.3,131.7z"/>
		<path class="st0" d="M2941.2,546.9c0-41.5,0-79.3,0-119.8c15.7,0,30.7,0,47.9,0c0-100,0-197.5,0-297.2c-15-1-30-1.6-47-2.6
			c0-40.9,0-80.9,0-120.5c1.9-1.3,3.2-2.9,4.8-2.9c113.1,2.6,227.2-1.3,339.7,9.3c126.6,12.1,204.5,103.2,210.6,230.4
			c1.6,34.8,0.3,70.9-7,104.8c-23,106.1-98.1,174.8-211.6,188.2c-75.7,8.9-152.4,7.4-228.8,9.6
			C3014.4,547.8,2979.2,546.9,2941.2,546.9z M3139,419c101.6,9.9,158.5-7,187.9-57.8c27.8-47.9,24-142.5-7.7-182.2
			c-31-38.7-121.1-60.1-179.9-41.9C3139,230.2,3139,323.8,3139,419z"/>
		<path class="st0" d="M1837.3,543.3c0-38.7,0-76.1,0-116c16-1,31.3-1.6,48.3-2.6c0-97.8,0-195.3,0-295c-15.3-1-30.7-1.6-47.3-2.6
			c0-40.9,0-80.9,0-122.4c161.4,0,322.8,0,485.8,0c0,67.4,0,133.9,0,202.3c-42.2,0-83.7,0-128.5,0c0-26.5,0-52.7,0-81.2
			c-54,0-104.8,0-157.6,0c0,29.1,0,57.8,0,89.5c42.5,0,83.4,0,125.9,0c0,39.3,0,75.7,0,115.4c-41.5,0-83.1,0-125.9,0
			c0,34.5,0,65.8,0,99.1c54.6,0,108.3,0,165.2,0c0-31.3,0-62.6,0-95.6c44.7,0,86.6,0,132,0c0,11.8,0,23.6,0,35.5
			c0,51.5,0,103.2,0,154.7c0,11.8,0.6,22.4-16.6,22.1c-158.2-0.6-316.4-0.6-474.6-1C1842.4,546.2,1840.8,544.9,1837.3,543.3z"/>
		<path class="st0" d="M3479.7,423.8c39.3,12.8,45.7-11.5,55-36.1c46-121.1,93.3-241.9,139-363.4c6.7-18.2,15.7-24.9,35.5-24.3
			c44.7,1.6,89.5,1.6,134.2,0c21.1-0.6,31.3,5.4,39,25.9c45.4,119.5,92.4,238.4,138.4,357.9c9.6,25.2,15.3,52.7,54.3,41.2
			c0,41.9,0,79.9,0,120.2c-83.7,0-166.5,0-250.6,0c0-37.1,0-72.5,0-111.2c20.8,0,39.9,0,59.4,0c-4.8-46.7-9.9-51.8-49.9-51.8
			c-41.2,0-82.5,0-124,0c-44.7,0-45.1,0-54,51.5c17.9,0,35.5,0,54.3,0c0,38.7,0,74.5,0,113.1c-39.3,0-77,0-114.4,0
			c-32,0-63.6-0.6-95.6,0.3c-15,0.3-21.7-3.8-21.4-20.1C3480.3,494.5,3479.7,461.9,3479.7,423.8z M3773.7,123.1
			c-1.9,0.3-3.8,0.6-5.8,1c-18.9,51.1-37.7,102.3-57.5,156c41.2,0,79.3,0,121.4,0C3811.8,226.3,3792.6,174.9,3773.7,123.1z"/>
		<path class="st0" d="M1113.8,424.5c0,43.1,0,80.5,0,120.5c-83.4,0-166.2,0-250.9,0c0-35.5,0-70.9,0-109.3c19.2,0,38.4,0,57.5,0
			c1.6-42.5-8-52.7-46.3-52.7c-41.2,0-82.5,0-123.7,0c-45.7,0-45.7,0-55.6,50.2c9.3,0.6,18.2,1.3,26.8,1.6c8.6,0.3,16.9,0,27.5,0
			c0,37.7,0,73.2,0,110.6c-75.7,0-150.8,0-228.2,0c0-38.4,0-76.4,0-114.7c1-1,2.6-3.2,3.5-2.9c29.4,5.1,38.7-12.5,47.9-36.4
			c46-123,94.3-245.1,140.6-367.8c6.7-17.6,15.7-23,33.9-22.7c46.3,1.3,92.7,1.3,139.3,0c18.2-0.3,26.8,4.8,33.6,22.7
			c46.3,121.8,94.6,243.2,141.6,364.7C1069.7,411.4,1075.4,436.9,1113.8,424.5z M811.8,123.7c-1.9,0-3.8,0-5.8,0.3
			c-18.9,51.5-38,102.6-57.8,156.3c41.9,0,79.9,0,121.4,0C849.8,226.3,830.9,175.2,811.8,123.7z"/>
		<path class="st0" d="M1221.8,128.5c0-42.8,0-82.1,0-123.7c8.6-0.6,16-1.6,23.3-1.6c72.2,0,144.5,0.3,216.7-0.3
			c16.9-0.3,22.7,5.1,22.1,22.1c-1,30.7-0.3,61.7-0.3,95.2c-25.2,0-47.9,0-76.7,0c38.7,103.2,75.7,202,115.4,307.8
			c39.6-104.8,76.7-202.9,115.4-304.9c-24,0-44.7,0-67.8,0c0-41.2,0-78.9,0-118.2c79.6,0,158.2,0,238.7,0c0,40.9,0,80.9,0,124.3
			c-39.3-11.2-45.4,17.6-55.6,43.5c-46.3,118.2-94,236.2-140.3,354.4c-6.4,16.6-14.4,24-33.2,23.3c-44.7-1.6-89.5-1.6-134.2,0
			c-20.1,0.6-27.8-7-34.5-24.9c-44.7-117.9-91.1-235.5-136.5-353.1C1264.9,147.4,1260.1,118.9,1221.8,128.5z"/>
		<path class="st0" d="M201,430.5c51.8,0,101.9,0,156,0c0-32.3,0-63.6,0-96.2c45.1,0,86.9,0,131,0c0,70,0,139.7,0,210.9
			c-162.7,0-324.7,0-487.7,0c0-39.9,0-78.3,0-117.9c16.6-0.6,31.6-1.6,48.6-2.2c0-98.1,0-195.6,0-295c-16.3-1-32.3-2.2-48.9-3.2
			C0,85.7,0,46.4,0,5.2c86.9,0,173.5,0,261.7,0c0,40.6,0,80.5,0,123.4c-20.8,0-39.9,0-60.7,0C201,230.8,201,329.9,201,430.5z"/>
	</g>
	<g>
		<path class="st0" d="M5114.1,9c-149.2-0.3-272.9,122.1-273.2,269.7c-0.3,150.2,121.1,271.7,272,272
			C5264,551,5386.7,430.2,5387,281C5387,131.4,5264.3,9.3,5114.1,9z M5245.1,208.1c30,9.6,56.6,21.1,77.3,43.8
			c16.9,18.5,16.9,38.7-0.3,57.5c-19.8,21.7-45.7,32.9-75.7,43.1C5249.3,303,5250.6,256.4,5245.1,208.1z M5328.9,198.8
			c-30.7-17.9-59.1-30-89.2-37.7c-4.8-1.3-5.4-5.8-6.4-9.6c-8.3-27.8-18.2-55.3-33.2-80.9C5259.8,94.3,5301.7,135.6,5328.9,198.8z
			 M5084.1,72.6c19.5-17.9,38.7-18.5,58.8-0.6c23,20.5,34.2,47.9,44.7,78c-49.2-4.8-96.8-4.5-146.7-0.3
			C5050.8,119.6,5062,93,5084.1,72.6z M5029.1,70.4c-15.7,26.2-27.2,53.4-34.5,81.8c-1.3,4.5-3.5,7.4-8,8.6
			c-29.1,6.7-55.9,18.5-82.8,33.2C4911.8,152.2,4976,83.5,5029.1,70.4z M4907,246.4c18.9-18.2,42.2-28.1,66.2-37.1
			c8.3-3.2,10.2-0.3,9.3,8c-5.8,44.4-4.2,88.5,0,135.5c-28.8-8.3-54-19.5-74.8-39C4883.7,292.2,4883.7,269.1,4907,246.4z
			 M4900,363.7c29.1,16.6,54.3,27.5,81.5,34.2c6.1,1.6,10.9,4.2,12.5,11.2c6.4,27.5,17.6,53.4,32.9,81.8
			C4967.1,464.7,4926.8,424.5,4900,363.7z M5184.4,423.5c-9.3,24-19.2,47.3-37.7,65.8c-21.4,21.4-44.1,21.7-65.2,0.3
			c-19.5-19.2-31-43.5-38.7-69c-5.8-18.5,10.9-4.5,14.4-9.6c39.9,5.8,78.9,3.8,117.9,0C5185.7,410.4,5188.9,412.6,5184.4,423.5z
			 M5188.9,366c-48.9,8-98.1,8-147,1.3c-10.2-1.3-14.7-4.8-16-16.3c-5.4-46.7-5.1-93.3,0.3-140.3c1.3-11.2,4.8-16.3,16.9-17.9
			c23-3.2,46.3-2.6,67.8-3.8c25.9,0.6,50.2,1,74.5,4.2c9.9,1.3,14.7,5.1,16,15c5.8,48.6,6.1,97.2,0.3,145.7
			C5200.4,362.1,5196.5,364.7,5188.9,366z M5202.6,490.3c11.5-25.6,23.3-46.3,27.8-69c3.2-16,11.2-24,27.2-27.5
			c23.6-5.4,45.7-16.9,67.8-28.4C5303,421.9,5263.7,462.8,5202.6,490.3z"/>
	</g>
</g>
</svg>
