<?xml version="1.0" encoding="utf-8"?>
<!-- Generator: Adobe Illustrator 26.0.0, SVG Export Plug-In . SVG Version: 6.00 Build 0)  -->
<svg version="1.1" id="Layer_1" xmlns="http://www.w3.org/2000/svg" xmlns:xlink="http://www.w3.org/1999/xlink" x="0px" y="0px"
	 viewBox="0 0 3890.2 891.1" style="enable-background:new 0 0 3890.2 891.1;" xml:space="preserve">
<style type="text/css">
	.st0{fill:#FFFFFF;}
	.st1{fill-rule:evenodd;clip-rule:evenodd;fill:#FFFFFF;}
</style>
<g>
	<g>
		<path class="st0" d="M1618.7,6.5c27.8,0,54.4,0,81,0c3.3,0,6.7,3.3,8.9,6.7c35.4,68.7,70.9,136.3,107.3,204.8
			c1.2,1.2,2.1,3.3,3.3,5.5c12.2-23.2,23.2-45.5,34.2-67.5c24.4-47.6,49.8-95.3,75.2-142.8c1.2-2.1,4.3-6.7,6.7-6.7
			c26.6,0,53.2,0,81,0v410.7h-90.7V189.2c-1.2,0-1.2,0-2.1-1.2c-4.3,7.7-8.9,16.5-13.2,24.4c-24.4,47.6-48.6,95.3-74.3,141.8
			c-1.2,3.3-5.5,5.5-8.9,5.5c-25.4,1.2-25.4,1.2-36.6-21.1c-25.4-49.8-51-98.4-76.4-148.5c-1.2-1.2-1.2-2.1-3.3-4.3v231.4h-91.9
			L1618.7,6.5L1618.7,6.5z"/>
		<path class="st0" d="M2849,244.6V7.7h91.9v410.7c-15.6,0-30.9-1.2-45.5,0c-24.4,3.3-37.6-5.5-51-26.6
			c-47.6-72.1-97.5-141.8-147.3-212.7c-1.2-2.1-2.1-3.3-5.5-6.7v244.7h-92.9V6.5h30.9c14.3,0,28.8,0,43.1,0c6.7,0,10.1,2.1,13.2,6.7
			c53.2,75.2,106.4,151.6,159.5,227.1C2845.7,241.3,2846.9,242.4,2849,244.6"/>
		<path class="st0" d="M3065.1,418.5V7.7c2.1,0,3.3-1.2,4.3-1.2c54.4,0,107.3,0,161.7,0c26.6,0,53.2,5.5,78.5,15.6
			c52,21.1,86.5,58.6,100.8,113c14.3,53.2,13.2,106.4-2.1,158.3c-18.9,62.1-62.1,99.6-124,114c-23.2,5.5-47.6,7.7-72.1,8.9
			c-45.5,1.2-89.6,0-135,0H3065L3065.1,418.5L3065.1,418.5z M3162.4,94.2v240.2c26.6-1.2,52-1.2,76.4-4.3
			c42.2-6.7,67.5-32.1,77.6-74.3c6.7-28.8,6.7-57.5,0-86.5c-8.9-43.1-36.6-68.7-79.7-74.3C3212.1,91.8,3187.9,94.2,3162.4,94.2"/>
		<path class="st0" d="M3691.6,425.2c-102.9,0-180.6-68.7-193.8-170.5c-6.7-48.6-3.3-96.3,16.5-141.8C3551,29.7,3629.6-6.7,3712.7,1
			c104.2,8.9,166.2,86.5,176,181.5c4.3,46.4,0,91.9-19.9,135C3835.6,386.4,3771.4,425.2,3691.6,425.2 M3790.3,213.6
			c0-28.8-5.5-55.3-19.9-79.7c-33.3-56.5-106.4-63.2-147.3-13.2c-39.8,48.6-38.8,140.6,3.3,188.2c37.6,43.1,102.9,41,137.2-4.3
			C3783.6,276.7,3790.3,245.7,3790.3,213.6"/>
		<path class="st0" d="M2136.1,7.7h98.4v11c0,81,0,161.7,0,242.6c0,24.4,6.7,46.4,27.8,60.8c25.4,17.8,54.4,18.9,81.9,5.5
			c26.6-13.2,36.6-36.6,36.6-65.4c0-81,0-162.9,0-243.6v-11h98.5v11c0,81.9,0,162.9,0,244.7c0,27.8-5.5,54.4-17.8,79.7
			c-19.9,39.8-53.2,63.2-95.3,74.3c-41,11-83.1,11-124-1.2c-60.8-17.8-99.6-66.3-105.2-129.6c-1.2-13.2-1.2-27.8-1.2-41
			c0-75.2,0-149.5,0-224.9L2136.1,7.7L2136.1,7.7z"/>
		<polygon class="st0" points="427.5,7.7 720.9,7.7 720.9,90.8 523.8,90.8 523.8,164.8 665.6,164.8 665.6,247.9 523.8,247.9 
			523.8,333.2 724.2,333.2 724.2,417.5 427.5,417.5 		"/>
		<polygon class="st0" points="1209.2,7.7 1502.6,7.7 1502.6,90.8 1305.5,90.8 1305.5,164.8 1447.3,164.8 1447.3,249.2 
			1304.3,249.2 1304.3,333.2 1504.8,333.2 1504.8,417.5 1209.2,417.5 		"/>
		<polygon class="st0" points="0,92.9 0,6.5 332.2,6.5 332.2,91.8 214.9,91.8 214.9,417.5 117.4,417.5 117.4,92.9 		"/>
		<polygon class="st0" points="935.7,332.2 1120.6,332.2 1120.6,417.5 839.4,417.5 839.4,6.5 935.7,6.5 		"/>
	</g>
	<g>
		<path class="st1" d="M1145.2,613.8c-8.4-43.6-45-56-85.2-59.7c-130.2-12.1-153.3,85.2-153.3,126.5c0,70.5,20.8,128.8,148.3,128.8
			c23.1,0,88.9-24.2,88.9-64.4h183.5c-7.4,116.8-204.3,146-289.2,146c-177.5,0-329.5-32.9-322.1-209.1
			c4.7-125.2,122.8-212.7,358.7-208c131.2,3.7,256.6,43.6,257.7,138.6L1145.2,613.8L1145.2,613.8z M2987.1,613.8
			c-8.4-43.6-45-56-85.2-59.7c-130.2-12.1-153.3,85.3-153.3,126.5c0,70.5,20.8,128.8,148.3,128.8c23.1,0,88.9-24.2,88.9-64.4h183.5
			c-7.4,116.8-204.3,146-289.3,146c-177.5,0-329.5-32.9-322.1-209.1c4.7-125.2,122.7-212.7,358.7-208
			c131.2,3.7,256.6,43.6,257.7,138.6L2987.1,613.8L2987.1,613.8z M1362.7,483.7H1601l204.3,285.6h1.3V483.7H1960v397.6h-228.5
			l-214-285.6h-1.3v285.6h-153.3L1362.7,483.7L1362.7,483.7z M2007.3,483.7h289.3c139.9,0,221.1,38.9,221.1,98.3
			c0,35.2-33.9,77.8-110.7,89.9v1.3c92.3,6.1,126.5,64.4,126.5,98.3c0,70.5-80.2,109.4-235.9,109.4h-290.3L2007.3,483.7
			L2007.3,483.7z M2175,638.1h48.6c74.1,0,113-6.1,113-36.6c0-32.9-32.9-43.6-99.7-43.6H2175L2175,638.1L2175,638.1z M2175,797.4
			h48.6c88.9,0,121.5-9.7,121.5-40.2c0-32.9-41.3-43.6-108.1-43.6H2175L2175,797.4L2175,797.4z"/>
	</g>
</g>
</svg>
