<?xml version="1.0" encoding="utf-8"?>
<!-- Generator: Adobe Illustrator 26.5.0, SVG Export Plug-In . SVG Version: 6.00 Build 0)  -->
<svg version="1.1" id="Capa_1" xmlns="http://www.w3.org/2000/svg" xmlns:xlink="http://www.w3.org/1999/xlink" x="0px" y="0px"
	 viewBox="0 0 317.58 267.37" style="enable-background:new 0 0 317.58 267.37;" xml:space="preserve">
<style type="text/css">
	.st0{fill:#4E4E4F;}
	.st1{fill:#1D6BB4;}
</style>
<g>
	<polygon class="st0" points="3.1,172.12 3.1,227.55 54.62,227.55 54.62,218.38 12.6,218.38 12.6,203.46 32.84,203.46 32.84,194.21 
		12.6,194.21 12.6,181.25 54.22,181.25 54.22,172.12 	"/>
	<path class="st0" d="M314.49,227.61h-2.51c-2.41,0-4.82-0.02-7.23,0.01c-0.5,0.01-0.75-0.16-0.98-0.6
		c-7.23-13.62-14.47-27.23-21.71-40.84c-0.12-0.22-0.24-0.45-0.41-0.75c-0.19,0.32-0.35,0.58-0.5,0.86
		c-7.33,13.47-14.66,26.93-21.97,40.42c-0.37,0.69-0.78,0.94-1.57,0.92c-3.01-0.05-6.02-0.02-9.03-0.02h-0.86
		c0.52-0.96,0.97-1.79,1.43-2.63c9.59-17.45,19.18-34.91,28.76-52.37c0.23-0.41,0.48-0.55,0.95-0.55c1.9,0.03,3.8,0.03,5.7,0
		c0.44,0,0.67,0.13,0.89,0.53c8.48,15.89,16.98,31.78,25.47,47.67c1.06,1.99,2.14,3.97,3.18,5.98
		C314.27,226.62,314.33,227.07,314.49,227.61"/>
	<path class="st0" d="M126.65,213.78c0.47-0.89,0.87-1.65,1.27-2.42c6.31-12.18,12.62-24.35,18.92-36.53
		c0.4-0.78,0.78-1.56,1.21-2.32c0.11-0.19,0.36-0.41,0.54-0.41c3.35-0.02,6.7-0.02,10.18-0.02c-0.52,1.01-0.99,1.95-1.48,2.88
		c-5.49,10.61-10.99,21.22-16.48,31.83c-3.5,6.75-7,13.5-10.48,20.25c-0.21,0.41-0.44,0.59-0.92,0.58c-1.77-0.03-3.54-0.03-5.31,0
		c-0.52,0.01-0.79-0.17-1.03-0.62c-9.34-17.56-18.7-35.12-28.05-52.67c-0.38-0.71-0.75-1.42-1.17-2.21c0.29-0.02,0.49-0.04,0.7-0.04
		c3.09,0,6.19,0.01,9.28-0.02c0.51,0,0.75,0.18,0.98,0.6c7.1,13.38,14.2,26.75,21.31,40.12
		C126.26,213.08,126.42,213.37,126.65,213.78"/>
	<path class="st0" d="M208.06,227.61h-1.7c-2.31,0-4.61-0.02-6.92,0.01c-0.64,0.01-0.82-0.15-0.82-0.81
		c0.02-16.95,0.02-33.91,0.02-50.86c0-1.13,0.01-2.26,0-3.39c-0.01-0.36,0.11-0.49,0.48-0.49c2.9,0.01,5.81,0.01,8.71,0.01
		c0.06,0,0.12,0.03,0.23,0.05V227.61z"/>
	<path class="st0" d="M228.25,246.78c0.78,0,1.51-0.06,2.22,0.03c0.27,0.03,0.59,0.37,0.74,0.65c1.83,3.29,3.64,6.59,5.45,9.88
		c0.15,0.27,0.31,0.53,0.53,0.89c1.07-1.94,2.1-3.8,3.12-5.66c0.92-1.67,1.87-3.33,2.74-5.03c0.32-0.62,0.71-0.81,1.38-0.79
		c1.74,0.05,1.74,0.01,1.74,1.73v15.69v1.05h-2.63v-12.56c-0.07-0.03-0.14-0.05-0.22-0.08c-2.02,3.66-4.05,7.32-6.16,11.12
		c-2.09-3.78-4.12-7.45-6.15-11.12c-0.05,0.01-0.09,0.01-0.14,0.02v12.61h-2.65V246.78z"/>
	<path class="st0" d="M128.55,254.81c3.14,0,6.2,0.07,9.25-0.04c1.07-0.04,1.82-0.81,2.07-1.93c0.44-2-0.65-3.36-2.83-3.4
		c-2.67-0.05-5.34-0.01-8.01-0.01c-0.15,0-0.31,0.07-0.48,0.12V254.81z M138.46,257.63c1.21,2.49,2.44,5,3.73,7.65
		c-0.99,0-1.85,0.04-2.7-0.03c-0.22-0.02-0.49-0.33-0.6-0.56c-1.06-2.17-2.11-4.34-3.13-6.53c-0.22-0.48-0.48-0.66-1.01-0.65
		c-2.02,0.03-4.04,0.01-6.19,0.01v7.71h-2.68v-0.8c0-5.6,0.01-11.19-0.01-16.78c0-0.71,0.21-0.9,0.9-0.89
		c3.4,0.03,6.81,0,10.21,0.02c2.81,0.01,4.82,1.37,5.45,3.65c0.65,2.35-0.06,4.92-1.81,6.17
		C139.98,257.05,139.21,257.28,138.46,257.63"/>
	<path class="st0" d="M41.65,265.29c-0.85,0-1.56,0.06-2.25-0.03c-0.33-0.04-0.69-0.32-0.9-0.6c-3.35-4.24-6.67-8.49-10-12.74
		c-0.13-0.17-0.28-0.33-0.56-0.65v13.94h-2.69c-0.01-0.28-0.04-0.52-0.04-0.77c0-5.59,0.01-11.19-0.02-16.78
		c0-0.69,0.2-0.85,0.89-0.92c1.35-0.14,2.18,0.37,3,1.45c3.01,3.99,6.14,7.9,9.22,11.84c0.17,0.21,0.35,0.41,0.69,0.82v-14.08
		c0.81,0,1.51-0.05,2.2,0.03c0.18,0.02,0.44,0.44,0.44,0.68c0.04,1.88,0.02,3.77,0.02,5.65v11.13V265.29z"/>
	<path class="st0" d="M206.91,256.07c0.01-3.97-3.17-7.04-7.27-7.03c-4.05,0-7.25,3.07-7.28,6.96c-0.02,3.91,3.25,7.07,7.29,7.04
		C203.73,263.02,206.9,259.97,206.91,256.07 M199.62,265.67c-5.71,0-9.91-4.11-9.91-9.7c0-5.44,4.33-9.6,9.96-9.59
		c5.75,0.02,9.9,4.13,9.89,9.8C209.57,261.58,205.28,265.67,199.62,265.67"/>
	<path class="st0" d="M313.13,248.93c-0.49,0.69-0.96,1.35-1.48,2.09c-0.42-0.24-0.83-0.47-1.23-0.7c-2.66-1.52-5.43-1.71-8.26-0.57
		c-0.98,0.39-1.72,1.09-1.8,2.24c-0.09,1.23,0.82,2.08,2.38,2.17c1.8,0.1,3.6,0.03,5.39,0.21c1.16,0.11,2.35,0.38,3.4,0.85
		c3.42,1.53,3.98,6.02,1.1,8.43c-1.69,1.42-3.74,1.85-5.88,2c-2.73,0.18-5.34-0.19-7.71-1.62c-0.9-0.55-1.69-1.27-2.54-1.93
		c0.65-0.71,1.21-1.32,1.81-1.98c0.43,0.32,0.78,0.59,1.14,0.85c3.14,2.29,6.56,2.64,10.15,1.37c1.82-0.64,2.46-1.85,2.05-3.34
		c-0.28-1.01-1.05-1.56-1.97-1.77c-1.06-0.24-2.16-0.32-3.25-0.39c-1.57-0.1-3.16,0.02-4.71-0.21c-1.93-0.29-3.43-1.37-3.89-3.38
		c-0.47-2.04,0.14-3.82,1.89-5.03c0.86-0.6,1.84-1.13,2.85-1.4c3.66-0.99,7.06-0.29,10.19,1.81
		C312.88,248.71,312.98,248.8,313.13,248.93"/>
	<polygon class="st0" points="92.12,246.84 92.12,265.23 107.66,265.23 107.66,262.61 94.79,262.61 94.79,256.95 101,256.95 
		101,254.28 94.78,254.28 94.78,249.4 107.16,249.4 107.16,246.84 	"/>
	<g>
		<path class="st0" d="M272.69,250.1c-1.01,2.23-1.93,4.27-2.89,6.4h5.79C274.63,254.36,273.7,252.31,272.69,250.1 M282.45,265.29
			c-0.96,0-1.8,0.04-2.63-0.03c-0.22-0.02-0.5-0.32-0.6-0.56c-0.73-1.61-1.43-3.23-2.1-4.87c-0.2-0.49-0.47-0.66-1-0.65
			c-2.28,0.03-4.56,0.04-6.84,0c-0.58-0.01-0.84,0.2-1.06,0.71c-0.7,1.63-1.45,3.22-2.15,4.85c-0.18,0.43-0.42,0.6-0.88,0.57
			c-0.72-0.04-1.44-0.01-2.29-0.01c0.92-2.04,1.78-3.96,2.64-5.87c1.79-3.97,3.6-7.92,5.37-11.9c0.26-0.57,0.59-0.69,1.19-0.78
			c1.66-0.25,2.42,0.42,3.06,1.96c2.16,5.18,4.52,10.27,6.81,15.4C282.11,264.46,282.25,264.81,282.45,265.29"/>
	</g>
	<polygon class="st0" points="59.29,246.83 59.29,249.44 65.71,249.44 65.71,265.24 68.41,265.24 68.41,249.4 74.84,249.4 
		74.84,246.83 	"/>
	<path class="st0" d="M174.41,265.25h-13.89v-18.41h2.58v15.8h1c3.18,0,6.35,0.01,9.53-0.01c0.57,0,0.83,0.14,0.78,0.75
		C174.37,263.96,174.41,264.55,174.41,265.25"/>
	<path class="st0" d="M3.1,246.89c0.07-0.05,0.1-0.08,0.12-0.08c2.46-0.24,2.46-0.24,2.46,2.22v15.18v1.04H3.1V246.89z"/>
	<g>
		<path class="st1" d="M155.15,139.27c-0.64-1.05-1.29-2.09-1.9-3.16c-0.6-1.03-0.31-2.14,0.73-2.75c2.33-1.37,4.67-2.72,7.01-4.07
			c8.83-5.12,17.66-10.23,26.49-15.35c0.99-0.58,1.98-1.16,2.99-1.72c0.15-0.08,0.41-0.13,0.54-0.05c2.16,1.23,4.31,2.47,6.46,3.72
			c0.03,0.01,0.04,0.05,0.09,0.14c-0.86,0.5-1.71,1-2.56,1.5c-12.28,7.11-24.56,14.22-36.84,21.34c-0.2,0.12-0.38,0.27-0.57,0.41
			H155.15z"/>
		<path class="st1" d="M120.51,44.58c17.2-9.93,34.28-19.79,51.41-29.68c0.01,0.22,0.03,0.35,0.03,0.48c0,2.3-0.01,4.6,0.01,6.9
			c0,0.39-0.13,0.61-0.46,0.81c-11.39,6.56-22.77,13.13-34.15,19.71c-5.5,3.18-11,6.36-16.51,9.52c-0.36,0.21-0.47,0.42-0.37,0.81
			c0.05,0.21,0.04,0.43,0.04,0.65c0,3.74,0,7.47,0,11.21v0.68c0.29-0.14,0.49-0.22,0.67-0.32c14.26-8.24,28.52-16.48,42.79-24.71
			c0.39-0.23,0.79-0.46,1.19-0.67c1.01-0.53,2.09-0.22,2.67,0.76c0.47,0.78,0.92,1.58,1.37,2.37c0.65,1.15,0.37,2.24-0.77,2.9
			c-4.75,2.75-9.51,5.49-14.26,8.23c-12.48,7.2-24.97,14.4-37.43,21.63c-1.59,0.92-3.16-0.25-3.15-1.85
			c0.04-10.6,0.03-21.2,0.01-31.8c-0.01-4.22-0.07-8.45-0.08-12.67c0-0.47,0.09-0.94,0.19-1.4c0.15-0.67,0.53-1.17,1.15-1.52
			c9.97-5.74,19.93-11.5,29.89-17.25c4.18-2.42,8.37-4.83,12.55-7.25c1.31-0.76,2.31-0.5,3.07,0.79c0.43,0.73,0.85,1.46,1.27,2.19
			c0.66,1.16,0.37,2.21-0.79,2.88c-7.33,4.24-14.66,8.47-21.99,12.7c-5.73,3.31-11.45,6.65-17.22,9.91
			c-0.9,0.51-1.18,1.02-1.16,2.02c0.07,3.73,0.03,7.47,0.03,11.21V44.58z"/>
		<path class="st1" d="M153.28,117.16c-17.15-9.89-34.22-19.74-51.39-29.65c0.99-0.58,1.89-1.1,2.79-1.62
			c1.21-0.7,2.43-1.39,3.64-2.11c0.3-0.18,0.52-0.19,0.83-0.01c14.7,8.49,29.41,16.98,44.11,25.46c2.22,1.28,4.45,2.57,6.68,3.84
			c0.15,0.09,0.43,0.11,0.58,0.03c2.31-1.33,4.61-2.68,6.92-4.02c1.21-0.71,2.43-1.41,3.64-2.11c0.14-0.08,0.28-0.18,0.5-0.32
			c-0.26-0.17-0.45-0.32-0.66-0.44c-7.07-4.08-14.13-8.16-21.2-12.24c-7.51-4.33-15.01-8.66-22.52-12.99
			c-1.2-0.69-1.5-1.74-0.82-2.95c0.43-0.77,0.87-1.53,1.32-2.28c0.66-1.1,1.75-1.38,2.87-0.74c12.79,7.38,25.58,14.75,38.37,22.13
			c4.43,2.56,8.84,5.16,13.31,7.65c1.48,0.83,1.5,2.82,0.03,3.66c-7.4,4.22-14.76,8.49-22.12,12.77
			c-5.39,3.13-10.75,6.32-16.14,9.44c-0.67,0.38-1.46,0.58-2.23,0.74c-0.33,0.07-0.77-0.09-1.09-0.27
			c-11.51-6.62-23.01-13.26-34.51-19.89c-2.69-1.55-5.39-3.11-8.08-4.66c-1.26-0.73-1.54-1.73-0.83-2.98
			c0.42-0.75,0.85-1.5,1.29-2.24c0.67-1.13,1.77-1.41,2.9-0.76c9.67,5.58,19.35,11.16,29.02,16.74c3.67,2.12,7.34,4.25,11.02,6.36
			c0.16,0.09,0.47,0.1,0.63,0c3.59-2.06,7.17-4.13,10.75-6.21C153,117.41,153.09,117.32,153.28,117.16"/>
		<path class="st1" d="M181.97,41.71c-0.03,0.28-0.07,0.47-0.07,0.66c0,14.69-0.01,29.38,0,44.07c0,2.11,0.06,4.22,0.07,6.33
			c0,0.35-0.04,0.71-0.15,1.05c-0.25,0.78-0.82,1.29-1.62,1.33c-1.16,0.06-2.33,0.07-3.48-0.05c-1.05-0.11-1.64-0.92-1.64-1.98
			c0-5.85,0-11.7,0-17.55c0-14.1,0-28.2,0-42.29c0-1.27,0.89-2.18,2.08-2.08c0.35,0.03,0.72,0.19,1.03,0.37
			c8.61,4.95,17.21,9.92,25.82,14.87c4.15,2.38,8.32,4.72,12.47,7.09c0.35,0.2,0.69,0.43,1.01,0.67c0.74,0.56,1.13,1.25,1.13,2.24
			c-0.02,16.28-0.01,32.56-0.01,48.84c0,0.38-0.01,0.8-0.15,1.14c-0.3,0.72-0.87,1.15-1.69,1.16c-1.03,0.01-2.06,0.02-3.09,0
			c-1.09-0.02-1.88-0.83-1.88-1.91c-0.01-1.81,0-3.62,0-5.43c0-13.03-0.01-26.07-0.01-39.1c0-0.54-0.02-1.08,0.02-1.62
			c0.04-0.47-0.13-0.73-0.54-0.96c-3.18-1.81-6.36-3.66-9.53-5.49c-0.45-0.26-0.9-0.51-1.45-0.82v59.33
			c-0.2-0.08-0.33-0.11-0.43-0.17c-1.99-1.14-3.98-2.3-5.98-3.43c-0.4-0.22-0.46-0.51-0.46-0.91c0.01-9.69,0.02-19.37,0-29.06
			c-0.01-9.67-0.06-19.33-0.06-29c0-0.62-0.17-0.91-0.72-1.22c-3.37-1.89-6.71-3.85-10.06-5.78
			C182.4,41.91,182.22,41.83,181.97,41.71"/>
		<path class="st1" d="M99.41,83.01c0-0.26,0-0.45,0-0.65c-0.01-11.28,0-22.55-0.02-33.83c-0.01-3.9-0.06-7.81-0.08-11.71
			c-0.01-1.48,0.81-2.29,2.28-2.3c0.83,0,1.66,0,2.48,0c1.28,0.01,2.13,0.85,2.13,2.13c0.01,3.87,0,7.74,0.01,11.61
			c0,8.77,0,17.55,0.02,26.32c0,1.35,0.07,2.7,0.07,4.05c0,0.21-0.14,0.51-0.31,0.61c-2.06,1.22-4.14,2.42-6.22,3.62
			C99.68,82.93,99.58,82.95,99.41,83.01"/>
		<path class="st1" d="M177,14.97c1.08,0.62,2.05,1.17,3.03,1.73c11.2,6.44,22.39,12.89,33.59,19.33c1.21,0.7,2.43,1.39,3.64,2.1
			c1.1,0.65,1.38,1.74,0.75,2.86c-0.43,0.75-0.86,1.49-1.29,2.24c-0.67,1.17-1.74,1.49-2.92,0.82c-2.58-1.47-5.16-2.96-7.73-4.44
			c-9.53-5.48-19.06-10.97-28.59-16.45c-0.35-0.2-0.49-0.42-0.49-0.83c0.02-2.26,0.01-4.53,0.01-6.79V14.97z"/>
	</g>
</g>
</svg>
