<?xml version="1.0" encoding="utf-8"?>
<!-- Generator: Adobe Illustrator 26.5.0, SVG Export Plug-In . SVG Version: 6.00 Build 0)  -->
<svg version="1.1" id="Capa_1" xmlns="http://www.w3.org/2000/svg" xmlns:xlink="http://www.w3.org/1999/xlink" x="0px" y="0px"
	 viewBox="0 0 429.58 267.37" style="enable-background:new 0 0 429.58 267.37;" xml:space="preserve">
<style type="text/css">
	.st0{fill:#CF8F76;}
	.st1{fill:#CF946F;}
</style>
<g>
	<g>
		<path class="st0" d="M190.02,20.83c1.23,4.23,4.07,6.55,7.34,8.52c4.62,2.78,9.76,4.68,13.86,8.36
			c6.65,5.99,8.12,12.28,4.66,20.53c-0.39,0.93-0.82,1.83-1.28,2.73c-2.18,4.23-2.58,4.36-7.21,2.82
			c-9.68-3.22-14.26-10.58-16.34-20c-0.17-0.76,0.09-1.67-0.8-2.2c-1.33,8.73,2.96,19.51,18.28,28.92
			C191.54,67.99,173.42,44.77,190.02,20.83L190.02,20.83z"/>
		<path class="st0" d="M226,69.61c5.89-9.45,9.42-19.31,6.56-30.45c-1.5-5.84-4.74-10.75-9.29-14.73c8.63,14.48,5.24,29.43-1.21,38
			c1.01-4.02,2.34-7.49,1.68-11.32c-1.32-7.7-6.58-12.41-12.42-16.59c-3.43-2.45-7.13-4.59-10.88-6.53
			c-2.36-1.22-2.35-2.24-0.82-4.11c2.17-2.64,3.9-5.59,5.34-8.69c1.82-3.91,3-7.97,2.16-12.33c-0.28-1.45-0.04-1.92,1.49-1.54
			c16.41,4.1,29.69,12.35,35.82,28.88C248.53,41.27,246.25,60.25,226,69.61L226,69.61z"/>
	</g>
	<g>
		<g>
			<path class="st0" d="M354.11,244.93c-0.2-0.33-0.48-0.31-0.83,0.05c-0.29,0.39-0.74,1.01-1.34,1.85
				c-0.6,0.85-1.29,1.74-2.06,2.66c-0.79,0.94-1.6,1.83-2.46,2.69c-0.85,0.86-1.69,1.51-2.5,1.94c-0.81,0.43-1.54,0.55-2.19,0.39
				c-0.65-0.16-1.15-0.81-1.5-1.95c-0.1-0.26-0.18-0.51-0.23-0.76c-0.05-0.24-0.1-0.5-0.16-0.76c-0.16-0.68-0.16-1.34,0.03-1.98
				c0.18-0.64,0.54-1.26,1.09-1.88c0.43-0.46,0.8-0.94,1.14-1.45c0.35-0.5,0.66-1.03,0.95-1.59c0.23-0.33,0.4-0.65,0.51-1
				c0.11-0.34,0.24-0.69,0.36-1.05c0.1-0.35,0.09-0.68-0.03-0.98c-0.11-0.29-0.3-0.54-0.55-0.73c-0.56-0.36-1.18-0.34-1.85,0.09
				l-1.51,1.18c-0.9-0.85-1.89-1.35-2.94-1.51c-1.05-0.16-2.23,0.04-3.53,0.59c-1.04,0.55-1.99,1.34-2.86,2.34
				c-0.88,1.01-1.61,2.13-2.21,3.35c-0.58,1.16-0.98,2.38-1.23,3.63c-0.38,0.54-0.76,1.05-1.15,1.55c-0.86,1.1-1.74,2.05-2.63,2.86
				c-0.9,0.81-1.75,1.33-2.55,1.51c-0.1-0.19-0.19-0.38-0.28-0.54c-0.08-0.16-0.15-0.33-0.21-0.49c-0.1-0.59-0.16-1.18-0.18-1.76
				c-0.01-0.58,0.03-1.19,0.13-1.8c0.19-1.3,0.39-2.6,0.58-3.89c0.2-1.29,0.38-2.58,0.54-3.89c0.2-1.16,0.66-2.24,1.41-3.21
				c1.94-2.61,3.53-5.19,4.77-7.73c1.23-2.54,2.2-5.28,2.91-8.22c0.1-0.41,0.15-0.84,0.18-1.24c0.01-0.41,0.02-0.81,0.02-1.2
				c-0.08-0.39-0.21-0.74-0.41-1.05c-0.21-0.31-0.56-0.51-1.05-0.61c-0.55-0.06-1,0.01-1.34,0.25c-0.34,0.23-0.65,0.51-0.95,0.88
				c-1.2,1.44-2.21,2.91-3.06,4.45c-0.84,1.53-1.55,3.1-2.14,4.72c-0.58,1.61-1.09,3.28-1.5,4.99c-0.43,1.7-0.81,3.48-1.16,5.29
				c-0.08,0.26-0.11,0.55-0.13,0.86c-0.02,0.31-0.2,0.59-0.56,0.85c-0.13,0-0.28,0.01-0.44,0.03c-0.16,0.02-0.33,0.02-0.49,0.02
				c-0.61,0-1.18,0.1-1.7,0.3c-0.51,0.19-1,0.46-1.45,0.83c-1.54,1.23-2.64,2.53-3.31,3.92c-0.53,0.48-1.05,0.95-1.6,1.44
				c-0.88,0.76-1.74,1.49-2.6,2.15c-0.86,0.66-1.6,1.16-2.21,1.49c-1.2,0.89-2.11,1.11-2.75,0.69c-0.63-0.43-0.76-1.54-0.41-3.33
				l1.03-5.13c0.06-0.36,0.13-0.71,0.19-1.05c0.08-0.35,0.14-0.7,0.2-1.05c0-0.3-0.1-0.53-0.29-0.69c-0.16-0.1-0.36-0.09-0.59,0.03
				c-0.23,0.11-0.46,0.28-0.7,0.46c-0.25,0.2-0.46,0.4-0.66,0.61c-0.19,0.21-0.33,0.39-0.39,0.51c-0.29,0.69-0.59,1.58-0.88,2.69
				c-0.11,0.45-0.23,0.91-0.31,1.38c-0.04,0.05-0.06,0.1-0.1,0.16c-0.79,1.25-1.63,2.43-2.48,3.51c-0.86,1.1-1.74,2.05-2.63,2.86
				c-0.89,0.81-1.74,1.33-2.55,1.51c-0.1-0.19-0.19-0.38-0.28-0.54c-0.08-0.16-0.15-0.33-0.21-0.49c-0.1-0.59-0.15-1.18-0.18-1.76
				c-0.01-0.58,0.03-1.19,0.13-1.8c0.2-1.3,0.39-2.6,0.59-3.89c0.19-1.29,0.36-2.58,0.53-3.89c0.2-1.16,0.68-2.24,1.41-3.21
				c1.95-2.61,3.54-5.19,4.77-7.73c1.24-2.54,2.2-5.28,2.91-8.22c0.1-0.41,0.16-0.84,0.18-1.24c0.01-0.41,0.02-0.81,0.02-1.2
				c-0.06-0.39-0.2-0.74-0.41-1.05c-0.21-0.31-0.56-0.51-1.05-0.61c-0.55-0.06-0.99,0.01-1.34,0.25c-0.34,0.23-0.65,0.51-0.94,0.88
				c-1.2,1.44-2.23,2.91-3.06,4.45c-0.85,1.53-1.56,3.1-2.14,4.72c-0.59,1.61-1.09,3.28-1.51,4.99c-0.43,1.7-0.81,3.48-1.16,5.29
				c-0.06,0.26-0.11,0.55-0.13,0.86s-0.2,0.59-0.56,0.85c-0.13,0-0.28,0.01-0.44,0.03c-0.16,0.02-0.33,0.02-0.48,0.02
				c-0.63,0-1.19,0.1-1.71,0.3c-0.51,0.19-1,0.46-1.45,0.83c-1.73,1.38-2.9,2.84-3.55,4.43c-0.45,1.09-0.68,2.24-0.69,3.45
				c-0.49,0.8-0.99,1.55-1.53,2.24c-0.73,0.95-1.51,1.61-2.35,2c-0.49-0.65-0.76-1.43-0.8-2.34c-0.05-0.91-0.05-1.88,0-2.89
				c0.04-1.01,0.06-2.03,0.06-3.05s-0.16-1.98-0.49-2.86c-0.35-0.91-0.88-1.45-1.58-1.61c-0.7-0.16-1.46,0.08-2.31,0.69
				c-0.71,0.45-1.34,1.03-1.89,1.71c-0.55,0.68-1.06,1.4-1.54,2.15c-0.46,0.75-0.9,1.49-1.31,2.23c-0.4,0.73-0.81,1.35-1.24,1.88
				c-0.03-0.53,0.02-1.05,0.15-1.59c0.13-0.54,0.29-1.09,0.46-1.64c0.18-0.55,0.36-1.11,0.56-1.69c0.19-0.56,0.34-1.16,0.44-1.78
				c0.13-0.36,0.18-0.7,0.14-1.01c-0.02-0.3-0.11-0.55-0.26-0.73c-0.15-0.18-0.34-0.26-0.59-0.25c-0.24,0.02-0.53,0.19-0.85,0.51
				c-0.45,0.46-0.79,0.91-1.01,1.38c-0.14,0.33-0.25,0.64-0.35,0.95c0,0.03-0.01,0.05-0.01,0.08c-0.68,0.55-1.36,1.11-2.1,1.66
				c-1.25,0.94-2.61,1.69-4.1,2.24l1.31-2.88c0.23-0.46,0.38-0.93,0.46-1.41c0.08-0.49,0.14-0.99,0.16-1.48
				c0.06-0.65-0.09-1.25-0.46-1.8c-0.38-0.56-0.86-1-1.48-1.33c-0.63-0.33-1.31-0.49-2.08-0.51c-0.75-0.01-1.48,0.21-2.16,0.66
				c-0.23,0.16-0.45,0.33-0.7,0.49c-0.24,0.16-0.48,0.34-0.7,0.54c-0.75,0.79-1.64,1.4-2.68,1.85c-0.23,0.1-0.45,0.26-0.68,0.5
				c-1.11,1.08-1.98,2.24-2.61,3.49c-0.03,0.05-0.04,0.1-0.06,0.16c-0.24,0.2-0.45,0.4-0.69,0.6c-0.94,0.81-1.86,1.59-2.79,2.31
				c-0.93,0.74-1.71,1.35-2.36,1.84c-0.49,0.35-1.06,0.7-1.73,1.03c-0.66,0.33-1.33,0.55-1.99,0.69c-0.66,0.13-1.29,0.11-1.88-0.05
				c-0.59-0.16-1.05-0.56-1.41-1.18c-0.55-1.18-0.66-2.48-0.34-3.92c0.33-1.43,0.84-2.76,1.56-4c0.19-0.36,0.44-0.74,0.73-1.13
				c0.29-0.39,0.61-0.74,0.98-1.03c0.35-0.3,0.74-0.51,1.14-0.64c0.4-0.13,0.85-0.1,1.34,0.1c-0.29,0.59-0.56,1.13-0.83,1.61
				c-0.26,0.49-0.49,0.98-0.69,1.46c-0.33,0.75-0.3,1.45,0.05,2.1c0.16,0.46,0.45,0.74,0.85,0.84c0.41,0.09,0.83-0.04,1.24-0.4
				c0.33-0.23,0.58-0.49,0.74-0.78c0.25-0.39,0.5-0.79,0.73-1.2c0.23-0.41,0.43-0.84,0.59-1.3c0.16-0.41,0.33-0.78,0.5-1.08
				c0.19-0.29,0.44-0.56,0.76-0.83c0.35-0.33,0.51-0.64,0.49-0.95c-0.04-0.31-0.28-0.54-0.74-0.66c-0.25-0.06-0.45-0.1-0.58-0.1
				c-0.33,0.08-0.59,0.06-0.78-0.02c-0.2-0.08-0.4-0.21-0.59-0.41c-0.39-0.39-0.83-0.61-1.31-0.69c-0.49-0.06-0.99,0-1.51,0.2
				c-1.1,0.33-2.08,0.89-2.91,1.69c-0.06,0.06-0.13,0.13-0.19,0.2c-1.23,0.64-2.4,1.3-3.55,1.98c-1.18,0.68-2.28,1.5-3.31,2.44
				c-0.16,0.14-0.3,0.25-0.44,0.36c-0.13,0.13-0.25,0.21-0.39,0.28l-2.58-1.51c-0.35-0.23-0.69-0.46-0.99-0.69
				c-0.31-0.23-0.63-0.48-0.95-0.74c-0.43-0.35-0.58-0.75-0.46-1.19c0.11-0.45,0.44-0.79,1-1.05c0.48-0.26,0.99-0.34,1.53-0.23
				c0.54,0.11,1,0.35,1.39,0.71c0.13,0.16,0.24,0.33,0.31,0.51c0.09,0.18,0.26,0.29,0.56,0.31c0.35-0.29,0.5-0.7,0.44-1.21
				c-0.06-0.24-0.14-0.46-0.23-0.69c-0.08-0.23-0.2-0.43-0.36-0.59c-0.94-1.18-2.21-1.54-3.84-1.08c-0.78,0.26-1.44,0.64-1.96,1.13
				c-0.54,0.49-0.9,1.1-1.1,1.85c-0.35,1.56,0.15,2.74,1.51,3.53c0.45,0.26,0.86,0.51,1.24,0.75c0.36,0.25,0.76,0.5,1.19,0.76
				c0.29,0.23,0.59,0.44,0.88,0.64c0.04,0.02,0.08,0.05,0.1,0.08c-2.8,1.2-5.6,2.44-8.41,3.73c-3.3,1.53-6.67,3.36-10.08,5.52
				c0.04-2.04,0.02-4.1-0.01-6.18c-0.05-2.08-0.11-4.22-0.21-6.4c1.2-0.89,2.31-1.66,3.35-2.31c1.04-0.64,2.03-1.2,2.94-1.69
				c0.91-0.49,1.76-0.93,2.55-1.34c0.79-0.41,1.51-0.88,2.18-1.38c0.24-0.14,0.45-0.34,0.64-0.59c0.18-0.25,0.15-0.63-0.06-1.14
				c-0.78,0-1.63,0.14-2.54,0.41c-0.91,0.26-1.86,0.64-2.85,1.1c-0.99,0.46-2,0.98-3.04,1.53c-1.03,0.56-2.06,1.1-3.08,1.64
				c0.03-1.21,0.05-2.53,0.08-3.94c0.01-1.43,0.03-2.84,0.05-4.25c0.01-1.41,0.03-2.81,0.05-4.19c0.03-1.39,0.04-2.66,0.05-3.85
				c0.56-0.43,1.5-0.8,2.79-1.13c1.3-0.33,2.7-0.58,4.22-0.78c1.53-0.2,3.03-0.34,4.5-0.44c1.49-0.09,2.71-0.11,3.65-0.08
				c0.41,0,0.81-0.03,1.23-0.09c0.41-0.05,0.71-0.34,0.9-0.88c-0.04-0.23-0.19-0.39-0.44-0.49c-0.26-0.11-0.56-0.2-0.91-0.28
				c-0.34-0.06-0.7-0.13-1.09-0.15c-0.38-0.04-0.66-0.08-0.88-0.11c-1.13-0.11-2.29-0.14-3.5-0.09c-1.2,0.06-2.4,0.16-3.61,0.3
				c-1.2,0.15-2.38,0.33-3.53,0.54c-1.14,0.21-2.21,0.43-3.23,0.65c-0.05-0.54-0.09-1.06-0.14-1.58c-0.24-1.35-1.74-1.7-2.11,0.26
				c-0.03,0.24-0.05,0.48-0.08,0.71c-0.06,0.61-0.54,6.52-0.55,7.72c-0.03,1.2-0.05,2.43-0.1,3.69c-0.04,1.25-0.09,2.49-0.14,3.73
				c-0.04,1.23-0.44,6.5-0.44,6.72c-0.24,0.23-2.44,1.8-2.65,2.03c-0.21,0.21-0.48,0.54-0.78,0.96c-0.08,0.15-0.11,0.34-0.1,0.59
				c0,0.26,0.05,0.48,0.15,0.65c0.06,0.18,0.2,0.33,0.4,0.43c0.21,0.11,0.39,0.16,0.56,0.16c0.36-0.04,0.79-0.15,1.25-0.35
				c0.48-0.19,0.93-0.33,1.35-0.4c0.2,1.98,0.29,4.03,0.28,6.15c-0.03,2.14-0.06,4.13-0.13,5.99c-0.25,0.51-0.69,1.03-1.3,1.56
				c-0.61,0.54-1.38,1.29-2.25,2.26c-0.23,0.25-0.38,0.53-0.45,0.83c-0.06,0.31,0.01,0.64,0.25,1c0.21,0.29,0.46,0.44,0.76,0.48
				c0.29,0.04,0.58-0.01,0.85-0.15c0.35-0.19,0.68-0.35,1-0.51c0.34-0.16,0.65-0.34,0.96-0.51l0.39,0.21
				c0.85,0.29,1.44,0.36,1.75,0.24c0.33-0.13,0.59-0.56,0.8-1.31c0.09-0.29,0.14-0.6,0.16-0.94c0.04-0.34,0.09-0.69,0.16-1.05
				c1.5-1.08,3.1-2.16,4.82-3.28c1.7-1.11,3.43-2.2,5.19-3.28c1.75-1.08,3.51-2.11,5.29-3.09c1.03-0.58,2.03-1.11,3.01-1.63
				c-0.13,0.25-0.24,0.5-0.35,0.73c-0.31,0.64-0.6,1.29-0.85,1.94c-0.23,0.51-0.35,1.04-0.36,1.54c-0.03,0.5,0.04,1,0.16,1.49
				c0.26,0.85,0.79,1.36,1.59,1.54c0.79,0.18,1.56-0.05,2.3-0.7c0.16-0.14,0.3-0.29,0.41-0.45c0.11-0.16,0.24-0.33,0.36-0.49
				c0.79-1.2,1.14-2.5,1.08-3.9c-0.06-1.18-0.36-2.35-0.88-3.53c0.43-0.35,0.83-0.7,1.21-1.05c0.39-0.34,0.76-0.65,1.13-0.95
				l2.34-1.83c-0.56,1.01-1,2.1-1.3,3.24c-0.3,1.18-0.48,2.3-0.51,3.38c-0.03,1.66,0.44,2.95,1.39,3.89
				c0.96,0.93,2.21,1.33,3.76,1.19c1.08-0.09,2.08-0.38,3.01-0.83c0.95-0.46,1.86-1.01,2.78-1.66c0.75-0.55,1.58-1.26,2.5-2.13
				c0.41-0.38,0.81-0.76,1.21-1.16c-0.03,0.34-0.04,0.69-0.01,1.04c0.03,1.21,0.43,2.18,1.21,2.89c0.78,0.71,1.79,1.08,3.06,1.08
				c0.39,0,0.78-0.06,1.16-0.18c0.39-0.11,0.78-0.25,1.16-0.41c1.1-0.61,2.06-1.35,2.88-2.2c0.29-0.26,0.58-0.49,0.88-0.69
				c0.29-0.19,0.64-0.34,1.06-0.44c0.29-0.1,0.59-0.21,0.88-0.34c0.29-0.13,0.56-0.26,0.83-0.39c1.63-0.81,3.09-1.74,4.4-2.76
				c0.23-0.18,0.45-0.38,0.66-0.56c-0.15,0.79-0.33,1.64-0.49,2.54c-0.26,1.38-0.41,2.61-0.44,3.71c-0.04,0.55,0.02,1.03,0.19,1.39
				c0.16,0.38,0.4,0.61,0.7,0.71c0.31,0.1,0.68,0.04,1.1-0.19c0.43-0.24,0.88-0.68,1.36-1.33c0.29-0.55,0.61-1.06,0.98-1.54
				c0.35-0.48,0.66-0.99,0.93-1.54c0.09-0.3,0.26-0.69,0.53-1.2c0.26-0.5,0.55-1.04,0.88-1.59c0.33-0.55,0.66-1.09,1.03-1.59
				c0.35-0.5,0.71-0.91,1.06-1.23c0.36-0.3,0.69-0.46,1-0.46c0.31,0,0.56,0.24,0.75,0.69c0.06,1.3,0.1,2.6,0.1,3.92
				c0,1.3,0.04,2.65,0.1,4.05c0.06,0.91,0.31,1.73,0.73,2.44c0.45,0.85,1.04,1.31,1.75,1.4c0.71,0.08,1.48-0.25,2.29-1
				c0.95-0.96,1.81-2.04,2.58-3.23c0.23,0.46,0.58,0.88,1.06,1.21c0.46,0.36,0.95,0.54,1.49,0.54c0.54,0,1.06-0.21,1.58-0.63
				c0.26-0.16,0.5-0.36,0.71-0.59c0.2-0.23,0.39-0.46,0.55-0.69c0.33-0.43,0.69-0.95,1.1-1.59c0.4-0.64,0.75-1.18,1.04-1.64
				c-0.16,0.88-0.2,1.81-0.11,2.79c0.08,0.98,0.28,1.83,0.58,2.56c0.31,0.74,0.75,1.25,1.31,1.56c0.58,0.31,1.28,0.28,2.11-0.13
				c0.88-0.43,1.78-1.09,2.7-2c0.93-0.91,1.81-1.95,2.65-3.1c0.36-0.49,0.69-0.99,1.03-1.49c-0.04,0.76-0.04,1.49,0.03,2.18
				c0.08,0.99,0.33,1.7,0.75,2.13c0.35,0.68,1.1,0.96,2.24,0.85c1.13-0.11,2.31-0.64,3.55-1.59c0.7-0.49,1.49-1.08,2.35-1.76
				c0.86-0.68,1.71-1.43,2.55-2.23c0.01,0,0.03-0.01,0.04-0.03c-0.13,0.91-0.13,1.86,0.01,2.84c0.13,0.81,0.56,1.49,1.31,2
				c0.45,0.36,0.95,0.54,1.49,0.54c0.53,0,1.05-0.21,1.58-0.63c0.26-0.16,0.49-0.36,0.7-0.59s0.4-0.46,0.56-0.69
				c0.33-0.43,0.69-0.95,1.1-1.59c0.4-0.64,0.75-1.18,1.04-1.64c-0.16,0.88-0.2,1.81-0.13,2.79c0.09,0.98,0.28,1.83,0.59,2.56
				c0.31,0.74,0.75,1.25,1.31,1.56c0.56,0.31,1.28,0.28,2.11-0.13c0.88-0.43,1.78-1.09,2.7-2c0.85-0.84,1.65-1.78,2.44-2.83
				c0.02,0.4,0.08,0.79,0.16,1.16c0.23,0.85,0.59,1.45,1.09,1.81c0.51,0.35,1.08,0.53,1.7,0.51c0.64-0.03,1.31-0.19,2.03-0.49
				c0.71-0.31,1.4-0.7,2.09-1.18c0.68-0.48,1.31-1,1.91-1.56c0.6-0.58,1.1-1.11,1.49-1.64c0.06,0.75,0.19,1.48,0.36,2.18
				c0.18,0.7,0.39,1.28,0.61,1.74c0.64,0.94,1.41,1.48,2.28,1.61c0.88,0.13,1.79-0.01,2.73-0.43c0.94-0.4,1.89-1.04,2.85-1.9
				c0.95-0.86,1.86-1.79,2.71-2.79c0.86-0.99,1.64-2.01,2.34-3.05c0.7-1.04,1.25-1.98,1.68-2.79
				C354.28,245.58,354.31,245.26,354.11,244.93z M326.15,229.75c0.96-2.45,2.03-4.95,3.15-7.5c0.04-0.06,0.1-0.11,0.2-0.16
				c0.1-0.05,0.24-0.15,0.44-0.31c0.06,1.04,0,2-0.2,2.9c-0.19,0.9-0.46,1.79-0.83,2.66c-0.35,1.08-0.7,2.01-1.04,2.81
				c-0.35,0.8-0.74,1.73-1.2,2.8c-0.29,0.66-0.6,1.3-0.94,1.94c-0.35,0.64-0.69,1.28-1.05,1.93c-0.04,0.06-0.1,0.15-0.2,0.25
				c-0.09,0.1-0.21,0.23-0.34,0.39C324.51,234.78,325.18,232.21,326.15,229.75z M296.58,229.75c0.98-2.45,2.03-4.95,3.16-7.5
				c0.03-0.06,0.09-0.11,0.19-0.16s0.25-0.15,0.44-0.31c0.06,1.04,0,2-0.19,2.9c-0.2,0.9-0.48,1.79-0.84,2.66
				c-0.35,1.08-0.7,2.01-1.04,2.81c-0.34,0.8-0.74,1.73-1.19,2.8c-0.3,0.66-0.61,1.3-0.95,1.94c-0.34,0.64-0.69,1.28-1.05,1.93
				c-0.03,0.06-0.1,0.15-0.19,0.25c-0.1,0.1-0.21,0.23-0.34,0.39C294.95,234.78,295.61,232.21,296.58,229.75z M227.39,253.8
				c-0.1,0.7-0.44,1.41-1.03,2.13c-0.06-0.16-0.13-0.29-0.19-0.39c-0.08-0.1-0.1-0.2-0.1-0.29c-0.04-0.66,0.05-1.29,0.26-1.89
				c0.21-0.6,0.56-1.26,1.05-1.98C227.49,252.3,227.49,253.1,227.39,253.8z M252.77,253.21c-0.45,0.29-0.89,0.43-1.31,0.43
				c-0.45,0.03-0.88-0.05-1.26-0.23c-0.39-0.18-0.68-0.5-0.88-0.95c-0.33-0.79-0.39-1.56-0.19-2.35c0.16-0.96,0.5-1.89,0.99-2.79
				c0.2-0.25,0.41-0.49,0.61-0.73c0.14-0.16,0.26-0.33,0.39-0.49c0.06,1.24,0.31,2.38,0.73,3.41c0.43,1.05,1.18,1.91,2.24,2.59
				C253.67,252.58,253.23,252.94,252.77,253.21z M258.36,245.78c-0.03,0.35-0.11,0.7-0.24,1.05c-0.43,1.15-1.09,2.26-1.99,3.38
				h-0.35c-0.55-0.23-1-0.59-1.36-1.08c-0.35-0.49-0.59-1.01-0.7-1.59c-0.11-0.58-0.1-1.15,0.05-1.76c0.15-0.6,0.41-1.13,0.8-1.59
				c0.45-0.55,0.98-0.89,1.56-1.03c0.58-0.13,1.13-0.05,1.65,0.25c0.51,0.33,0.76,0.76,0.73,1.31
				C258.45,245.1,258.4,245.45,258.36,245.78z M289.63,246.5c-0.1,0.55-0.33,1.11-0.68,1.66c-0.56,0.81-1.09,1.64-1.61,2.46
				c-0.51,0.84-1.04,1.68-1.55,2.53l-0.98,1.08c-0.51-0.24-0.83-0.53-0.93-0.86c-0.09-0.34-0.14-0.69-0.14-1.05
				c-0.08-0.55-0.03-1.11,0.14-1.69c0.09-0.28,0.18-0.55,0.28-0.83c0.25-0.54,0.5-1.08,0.74-1.61c0.46-0.83,1.06-1.63,1.81-2.38
				c0.39-0.35,0.81-0.63,1.29-0.83c0.46-0.2,1.03-0.26,1.68-0.2C289.74,245.37,289.73,245.95,289.63,246.5z M319.2,246.5
				c-0.1,0.55-0.33,1.11-0.69,1.66c-0.55,0.81-1.09,1.64-1.6,2.46c-0.53,0.84-1.04,1.68-1.55,2.53l-0.98,1.08
				c-0.53-0.24-0.83-0.53-0.93-0.86c-0.1-0.34-0.15-0.69-0.15-1.05c-0.06-0.55-0.01-1.11,0.15-1.69c0.16-0.56,0.38-1.13,0.64-1.69
				c0.48-1.1,1.21-2.15,2.18-3.13c0.39-0.35,0.83-0.63,1.29-0.83c0.48-0.2,1.04-0.26,1.69-0.2
				C319.31,245.37,319.3,245.95,319.2,246.5z M338.89,247.86c-0.06,0.26-0.14,0.53-0.21,0.76c-0.09,0.25-0.24,0.46-0.46,0.66
				c-0.26,0.26-0.63,0.61-1.1,1.08c-0.46,0.45-0.98,0.91-1.5,1.39c-0.54,0.48-1.09,0.89-1.66,1.25c-0.56,0.35-1.09,0.56-1.58,0.61
				c-0.49,0.04-0.89-0.11-1.21-0.46c-0.33-0.36-0.51-1.04-0.59-2.01c-0.02-1.26,0.2-2.46,0.65-3.6c0.18-0.35,0.34-0.69,0.48-1.01
				c0.51-0.94,1.19-1.79,2.04-2.56c0.91-0.85,1.94-1.31,3.09-1.4c1.15-0.08,2.21,0.21,3.18,0.86L338.89,247.86z"/>
			<path class="st0" d="M302.22,238.58c0.23,0.68,0.63,1.06,1.22,1.12c0.58,0,1.05-0.28,1.41-0.83c0.16-0.26,0.29-0.5,0.39-0.73
				c0.1-0.23,0.18-0.46,0.24-0.68l-0.05-0.73c-0.13-0.46-0.45-0.76-0.97-0.9c-0.52-0.15-0.96-0.06-1.31,0.27
				c-0.36,0.36-0.63,0.74-0.83,1.15C302.13,237.64,302.09,238.09,302.22,238.58L302.22,238.58z"/>
			<path class="st0" d="M190.29,244.93c-0.19-0.33-0.46-0.31-0.83,0.05c-0.29,0.39-0.74,1.01-1.34,1.85
				c-0.6,0.85-1.29,1.74-2.06,2.66c-0.78,0.94-1.6,1.83-2.45,2.69c-0.86,0.86-1.7,1.51-2.5,1.94c-0.81,0.43-1.55,0.55-2.2,0.39
				c-0.64-0.16-1.14-0.81-1.5-1.95c-0.1-0.26-0.18-0.51-0.23-0.76c-0.04-0.24-0.1-0.5-0.16-0.75c-0.16-0.69-0.15-1.35,0.03-1.99
				s0.54-1.26,1.09-1.88c0.43-0.46,0.81-0.94,1.15-1.45c0.34-0.5,0.65-1.03,0.95-1.59c0.23-0.33,0.39-0.65,0.5-1
				c0.11-0.34,0.24-0.69,0.38-1.05c0.09-0.35,0.09-0.68-0.04-0.98c-0.11-0.29-0.3-0.54-0.55-0.73c-0.55-0.36-1.16-0.34-1.85,0.09
				l-1.5,1.18c-0.91-0.85-1.89-1.35-2.95-1.51c-13.82-2.23-18.19,13.2-18.35,13.5c-0.1-0.33-0.18-0.59-0.23-0.79
				c-0.04-0.2-0.09-0.41-0.11-0.64c-0.2-1.46-0.3-2.95-0.33-4.44c-0.01-1.5-0.04-3-0.06-4.5c-0.04-0.33-0.08-0.65-0.1-0.98
				c-0.04-0.33-0.09-0.64-0.15-0.93c0-0.1-0.06-0.2-0.19-0.3c-0.14-0.1-0.25-0.15-0.35-0.15c-0.09,0-0.21,0.05-0.34,0.15
				c-0.13,0.1-0.24,0.2-0.34,0.3c-0.1,0.13-0.18,0.26-0.24,0.41c-0.08,0.15-0.14,0.3-0.2,0.46c-0.13,0.59-0.26,1.18-0.39,1.79
				c-0.14,0.6-0.21,1.19-0.25,1.78c-0.09,1.38-0.06,2.71,0.08,4.02c0.01,0.06,0.02,0.14,0.02,0.2c-1.08,3.69-3.14,8.81-6.75,9.62
				c-0.59,0.14-1.09-0.4-1.45-1.03c-0.38-0.61-0.64-1.43-0.79-2.41c-0.14-1-0.23-2.04-0.26-3.13c-0.04-1.1-0.03-2.14,0.03-3.13
				c0.05-1,0.1-1.79,0.18-2.38c0.03-0.36,0.09-0.69,0.19-1c0.1-0.31,0.23-0.63,0.39-0.95c0.46-0.95,0.9-1.91,1.34-2.89
				c0.44-0.98,0.89-1.96,1.34-2.98c0.55-1.34,1.1-2.66,1.63-3.99c0.54-1.31,1.09-2.66,1.64-4.03c0.55-1.3,0.98-2.59,1.29-3.86
				c0.3-1.28,0.58-2.59,0.8-3.97c0.06-0.45,0.09-0.9,0.08-1.36c-0.02-0.45-0.13-0.9-0.33-1.33c-0.51-1.26-1.49-1.56-2.91-0.88
				c-0.65,0.3-1.21,0.76-1.7,1.41c-0.43,0.56-0.81,1.14-1.16,1.74c-0.36,0.6-0.68,1.25-0.93,1.94c-0.26,0.84-0.53,1.69-0.8,2.54
				c-0.28,0.85-0.51,1.69-0.71,2.54c-0.49,2.11-0.96,4.37-1.45,6.74c-0.49,2.39-0.88,4.79-1.18,7.24c-0.11,1.01-0.21,2.03-0.28,3.05
				c-0.29,0.35-0.59,0.71-0.91,1.08c-1.09,1.25-2.21,2.4-3.38,3.43c-1.16,1.03-2.31,1.84-3.43,2.44c-1.11,0.6-2.11,0.79-2.99,0.56
				c-0.61-0.13-1.13-0.41-1.54-0.85c-0.4-0.45-0.7-0.95-0.89-1.53c-0.2-0.56-0.28-1.19-0.23-1.85c0.05-0.66,0.23-1.3,0.51-1.89
				c0.8,0,1.71-0.16,2.71-0.51c1.01-0.34,1.98-0.79,2.9-1.34s1.75-1.21,2.5-1.95c0.75-0.75,1.26-1.55,1.55-2.4
				c0.33-1.08,0.33-1.96-0.01-2.69c-0.35-0.71-0.9-1.19-1.66-1.41c-0.28-0.09-0.56-0.13-0.88-0.14c-6.35-0.85-11.18,1.34-11.18,1.34
				c-0.66,0.21-1.34,0.46-2.01,0.78c-0.69,0.31-1.35,0.65-2,1.03c-0.64,0.38-1.18,0.73-1.6,1.05c-0.74-1.04-1.58-1.98-2.5-2.81
				c-0.93-0.83-1.9-1.59-2.91-2.29c-1.03-0.7-2.09-1.35-3.19-1.94c-1.1-0.59-2.2-1.16-3.3-1.75c-0.59-0.3-0.99-0.65-1.23-1.05
				c-0.23-0.41-0.34-0.84-0.36-1.3c-0.01-0.45,0.05-0.91,0.2-1.39c0.15-0.48,0.33-0.91,0.56-1.3c0.96-1.73,2.06-3.06,3.3-4
				c1.23-0.95,2.65-1.65,4.28-2.1c1.59-0.43,2.96-0.4,4.13,0.1c1.18,0.49,2.38,1.44,3.6,2.88c0.1-0.2,0.19-0.34,0.28-0.44
				c0.08-0.1,0.15-0.18,0.21-0.23c0.06-0.05,0.11-0.1,0.15-0.14c0.02-0.05,0.05-0.15,0.05-0.28c-0.04-0.78-0.3-1.48-0.79-2.08
				c-0.48-0.6-1.09-1.09-1.81-1.46c-0.74-0.38-1.53-0.64-2.36-0.79c-0.84-0.15-1.63-0.18-2.33-0.08c-2.5,0.43-4.74,1.4-6.72,2.91
				c-1.98,1.51-3.63,3.6-4.97,6.28c-0.39,0.75-0.59,1.48-0.6,2.18c-0.01,0.7,0.08,1.35,0.26,1.95c0.2,0.6,0.48,1.14,0.83,1.59
				c0.36,0.46,0.74,0.8,1.13,1.03c1.06,0.73,2.11,1.38,3.13,1.99c1.03,0.6,2.01,1.21,2.95,1.83c0.94,0.63,1.83,1.29,2.68,1.98
				c0.84,0.71,1.65,1.51,2.43,2.43c-2.04,1.6-4.12,3.33-6.23,5.2c-2.1,1.88-3.99,3.9-5.64,6.09c-0.55,0.78-1.04,1.61-1.48,2.49
				c-0.44,0.88-0.78,1.81-1,2.79c-0.29,1.43-0.19,2.6,0.31,3.51c0.5,0.91,1.36,1.45,2.55,1.61c0.46,0.1,0.95,0.11,1.46,0.05
				c0.51-0.06,1-0.16,1.46-0.29c2.14-0.53,4.2-1.36,6.19-2.53c2-1.15,3.69-2.56,5.09-4.23c1.39-1.66,2.36-3.53,2.91-5.62
				c0.55-2.09,0.45-4.32-0.29-6.7c-0.08-0.35-0.25-0.76-0.54-1.24c-0.3-0.48-0.48-0.89-0.54-1.25c0.78-0.75,5.45-3.49,10.72-3.78
				c-0.02,0.03-0.05,0.04-0.08,0.06c-2.53,2.31-4.24,5.02-5.15,8.12c-0.51,1.93-0.36,3.74,0.44,5.48c0.36,0.84,0.88,1.51,1.56,2
				c0.68,0.49,1.49,0.81,2.43,0.98c0.88,0.13,1.76,0.04,2.65-0.26c0.89-0.31,1.78-0.76,2.68-1.35c0.89-0.59,1.75-1.28,2.6-2.05
				c0.84-0.79,1.63-1.6,2.35-2.44c0.29-0.34,0.56-0.68,0.83-1.01c-0.01,0.61-0.02,1.23-0.02,1.84c0,2.48,0.25,4.87,0.74,7.18
				c0.19,0.89,0.56,1.56,1.11,2.04c0.55,0.46,1.18,0.83,1.88,0.83c4.78,0,7.38-4.97,8.73-9.09c0.06,0.3,0.14,0.6,0.21,0.9
				c0.13,0.36,0.26,0.71,0.41,1.03c0.14,0.34,0.31,0.66,0.51,0.99c0.35,0.49,0.75,0.73,1.21,0.73c3.78,0,2.85-10.42,13.01-14.13
				c-0.25,0.23-0.48,0.48-0.71,0.74c-0.88,1.01-1.61,2.13-2.21,3.35c-0.6,1.23-1.01,2.49-1.26,3.81c-0.24,1.33-0.24,2.54,0.03,3.64
				c0.23,0.85,0.59,1.45,1.1,1.81c0.5,0.35,1.06,0.53,1.7,0.51c0.63-0.03,1.3-0.19,2.01-0.49c0.71-0.31,1.41-0.7,2.09-1.18
				c0.69-0.48,1.33-1,1.93-1.56c0.6-0.58,1.09-1.11,1.48-1.64c0.06,0.75,0.19,1.48,0.36,2.18c0.19,0.7,0.39,1.28,0.61,1.74
				c0.65,0.94,1.41,1.48,2.29,1.6c0.88,0.14,1.78,0,2.71-0.41c0.95-0.4,1.89-1.04,2.85-1.9c0.95-0.86,1.86-1.79,2.73-2.79
				c0.85-0.99,1.63-2.01,2.33-3.05c0.7-1.04,1.26-1.98,1.68-2.79C190.47,245.58,190.49,245.26,190.29,244.93z M144.91,238.53
				c0.23-1.24,0.44-2.46,0.63-3.66c0.2-1.21,0.43-2.43,0.69-3.66c0.23-1.05,0.48-2.06,0.75-3.05c0.28-1,0.58-1.99,0.9-2.96
				c0.16-0.45,0.35-0.88,0.58-1.25c0.24-0.38,0.48-0.76,0.74-1.19c0.13-0.2,0.3-0.36,0.54-0.49c0.19,0.13,0.28,0.26,0.26,0.41
				c-0.01,0.15-0.04,0.29-0.08,0.41c-0.06,1.08-0.21,2.13-0.46,3.15c-0.24,1.03-0.54,2.06-0.9,3.1c-0.55,1.64-1.1,3.25-1.65,4.84
				c-0.55,1.6-1.1,3.21-1.65,4.84c-0.04,0.2-0.09,0.38-0.15,0.54c-0.06,0.16-0.13,0.33-0.19,0.49c-0.08,0-0.11,0-0.13-0.02
				c-0.01-0.01-0.06-0.03-0.13-0.03L144.91,238.53z M117.73,254.08c-0.24,0.91-0.6,1.73-1.13,2.44c-1.45,1.76-3.14,3.24-5.03,4.45
				c-1.9,1.2-3.84,1.99-5.82,2.34c-0.39,0.1-0.75,0.1-1.09,0c-0.34-0.09-0.61-0.26-0.83-0.51c-0.21-0.24-0.35-0.55-0.39-0.95
				c-0.05-0.39,0.04-0.81,0.26-1.26c0.06-0.59,0.34-1.31,0.83-2.18c0.49-0.86,1.09-1.76,1.8-2.69c0.71-0.94,1.51-1.89,2.4-2.86
				c0.9-0.98,1.8-1.88,2.7-2.71c0.91-0.83,1.79-1.55,2.63-2.18c0.84-0.61,1.58-1.08,2.19-1.36c0.51,0.55,0.93,1.25,1.21,2.08
				c0.3,0.83,0.46,1.71,0.51,2.64C118.04,252.24,117.96,253.16,117.73,254.08z M129.86,244.3c0.53-0.78,1.14-1.51,1.81-2.2
				c0.26-0.26,0.54-0.48,0.83-0.65c0.3-0.19,0.6-0.35,0.93-0.53c0.33-0.15,0.71-0.24,1.18-0.24c0.51-0.06,0.89,0.08,1.14,0.41
				c0.24,0.35,0.26,0.76,0.08,1.25c-0.14,0.33-0.28,0.58-0.44,0.73c-0.69,0.95-1.49,1.73-2.44,2.33c-0.94,0.6-1.94,1.1-3.01,1.49
				c-0.16,0.08-0.35,0.09-0.58,0.08c-0.23-0.01-0.49,0-0.78,0.02C128.89,245.97,129.33,245.08,129.86,244.3z M175.07,247.86
				c-0.06,0.26-0.14,0.53-0.21,0.76c-0.09,0.25-0.24,0.46-0.46,0.66c-0.26,0.26-0.63,0.61-1.09,1.08c-0.48,0.45-0.98,0.91-1.51,1.39
				c-0.54,0.48-1.09,0.89-1.65,1.25c-0.58,0.36-1.1,0.56-1.59,0.61c-0.48,0.05-0.89-0.11-1.21-0.46c-0.33-0.36-0.51-1.04-0.58-2.01
				c-0.04-1.36,0.21-2.66,0.75-3.88c0.54-1.23,1.4-2.26,2.4-3.3c2.9-2.99,5.3-1.19,6.28-0.54L175.07,247.86z"/>
			<path class="st0" d="M302.27,238.53c0.23,0.68,0.63,1.06,1.22,1.12c0.58,0,1.05-0.28,1.41-0.83c0.16-0.26,0.29-0.5,0.39-0.73
				c0.1-0.23,0.18-0.46,0.24-0.68l-0.05-0.73c-0.13-0.46-0.45-0.76-0.97-0.9c-0.52-0.15-0.96-0.06-1.31,0.27
				c-0.36,0.36-0.63,0.74-0.83,1.15C302.17,237.6,302.14,238.04,302.27,238.53L302.27,238.53z"/>
		</g>
		<g>
			<path class="st0" d="M76.74,248.8c0.07-0.12,0.14-0.23,0.22-0.35c0.08-0.11,0.15-0.23,0.22-0.35c0.63-0.92,1.39-1.66,2.28-2.2
				c0.07-0.05,0.14-0.1,0.22-0.14c0.08-0.04,0.16-0.08,0.24-0.12c0.49-0.22,0.96-0.27,1.38-0.15c0.43,0.12,0.76,0.38,1,0.79
				c0.1,0.19,0.17,0.38,0.22,0.59c0.04,0.21,0.07,0.4,0.09,0.59c-0.02,0.14-0.02,0.27-0.01,0.41s0.02,0.28,0.04,0.43
				c0.7-0.34,1.4-0.77,2.09-1.28c0.69-0.51,1.27-1.05,1.73-1.61c0.09-0.03,0.14-0.03,0.17,0.01c0.03,0.04,0.04,0.1,0.04,0.17
				c0,0.07-0.02,0.14-0.05,0.23c-0.03,0.09-0.07,0.15-0.1,0.21c-0.44,0.79-0.99,1.44-1.64,1.97c-0.65,0.53-1.36,0.99-2.13,1.38
				c-0.17,0.09-0.3,0.19-0.4,0.31c-0.09,0.12-0.18,0.27-0.27,0.46c-0.15,0.32-0.32,0.64-0.5,0.95c-0.18,0.31-0.36,0.61-0.55,0.92
				c-0.21,0.37-0.55,0.68-1.05,0.92c-0.39,0.17-0.72,0.17-0.99,0c-0.27-0.17-0.37-0.45-0.32-0.84c0.05-0.26,0.16-0.55,0.33-0.87
				c0.29-0.49,0.72-0.97,1.28-1.43c0.14-0.09,0.26-0.17,0.36-0.26c0.1-0.09,0.22-0.18,0.36-0.28c0.1-0.29,0.16-0.59,0.18-0.91
				c0.02-0.32,0.02-0.63,0-0.93c-0.02-0.07-0.03-0.13-0.04-0.19c-0.01-0.06-0.03-0.11-0.06-0.17c-0.15-0.27-0.38-0.38-0.69-0.31
				c-0.27,0.09-0.52,0.2-0.74,0.36c-0.22,0.15-0.44,0.32-0.67,0.51c-0.27,0.27-0.52,0.55-0.75,0.85c-0.23,0.29-0.42,0.61-0.58,0.95
				c-0.19,0.34-0.36,0.68-0.51,1.01c-0.15,0.33-0.31,0.66-0.46,0.99c-0.09,0.24-0.17,0.42-0.26,0.54c-0.07,0.12-0.16,0.18-0.28,0.19
				c-0.12,0.01-0.21-0.05-0.26-0.17c-0.09-0.14-0.15-0.33-0.21-0.59c-0.14-0.53-0.23-1.07-0.28-1.61s-0.06-1.1-0.03-1.66
				c0.07-1.16,0.16-2.31,0.28-3.44c0.12-1.13,0.31-2.28,0.56-3.44c0.24-1.02,0.52-2.02,0.85-3c0.32-0.97,0.71-1.94,1.15-2.89
				c0.12-0.24,0.24-0.46,0.37-0.65c0.13-0.2,0.26-0.41,0.4-0.63c0.12-0.21,0.3-0.41,0.54-0.61c0.17-0.15,0.36-0.26,0.56-0.31
				c0.2-0.05,0.4-0.05,0.58-0.01c0.18,0.04,0.34,0.13,0.47,0.27c0.14,0.14,0.23,0.32,0.28,0.54c0.09,0.24,0.12,0.49,0.1,0.74
				c-0.02,0.26-0.07,0.51-0.15,0.77c-0.21,0.77-0.47,1.52-0.79,2.25c-0.36,0.75-0.73,1.5-1.11,2.24c-0.38,0.74-0.76,1.5-1.14,2.27
				c-0.14,0.24-0.29,0.48-0.46,0.72s-0.32,0.49-0.46,0.74c-0.09,0.15-0.17,0.31-0.26,0.46c-0.09,0.15-0.14,0.32-0.18,0.49
				c-0.09,0.7-0.16,1.39-0.22,2.09C76.67,247.38,76.67,248.08,76.74,248.8z M80.53,233.98c-0.29,0.17-0.46,0.28-0.51,0.32
				c-0.05,0.04-0.11,0.12-0.18,0.24c-0.12,0.24-0.24,0.48-0.37,0.73c-0.13,0.25-0.23,0.49-0.32,0.73c-0.29,0.72-0.54,1.43-0.74,2.15
				c-0.2,0.72-0.38,1.45-0.54,2.2c-0.03,0.05-0.05,0.11-0.04,0.17c0.01,0.06,0.01,0.12,0.01,0.17c0.61-1.08,1.17-2.15,1.66-3.24
				C80,236.36,80.34,235.21,80.53,233.98z M80.38,250.85c-0.21,0.17-0.36,0.31-0.47,0.41c-0.11,0.1-0.19,0.19-0.24,0.27
				c-0.05,0.08-0.08,0.15-0.08,0.22s0.02,0.15,0.05,0.26c0.17-0.14,0.31-0.29,0.41-0.46C80.15,251.37,80.26,251.14,80.38,250.85z"/>
			<path class="st0" d="M90.74,247.62l-0.56,0.77c-0.27,0.39-0.55,0.77-0.85,1.13c-0.29,0.36-0.61,0.7-0.95,1.02
				c-0.14,0.14-0.28,0.27-0.44,0.41c-0.15,0.14-0.32,0.26-0.49,0.36c-0.43,0.24-0.83,0.31-1.22,0.21c-0.38-0.1-0.65-0.35-0.81-0.74
				c-0.17-0.44-0.23-0.91-0.18-1.41c0.05-0.65,0.15-1.3,0.29-1.94c0.14-0.65,0.36-1.29,0.65-1.92c0.05-0.17,0.16-0.34,0.33-0.51
				c0.05-0.09,0.13-0.11,0.23-0.08c0.03,0.02,0.07,0.04,0.1,0.06s0.05,0.06,0.05,0.09c0.02,0.1,0.02,0.21,0.01,0.31
				c-0.01,0.1-0.02,0.2-0.04,0.28c-0.09,0.43-0.17,0.85-0.24,1.27c-0.08,0.42-0.15,0.84-0.22,1.27c-0.14,0.65-0.15,1.25-0.03,1.79
				c0.02,0.07,0.05,0.14,0.09,0.21c0.04,0.07,0.08,0.13,0.12,0.18c0.17,0.02,0.3-0.01,0.38-0.09s0.17-0.16,0.26-0.24
				c0.29-0.27,0.56-0.56,0.82-0.86c0.26-0.3,0.49-0.61,0.72-0.93l2.28-3.25c0.07-0.09,0.13-0.17,0.18-0.26s0.12-0.17,0.21-0.26
				c0.2-0.2,0.43-0.28,0.67-0.23c0.31,0.05,0.46,0.22,0.46,0.51c0,0.19,0,0.38-0.01,0.59c-0.01,0.21-0.02,0.4-0.04,0.59
				c-0.07,0.56-0.14,1.13-0.21,1.7s-0.15,1.14-0.23,1.7l-0.08,0.82c0.14,0.03,0.23,0.02,0.29-0.05c0.06-0.07,0.12-0.14,0.19-0.21
				c0.49-0.53,0.94-0.98,1.33-1.37c0.39-0.38,0.77-0.75,1.14-1.09c0.37-0.34,0.74-0.68,1.11-1.01c0.37-0.33,0.79-0.71,1.25-1.14
				c0.24-0.21,0.39-0.24,0.46-0.1c0.07,0.14,0.03,0.29-0.1,0.46c-0.51,0.58-0.99,1.11-1.42,1.57c-0.43,0.47-0.86,0.93-1.28,1.38
				c-0.42,0.45-0.84,0.91-1.28,1.37c-0.43,0.46-0.92,0.96-1.45,1.51c-0.22,0.22-0.38,0.45-0.47,0.69c-0.09,0.24-0.16,0.5-0.19,0.79
				c-0.09,0.85-0.19,1.7-0.31,2.55c-0.12,0.84-0.27,1.69-0.46,2.55c-0.14,0.7-0.31,1.39-0.53,2.06s-0.49,1.34-0.83,1.98
				c-0.19,0.39-0.41,0.78-0.65,1.15c-0.25,0.38-0.54,0.72-0.88,1.02c-0.24,0.22-0.49,0.42-0.74,0.59c-0.27,0.15-0.55,0.24-0.82,0.27
				c-0.27,0.03-0.53-0.01-0.75-0.1c-0.23-0.09-0.43-0.24-0.59-0.43c-0.16-0.2-0.26-0.44-0.29-0.73c-0.02-0.36,0-0.75,0.05-1.18
				c0.07-0.61,0.2-1.22,0.38-1.82c0.19-0.6,0.4-1.19,0.64-1.77c0.7-1.6,1.58-3.09,2.64-4.45c0.27-0.34,0.55-0.69,0.83-1.04
				c0.28-0.35,0.56-0.7,0.83-1.04c0.07-0.09,0.13-0.18,0.19-0.29s0.1-0.22,0.11-0.32c0.09-0.72,0.17-1.43,0.24-2.15
				c0.08-0.72,0.16-1.44,0.24-2.18c-0.03,0-0.06,0-0.09-0.01C90.81,247.63,90.78,247.62,90.74,247.62z M90.1,254.13l-0.23,0.23
				c-0.49,0.6-0.96,1.2-1.38,1.81c-0.43,0.6-0.82,1.23-1.18,1.88c-0.38,0.67-0.7,1.34-0.98,2.04c-0.28,0.69-0.49,1.4-0.63,2.14
				c-0.05,0.21-0.08,0.41-0.08,0.63c0,0.21-0.01,0.42-0.03,0.63c0,0.29,0.13,0.48,0.38,0.58c0.26,0.09,0.51,0.05,0.77-0.14
				c0.56-0.43,0.99-0.9,1.28-1.41c0.17-0.29,0.33-0.59,0.49-0.9c0.15-0.31,0.29-0.61,0.41-0.92c0.37-1.04,0.66-2.09,0.84-3.14
				c0.19-1.05,0.33-2.11,0.44-3.19C90.22,254.34,90.19,254.26,90.1,254.13z"/>
		</g>
	</g>
	<g>
		<path class="st1" d="M68.97,192.25v15.48H2.52v-4.12l0.82-0.07c0.55-0.05,1.24-0.19,2.06-0.45c0.82-0.25,1.64-0.66,2.44-1.24
			c0.8-0.57,1.49-1.38,2.06-2.44c0.57-1.05,0.86-2.41,0.86-4.05v-78.13c0-1.65-0.29-2.99-0.86-4.02c-0.57-1.03-1.26-1.83-2.06-2.41
			c-0.8-0.57-1.62-0.98-2.44-1.24c-0.83-0.25-1.51-0.4-2.06-0.45l-0.82-0.07v-4.12h37.04v4.12l-5.56,0.07
			c-0.55,0.05-1.23,0.19-2.03,0.45c-0.8,0.25-1.62,0.66-2.44,1.24c-0.83,0.57-1.51,1.37-2.06,2.41c-0.55,1.03-0.82,2.37-0.82,4.02
			v83.26h25.91c1.6,0,2.93-0.27,3.99-0.82c1.05-0.55,1.87-1.24,2.44-2.06c0.57-0.82,0.98-1.64,1.24-2.44
			c0.25-0.8,0.4-1.48,0.45-2.03l0.07-0.89H68.97z"/>
		<path class="st1" d="M90.6,109.06v-4.12h36.97v4.12l-3.65,0.07c-0.55,0.05-1.23,0.19-2.03,0.45c-0.8,0.25-1.62,0.66-2.44,1.24
			c-0.83,0.57-1.51,1.37-2.06,2.41c-0.55,1.03-0.82,2.37-0.82,4.02v61.71l0.21,2.13c0.14,1.37,0.58,3.08,1.34,5.12
			c0.76,2.04,2,4.07,3.74,6.08c1.74,2.02,4.17,3.72,7.28,5.12c3.11,1.4,9.97,2.1,14.92,2.1c4.9,0,8.91-0.7,12.03-2.1
			c3.11-1.4,5.54-3.1,7.28-5.12c1.74-2.02,2.99-4.04,3.74-6.08c0.76-2.04,1.23-3.74,1.41-5.12l0.21-2.13v-61.71
			c0-1.65-0.29-2.99-0.86-4.02c-0.57-1.03-1.26-1.83-2.06-2.41c-0.8-0.57-1.6-0.98-2.41-1.24c-0.8-0.25-1.5-0.4-2.1-0.45l-0.82-0.07
			v-4.12h20.55v4.12l-0.83,0.07c-0.55,0.05-1.23,0.19-2.03,0.45c-0.8,0.25-1.62,0.66-2.44,1.24c-0.82,0.57-1.51,1.37-2.06,2.41
			c-0.55,1.03-0.82,2.37-0.82,4.02v61.71l-0.21,2.13c-0.14,1.37-0.54,3.15-1.2,5.33c-0.66,2.18-1.75,4.49-3.26,6.94
			c-1.51,2.45-3.62,4.76-6.32,6.94c-2.7,2.18-6.17,3.96-10.41,5.36c-4.24,1.4-9.45,2.1-15.63,2.1c-6.18,0-11.4-0.7-15.63-2.1
			c-4.24-1.4-7.71-3.18-10.41-5.36c-2.7-2.17-4.81-4.49-6.32-6.94c-1.51-2.45-2.6-4.76-3.26-6.94c-0.67-2.17-1.07-3.95-1.2-5.33
			l-0.14-2.13v-61.71c0-1.65-0.29-2.99-0.86-4.02c-0.57-1.03-1.26-1.83-2.06-2.41c-0.8-0.57-1.62-0.98-2.44-1.24
			c-0.83-0.25-1.51-0.4-2.06-0.45L90.6,109.06z"/>
		<path class="st1" d="M194.48,109.06v-4.12h36.97v4.12l-3.65,0.07c-0.55,0.05-1.23,0.19-2.03,0.45c-0.8,0.25-1.62,0.66-2.44,1.24
			c-0.83,0.57-1.51,1.37-2.06,2.41c-0.55,1.03-0.82,2.37-0.82,4.02v61.71l0.21,2.13c0.14,1.37,0.58,3.08,1.34,5.12
			c0.76,2.04,2,4.07,3.74,6.08c1.74,2.02,4.17,3.72,7.28,5.12c3.11,1.4,9.97,2.1,14.92,2.1c4.9,0,8.91-0.7,12.03-2.1
			c3.11-1.4,5.54-3.1,7.28-5.12c1.74-2.02,2.99-4.04,3.74-6.08c0.76-2.04,1.23-3.74,1.41-5.12l0.21-2.13v-61.71
			c0-1.65-0.29-2.99-0.86-4.02c-0.57-1.03-1.26-1.83-2.06-2.41c-0.8-0.57-1.6-0.98-2.41-1.24c-0.8-0.25-1.5-0.4-2.1-0.45l-0.82-0.07
			v-4.12h20.55v4.12l-0.83,0.07c-0.55,0.05-1.23,0.19-2.03,0.45c-0.8,0.25-1.62,0.66-2.44,1.24c-0.82,0.57-1.51,1.37-2.06,2.41
			c-0.55,1.03-0.82,2.37-0.82,4.02v61.71l-0.21,2.13c-0.14,1.37-0.54,3.15-1.2,5.33c-0.66,2.18-1.75,4.49-3.26,6.94
			s-3.62,4.76-6.32,6.94c-2.7,2.18-6.17,3.96-10.41,5.36c-4.24,1.4-9.45,2.1-15.63,2.1c-6.18,0-11.4-0.7-15.63-2.1
			c-4.24-1.4-7.71-3.18-10.41-5.36c-2.7-2.17-4.81-4.49-6.32-6.94c-1.51-2.45-2.6-4.76-3.26-6.94c-0.67-2.17-1.07-3.95-1.2-5.33
			l-0.14-2.13v-61.71c0-1.65-0.29-2.99-0.86-4.02c-0.57-1.03-1.26-1.83-2.06-2.41c-0.8-0.57-1.62-0.98-2.44-1.24
			c-0.83-0.25-1.51-0.4-2.06-0.45L194.48,109.06z"/>
		<path class="st1" d="M307.84,203.61l0.82-0.07c0.55-0.05,1.24-0.19,2.06-0.45c0.82-0.25,1.64-0.66,2.44-1.24
			c0.8-0.57,1.49-1.38,2.06-2.44c0.57-1.05,0.86-2.41,0.86-4.05v-78.13c0-1.65-0.29-2.99-0.86-4.02c-0.57-1.03-1.26-1.83-2.06-2.41
			c-0.8-0.57-1.62-0.98-2.44-1.24c-0.83-0.25-1.51-0.4-2.06-0.45l-0.82-0.07v-4.12h28.79l32.91,69.88l28.79-69.88h28.72v4.12
			l-0.82,0.07c-0.55,0.05-1.23,0.19-2.03,0.45c-0.8,0.25-1.62,0.66-2.44,1.24c-0.83,0.57-1.51,1.37-2.06,2.41
			c-0.55,1.03-0.82,2.37-0.82,4.02v78.13c0,1.65,0.27,3,0.82,4.05c0.55,1.05,1.24,1.87,2.06,2.44c0.82,0.57,1.64,0.98,2.44,1.24
			c0.8,0.25,1.48,0.4,2.03,0.45l0.82,0.07v4.12H390.1v-4.12l0.82-0.07c0.55-0.05,1.24-0.19,2.06-0.45s1.64-0.66,2.44-1.24
			c0.8-0.57,1.49-1.38,2.06-2.44c0.57-1.05,0.86-2.41,0.86-4.05v-78.13l-37.04,90.5h-4.12l-36.97-86.37v74.01
			c0,1.65,0.27,3,0.82,4.05c0.55,1.05,1.23,1.87,2.03,2.44c0.8,0.57,1.61,0.98,2.44,1.24c0.82,0.25,1.51,0.4,2.06,0.45l0.83,0.07
			v4.12h-20.55V203.61z"/>
	</g>
</g>
</svg>
