<?xml version="1.0" encoding="utf-8"?>
<!-- Generator: Adobe Illustrator 26.5.0, SVG Export Plug-In . SVG Version: 6.00 Build 0)  -->
<svg version="1.1" id="Capa_1" xmlns="http://www.w3.org/2000/svg" xmlns:xlink="http://www.w3.org/1999/xlink" x="0px" y="0px"
	 viewBox="0 0 429.58 267.37" style="enable-background:new 0 0 429.58 267.37;" xml:space="preserve">
<style type="text/css">
	.st0{fill:#2E677A;}
	.st1{fill:#CE9075;}
</style>
<g>
	<g>
		<g>
			<path class="st0" d="M73.83,99.64v4.29h0.66c2.41,0,4.59,0.68,6.51,2.06c1.93,1.37,3.28,3.16,4.04,5.36v71.71L22.39,99.64H1.79
				v4.29h0.65c3.08,0,5.69,1.04,7.84,3.13c0.7,0.68,1.28,1.42,1.75,2.2l10.36,12.96l62.65,84.73h9.4v-95.61
				c0.77-2.19,2.12-3.99,4.03-5.36c1.93-1.38,4.1-2.06,6.51-2.06h0.66v-4.29H73.83z M23.78,199.46c-2.2-2.15-3.31-4.75-3.31-7.83
				v-64.26l-5.07-5.78v70.04c0,3.08-2.03,5.68-4.17,7.83c-2.15,2.15-5.72,3.22-8.79,3.22H1.79v4.28H34.1v-4.28h-0.49
				C30.52,202.68,25.97,201.61,23.78,199.46z"/>
			<path class="st0" d="M219.49,202.68c-2.96,0-5.71-0.85-8.24-2.56c-2.53-1.71-4.34-3.99-5.44-6.84L175.32,113
				c-0.99-2.09-0.88-4.09,0.33-6.02c1.21-1.93,2.97-2.94,5.28-3.05v-4.29H146.8v4.29h0.99c2.64,0,4.59,0.88,5.85,2.63
				c1.26,1.76,1.46,3.9,0.57,6.43c-1.43,3.96-8.84,22.86-22.26,56.71c-3.52,8.9-3.46,16.81,0.17,23.74c1.75,3.19,2.36,5.53,1.81,7
				c-0.56,1.49-2.59,2.23-6.1,2.23h-4.94v4.28h35.45v-4.28h-1.66c-3.62,0-7.06-0.85-10.3-2.56c-3.24-1.71-5.88-4.04-7.91-7
				c-2.03-2.97-3.27-6.27-3.71-9.9c-0.44-3.62,0-7.14,1.32-10.55l0.16-0.66h47.31l8.08,21.27c0.88,2.31,0.63,4.45-0.74,6.43
				c-1.38,1.97-3.32,2.97-5.85,2.97h-1.32v4.28h39.07v-4.28H219.49z M138.22,166.74l21.77-56.54l21.42,56.54H138.22z"/>
			<path class="st0" d="M332.63,202.68c-2.97,0-5.72-0.85-8.25-2.56c-2.53-1.71-4.34-3.99-5.43-6.84L288.44,113
				c-0.99-2.09-0.88-4.09,0.34-6.02c1.21-1.93,2.96-2.94,5.27-3.05v-4.29h-34.12v4.29h0.99c2.63,0,4.59,0.88,5.85,2.63
				c1.25,1.76,1.45,3.9,0.57,6.43c-1.43,3.96-8.85,22.86-22.26,56.71c-3.52,8.9-3.46,16.81,0.16,23.74c1.76,3.19,2.37,5.53,1.81,7
				c-0.55,1.49-2.58,2.23-6.09,2.23h-4.94v4.28h35.44v-4.28h-1.65c-3.63,0-7.06-0.85-10.3-2.56c-3.25-1.71-5.88-4.04-7.91-7
				c-2.04-2.97-3.28-6.27-3.72-9.9c-0.44-3.62,0-7.14,1.32-10.55l0.16-0.66h47.32l8.08,21.27c0.88,2.31,0.63,4.45-0.75,6.43
				c-1.37,1.97-3.32,2.97-5.84,2.97h-1.32v4.28h39.07v-4.28H332.63z M251.36,166.74l21.76-56.54l21.43,56.54H251.36z"/>
			<path class="st0" d="M395.48,99.64v4.29h0.5c3.3,0,8.11,0.53,9.76,2.62c1.65,2.09,1.13,7.8-0.52,10.87l-22.26,38.91l-24.24-41.53
				c-1.75-3.3-1.71-5.93,0.16-7.91c1.87-1.97,4.51-2.96,7.91-2.96h0.5v-4.29h-37.58v4.29h0.66c2.31,0,4.39,0.55,6.26,1.65
				c1.87,1.1,3.22,2.22,4.04,3.37c0.82,1.16,1.95,2.84,3.38,5.03c0.22,0.34,0.38,0.6,0.49,0.82l27.37,47.32v29.83
				c0,3.08-1.1,5.72-3.3,7.91c-2.2,2.19-4.84,3.3-7.91,3.3h-0.5v4.29h36.6v-4.29h-0.66c-3.08,0-5.69-1.1-7.83-3.3
				c-2.15-2.19-3.22-4.84-3.22-7.91v-29.67l27.04-47.48c5.16-7.25,10.16-10.87,15-10.87h0.66v-4.29H395.48z"/>
		</g>
	</g>
	<g>
		<path class="st1" d="M190.25,22.28c1.22,4.2,4.03,6.49,7.27,8.44c4.58,2.76,9.67,4.64,13.73,8.29c6.59,5.93,8.04,12.17,4.62,20.34
			c-0.38,0.92-0.82,1.82-1.27,2.7c-2.16,4.19-2.55,4.32-7.15,2.8c-9.59-3.19-14.13-10.48-16.19-19.82
			c-0.16-0.75,0.09-1.66-0.79-2.18c-1.32,8.65,2.94,19.33,18.11,28.65C191.76,69.01,173.8,46.01,190.25,22.28L190.25,22.28z"/>
		<path class="st1" d="M225.9,70.61c5.83-9.36,9.33-19.13,6.49-30.17c-1.49-5.79-4.7-10.65-9.2-14.6
			c8.55,14.35,5.19,29.16-1.2,37.64c1-3.98,2.31-7.42,1.66-11.22c-1.31-7.62-6.51-12.3-12.31-16.44c-3.4-2.43-7.06-4.55-10.78-6.47
			c-2.33-1.21-2.33-2.22-0.81-4.07c2.15-2.61,3.86-5.54,5.29-8.61c1.8-3.87,2.97-7.9,2.14-12.22c-0.27-1.43-0.04-1.9,1.48-1.52
			c16.26,4.06,29.42,12.24,35.49,28.61C248.22,42.54,245.96,61.34,225.9,70.61L225.9,70.61z"/>
	</g>
	<g>
		<g>
			<path class="st1" d="M352.82,244.31c-0.2-0.32-0.47-0.31-0.82,0.05c-0.29,0.38-0.73,1-1.33,1.83c-0.59,0.84-1.28,1.72-2.04,2.64
				c-0.78,0.93-1.59,1.81-2.44,2.66c-0.84,0.86-1.67,1.5-2.48,1.92c-0.81,0.42-1.52,0.55-2.17,0.38c-0.64-0.16-1.14-0.81-1.49-1.93
				c-0.1-0.26-0.17-0.51-0.22-0.76c-0.05-0.24-0.1-0.5-0.16-0.76c-0.16-0.67-0.16-1.33,0.02-1.96c0.17-0.63,0.53-1.25,1.08-1.86
				c0.42-0.46,0.79-0.93,1.13-1.44c0.35-0.5,0.66-1.02,0.94-1.57c0.22-0.32,0.4-0.64,0.51-0.99c0.11-0.33,0.24-0.68,0.36-1.04
				c0.1-0.35,0.09-0.67-0.02-0.97c-0.11-0.29-0.3-0.53-0.55-0.72c-0.56-0.36-1.16-0.33-1.83,0.09l-1.5,1.16
				c-0.89-0.84-1.87-1.34-2.91-1.5c-1.04-0.16-2.21,0.04-3.49,0.58c-1.03,0.55-1.97,1.33-2.84,2.32c-0.87,1-1.6,2.11-2.19,3.32
				c-0.57,1.15-0.97,2.35-1.21,3.59c-0.37,0.53-0.76,1.04-1.14,1.54c-0.86,1.09-1.72,2.03-2.6,2.84c-0.89,0.81-1.73,1.31-2.53,1.5
				c-0.1-0.19-0.19-0.37-0.27-0.53c-0.07-0.16-0.15-0.32-0.21-0.48c-0.1-0.58-0.16-1.16-0.17-1.75c-0.01-0.57,0.02-1.18,0.12-1.78
				c0.19-1.29,0.38-2.58,0.57-3.85c0.2-1.28,0.37-2.55,0.53-3.85c0.2-1.15,0.66-2.22,1.4-3.18c1.92-2.59,3.49-5.14,4.72-7.66
				c1.21-2.52,2.18-5.23,2.89-8.14c0.1-0.41,0.15-0.83,0.17-1.23c0.01-0.41,0.02-0.81,0.02-1.19c-0.07-0.38-0.21-0.73-0.41-1.04
				c-0.21-0.31-0.56-0.51-1.04-0.61c-0.55-0.06-0.99,0.01-1.33,0.25c-0.33,0.22-0.64,0.51-0.94,0.87c-1.19,1.43-2.19,2.89-3.04,4.41
				c-0.83,1.51-1.54,3.07-2.12,4.67c-0.57,1.6-1.08,3.25-1.49,4.94c-0.42,1.69-0.81,3.45-1.15,5.24c-0.07,0.26-0.11,0.55-0.12,0.86
				c-0.02,0.31-0.2,0.58-0.56,0.84c-0.12,0-0.27,0.01-0.43,0.02c-0.16,0.02-0.32,0.02-0.48,0.02c-0.61,0-1.16,0.1-1.69,0.3
				c-0.51,0.19-0.99,0.46-1.44,0.82c-1.52,1.21-2.61,2.5-3.28,3.88c-0.52,0.47-1.04,0.94-1.59,1.43c-0.87,0.76-1.72,1.47-2.58,2.13
				c-0.86,0.66-1.59,1.15-2.19,1.47c-1.19,0.88-2.09,1.1-2.73,0.68c-0.62-0.42-0.76-1.52-0.41-3.3l1.02-5.08
				c0.06-0.36,0.12-0.71,0.19-1.04c0.07-0.35,0.14-0.69,0.2-1.04c0-0.3-0.1-0.52-0.29-0.68c-0.16-0.1-0.36-0.09-0.58,0.02
				c-0.22,0.11-0.46,0.27-0.69,0.46c-0.25,0.2-0.46,0.4-0.66,0.61c-0.19,0.21-0.32,0.38-0.38,0.51c-0.28,0.68-0.58,1.56-0.87,2.66
				c-0.11,0.45-0.22,0.9-0.31,1.36c-0.04,0.05-0.06,0.1-0.1,0.16c-0.78,1.24-1.61,2.4-2.45,3.48c-0.86,1.09-1.72,2.03-2.6,2.84
				c-0.88,0.81-1.72,1.31-2.53,1.5c-0.1-0.19-0.19-0.37-0.27-0.53c-0.07-0.16-0.15-0.32-0.21-0.48c-0.1-0.58-0.15-1.16-0.17-1.75
				c-0.01-0.57,0.02-1.18,0.12-1.78c0.2-1.29,0.38-2.58,0.58-3.85c0.19-1.28,0.36-2.55,0.52-3.85c0.2-1.15,0.67-2.22,1.4-3.18
				c1.93-2.59,3.51-5.14,4.72-7.66c1.23-2.52,2.18-5.23,2.89-8.14c0.1-0.41,0.16-0.83,0.17-1.23c0.01-0.41,0.02-0.81,0.02-1.19
				c-0.06-0.38-0.2-0.73-0.41-1.04c-0.21-0.31-0.56-0.51-1.04-0.61c-0.55-0.06-0.98,0.01-1.33,0.25c-0.33,0.22-0.64,0.51-0.93,0.87
				c-1.19,1.43-2.21,2.89-3.04,4.41c-0.84,1.51-1.55,3.07-2.12,4.67c-0.58,1.6-1.08,3.25-1.5,4.94c-0.42,1.69-0.81,3.45-1.15,5.24
				c-0.06,0.26-0.11,0.55-0.12,0.86c-0.01,0.31-0.2,0.58-0.56,0.84c-0.12,0-0.27,0.01-0.43,0.02c-0.16,0.02-0.32,0.02-0.47,0.02
				c-0.62,0-1.18,0.1-1.7,0.3c-0.51,0.19-0.99,0.46-1.44,0.82c-1.71,1.36-2.88,2.81-3.52,4.39c-0.45,1.08-0.67,2.22-0.68,3.42
				c-0.48,0.79-0.98,1.54-1.51,2.22c-0.72,0.94-1.5,1.6-2.33,1.98c-0.48-0.64-0.76-1.41-0.79-2.32c-0.05-0.9-0.05-1.86,0-2.86
				c0.04-1,0.06-2.01,0.06-3.02c0-1.02-0.16-1.96-0.48-2.84c-0.35-0.9-0.87-1.44-1.56-1.6s-1.45,0.07-2.29,0.68
				c-0.71,0.45-1.33,1.02-1.87,1.7c-0.55,0.67-1.05,1.39-1.52,2.13c-0.46,0.74-0.89,1.47-1.3,2.21c-0.4,0.72-0.81,1.34-1.23,1.86
				c-0.02-0.52,0.02-1.04,0.15-1.57c0.12-0.53,0.29-1.08,0.46-1.62c0.17-0.55,0.36-1.1,0.56-1.67c0.19-0.56,0.33-1.15,0.43-1.76
				c0.12-0.36,0.17-0.69,0.14-1c-0.02-0.3-0.11-0.55-0.26-0.72c-0.15-0.17-0.33-0.26-0.58-0.25c-0.24,0.02-0.52,0.19-0.84,0.51
				c-0.45,0.46-0.78,0.9-1,1.36c-0.14,0.32-0.25,0.63-0.35,0.94c0,0.02-0.01,0.05-0.01,0.07c-0.67,0.55-1.35,1.1-2.08,1.65
				c-1.24,0.93-2.59,1.67-4.06,2.22l1.3-2.85c0.22-0.46,0.37-0.92,0.46-1.4c0.07-0.48,0.14-0.98,0.16-1.46
				c0.06-0.64-0.09-1.24-0.46-1.78c-0.37-0.56-0.86-0.99-1.46-1.31c-0.62-0.32-1.3-0.48-2.06-0.51c-0.74-0.01-1.46,0.21-2.14,0.66
				c-0.22,0.16-0.45,0.32-0.69,0.48c-0.24,0.16-0.47,0.33-0.69,0.53c-0.74,0.78-1.62,1.39-2.65,1.83c-0.22,0.1-0.45,0.26-0.67,0.5
				c-1.1,1.07-1.96,2.22-2.59,3.46c-0.02,0.05-0.04,0.1-0.06,0.16c-0.24,0.2-0.45,0.4-0.68,0.59c-0.93,0.81-1.85,1.57-2.76,2.29
				c-0.92,0.73-1.7,1.34-2.34,1.82c-0.48,0.35-1.05,0.69-1.71,1.02c-0.66,0.32-1.31,0.55-1.97,0.68c-0.66,0.12-1.28,0.11-1.86-0.05
				c-0.58-0.16-1.04-0.56-1.4-1.16c-0.55-1.16-0.66-2.45-0.33-3.88c0.32-1.41,0.83-2.74,1.55-3.97c0.19-0.36,0.43-0.73,0.72-1.12
				c0.28-0.38,0.61-0.73,0.97-1.02c0.35-0.3,0.73-0.51,1.13-0.63c0.4-0.12,0.84-0.1,1.33,0.1c-0.29,0.58-0.56,1.12-0.82,1.6
				c-0.26,0.48-0.48,0.97-0.68,1.45c-0.32,0.74-0.3,1.44,0.05,2.08c0.16,0.46,0.45,0.73,0.84,0.83c0.41,0.09,0.82-0.04,1.23-0.4
				c0.32-0.22,0.57-0.48,0.73-0.77c0.25-0.38,0.5-0.78,0.72-1.19c0.22-0.41,0.42-0.83,0.58-1.29c0.16-0.41,0.32-0.77,0.5-1.07
				c0.19-0.29,0.43-0.56,0.76-0.82c0.35-0.32,0.51-0.63,0.48-0.94c-0.04-0.31-0.27-0.53-0.73-0.66c-0.25-0.06-0.45-0.1-0.57-0.1
				c-0.32,0.07-0.58,0.06-0.77-0.02c-0.2-0.07-0.4-0.21-0.58-0.41c-0.38-0.38-0.82-0.61-1.3-0.68c-0.48-0.06-0.98,0-1.5,0.2
				c-1.09,0.32-2.06,0.88-2.89,1.67c-0.06,0.06-0.12,0.12-0.19,0.2c-1.21,0.63-2.38,1.29-3.52,1.96c-1.16,0.67-2.26,1.49-3.28,2.42
				c-0.16,0.14-0.3,0.25-0.43,0.36c-0.12,0.12-0.25,0.21-0.38,0.27l-2.55-1.5c-0.35-0.22-0.68-0.46-0.98-0.68
				c-0.31-0.22-0.62-0.47-0.94-0.73c-0.42-0.35-0.57-0.74-0.46-1.18c0.11-0.45,0.43-0.78,0.99-1.04c0.47-0.26,0.98-0.33,1.51-0.22
				c0.53,0.11,0.99,0.35,1.38,0.71c0.12,0.16,0.24,0.32,0.31,0.51c0.09,0.17,0.26,0.28,0.56,0.31c0.35-0.29,0.5-0.69,0.43-1.2
				c-0.06-0.24-0.14-0.46-0.22-0.68c-0.07-0.22-0.2-0.42-0.36-0.58c-0.93-1.16-2.19-1.52-3.8-1.07c-0.77,0.26-1.43,0.63-1.95,1.12
				c-0.53,0.48-0.89,1.09-1.09,1.83c-0.35,1.55,0.15,2.71,1.5,3.49c0.45,0.26,0.86,0.51,1.23,0.74c0.36,0.25,0.76,0.5,1.18,0.76
				c0.29,0.22,0.58,0.43,0.87,0.63c0.04,0.02,0.07,0.05,0.1,0.07c-2.78,1.19-5.55,2.42-8.33,3.69c-3.27,1.51-6.61,3.33-9.99,5.46
				c0.04-2.02,0.02-4.06-0.01-6.12c-0.05-2.06-0.11-4.18-0.21-6.34c1.19-0.88,2.29-1.65,3.32-2.29c1.03-0.63,2.01-1.19,2.91-1.67
				c0.9-0.48,1.75-0.92,2.53-1.33c0.78-0.41,1.5-0.87,2.16-1.36c0.24-0.14,0.45-0.33,0.63-0.58c0.17-0.25,0.15-0.62-0.06-1.13
				c-0.77,0-1.61,0.14-2.52,0.41c-0.9,0.26-1.85,0.63-2.83,1.09c-0.98,0.46-1.98,0.97-3.01,1.51c-1.02,0.56-2.04,1.09-3.05,1.62
				c0.02-1.2,0.05-2.5,0.07-3.9c0.01-1.41,0.02-2.81,0.05-4.21c0.01-1.4,0.02-2.79,0.05-4.15c0.02-1.38,0.04-2.64,0.05-3.82
				c0.56-0.42,1.49-0.79,2.76-1.12c1.29-0.32,2.68-0.57,4.18-0.77c1.51-0.2,3-0.33,4.46-0.43c1.47-0.09,2.69-0.11,3.62-0.07
				c0.41,0,0.81-0.02,1.21-0.09c0.41-0.05,0.71-0.33,0.89-0.87c-0.04-0.22-0.19-0.38-0.43-0.48c-0.26-0.11-0.56-0.2-0.9-0.27
				c-0.33-0.06-0.69-0.12-1.08-0.15c-0.37-0.04-0.66-0.07-0.87-0.11c-1.12-0.11-2.27-0.14-3.47-0.09c-1.19,0.06-2.38,0.16-3.58,0.3
				c-1.19,0.15-2.35,0.32-3.49,0.53c-1.13,0.21-2.19,0.42-3.2,0.64c-0.05-0.53-0.09-1.05-0.14-1.56c-0.24-1.34-1.72-1.69-2.09,0.26
				c-0.02,0.24-0.05,0.47-0.07,0.71c-0.06,0.61-0.53,6.46-0.55,7.65c-0.02,1.19-0.05,2.4-0.1,3.66c-0.04,1.24-0.09,2.47-0.14,3.69
				c-0.04,1.21-0.43,6.44-0.43,6.65c-0.24,0.22-2.42,1.78-2.63,2.01c-0.21,0.21-0.47,0.53-0.77,0.95c-0.07,0.15-0.11,0.33-0.1,0.58
				c0,0.26,0.05,0.47,0.15,0.64c0.06,0.17,0.2,0.32,0.4,0.42c0.21,0.11,0.38,0.16,0.56,0.16c0.36-0.04,0.78-0.15,1.24-0.35
				c0.47-0.19,0.92-0.32,1.34-0.4c0.2,1.96,0.29,3.99,0.27,6.1c-0.02,2.12-0.06,4.09-0.12,5.94c-0.25,0.51-0.68,1.02-1.29,1.55
				c-0.61,0.53-1.36,1.28-2.23,2.24c-0.22,0.25-0.37,0.52-0.45,0.82c-0.06,0.31,0.01,0.63,0.25,0.99c0.21,0.29,0.46,0.43,0.76,0.47
				c0.28,0.04,0.57-0.01,0.84-0.15c0.35-0.19,0.67-0.35,0.99-0.51c0.33-0.16,0.64-0.33,0.95-0.51l0.38,0.21
				c0.84,0.29,1.43,0.36,1.73,0.24c0.32-0.12,0.58-0.56,0.79-1.3c0.09-0.28,0.14-0.59,0.16-0.93c0.04-0.33,0.09-0.68,0.16-1.04
				c1.49-1.07,3.07-2.14,4.77-3.25c1.69-1.1,3.4-2.18,5.14-3.25c1.73-1.07,3.48-2.09,5.24-3.06c1.02-0.57,2.01-1.1,2.99-1.61
				c-0.12,0.25-0.24,0.5-0.35,0.72c-0.31,0.63-0.59,1.28-0.84,1.92c-0.22,0.51-0.35,1.03-0.36,1.52c-0.02,0.5,0.04,0.99,0.16,1.47
				c0.26,0.84,0.78,1.35,1.57,1.52c0.78,0.17,1.55-0.05,2.28-0.69c0.16-0.14,0.3-0.28,0.41-0.45c0.11-0.16,0.24-0.32,0.36-0.48
				c0.78-1.19,1.13-2.48,1.07-3.87c-0.06-1.16-0.36-2.33-0.87-3.49c0.42-0.35,0.82-0.69,1.2-1.04c0.38-0.33,0.76-0.64,1.12-0.94
				l2.32-1.81c-0.56,1-0.99,2.08-1.29,3.21c-0.3,1.16-0.47,2.28-0.51,3.35c-0.02,1.65,0.43,2.92,1.38,3.85
				c0.95,0.92,2.19,1.31,3.73,1.18c1.07-0.09,2.06-0.37,2.99-0.82c0.94-0.46,1.85-1,2.75-1.65c0.74-0.55,1.56-1.25,2.48-2.11
				c0.41-0.37,0.81-0.76,1.2-1.15c-0.02,0.33-0.04,0.68-0.01,1.03c0.02,1.2,0.42,2.16,1.2,2.86c0.77,0.71,1.77,1.07,3.04,1.07
				c0.38,0,0.77-0.06,1.15-0.17c0.38-0.11,0.77-0.25,1.15-0.41c1.09-0.61,2.04-1.34,2.85-2.18c0.29-0.26,0.57-0.48,0.87-0.68
				c0.29-0.19,0.63-0.33,1.05-0.43c0.29-0.1,0.58-0.21,0.87-0.33c0.29-0.12,0.56-0.26,0.82-0.38c1.61-0.81,3.06-1.72,4.36-2.74
				c0.22-0.17,0.45-0.37,0.66-0.56c-0.15,0.78-0.32,1.62-0.48,2.52c-0.26,1.36-0.41,2.59-0.43,3.68c-0.04,0.55,0.02,1.02,0.19,1.38
				c0.16,0.37,0.4,0.61,0.69,0.71c0.31,0.1,0.67,0.04,1.09-0.19c0.42-0.24,0.87-0.67,1.35-1.31c0.29-0.55,0.61-1.05,0.97-1.52
				c0.35-0.47,0.66-0.98,0.92-1.52c0.09-0.3,0.26-0.68,0.52-1.19c0.26-0.5,0.55-1.03,0.87-1.57c0.32-0.55,0.66-1.08,1.02-1.57
				c0.35-0.5,0.71-0.9,1.05-1.21c0.36-0.3,0.68-0.46,0.99-0.46c0.31,0,0.56,0.24,0.74,0.68c0.06,1.29,0.1,2.58,0.1,3.88
				c0,1.29,0.04,2.63,0.1,4.02c0.06,0.9,0.31,1.71,0.72,2.42c0.45,0.84,1.03,1.3,1.73,1.39c0.71,0.07,1.46-0.25,2.27-0.99
				c0.94-0.95,1.8-2.02,2.55-3.2c0.22,0.46,0.57,0.87,1.05,1.2c0.46,0.36,0.94,0.53,1.47,0.53s1.05-0.21,1.56-0.62
				c0.26-0.16,0.5-0.36,0.71-0.58c0.2-0.22,0.38-0.46,0.55-0.68c0.32-0.42,0.68-0.94,1.09-1.57c0.4-0.63,0.74-1.16,1.03-1.62
				c-0.16,0.87-0.2,1.8-0.11,2.76c0.07,0.97,0.27,1.81,0.57,2.54c0.31,0.73,0.74,1.24,1.3,1.55c0.57,0.31,1.26,0.27,2.09-0.12
				c0.87-0.42,1.76-1.08,2.68-1.98c0.92-0.9,1.8-1.93,2.63-3.07c0.36-0.48,0.68-0.98,1.02-1.47c-0.04,0.76-0.04,1.47,0.02,2.16
				c0.07,0.98,0.32,1.69,0.74,2.11c0.35,0.67,1.09,0.95,2.22,0.84c1.12-0.11,2.29-0.63,3.52-1.57c0.69-0.48,1.47-1.07,2.33-1.75
				c0.86-0.67,1.7-1.41,2.53-2.21c0.01,0,0.02-0.01,0.04-0.02c-0.12,0.9-0.12,1.85,0.01,2.81c0.12,0.81,0.56,1.47,1.3,1.98
				c0.45,0.36,0.94,0.53,1.47,0.53c0.52,0,1.04-0.21,1.56-0.62c0.26-0.16,0.48-0.36,0.69-0.58c0.21-0.22,0.4-0.46,0.56-0.68
				c0.32-0.42,0.68-0.94,1.09-1.57c0.4-0.63,0.74-1.16,1.03-1.62c-0.16,0.87-0.2,1.8-0.12,2.76c0.09,0.97,0.27,1.81,0.58,2.54
				c0.31,0.73,0.74,1.24,1.3,1.55c0.56,0.31,1.26,0.27,2.09-0.12c0.87-0.42,1.76-1.08,2.68-1.98c0.84-0.83,1.64-1.76,2.42-2.8
				c0.02,0.4,0.07,0.78,0.16,1.15c0.22,0.84,0.58,1.44,1.08,1.8c0.51,0.35,1.07,0.52,1.69,0.51c0.63-0.02,1.3-0.19,2.01-0.48
				c0.71-0.31,1.39-0.69,2.07-1.16c0.67-0.47,1.3-0.99,1.9-1.55c0.59-0.57,1.09-1.1,1.47-1.62c0.06,0.74,0.19,1.46,0.36,2.16
				c0.17,0.69,0.38,1.26,0.61,1.72c0.63,0.93,1.4,1.46,2.26,1.6c0.87,0.12,1.77-0.01,2.7-0.42c0.93-0.4,1.87-1.03,2.83-1.88
				c0.94-0.86,1.85-1.77,2.69-2.76c0.86-0.98,1.62-2,2.32-3.02c0.69-1.03,1.24-1.96,1.66-2.76
				C352.99,244.96,353.02,244.64,352.82,244.31z M325.12,229.27c0.95-2.43,2.01-4.91,3.12-7.44c0.04-0.06,0.1-0.11,0.2-0.16
				c0.1-0.05,0.24-0.15,0.43-0.31c0.06,1.03,0,1.98-0.2,2.88c-0.19,0.89-0.46,1.77-0.82,2.64c-0.35,1.07-0.69,2-1.03,2.79
				c-0.35,0.79-0.73,1.71-1.19,2.78c-0.29,0.66-0.59,1.29-0.93,1.92c-0.35,0.63-0.68,1.26-1.04,1.91c-0.04,0.06-0.1,0.15-0.2,0.25
				c-0.09,0.1-0.21,0.22-0.33,0.38C323.5,234.25,324.16,231.71,325.12,229.27z M295.83,229.27c0.97-2.43,2.01-4.91,3.14-7.44
				c0.02-0.06,0.09-0.11,0.19-0.16c0.1-0.05,0.25-0.15,0.43-0.31c0.06,1.03,0,1.98-0.19,2.88c-0.2,0.89-0.47,1.77-0.83,2.64
				c-0.35,1.07-0.69,2-1.03,2.79c-0.33,0.79-0.73,1.71-1.18,2.78c-0.3,0.66-0.61,1.29-0.94,1.92c-0.33,0.63-0.68,1.26-1.04,1.91
				c-0.02,0.06-0.1,0.15-0.19,0.25c-0.1,0.1-0.21,0.22-0.33,0.38C294.2,234.25,294.86,231.71,295.83,229.27z M227.27,253.1
				c-0.1,0.69-0.43,1.4-1.02,2.11c-0.06-0.16-0.12-0.28-0.19-0.38c-0.07-0.1-0.1-0.2-0.1-0.28c-0.04-0.66,0.05-1.28,0.26-1.87
				c0.21-0.59,0.56-1.25,1.04-1.96C227.37,251.61,227.37,252.41,227.27,253.1z M252.42,252.52c-0.45,0.29-0.88,0.42-1.3,0.42
				c-0.45,0.02-0.87-0.05-1.25-0.22s-0.67-0.5-0.87-0.94c-0.32-0.78-0.38-1.55-0.19-2.33c0.16-0.95,0.5-1.87,0.98-2.76
				c0.2-0.25,0.41-0.48,0.61-0.72c0.14-0.16,0.26-0.32,0.38-0.48c0.06,1.23,0.31,2.35,0.72,3.38c0.42,1.04,1.16,1.9,2.22,2.57
				C253.31,251.89,252.88,252.25,252.42,252.52z M257.96,245.16c-0.02,0.35-0.11,0.69-0.24,1.04c-0.42,1.14-1.08,2.24-1.97,3.35
				h-0.35c-0.55-0.22-0.99-0.58-1.35-1.07c-0.35-0.48-0.58-1-0.69-1.57c-0.11-0.57-0.1-1.14,0.05-1.75
				c0.15-0.59,0.41-1.12,0.79-1.57c0.45-0.55,0.97-0.88,1.55-1.02c0.57-0.12,1.12-0.05,1.64,0.25c0.51,0.32,0.76,0.76,0.72,1.3
				C258.04,244.48,257.99,244.82,257.96,245.16z M288.94,245.86c-0.1,0.55-0.32,1.1-0.67,1.65c-0.56,0.81-1.08,1.62-1.6,2.44
				c-0.51,0.83-1.03,1.66-1.54,2.5l-0.97,1.07c-0.51-0.24-0.82-0.52-0.92-0.86c-0.09-0.33-0.14-0.68-0.14-1.04
				c-0.07-0.55-0.02-1.1,0.14-1.67c0.09-0.27,0.17-0.55,0.27-0.82c0.25-0.53,0.5-1.07,0.73-1.6c0.46-0.82,1.05-1.61,1.8-2.35
				c0.38-0.35,0.81-0.62,1.28-0.82c0.46-0.2,1.02-0.26,1.66-0.2C289.05,244.75,289.04,245.32,288.94,245.86z M318.23,245.86
				c-0.1,0.55-0.32,1.1-0.68,1.65c-0.55,0.81-1.08,1.62-1.59,2.44c-0.52,0.83-1.03,1.66-1.54,2.5l-0.97,1.07
				c-0.52-0.24-0.82-0.52-0.92-0.86c-0.1-0.33-0.15-0.68-0.15-1.04c-0.06-0.55-0.01-1.1,0.15-1.67c0.16-0.56,0.37-1.12,0.63-1.67
				c0.47-1.09,1.2-2.13,2.16-3.1c0.38-0.35,0.82-0.62,1.28-0.82c0.47-0.2,1.03-0.26,1.67-0.2
				C318.34,244.75,318.33,245.32,318.23,245.86z M337.74,247.21c-0.06,0.26-0.14,0.52-0.21,0.76c-0.09,0.25-0.24,0.46-0.46,0.66
				c-0.26,0.26-0.62,0.61-1.09,1.07c-0.46,0.45-0.97,0.9-1.49,1.38c-0.53,0.47-1.08,0.88-1.65,1.24c-0.56,0.35-1.08,0.56-1.56,0.61
				c-0.48,0.04-0.88-0.11-1.2-0.46c-0.32-0.36-0.51-1.03-0.58-2c-0.02-1.25,0.2-2.44,0.64-3.57c0.17-0.35,0.33-0.68,0.47-1
				c0.51-0.93,1.18-1.77,2.02-2.54c0.9-0.84,1.92-1.3,3.06-1.39c1.14-0.07,2.19,0.21,3.15,0.86L337.74,247.21z"/>
			<path class="st1" d="M301.41,238.02c0.22,0.68,0.63,1.05,1.2,1.11c0.58,0,1.04-0.27,1.4-0.82c0.16-0.26,0.29-0.5,0.39-0.73
				c0.1-0.23,0.18-0.45,0.24-0.68l-0.05-0.73c-0.13-0.45-0.45-0.75-0.96-0.9c-0.51-0.15-0.95-0.06-1.3,0.27
				c-0.36,0.36-0.63,0.74-0.82,1.14C301.32,237.09,301.29,237.53,301.41,238.02L301.41,238.02z"/>
			<path class="st1" d="M190.52,244.31c-0.19-0.32-0.46-0.31-0.82,0.05c-0.29,0.38-0.73,1-1.33,1.83c-0.59,0.84-1.28,1.72-2.04,2.64
				c-0.77,0.93-1.59,1.81-2.43,2.66c-0.86,0.86-1.69,1.5-2.48,1.92c-0.81,0.42-1.54,0.55-2.18,0.38c-0.63-0.16-1.13-0.81-1.49-1.93
				c-0.1-0.26-0.17-0.51-0.22-0.76c-0.04-0.24-0.1-0.5-0.16-0.74c-0.16-0.68-0.15-1.34,0.02-1.97s0.53-1.25,1.08-1.86
				c0.42-0.46,0.81-0.93,1.14-1.44c0.33-0.5,0.64-1.02,0.94-1.57c0.22-0.32,0.38-0.64,0.5-0.99c0.11-0.33,0.24-0.68,0.37-1.04
				c0.09-0.35,0.09-0.67-0.04-0.97c-0.11-0.29-0.3-0.53-0.55-0.72c-0.55-0.36-1.15-0.33-1.83,0.09l-1.49,1.16
				c-0.9-0.84-1.87-1.34-2.92-1.5c-13.69-2.21-18.02,13.07-18.18,13.37c-0.1-0.32-0.17-0.58-0.22-0.78
				c-0.04-0.2-0.09-0.41-0.11-0.63c-0.2-1.45-0.3-2.92-0.32-4.4c-0.01-1.49-0.04-2.97-0.06-4.46c-0.04-0.32-0.07-0.64-0.1-0.97
				c-0.04-0.32-0.09-0.63-0.15-0.92c0-0.1-0.06-0.2-0.19-0.3c-0.14-0.1-0.25-0.15-0.35-0.15c-0.09,0-0.21,0.05-0.33,0.15
				c-0.12,0.1-0.24,0.2-0.33,0.3c-0.1,0.12-0.17,0.26-0.24,0.41c-0.07,0.15-0.14,0.3-0.2,0.46c-0.12,0.58-0.26,1.16-0.38,1.77
				c-0.14,0.59-0.21,1.18-0.25,1.76c-0.09,1.36-0.06,2.69,0.07,3.98c0.01,0.06,0.02,0.14,0.02,0.2c-1.07,3.66-3.11,8.72-6.69,9.53
				c-0.58,0.14-1.08-0.4-1.44-1.02c-0.37-0.61-0.63-1.41-0.78-2.39c-0.14-0.99-0.22-2.02-0.26-3.1c-0.04-1.09-0.02-2.12,0.02-3.1
				c0.05-0.99,0.1-1.77,0.17-2.35c0.02-0.36,0.09-0.68,0.19-0.99c0.1-0.31,0.22-0.62,0.38-0.94c0.46-0.94,0.89-1.9,1.33-2.86
				c0.43-0.97,0.88-1.95,1.33-2.95c0.55-1.33,1.09-2.64,1.61-3.95c0.53-1.3,1.08-2.64,1.62-3.99c0.55-1.29,0.97-2.57,1.28-3.83
				c0.3-1.26,0.57-2.57,0.79-3.93c0.06-0.45,0.09-0.89,0.07-1.35c-0.02-0.45-0.12-0.89-0.32-1.31c-0.51-1.25-1.47-1.55-2.89-0.87
				c-0.64,0.3-1.2,0.76-1.69,1.4c-0.42,0.56-0.81,1.13-1.15,1.72c-0.36,0.59-0.67,1.24-0.92,1.92c-0.26,0.83-0.52,1.67-0.79,2.52
				c-0.27,0.84-0.51,1.67-0.71,2.52c-0.48,2.09-0.95,4.32-1.44,6.68c-0.48,2.37-0.87,4.75-1.16,7.18c-0.11,1-0.21,2.01-0.27,3.02
				c-0.29,0.35-0.58,0.71-0.9,1.07c-1.08,1.24-2.19,2.38-3.35,3.4c-1.15,1.02-2.29,1.82-3.4,2.42c-1.1,0.59-2.09,0.78-2.96,0.56
				c-0.61-0.12-1.12-0.41-1.52-0.84c-0.4-0.45-0.69-0.94-0.88-1.51c-0.2-0.56-0.27-1.18-0.22-1.83c0.05-0.66,0.22-1.29,0.51-1.87
				c0.79,0,1.7-0.16,2.69-0.51c1-0.33,1.96-0.78,2.88-1.33c0.92-0.55,1.73-1.2,2.48-1.93c0.74-0.74,1.25-1.54,1.54-2.38
				c0.32-1.07,0.32-1.95-0.01-2.66c-0.35-0.71-0.89-1.18-1.65-1.4c-0.27-0.09-0.56-0.12-0.87-0.14c-6.3-0.84-11.08,1.33-11.08,1.33
				c-0.66,0.21-1.33,0.46-2,0.77c-0.68,0.31-1.34,0.64-1.98,1.02c-0.63,0.37-1.16,0.72-1.59,1.04c-0.73-1.03-1.56-1.96-2.48-2.79
				c-0.92-0.82-1.88-1.57-2.89-2.27c-1.02-0.69-2.07-1.34-3.16-1.92c-1.09-0.58-2.18-1.15-3.27-1.73c-0.58-0.3-0.98-0.64-1.21-1.04
				c-0.22-0.41-0.33-0.83-0.36-1.29c-0.01-0.45,0.05-0.9,0.2-1.38c0.15-0.47,0.32-0.9,0.56-1.29c0.95-1.71,2.04-3.04,3.27-3.97
				c1.21-0.94,2.63-1.64,4.24-2.08c1.57-0.42,2.94-0.4,4.09,0.1c1.16,0.48,2.35,1.43,3.57,2.85c0.1-0.2,0.19-0.33,0.27-0.43
				c0.07-0.1,0.15-0.17,0.21-0.22c0.06-0.05,0.11-0.1,0.15-0.14c0.02-0.05,0.05-0.15,0.05-0.27c-0.04-0.77-0.3-1.46-0.78-2.06
				c-0.47-0.59-1.08-1.08-1.8-1.45c-0.73-0.37-1.51-0.63-2.34-0.78c-0.83-0.15-1.61-0.17-2.31-0.07c-2.48,0.42-4.7,1.39-6.65,2.89
				c-1.96,1.5-3.59,3.57-4.92,6.22c-0.38,0.74-0.58,1.46-0.59,2.16c-0.01,0.69,0.07,1.34,0.26,1.93c0.2,0.59,0.47,1.13,0.82,1.57
				c0.36,0.46,0.73,0.79,1.12,1.02c1.05,0.72,2.09,1.36,3.1,1.97c1.02,0.59,2,1.2,2.92,1.81c0.93,0.62,1.81,1.28,2.65,1.96
				c0.83,0.71,1.64,1.5,2.4,2.4c-2.02,1.59-4.08,3.3-6.17,5.16c-2.08,1.86-3.95,3.87-5.59,6.04c-0.55,0.77-1.03,1.6-1.46,2.47
				c-0.43,0.87-0.77,1.8-0.99,2.76c-0.29,1.41-0.19,2.58,0.31,3.48c0.5,0.9,1.35,1.44,2.53,1.6c0.46,0.1,0.94,0.11,1.45,0.05
				c0.51-0.06,0.99-0.16,1.45-0.29c2.12-0.52,4.16-1.35,6.13-2.5c1.98-1.14,3.66-2.54,5.04-4.19c1.38-1.65,2.34-3.49,2.89-5.56
				c0.55-2.07,0.45-4.28-0.28-6.64c-0.07-0.35-0.25-0.76-0.53-1.23c-0.3-0.47-0.47-0.88-0.53-1.24c0.77-0.74,5.4-3.46,10.62-3.74
				c-0.02,0.02-0.05,0.04-0.07,0.06c-2.5,2.29-4.2,4.97-5.11,8.04c-0.51,1.91-0.36,3.71,0.43,5.43c0.36,0.83,0.87,1.5,1.55,1.98
				c0.67,0.48,1.47,0.81,2.4,0.97c0.87,0.12,1.75,0.04,2.63-0.26c0.88-0.31,1.76-0.76,2.65-1.34c0.88-0.58,1.73-1.26,2.58-2.03
				c0.83-0.78,1.61-1.59,2.33-2.42c0.29-0.33,0.56-0.67,0.82-1c-0.01,0.61-0.02,1.21-0.02,1.82c0,2.45,0.25,4.82,0.73,7.11
				c0.19,0.88,0.56,1.55,1.1,2.02c0.55,0.46,1.16,0.82,1.86,0.82c4.73,0,7.31-4.92,8.65-9.01c0.06,0.3,0.14,0.59,0.21,0.89
				c0.12,0.36,0.26,0.71,0.41,1.02c0.14,0.33,0.31,0.66,0.51,0.98c0.35,0.48,0.74,0.72,1.2,0.72c3.74,0,2.83-10.32,12.89-14
				c-0.25,0.22-0.47,0.47-0.71,0.73c-0.87,1-1.6,2.11-2.19,3.32c-0.59,1.21-1,2.47-1.25,3.78c-0.24,1.31-0.24,2.52,0.02,3.61
				c0.22,0.84,0.58,1.44,1.09,1.8c0.5,0.35,1.05,0.52,1.69,0.51c0.62-0.02,1.29-0.19,2-0.48c0.71-0.31,1.4-0.69,2.07-1.16
				c0.68-0.47,1.31-0.99,1.91-1.55c0.59-0.57,1.08-1.1,1.46-1.62c0.06,0.74,0.19,1.46,0.36,2.16c0.19,0.69,0.38,1.26,0.61,1.72
				c0.64,0.93,1.4,1.46,2.27,1.59c0.87,0.14,1.76,0,2.69-0.41c0.94-0.4,1.87-1.03,2.83-1.88c0.94-0.86,1.85-1.77,2.7-2.76
				c0.84-0.98,1.61-2,2.31-3.02c0.69-1.03,1.25-1.96,1.66-2.76C190.69,244.96,190.72,244.64,190.52,244.31z M145.56,237.97
				c0.22-1.23,0.43-2.44,0.62-3.63c0.2-1.2,0.42-2.4,0.68-3.63c0.22-1.04,0.47-2.04,0.74-3.02c0.27-0.99,0.57-1.97,0.89-2.94
				c0.16-0.45,0.35-0.87,0.57-1.24c0.24-0.37,0.47-0.76,0.73-1.18c0.12-0.2,0.3-0.36,0.53-0.48c0.19,0.12,0.27,0.26,0.26,0.41
				c-0.01,0.15-0.04,0.29-0.07,0.41c-0.06,1.07-0.21,2.11-0.46,3.12c-0.24,1.02-0.53,2.04-0.89,3.07c-0.55,1.62-1.09,3.22-1.64,4.8
				c-0.55,1.59-1.09,3.18-1.64,4.8c-0.04,0.2-0.09,0.37-0.15,0.53c-0.06,0.16-0.12,0.32-0.19,0.48c-0.07,0-0.11,0-0.12-0.02
				c-0.01-0.01-0.06-0.02-0.12-0.02L145.56,237.97z M118.63,253.37c-0.24,0.9-0.59,1.71-1.12,2.42c-1.44,1.75-3.11,3.21-4.98,4.41
				c-1.88,1.19-3.8,1.97-5.76,2.32c-0.38,0.1-0.74,0.1-1.08,0c-0.33-0.09-0.61-0.26-0.82-0.51c-0.21-0.24-0.35-0.55-0.38-0.94
				c-0.05-0.38,0.04-0.81,0.26-1.25c0.06-0.58,0.33-1.3,0.82-2.16c0.48-0.86,1.08-1.75,1.78-2.66c0.71-0.93,1.5-1.87,2.38-2.84
				c0.89-0.97,1.78-1.86,2.68-2.69c0.9-0.82,1.77-1.54,2.6-2.16c0.83-0.61,1.56-1.07,2.17-1.35c0.51,0.55,0.92,1.24,1.2,2.06
				c0.3,0.82,0.46,1.7,0.51,2.61C118.94,251.55,118.85,252.47,118.63,253.37z M130.65,243.68c0.52-0.77,1.13-1.5,1.8-2.18
				c0.26-0.26,0.53-0.47,0.82-0.64c0.3-0.19,0.59-0.35,0.92-0.52c0.32-0.15,0.71-0.24,1.16-0.24c0.51-0.06,0.88,0.07,1.13,0.41
				c0.24,0.35,0.26,0.76,0.07,1.24c-0.14,0.32-0.27,0.57-0.43,0.72c-0.68,0.94-1.47,1.71-2.42,2.3c-0.93,0.59-1.92,1.09-2.99,1.47
				c-0.16,0.07-0.35,0.09-0.57,0.07s-0.48,0-0.77,0.02C129.68,245.34,130.12,244.46,130.65,243.68z M175.44,247.21
				c-0.06,0.26-0.14,0.52-0.21,0.76c-0.09,0.25-0.24,0.46-0.46,0.66c-0.26,0.26-0.62,0.61-1.08,1.07c-0.47,0.45-0.97,0.9-1.5,1.38
				c-0.53,0.47-1.08,0.88-1.64,1.24c-0.57,0.36-1.09,0.56-1.57,0.61c-0.47,0.05-0.88-0.11-1.2-0.46c-0.32-0.36-0.51-1.03-0.57-2
				c-0.04-1.35,0.21-2.64,0.74-3.84c0.53-1.21,1.39-2.24,2.38-3.27c2.88-2.96,5.25-1.18,6.22-0.53L175.44,247.21z"/>
			<path class="st1" d="M301.46,237.97c0.22,0.68,0.63,1.05,1.2,1.11c0.58,0,1.04-0.27,1.4-0.82c0.16-0.26,0.29-0.5,0.39-0.73
				c0.1-0.23,0.18-0.45,0.24-0.68l-0.05-0.73c-0.13-0.45-0.45-0.75-0.96-0.9c-0.51-0.15-0.95-0.06-1.3,0.27
				c-0.36,0.36-0.63,0.74-0.82,1.14C301.36,237.05,301.33,237.49,301.46,237.97L301.46,237.97z"/>
		</g>
		<g>
			<path class="st1" d="M78.02,248.15c0.07-0.12,0.14-0.23,0.22-0.34c0.08-0.11,0.15-0.22,0.22-0.34c0.63-0.91,1.38-1.64,2.26-2.18
				c0.07-0.05,0.14-0.1,0.22-0.14c0.08-0.04,0.16-0.08,0.24-0.11c0.49-0.22,0.95-0.27,1.37-0.15c0.42,0.12,0.75,0.38,0.99,0.79
				c0.1,0.19,0.17,0.38,0.22,0.58c0.04,0.2,0.07,0.4,0.09,0.58c-0.02,0.14-0.02,0.27-0.01,0.41c0.01,0.14,0.02,0.28,0.04,0.43
				c0.69-0.34,1.38-0.76,2.07-1.27c0.68-0.51,1.26-1.04,1.71-1.6c0.08-0.03,0.14-0.03,0.16,0.01c0.03,0.04,0.04,0.1,0.04,0.17
				c0,0.07-0.02,0.14-0.05,0.23c-0.03,0.08-0.07,0.15-0.1,0.2c-0.44,0.78-0.98,1.43-1.62,1.95c-0.64,0.52-1.34,0.98-2.11,1.37
				c-0.17,0.08-0.3,0.19-0.39,0.3c-0.09,0.12-0.18,0.27-0.27,0.46c-0.15,0.32-0.32,0.63-0.49,0.94c-0.18,0.3-0.36,0.61-0.55,0.91
				c-0.2,0.37-0.55,0.68-1.04,0.91c-0.39,0.17-0.72,0.17-0.98,0c-0.26-0.17-0.37-0.45-0.32-0.84c0.05-0.25,0.16-0.54,0.33-0.86
				c0.29-0.49,0.71-0.96,1.27-1.42c0.14-0.08,0.25-0.17,0.36-0.25c0.1-0.08,0.22-0.18,0.35-0.28c0.1-0.29,0.16-0.59,0.18-0.9
				c0.02-0.31,0.02-0.62,0-0.92c-0.02-0.07-0.03-0.13-0.04-0.19c-0.01-0.06-0.03-0.11-0.06-0.16c-0.15-0.27-0.38-0.37-0.68-0.3
				c-0.27,0.08-0.52,0.2-0.74,0.35c-0.22,0.15-0.44,0.32-0.66,0.51c-0.27,0.27-0.52,0.55-0.75,0.84c-0.23,0.29-0.42,0.6-0.57,0.94
				c-0.19,0.34-0.36,0.67-0.51,1c-0.15,0.33-0.3,0.66-0.46,0.98c-0.08,0.24-0.17,0.41-0.25,0.53c-0.07,0.12-0.16,0.18-0.28,0.19
				c-0.12,0.01-0.2-0.05-0.25-0.16c-0.09-0.14-0.15-0.33-0.2-0.58c-0.14-0.52-0.23-1.06-0.28-1.6c-0.05-0.54-0.06-1.09-0.03-1.65
				c0.07-1.15,0.16-2.29,0.28-3.41c0.12-1.12,0.3-2.26,0.56-3.41c0.24-1.02,0.52-2,0.84-2.97c0.32-0.96,0.7-1.92,1.14-2.87
				c0.12-0.24,0.24-0.45,0.37-0.65c0.13-0.19,0.26-0.4,0.39-0.62c0.12-0.2,0.3-0.41,0.53-0.61c0.17-0.15,0.35-0.25,0.56-0.3
				c0.2-0.05,0.39-0.05,0.57-0.01s0.33,0.13,0.47,0.27c0.14,0.14,0.23,0.31,0.28,0.53c0.08,0.24,0.12,0.48,0.1,0.74
				c-0.02,0.25-0.07,0.51-0.15,0.76c-0.2,0.76-0.47,1.51-0.79,2.23c-0.36,0.74-0.72,1.48-1.1,2.22c-0.38,0.74-0.76,1.48-1.13,2.24
				c-0.14,0.24-0.29,0.47-0.46,0.71c-0.17,0.24-0.32,0.48-0.46,0.74c-0.08,0.15-0.17,0.3-0.25,0.46c-0.08,0.15-0.14,0.31-0.18,0.48
				c-0.08,0.69-0.16,1.38-0.22,2.07C77.95,246.74,77.95,247.44,78.02,248.15z M81.77,233.46c-0.29,0.17-0.46,0.27-0.51,0.32
				s-0.11,0.12-0.18,0.24c-0.12,0.24-0.24,0.48-0.37,0.72c-0.13,0.25-0.23,0.49-0.32,0.72c-0.29,0.71-0.53,1.42-0.74,2.13
				c-0.2,0.71-0.38,1.44-0.53,2.18c-0.03,0.05-0.05,0.11-0.04,0.16c0.01,0.06,0.01,0.11,0.01,0.17c0.61-1.07,1.16-2.13,1.65-3.21
				C81.25,235.82,81.59,234.68,81.77,233.46z M81.62,250.18c-0.2,0.17-0.36,0.3-0.47,0.41c-0.11,0.1-0.19,0.19-0.24,0.27
				c-0.05,0.08-0.08,0.15-0.08,0.22c0,0.07,0.02,0.15,0.05,0.25c0.17-0.14,0.3-0.29,0.41-0.46
				C81.39,250.69,81.5,250.46,81.62,250.18z"/>
			<path class="st1" d="M91.89,246.98l-0.56,0.76c-0.27,0.39-0.55,0.76-0.84,1.12c-0.29,0.35-0.6,0.69-0.94,1.01
				c-0.14,0.14-0.28,0.27-0.43,0.41c-0.15,0.14-0.31,0.25-0.48,0.35c-0.42,0.24-0.82,0.3-1.2,0.2c-0.38-0.1-0.65-0.35-0.8-0.74
				c-0.17-0.44-0.23-0.9-0.18-1.4c0.05-0.64,0.15-1.28,0.29-1.93c0.14-0.64,0.36-1.28,0.65-1.9c0.05-0.17,0.16-0.34,0.33-0.51
				c0.05-0.08,0.13-0.11,0.23-0.08c0.03,0.02,0.07,0.04,0.1,0.06c0.03,0.03,0.05,0.06,0.05,0.09c0.02,0.1,0.02,0.2,0.01,0.3
				c-0.01,0.1-0.02,0.19-0.04,0.28c-0.08,0.42-0.16,0.84-0.24,1.26s-0.15,0.83-0.22,1.25c-0.14,0.64-0.14,1.23-0.03,1.78
				c0.02,0.07,0.05,0.14,0.09,0.2c0.04,0.07,0.08,0.13,0.11,0.18c0.17,0.02,0.3-0.01,0.38-0.09c0.08-0.08,0.17-0.16,0.25-0.24
				c0.29-0.27,0.56-0.55,0.81-0.85c0.25-0.3,0.49-0.6,0.71-0.93l2.26-3.22c0.07-0.08,0.13-0.17,0.18-0.25
				c0.05-0.08,0.12-0.17,0.2-0.25c0.2-0.2,0.42-0.28,0.66-0.23c0.3,0.05,0.46,0.22,0.46,0.51c0,0.19,0,0.38-0.01,0.58
				c-0.01,0.2-0.02,0.4-0.04,0.58c-0.07,0.56-0.14,1.12-0.2,1.69c-0.07,0.57-0.14,1.13-0.23,1.69l-0.08,0.81
				c0.13,0.03,0.23,0.02,0.29-0.05c0.06-0.07,0.12-0.14,0.19-0.2c0.49-0.52,0.93-0.98,1.32-1.36c0.39-0.38,0.76-0.74,1.13-1.08
				c0.36-0.34,0.73-0.67,1.1-1c0.37-0.33,0.79-0.71,1.24-1.13c0.24-0.2,0.39-0.24,0.46-0.1c0.07,0.14,0.03,0.29-0.1,0.46
				c-0.51,0.58-0.98,1.1-1.41,1.56c-0.43,0.47-0.85,0.92-1.27,1.37c-0.41,0.45-0.84,0.9-1.27,1.36c-0.43,0.46-0.91,0.96-1.43,1.5
				c-0.22,0.22-0.38,0.45-0.47,0.68c-0.09,0.24-0.16,0.5-0.19,0.79c-0.08,0.85-0.19,1.69-0.3,2.52c-0.12,0.84-0.27,1.68-0.46,2.52
				c-0.14,0.69-0.31,1.37-0.52,2.04c-0.21,0.67-0.49,1.32-0.82,1.97c-0.19,0.39-0.4,0.77-0.65,1.14c-0.24,0.37-0.54,0.71-0.87,1.02
				c-0.24,0.22-0.48,0.41-0.73,0.58c-0.27,0.15-0.54,0.24-0.81,0.27c-0.27,0.03-0.52-0.01-0.75-0.1c-0.23-0.09-0.42-0.24-0.58-0.43
				c-0.16-0.19-0.26-0.44-0.29-0.72c-0.02-0.35,0-0.74,0.05-1.17c0.07-0.61,0.19-1.21,0.38-1.8c0.19-0.59,0.4-1.18,0.63-1.75
				c0.69-1.59,1.56-3.06,2.61-4.41c0.27-0.34,0.54-0.68,0.82-1.03c0.28-0.35,0.55-0.69,0.82-1.03c0.07-0.08,0.13-0.18,0.19-0.29
				c0.06-0.11,0.1-0.22,0.11-0.32c0.08-0.71,0.17-1.42,0.24-2.13c0.08-0.71,0.16-1.43,0.24-2.16c-0.03,0-0.06,0-0.09-0.01
				C91.96,246.98,91.93,246.98,91.89,246.98z M91.26,253.42l-0.23,0.23c-0.49,0.59-0.95,1.19-1.37,1.79
				c-0.42,0.6-0.81,1.22-1.17,1.86c-0.37,0.66-0.7,1.33-0.98,2.02c-0.28,0.68-0.49,1.39-0.62,2.12c-0.05,0.2-0.08,0.41-0.08,0.62
				c0,0.21-0.01,0.42-0.03,0.62c0,0.29,0.13,0.48,0.38,0.57c0.25,0.09,0.51,0.05,0.76-0.14c0.56-0.42,0.98-0.89,1.27-1.39
				c0.17-0.29,0.33-0.58,0.48-0.89c0.15-0.3,0.29-0.61,0.41-0.91c0.37-1.03,0.65-2.07,0.84-3.11c0.19-1.04,0.33-2.09,0.43-3.16
				C91.38,253.63,91.34,253.56,91.26,253.42z"/>
		</g>
	</g>
</g>
</svg>
