<?xml version="1.0" encoding="utf-8"?>
<!-- Generator: Adobe Illustrator 26.5.0, SVG Export Plug-In . SVG Version: 6.00 Build 0)  -->
<svg version="1.1" id="Capa_1" xmlns="http://www.w3.org/2000/svg" xmlns:xlink="http://www.w3.org/1999/xlink" x="0px" y="0px"
	 viewBox="0 0 415.58 267.37" style="enable-background:new 0 0 415.58 267.37;" xml:space="preserve">
<style type="text/css">
	.st0{fill:#A2A651;}
	.st1{fill:#737D55;}
</style>
<g>
	<g>
		<path class="st0" d="M183.97,20.76c1.23,4.24,4.07,6.55,7.34,8.52c4.62,2.78,9.77,4.69,13.86,8.37
			c6.66,5.99,8.12,12.29,4.67,20.54c-0.39,0.93-0.82,1.84-1.29,2.73c-2.18,4.23-2.58,4.37-7.22,2.83
			c-9.68-3.22-14.27-10.59-16.35-20.01c-0.17-0.76,0.09-1.68-0.8-2.2c-1.34,8.74,2.97,19.52,18.29,28.93
			C185.5,67.95,167.37,44.72,183.97,20.76L183.97,20.76z"/>
		<path class="st0" d="M219.98,69.57c5.89-9.45,9.42-19.32,6.56-30.47c-1.5-5.85-4.75-10.76-9.3-14.74
			c8.64,14.49,5.24,29.45-1.21,38.02c1.01-4.02,2.34-7.5,1.68-11.33c-1.32-7.7-6.58-12.42-12.43-16.6
			c-3.43-2.46-7.13-4.59-10.89-6.53c-2.36-1.22-2.35-2.24-0.82-4.11c2.17-2.64,3.9-5.6,5.34-8.7c1.82-3.91,3-7.98,2.16-12.34
			c-0.28-1.45-0.04-1.92,1.49-1.54c16.42,4.1,29.71,12.36,35.84,28.89C242.52,41.22,240.23,60.21,219.98,69.57L219.98,69.57z"/>
	</g>
	<g>
		<g>
			<path class="st0" d="M348.16,245c-0.2-0.33-0.48-0.31-0.83,0.05c-0.29,0.39-0.74,1.01-1.34,1.85c-0.6,0.85-1.29,1.74-2.07,2.67
				c-0.79,0.94-1.6,1.83-2.47,2.69c-0.85,0.86-1.69,1.51-2.5,1.94c-0.81,0.43-1.54,0.55-2.19,0.39c-0.65-0.16-1.15-0.81-1.5-1.95
				c-0.1-0.26-0.18-0.51-0.23-0.76c-0.05-0.24-0.1-0.5-0.16-0.76c-0.16-0.68-0.16-1.34,0.03-1.98c0.18-0.64,0.54-1.26,1.09-1.88
				c0.43-0.46,0.8-0.94,1.14-1.45c0.35-0.5,0.66-1.03,0.95-1.59c0.23-0.33,0.4-0.65,0.51-1c0.11-0.34,0.24-0.69,0.36-1.05
				c0.1-0.35,0.09-0.68-0.03-0.98c-0.11-0.29-0.3-0.54-0.55-0.73c-0.56-0.36-1.18-0.34-1.85,0.09l-1.51,1.18
				c-0.9-0.85-1.89-1.35-2.94-1.51c-1.05-0.16-2.23,0.04-3.53,0.59c-1.04,0.55-1.99,1.34-2.87,2.34c-0.88,1.01-1.61,2.13-2.22,3.35
				c-0.58,1.16-0.98,2.38-1.23,3.63c-0.38,0.54-0.76,1.05-1.15,1.55c-0.86,1.1-1.74,2.05-2.63,2.87c-0.9,0.81-1.75,1.33-2.55,1.51
				c-0.1-0.19-0.19-0.38-0.28-0.54c-0.08-0.16-0.15-0.33-0.21-0.49c-0.1-0.59-0.16-1.18-0.18-1.76c-0.01-0.58,0.03-1.19,0.13-1.8
				c0.19-1.3,0.39-2.6,0.58-3.89c0.2-1.29,0.38-2.58,0.54-3.89c0.2-1.16,0.66-2.24,1.41-3.22c1.94-2.62,3.53-5.19,4.77-7.73
				c1.23-2.54,2.2-5.28,2.92-8.22c0.1-0.41,0.15-0.84,0.18-1.24c0.01-0.41,0.02-0.81,0.02-1.2c-0.08-0.39-0.21-0.74-0.41-1.05
				c-0.21-0.31-0.56-0.51-1.05-0.61c-0.55-0.06-1,0.01-1.34,0.25c-0.34,0.23-0.65,0.51-0.95,0.88c-1.2,1.44-2.22,2.92-3.07,4.46
				c-0.84,1.53-1.55,3.1-2.14,4.72c-0.58,1.61-1.09,3.28-1.5,4.99c-0.43,1.7-0.81,3.48-1.16,5.29c-0.08,0.26-0.11,0.55-0.13,0.86
				c-0.02,0.31-0.2,0.59-0.56,0.85c-0.13,0-0.28,0.01-0.44,0.03c-0.16,0.02-0.33,0.02-0.49,0.02c-0.61,0-1.18,0.1-1.7,0.3
				c-0.51,0.19-1,0.46-1.45,0.83c-1.54,1.23-2.64,2.53-3.32,3.92c-0.53,0.48-1.05,0.95-1.6,1.44c-0.88,0.76-1.74,1.49-2.6,2.15
				c-0.86,0.66-1.6,1.16-2.22,1.49c-1.2,0.89-2.12,1.11-2.75,0.69c-0.63-0.43-0.76-1.54-0.41-3.33l1.03-5.13
				c0.06-0.36,0.13-0.71,0.19-1.05c0.08-0.35,0.14-0.7,0.2-1.05c0-0.3-0.1-0.53-0.29-0.69c-0.16-0.1-0.36-0.09-0.59,0.03
				c-0.23,0.11-0.46,0.28-0.7,0.46c-0.25,0.2-0.46,0.4-0.66,0.61c-0.19,0.21-0.33,0.39-0.39,0.51c-0.29,0.69-0.59,1.58-0.88,2.69
				c-0.11,0.45-0.23,0.91-0.31,1.38c-0.04,0.05-0.06,0.1-0.1,0.16c-0.79,1.25-1.63,2.43-2.48,3.52c-0.86,1.1-1.74,2.05-2.63,2.87
				c-0.89,0.81-1.74,1.33-2.55,1.51c-0.1-0.19-0.19-0.38-0.28-0.54c-0.08-0.16-0.15-0.33-0.21-0.49c-0.1-0.59-0.15-1.18-0.18-1.76
				c-0.01-0.58,0.03-1.19,0.13-1.8c0.2-1.3,0.39-2.6,0.59-3.89c0.19-1.29,0.36-2.58,0.53-3.89c0.2-1.16,0.68-2.24,1.41-3.22
				c1.95-2.62,3.54-5.19,4.77-7.73c1.24-2.54,2.2-5.28,2.92-8.22c0.1-0.41,0.16-0.84,0.18-1.24c0.01-0.41,0.02-0.81,0.02-1.2
				c-0.06-0.39-0.2-0.74-0.41-1.05c-0.21-0.31-0.56-0.51-1.05-0.61c-0.55-0.06-0.99,0.01-1.34,0.25c-0.34,0.23-0.65,0.51-0.94,0.88
				c-1.2,1.44-2.23,2.92-3.07,4.46c-0.85,1.53-1.56,3.1-2.14,4.72c-0.59,1.61-1.09,3.28-1.51,4.99c-0.43,1.7-0.81,3.48-1.16,5.29
				c-0.06,0.26-0.11,0.55-0.13,0.86c-0.01,0.31-0.2,0.59-0.56,0.85c-0.13,0-0.28,0.01-0.44,0.03c-0.16,0.02-0.33,0.02-0.48,0.02
				c-0.63,0-1.19,0.1-1.71,0.3c-0.51,0.19-1,0.46-1.45,0.83c-1.73,1.38-2.9,2.84-3.55,4.43c-0.45,1.09-0.68,2.24-0.69,3.45
				c-0.49,0.8-0.99,1.55-1.53,2.24c-0.73,0.95-1.51,1.61-2.35,2c-0.49-0.65-0.76-1.43-0.8-2.34c-0.05-0.91-0.05-1.88,0-2.89
				c0.04-1.01,0.06-2.03,0.06-3.05c0-1.03-0.16-1.98-0.49-2.87c-0.35-0.91-0.88-1.45-1.58-1.61s-1.46,0.08-2.32,0.69
				c-0.71,0.45-1.34,1.03-1.89,1.71c-0.55,0.68-1.06,1.4-1.54,2.15c-0.46,0.75-0.9,1.49-1.31,2.23c-0.4,0.73-0.81,1.35-1.24,1.88
				c-0.03-0.53,0.02-1.05,0.15-1.59c0.13-0.54,0.29-1.09,0.46-1.64s0.36-1.11,0.56-1.69c0.19-0.56,0.34-1.16,0.44-1.78
				c0.13-0.36,0.18-0.7,0.14-1.01c-0.02-0.3-0.11-0.55-0.26-0.73c-0.15-0.18-0.34-0.26-0.59-0.25c-0.24,0.02-0.53,0.19-0.85,0.51
				c-0.45,0.46-0.79,0.91-1.01,1.38c-0.14,0.33-0.25,0.64-0.35,0.95c0,0.03-0.01,0.05-0.01,0.08c-0.68,0.55-1.36,1.11-2.1,1.66
				c-1.25,0.94-2.62,1.69-4.11,2.24l1.31-2.88c0.23-0.46,0.38-0.93,0.46-1.41c0.08-0.49,0.14-0.99,0.16-1.48
				c0.06-0.65-0.09-1.25-0.46-1.8c-0.38-0.56-0.86-1-1.48-1.33c-0.63-0.33-1.31-0.49-2.08-0.51c-0.75-0.01-1.48,0.21-2.17,0.66
				c-0.23,0.16-0.45,0.33-0.7,0.49c-0.24,0.16-0.48,0.34-0.7,0.54c-0.75,0.79-1.64,1.4-2.68,1.85c-0.23,0.1-0.45,0.26-0.68,0.5
				c-1.11,1.08-1.98,2.24-2.62,3.49c-0.03,0.05-0.04,0.1-0.06,0.16c-0.24,0.2-0.45,0.4-0.69,0.6c-0.94,0.81-1.86,1.59-2.79,2.32
				c-0.93,0.74-1.71,1.35-2.37,1.84c-0.49,0.35-1.06,0.7-1.73,1.03c-0.66,0.33-1.33,0.55-1.99,0.69c-0.66,0.13-1.29,0.11-1.88-0.05
				c-0.59-0.16-1.05-0.56-1.41-1.18c-0.55-1.18-0.66-2.48-0.34-3.92c0.33-1.43,0.84-2.77,1.56-4c0.19-0.36,0.44-0.74,0.73-1.13
				c0.29-0.39,0.61-0.74,0.98-1.03c0.35-0.3,0.74-0.51,1.14-0.64c0.4-0.13,0.85-0.1,1.34,0.1c-0.29,0.59-0.56,1.13-0.83,1.61
				c-0.26,0.49-0.49,0.98-0.69,1.46c-0.33,0.75-0.3,1.45,0.05,2.1c0.16,0.46,0.45,0.74,0.85,0.84c0.41,0.09,0.83-0.04,1.24-0.4
				c0.33-0.23,0.58-0.49,0.74-0.78c0.25-0.39,0.5-0.79,0.73-1.2c0.23-0.41,0.43-0.84,0.59-1.3c0.16-0.41,0.33-0.78,0.5-1.08
				c0.19-0.29,0.44-0.56,0.76-0.83c0.35-0.33,0.51-0.64,0.49-0.95c-0.04-0.31-0.28-0.54-0.74-0.66c-0.25-0.06-0.45-0.1-0.58-0.1
				c-0.33,0.08-0.59,0.06-0.78-0.02c-0.2-0.08-0.4-0.21-0.59-0.41c-0.39-0.39-0.83-0.61-1.31-0.69c-0.49-0.06-0.99,0-1.51,0.2
				c-1.1,0.33-2.08,0.89-2.92,1.69c-0.06,0.06-0.13,0.13-0.19,0.2c-1.23,0.64-2.4,1.3-3.55,1.98c-1.18,0.68-2.28,1.5-3.32,2.44
				c-0.16,0.14-0.3,0.25-0.44,0.36c-0.13,0.13-0.25,0.21-0.39,0.28l-2.58-1.51c-0.35-0.23-0.69-0.46-0.99-0.69
				c-0.31-0.23-0.63-0.48-0.95-0.74c-0.43-0.35-0.58-0.75-0.46-1.19c0.11-0.45,0.44-0.79,1-1.05c0.48-0.26,0.99-0.34,1.53-0.23
				c0.54,0.11,1,0.35,1.39,0.71c0.13,0.16,0.24,0.33,0.31,0.51c0.09,0.18,0.26,0.29,0.56,0.31c0.35-0.29,0.5-0.7,0.44-1.21
				c-0.06-0.24-0.14-0.46-0.23-0.69c-0.08-0.23-0.2-0.43-0.36-0.59c-0.94-1.18-2.22-1.54-3.84-1.08c-0.78,0.26-1.44,0.64-1.96,1.13
				c-0.54,0.49-0.9,1.1-1.1,1.85c-0.35,1.56,0.15,2.74,1.51,3.53c0.45,0.26,0.86,0.51,1.24,0.75c0.36,0.25,0.76,0.5,1.19,0.76
				c0.29,0.23,0.59,0.44,0.88,0.64c0.04,0.02,0.08,0.05,0.1,0.08c-2.8,1.2-5.61,2.44-8.41,3.73c-3.3,1.53-6.67,3.37-10.09,5.52
				c0.04-2.04,0.02-4.1-0.01-6.18c-0.05-2.08-0.11-4.22-0.21-6.41c1.2-0.89,2.32-1.66,3.35-2.32c1.04-0.64,2.03-1.2,2.94-1.69
				c0.91-0.49,1.76-0.93,2.55-1.34c0.79-0.41,1.51-0.88,2.18-1.38c0.24-0.14,0.45-0.34,0.64-0.59c0.18-0.25,0.15-0.63-0.06-1.14
				c-0.78,0-1.63,0.14-2.54,0.41c-0.91,0.26-1.86,0.64-2.85,1.1c-0.99,0.46-2,0.98-3.04,1.53c-1.03,0.56-2.07,1.1-3.08,1.64
				c0.03-1.21,0.05-2.53,0.08-3.94c0.01-1.43,0.03-2.84,0.05-4.26c0.01-1.41,0.03-2.82,0.05-4.19c0.03-1.39,0.04-2.67,0.05-3.85
				c0.56-0.43,1.5-0.8,2.79-1.13c1.3-0.33,2.7-0.58,4.22-0.78c1.53-0.2,3.03-0.34,4.51-0.44c1.49-0.09,2.72-0.11,3.65-0.08
				c0.41,0,0.81-0.03,1.23-0.09c0.41-0.05,0.71-0.34,0.9-0.88c-0.04-0.23-0.19-0.39-0.44-0.49c-0.26-0.11-0.56-0.2-0.91-0.28
				c-0.34-0.06-0.7-0.13-1.09-0.15c-0.38-0.04-0.66-0.08-0.88-0.11c-1.13-0.11-2.29-0.14-3.5-0.09c-1.2,0.06-2.4,0.16-3.62,0.3
				c-1.2,0.15-2.38,0.33-3.53,0.54c-1.14,0.21-2.22,0.43-3.23,0.65c-0.05-0.54-0.09-1.06-0.14-1.58c-0.24-1.35-1.74-1.7-2.12,0.26
				c-0.03,0.24-0.05,0.48-0.08,0.71c-0.06,0.61-0.54,6.52-0.55,7.72c-0.03,1.2-0.05,2.43-0.1,3.69c-0.04,1.25-0.09,2.49-0.14,3.73
				c-0.04,1.23-0.44,6.51-0.44,6.72c-0.24,0.23-2.44,1.8-2.65,2.03c-0.21,0.21-0.48,0.54-0.78,0.96c-0.08,0.15-0.11,0.34-0.1,0.59
				c0,0.26,0.05,0.48,0.15,0.65c0.06,0.18,0.2,0.33,0.4,0.43c0.21,0.11,0.39,0.16,0.56,0.16c0.36-0.04,0.79-0.15,1.25-0.35
				c0.48-0.19,0.93-0.33,1.35-0.4c0.2,1.98,0.29,4.03,0.28,6.16c-0.03,2.14-0.06,4.13-0.13,5.99c-0.25,0.51-0.69,1.03-1.3,1.56
				c-0.61,0.54-1.38,1.29-2.25,2.27c-0.23,0.25-0.38,0.53-0.45,0.83c-0.06,0.31,0.01,0.64,0.25,1c0.21,0.29,0.46,0.44,0.76,0.48
				c0.29,0.04,0.58-0.01,0.85-0.15c0.35-0.19,0.68-0.35,1-0.51c0.34-0.16,0.65-0.34,0.96-0.51l0.39,0.21
				c0.85,0.29,1.44,0.36,1.75,0.24c0.33-0.13,0.59-0.56,0.8-1.31c0.09-0.29,0.14-0.6,0.16-0.94c0.04-0.34,0.09-0.69,0.16-1.05
				c1.5-1.08,3.1-2.17,4.82-3.28c1.7-1.11,3.43-2.2,5.19-3.28c1.75-1.08,3.52-2.12,5.29-3.09c1.03-0.58,2.03-1.11,3.02-1.63
				c-0.13,0.25-0.24,0.5-0.35,0.73c-0.31,0.64-0.6,1.29-0.85,1.94c-0.23,0.51-0.35,1.04-0.36,1.54c-0.03,0.5,0.04,1,0.16,1.49
				c0.26,0.85,0.79,1.36,1.59,1.54c0.79,0.18,1.56-0.05,2.3-0.7c0.16-0.14,0.3-0.29,0.41-0.45c0.11-0.16,0.24-0.33,0.36-0.49
				c0.79-1.2,1.14-2.5,1.08-3.9c-0.06-1.18-0.36-2.35-0.88-3.53c0.43-0.35,0.83-0.7,1.21-1.05c0.39-0.34,0.76-0.65,1.13-0.95
				l2.34-1.83c-0.56,1.01-1,2.1-1.3,3.24c-0.3,1.18-0.48,2.3-0.51,3.38c-0.03,1.66,0.44,2.95,1.39,3.89
				c0.96,0.93,2.22,1.33,3.77,1.19c1.08-0.09,2.08-0.38,3.02-0.83c0.95-0.46,1.86-1.01,2.78-1.66c0.75-0.55,1.58-1.26,2.5-2.13
				c0.41-0.38,0.81-0.76,1.21-1.16c-0.03,0.34-0.04,0.69-0.01,1.04c0.03,1.21,0.43,2.18,1.21,2.89c0.78,0.71,1.79,1.08,3.07,1.08
				c0.39,0,0.78-0.06,1.16-0.18c0.39-0.11,0.78-0.25,1.16-0.41c1.1-0.61,2.06-1.35,2.88-2.2c0.29-0.26,0.58-0.49,0.88-0.69
				c0.29-0.19,0.64-0.34,1.06-0.44c0.29-0.1,0.59-0.21,0.88-0.34c0.29-0.13,0.56-0.26,0.83-0.39c1.63-0.81,3.09-1.74,4.41-2.77
				c0.23-0.18,0.45-0.38,0.66-0.56c-0.15,0.79-0.33,1.64-0.49,2.54c-0.26,1.38-0.41,2.62-0.44,3.72c-0.04,0.55,0.02,1.03,0.19,1.39
				c0.16,0.38,0.4,0.61,0.7,0.71c0.31,0.1,0.68,0.04,1.1-0.19c0.43-0.24,0.88-0.68,1.36-1.33c0.29-0.55,0.61-1.06,0.98-1.54
				c0.35-0.48,0.66-0.99,0.93-1.54c0.09-0.3,0.26-0.69,0.53-1.2c0.26-0.5,0.55-1.04,0.88-1.59c0.33-0.55,0.66-1.09,1.03-1.59
				c0.35-0.5,0.71-0.91,1.06-1.23c0.36-0.3,0.69-0.46,1-0.46c0.31,0,0.56,0.24,0.75,0.69c0.06,1.3,0.1,2.6,0.1,3.92
				c0,1.3,0.04,2.65,0.1,4.05c0.06,0.91,0.31,1.73,0.73,2.44c0.45,0.85,1.04,1.31,1.75,1.4c0.71,0.08,1.48-0.25,2.29-1
				c0.95-0.96,1.81-2.04,2.58-3.23c0.23,0.46,0.58,0.88,1.06,1.21c0.46,0.36,0.95,0.54,1.49,0.54s1.06-0.21,1.58-0.63
				c0.26-0.16,0.5-0.36,0.71-0.59c0.2-0.23,0.39-0.46,0.55-0.69c0.33-0.43,0.69-0.95,1.1-1.59c0.4-0.64,0.75-1.18,1.04-1.64
				c-0.16,0.88-0.2,1.81-0.11,2.79c0.08,0.98,0.28,1.83,0.58,2.57c0.31,0.74,0.75,1.25,1.31,1.56c0.58,0.31,1.28,0.28,2.12-0.13
				c0.88-0.43,1.78-1.09,2.7-2c0.93-0.91,1.81-1.95,2.65-3.1c0.36-0.49,0.69-0.99,1.03-1.49c-0.04,0.76-0.04,1.49,0.03,2.18
				c0.08,0.99,0.33,1.7,0.75,2.13c0.35,0.68,1.1,0.96,2.24,0.85c1.13-0.11,2.32-0.64,3.55-1.59c0.7-0.49,1.49-1.08,2.35-1.76
				c0.86-0.68,1.71-1.43,2.55-2.23c0.01,0,0.03-0.01,0.04-0.03c-0.13,0.91-0.13,1.86,0.01,2.84c0.13,0.81,0.56,1.49,1.31,2
				c0.45,0.36,0.95,0.54,1.49,0.54c0.53,0,1.05-0.21,1.58-0.63c0.26-0.16,0.49-0.36,0.7-0.59s0.4-0.46,0.56-0.69
				c0.33-0.43,0.69-0.95,1.1-1.59c0.4-0.64,0.75-1.18,1.04-1.64c-0.16,0.88-0.2,1.81-0.13,2.79c0.09,0.98,0.28,1.83,0.59,2.57
				c0.31,0.74,0.75,1.25,1.31,1.56c0.56,0.31,1.28,0.28,2.11-0.13c0.88-0.43,1.78-1.09,2.7-2c0.85-0.84,1.65-1.78,2.44-2.83
				c0.02,0.4,0.08,0.79,0.16,1.16c0.23,0.85,0.59,1.45,1.09,1.81c0.51,0.35,1.08,0.53,1.7,0.51c0.64-0.03,1.31-0.19,2.03-0.49
				c0.71-0.31,1.4-0.7,2.09-1.18c0.68-0.48,1.31-1,1.91-1.56c0.6-0.58,1.1-1.11,1.49-1.64c0.06,0.75,0.19,1.48,0.36,2.18
				c0.18,0.7,0.39,1.28,0.61,1.74c0.64,0.94,1.41,1.48,2.28,1.61c0.88,0.13,1.79-0.01,2.73-0.43c0.94-0.4,1.89-1.04,2.85-1.9
				c0.95-0.86,1.86-1.79,2.72-2.79c0.86-0.99,1.64-2.01,2.34-3.05c0.7-1.04,1.25-1.98,1.68-2.79
				C348.33,245.65,348.36,245.32,348.16,245z M320.19,229.8c0.96-2.45,2.03-4.96,3.15-7.51c0.04-0.06,0.1-0.11,0.2-0.16
				c0.1-0.05,0.24-0.15,0.44-0.31c0.06,1.04,0,2-0.2,2.9c-0.19,0.9-0.46,1.79-0.83,2.67c-0.35,1.08-0.7,2.01-1.04,2.82
				c-0.35,0.8-0.74,1.73-1.2,2.8c-0.29,0.66-0.6,1.3-0.94,1.94c-0.35,0.64-0.69,1.28-1.05,1.93c-0.04,0.06-0.1,0.15-0.2,0.25
				c-0.09,0.1-0.21,0.23-0.34,0.39C318.55,234.84,319.21,232.27,320.19,229.8z M290.6,229.8c0.98-2.45,2.03-4.96,3.17-7.51
				c0.03-0.06,0.09-0.11,0.19-0.16c0.1-0.05,0.25-0.15,0.44-0.31c0.06,1.04,0,2-0.19,2.9c-0.2,0.9-0.48,1.79-0.84,2.67
				c-0.35,1.08-0.7,2.01-1.04,2.82c-0.34,0.8-0.74,1.73-1.19,2.8c-0.3,0.66-0.61,1.3-0.95,1.94c-0.34,0.64-0.69,1.28-1.05,1.93
				c-0.03,0.06-0.1,0.15-0.19,0.25c-0.1,0.1-0.21,0.23-0.34,0.39C288.96,234.84,289.62,232.27,290.6,229.8z M221.36,253.87
				c-0.1,0.7-0.44,1.41-1.03,2.13c-0.06-0.16-0.13-0.29-0.19-0.39c-0.08-0.1-0.1-0.2-0.1-0.29c-0.04-0.66,0.05-1.29,0.26-1.89
				c0.21-0.6,0.56-1.26,1.05-1.98C221.47,252.37,221.47,253.17,221.36,253.87z M246.76,253.28c-0.45,0.29-0.89,0.43-1.31,0.43
				c-0.45,0.03-0.88-0.05-1.26-0.23c-0.39-0.18-0.68-0.5-0.88-0.95c-0.33-0.79-0.39-1.56-0.19-2.35c0.16-0.96,0.5-1.89,0.99-2.79
				c0.2-0.25,0.41-0.49,0.61-0.73c0.14-0.16,0.26-0.33,0.39-0.49c0.06,1.24,0.31,2.38,0.73,3.42c0.43,1.05,1.18,1.91,2.24,2.59
				C247.66,252.64,247.22,253.01,246.76,253.28z M252.35,245.85c-0.03,0.35-0.11,0.7-0.24,1.05c-0.43,1.15-1.09,2.27-1.99,3.38
				h-0.35c-0.55-0.23-1-0.59-1.36-1.08c-0.35-0.49-0.59-1.01-0.7-1.59c-0.11-0.58-0.1-1.15,0.05-1.76c0.15-0.6,0.41-1.13,0.8-1.59
				c0.45-0.55,0.98-0.89,1.56-1.03c0.58-0.13,1.13-0.05,1.65,0.25c0.51,0.33,0.76,0.76,0.73,1.31
				C252.44,245.16,252.39,245.51,252.35,245.85z M283.64,246.56c-0.1,0.55-0.33,1.11-0.68,1.66c-0.56,0.81-1.09,1.64-1.61,2.47
				c-0.51,0.84-1.04,1.68-1.55,2.53l-0.98,1.08c-0.51-0.24-0.83-0.53-0.93-0.86c-0.09-0.34-0.14-0.69-0.14-1.05
				c-0.08-0.55-0.03-1.11,0.14-1.69c0.09-0.28,0.18-0.55,0.28-0.83c0.25-0.54,0.5-1.08,0.74-1.61c0.46-0.83,1.06-1.63,1.81-2.38
				c0.39-0.35,0.81-0.63,1.29-0.83c0.46-0.2,1.03-0.26,1.68-0.2C283.75,245.44,283.74,246.01,283.64,246.56z M313.23,246.56
				c-0.1,0.55-0.33,1.11-0.69,1.66c-0.55,0.81-1.09,1.64-1.6,2.47c-0.53,0.84-1.04,1.68-1.55,2.53l-0.98,1.08
				c-0.53-0.24-0.83-0.53-0.93-0.86c-0.1-0.34-0.15-0.69-0.15-1.05c-0.06-0.55-0.01-1.11,0.15-1.69c0.16-0.56,0.38-1.13,0.64-1.69
				c0.48-1.1,1.21-2.15,2.18-3.13c0.39-0.35,0.83-0.63,1.29-0.83c0.48-0.2,1.04-0.26,1.69-0.2
				C313.34,245.44,313.33,246.01,313.23,246.56z M332.93,247.93c-0.06,0.26-0.14,0.53-0.21,0.76c-0.09,0.25-0.24,0.46-0.46,0.66
				c-0.26,0.26-0.63,0.61-1.1,1.08c-0.46,0.45-0.98,0.91-1.5,1.39c-0.54,0.48-1.09,0.89-1.66,1.25c-0.56,0.35-1.09,0.56-1.58,0.61
				c-0.49,0.04-0.89-0.11-1.21-0.46c-0.33-0.36-0.51-1.04-0.59-2.02c-0.02-1.26,0.2-2.47,0.65-3.6c0.18-0.35,0.34-0.69,0.48-1.01
				c0.51-0.94,1.19-1.79,2.04-2.57c0.91-0.85,1.94-1.31,3.09-1.4c1.15-0.08,2.22,0.21,3.18,0.86L332.93,247.93z"/>
			<path class="st0" d="M296.24,238.64c0.23,0.68,0.63,1.06,1.22,1.13c0.58,0,1.05-0.28,1.41-0.83c0.16-0.26,0.29-0.51,0.39-0.73
				c0.1-0.23,0.18-0.46,0.24-0.68l-0.05-0.73c-0.13-0.46-0.45-0.76-0.97-0.9c-0.52-0.15-0.96-0.06-1.31,0.27
				c-0.36,0.36-0.63,0.74-0.83,1.15C296.15,237.7,296.11,238.15,296.24,238.64L296.24,238.64z"/>
			<path class="st0" d="M184.24,245c-0.19-0.33-0.46-0.31-0.83,0.05c-0.29,0.39-0.74,1.01-1.34,1.85c-0.6,0.85-1.29,1.74-2.06,2.67
				c-0.78,0.94-1.6,1.83-2.45,2.69c-0.86,0.86-1.7,1.51-2.5,1.94c-0.81,0.43-1.55,0.55-2.2,0.39c-0.64-0.16-1.14-0.81-1.5-1.95
				c-0.1-0.26-0.18-0.51-0.23-0.76c-0.04-0.24-0.1-0.5-0.16-0.75c-0.16-0.69-0.15-1.35,0.03-1.99s0.54-1.26,1.09-1.88
				c0.43-0.46,0.81-0.94,1.15-1.45c0.34-0.5,0.65-1.03,0.95-1.59c0.23-0.33,0.39-0.65,0.5-1c0.11-0.34,0.24-0.69,0.38-1.05
				c0.09-0.35,0.09-0.68-0.04-0.98c-0.11-0.29-0.3-0.54-0.55-0.73c-0.55-0.36-1.16-0.34-1.85,0.09l-1.5,1.18
				c-0.91-0.85-1.89-1.35-2.95-1.51c-13.83-2.23-18.2,13.2-18.36,13.5c-0.1-0.33-0.18-0.59-0.23-0.79c-0.04-0.2-0.09-0.41-0.11-0.64
				c-0.2-1.46-0.3-2.95-0.33-4.44c-0.01-1.5-0.04-3-0.06-4.51c-0.04-0.33-0.08-0.65-0.1-0.98c-0.04-0.33-0.09-0.64-0.15-0.93
				c0-0.1-0.06-0.2-0.19-0.3c-0.14-0.1-0.25-0.15-0.35-0.15c-0.09,0-0.21,0.05-0.34,0.15c-0.13,0.1-0.24,0.2-0.34,0.3
				c-0.1,0.13-0.18,0.26-0.24,0.41c-0.08,0.15-0.14,0.3-0.2,0.46c-0.13,0.59-0.26,1.18-0.39,1.79c-0.14,0.6-0.21,1.19-0.25,1.78
				c-0.09,1.38-0.06,2.72,0.08,4.02c0.01,0.06,0.02,0.14,0.02,0.2c-1.08,3.69-3.14,8.81-6.76,9.62c-0.59,0.14-1.09-0.4-1.45-1.03
				c-0.38-0.61-0.64-1.43-0.79-2.42c-0.14-1-0.23-2.04-0.26-3.13c-0.04-1.1-0.03-2.14,0.03-3.13c0.05-1,0.1-1.79,0.18-2.38
				c0.03-0.36,0.09-0.69,0.19-1s0.23-0.63,0.39-0.95c0.46-0.95,0.9-1.91,1.34-2.89c0.44-0.98,0.89-1.96,1.34-2.98
				c0.55-1.34,1.1-2.67,1.63-3.99c0.54-1.31,1.09-2.67,1.64-4.03c0.55-1.3,0.98-2.59,1.29-3.87c0.3-1.28,0.58-2.59,0.8-3.97
				c0.06-0.45,0.09-0.9,0.08-1.36c-0.02-0.45-0.13-0.9-0.33-1.33c-0.51-1.26-1.49-1.56-2.92-0.88c-0.65,0.3-1.21,0.76-1.7,1.41
				c-0.43,0.56-0.81,1.14-1.16,1.74c-0.36,0.6-0.68,1.25-0.93,1.94c-0.26,0.84-0.53,1.69-0.8,2.54c-0.28,0.85-0.51,1.69-0.71,2.54
				c-0.49,2.12-0.96,4.37-1.45,6.75c-0.49,2.39-0.88,4.79-1.18,7.25c-0.11,1.01-0.21,2.03-0.28,3.05c-0.29,0.35-0.59,0.71-0.91,1.08
				c-1.09,1.25-2.22,2.4-3.38,3.43c-1.16,1.03-2.32,1.84-3.43,2.44c-1.11,0.6-2.12,0.79-2.99,0.56c-0.61-0.13-1.13-0.41-1.54-0.85
				c-0.4-0.45-0.7-0.95-0.89-1.53c-0.2-0.56-0.28-1.19-0.23-1.85c0.05-0.66,0.23-1.3,0.51-1.89c0.8,0,1.71-0.16,2.72-0.51
				c1.01-0.34,1.98-0.79,2.9-1.34s1.75-1.21,2.5-1.95c0.75-0.75,1.26-1.55,1.55-2.4c0.33-1.08,0.33-1.96-0.01-2.69
				c-0.35-0.71-0.9-1.19-1.66-1.41c-0.28-0.09-0.56-0.13-0.88-0.14c-6.36-0.85-11.19,1.34-11.19,1.34
				c-0.66,0.21-1.34,0.46-2.01,0.78c-0.69,0.31-1.35,0.65-2,1.03c-0.64,0.38-1.18,0.73-1.6,1.05c-0.74-1.04-1.58-1.98-2.5-2.82
				c-0.93-0.83-1.9-1.59-2.92-2.29c-1.03-0.7-2.09-1.35-3.19-1.94c-1.1-0.59-2.2-1.16-3.3-1.75c-0.59-0.3-0.99-0.65-1.23-1.05
				c-0.23-0.41-0.34-0.84-0.36-1.3c-0.01-0.45,0.05-0.91,0.2-1.39s0.33-0.91,0.56-1.3c0.96-1.73,2.06-3.07,3.3-4
				c1.23-0.95,2.65-1.65,4.28-2.1c1.59-0.43,2.97-0.4,4.13,0.1c1.18,0.49,2.38,1.44,3.6,2.88c0.1-0.2,0.19-0.34,0.28-0.44
				c0.08-0.1,0.15-0.18,0.21-0.23c0.06-0.05,0.11-0.1,0.15-0.14c0.02-0.05,0.05-0.15,0.05-0.28c-0.04-0.78-0.3-1.48-0.79-2.08
				c-0.48-0.6-1.09-1.09-1.81-1.46c-0.74-0.38-1.53-0.64-2.37-0.79c-0.84-0.15-1.63-0.18-2.33-0.08c-2.5,0.43-4.74,1.4-6.72,2.92
				c-1.98,1.51-3.63,3.6-4.97,6.28c-0.39,0.75-0.59,1.48-0.6,2.18c-0.01,0.7,0.08,1.35,0.26,1.95c0.2,0.6,0.48,1.14,0.83,1.59
				c0.36,0.46,0.74,0.8,1.13,1.03c1.06,0.73,2.12,1.38,3.13,1.99c1.03,0.6,2.01,1.21,2.95,1.83c0.94,0.63,1.83,1.29,2.68,1.98
				c0.84,0.71,1.65,1.51,2.43,2.43c-2.04,1.6-4.12,3.33-6.23,5.21c-2.1,1.88-3.99,3.9-5.64,6.09c-0.55,0.78-1.04,1.61-1.48,2.49
				c-0.44,0.88-0.78,1.81-1,2.79c-0.29,1.43-0.19,2.6,0.31,3.52c0.5,0.91,1.36,1.45,2.55,1.61c0.46,0.1,0.95,0.11,1.46,0.05
				c0.51-0.06,1-0.16,1.46-0.29c2.14-0.53,4.21-1.36,6.2-2.53c2-1.15,3.69-2.57,5.09-4.23c1.39-1.66,2.37-3.53,2.92-5.62
				c0.55-2.09,0.45-4.32-0.29-6.71c-0.08-0.35-0.25-0.76-0.54-1.24c-0.3-0.48-0.48-0.89-0.54-1.25c0.78-0.75,5.46-3.49,10.73-3.78
				c-0.02,0.03-0.05,0.04-0.08,0.06c-2.53,2.32-4.24,5.02-5.16,8.12c-0.51,1.93-0.36,3.74,0.44,5.48c0.36,0.84,0.88,1.51,1.56,2
				c0.68,0.49,1.49,0.81,2.43,0.98c0.88,0.13,1.76,0.04,2.65-0.26c0.89-0.31,1.78-0.76,2.68-1.35c0.89-0.59,1.75-1.28,2.6-2.05
				c0.84-0.79,1.63-1.6,2.35-2.44c0.29-0.34,0.56-0.68,0.83-1.01c-0.01,0.61-0.02,1.23-0.02,1.84c0,2.48,0.25,4.87,0.74,7.18
				c0.19,0.89,0.56,1.56,1.11,2.04c0.55,0.46,1.18,0.83,1.88,0.83c4.78,0,7.38-4.97,8.74-9.1c0.06,0.3,0.14,0.6,0.21,0.9
				c0.13,0.36,0.26,0.71,0.41,1.03c0.14,0.34,0.31,0.66,0.51,0.99c0.35,0.49,0.75,0.73,1.21,0.73c3.78,0,2.85-10.43,13.02-14.14
				c-0.25,0.23-0.48,0.48-0.71,0.74c-0.88,1.01-1.61,2.13-2.22,3.35c-0.6,1.23-1.01,2.49-1.26,3.82c-0.24,1.33-0.24,2.54,0.03,3.64
				c0.23,0.85,0.59,1.45,1.1,1.81c0.5,0.35,1.06,0.53,1.7,0.51c0.63-0.03,1.3-0.19,2.02-0.49c0.71-0.31,1.41-0.7,2.09-1.18
				c0.69-0.48,1.33-1,1.93-1.56c0.6-0.58,1.09-1.11,1.48-1.64c0.06,0.75,0.19,1.48,0.36,2.18c0.19,0.7,0.39,1.28,0.61,1.74
				c0.65,0.94,1.41,1.48,2.29,1.6c0.88,0.14,1.78,0,2.72-0.41c0.95-0.4,1.89-1.04,2.85-1.9c0.95-0.86,1.86-1.79,2.73-2.79
				c0.85-0.99,1.63-2.01,2.33-3.05c0.7-1.04,1.26-1.98,1.68-2.79C184.42,245.65,184.44,245.32,184.24,245z M138.84,238.59
				c0.23-1.24,0.44-2.47,0.63-3.67c0.2-1.21,0.43-2.43,0.69-3.67c0.23-1.05,0.48-2.06,0.75-3.05c0.28-1,0.58-1.99,0.9-2.97
				c0.16-0.45,0.35-0.88,0.58-1.25c0.24-0.38,0.48-0.76,0.74-1.19c0.13-0.2,0.3-0.36,0.54-0.49c0.19,0.13,0.28,0.26,0.26,0.41
				c-0.01,0.15-0.04,0.29-0.08,0.41c-0.06,1.08-0.21,2.13-0.46,3.15c-0.24,1.03-0.54,2.06-0.9,3.1c-0.55,1.64-1.1,3.25-1.65,4.84
				c-0.55,1.6-1.1,3.22-1.65,4.84c-0.04,0.2-0.09,0.38-0.15,0.54c-0.06,0.16-0.13,0.33-0.19,0.49c-0.08,0-0.11,0-0.13-0.02
				c-0.01-0.01-0.06-0.03-0.13-0.03L138.84,238.59z M111.64,254.15c-0.24,0.91-0.6,1.73-1.13,2.44c-1.45,1.76-3.14,3.24-5.03,4.46
				c-1.9,1.2-3.84,1.99-5.82,2.34c-0.39,0.1-0.75,0.1-1.09,0c-0.34-0.09-0.61-0.26-0.83-0.51c-0.21-0.24-0.35-0.55-0.39-0.95
				c-0.05-0.39,0.04-0.81,0.26-1.26c0.06-0.59,0.34-1.31,0.83-2.18c0.49-0.86,1.09-1.76,1.8-2.69c0.71-0.94,1.51-1.89,2.4-2.87
				c0.9-0.98,1.8-1.88,2.7-2.72c0.91-0.83,1.79-1.55,2.63-2.18c0.84-0.61,1.58-1.08,2.19-1.36c0.51,0.55,0.93,1.25,1.21,2.08
				c0.3,0.83,0.46,1.71,0.51,2.64C111.96,252.31,111.87,253.23,111.64,254.15z M123.78,244.36c0.53-0.78,1.14-1.51,1.81-2.2
				c0.26-0.26,0.54-0.48,0.83-0.65c0.3-0.19,0.6-0.35,0.93-0.53c0.33-0.15,0.71-0.24,1.18-0.24c0.51-0.06,0.89,0.08,1.14,0.41
				c0.24,0.35,0.26,0.76,0.08,1.25c-0.14,0.33-0.28,0.58-0.44,0.73c-0.69,0.95-1.49,1.73-2.44,2.33c-0.94,0.6-1.94,1.1-3.02,1.49
				c-0.16,0.08-0.35,0.09-0.58,0.08s-0.49,0-0.78,0.02C122.81,246.04,123.24,245.15,123.78,244.36z M169.01,247.93
				c-0.06,0.26-0.14,0.53-0.21,0.76c-0.09,0.25-0.24,0.46-0.46,0.66c-0.26,0.26-0.63,0.61-1.09,1.08c-0.48,0.45-0.98,0.91-1.51,1.39
				c-0.54,0.48-1.09,0.89-1.65,1.25c-0.58,0.36-1.1,0.56-1.59,0.61c-0.48,0.05-0.89-0.11-1.21-0.46c-0.33-0.36-0.51-1.04-0.58-2.02
				c-0.04-1.36,0.21-2.67,0.75-3.88c0.54-1.23,1.4-2.27,2.4-3.3c2.9-2.99,5.31-1.19,6.28-0.54L169.01,247.93z"/>
			<path class="st0" d="M296.29,238.59c0.23,0.68,0.63,1.06,1.22,1.13c0.58,0,1.05-0.28,1.41-0.83c0.16-0.26,0.29-0.51,0.39-0.73
				c0.1-0.23,0.18-0.46,0.24-0.68l-0.05-0.73c-0.13-0.46-0.45-0.76-0.97-0.9c-0.52-0.15-0.96-0.06-1.31,0.27
				c-0.36,0.36-0.63,0.74-0.83,1.15C296.19,237.66,296.16,238.11,296.29,238.59L296.29,238.59z"/>
		</g>
		<g>
			<path class="st0" d="M70.63,248.87c0.07-0.12,0.14-0.23,0.22-0.35c0.08-0.11,0.15-0.23,0.22-0.35c0.63-0.92,1.39-1.66,2.28-2.2
				c0.07-0.05,0.14-0.1,0.22-0.14c0.08-0.04,0.16-0.08,0.24-0.12c0.49-0.22,0.96-0.27,1.38-0.15c0.43,0.12,0.76,0.38,1,0.79
				c0.1,0.19,0.17,0.38,0.22,0.59c0.04,0.21,0.07,0.4,0.09,0.59c-0.02,0.14-0.02,0.27-0.01,0.41s0.02,0.28,0.04,0.44
				c0.7-0.34,1.4-0.77,2.09-1.28c0.69-0.51,1.27-1.05,1.73-1.61c0.09-0.03,0.14-0.03,0.17,0.01c0.03,0.04,0.04,0.1,0.04,0.17
				c0,0.07-0.02,0.14-0.05,0.23c-0.03,0.09-0.07,0.15-0.1,0.21c-0.44,0.79-0.99,1.44-1.64,1.97c-0.65,0.53-1.36,0.99-2.13,1.38
				c-0.17,0.09-0.3,0.19-0.4,0.31s-0.18,0.27-0.27,0.46c-0.15,0.33-0.32,0.64-0.5,0.95c-0.18,0.31-0.36,0.61-0.55,0.92
				c-0.21,0.38-0.55,0.68-1.05,0.92c-0.39,0.17-0.72,0.17-0.99,0c-0.27-0.17-0.37-0.45-0.32-0.84c0.05-0.26,0.16-0.55,0.33-0.87
				c0.29-0.49,0.72-0.97,1.28-1.43c0.14-0.09,0.26-0.17,0.36-0.26c0.1-0.09,0.22-0.18,0.36-0.28c0.1-0.29,0.16-0.59,0.18-0.91
				c0.02-0.32,0.02-0.63,0-0.93c-0.02-0.07-0.03-0.13-0.04-0.19c-0.01-0.06-0.03-0.11-0.06-0.17c-0.15-0.27-0.38-0.38-0.69-0.31
				c-0.27,0.09-0.52,0.2-0.74,0.36c-0.22,0.15-0.44,0.33-0.67,0.51c-0.27,0.27-0.52,0.55-0.76,0.85c-0.23,0.29-0.42,0.61-0.58,0.95
				c-0.19,0.34-0.36,0.68-0.51,1.01c-0.15,0.33-0.31,0.66-0.46,0.99c-0.09,0.24-0.17,0.42-0.26,0.54c-0.07,0.12-0.16,0.18-0.28,0.19
				c-0.12,0.01-0.21-0.05-0.26-0.17c-0.09-0.14-0.15-0.33-0.21-0.59c-0.14-0.53-0.23-1.07-0.28-1.61s-0.06-1.1-0.03-1.67
				c0.07-1.16,0.16-2.31,0.28-3.44s0.31-2.28,0.56-3.45c0.24-1.03,0.52-2.02,0.85-3c0.32-0.97,0.71-1.94,1.15-2.9
				c0.12-0.24,0.24-0.46,0.37-0.65c0.13-0.2,0.26-0.41,0.4-0.63c0.12-0.21,0.3-0.41,0.54-0.61c0.17-0.15,0.36-0.26,0.56-0.31
				c0.2-0.05,0.4-0.06,0.58-0.01c0.18,0.04,0.34,0.13,0.47,0.27s0.23,0.32,0.28,0.54c0.09,0.24,0.12,0.49,0.1,0.74
				c-0.02,0.26-0.07,0.51-0.15,0.77c-0.21,0.77-0.47,1.52-0.79,2.25c-0.36,0.75-0.73,1.5-1.11,2.24c-0.38,0.74-0.76,1.5-1.14,2.27
				c-0.14,0.24-0.29,0.48-0.46,0.72c-0.17,0.24-0.32,0.49-0.46,0.74c-0.09,0.15-0.17,0.31-0.26,0.46c-0.09,0.15-0.14,0.32-0.18,0.49
				c-0.09,0.7-0.16,1.4-0.22,2.09C70.56,247.45,70.56,248.15,70.63,248.87z M74.42,234.04c-0.29,0.17-0.46,0.28-0.51,0.32
				c-0.05,0.04-0.11,0.12-0.18,0.24c-0.12,0.24-0.24,0.48-0.37,0.73c-0.13,0.25-0.23,0.49-0.32,0.73c-0.29,0.72-0.54,1.43-0.74,2.15
				c-0.2,0.72-0.38,1.45-0.54,2.2c-0.03,0.05-0.05,0.11-0.04,0.17c0.01,0.06,0.01,0.12,0.01,0.17c0.61-1.08,1.17-2.16,1.67-3.24
				C73.89,236.42,74.23,235.27,74.42,234.04z M74.27,250.92c-0.21,0.17-0.36,0.31-0.47,0.41s-0.19,0.19-0.24,0.27
				c-0.05,0.08-0.08,0.15-0.08,0.22c0,0.07,0.02,0.15,0.05,0.26c0.17-0.14,0.31-0.29,0.41-0.46
				C74.04,251.44,74.15,251.21,74.27,250.92z"/>
			<path class="st0" d="M84.64,247.69l-0.56,0.77c-0.27,0.39-0.55,0.77-0.85,1.13c-0.29,0.36-0.61,0.7-0.95,1.02
				c-0.14,0.14-0.28,0.27-0.44,0.41c-0.15,0.14-0.32,0.26-0.49,0.36c-0.43,0.24-0.83,0.31-1.22,0.21c-0.38-0.1-0.65-0.35-0.81-0.74
				c-0.17-0.44-0.23-0.91-0.18-1.41c0.05-0.65,0.15-1.3,0.29-1.95c0.14-0.65,0.36-1.29,0.65-1.92c0.05-0.17,0.16-0.34,0.33-0.51
				c0.05-0.09,0.13-0.11,0.23-0.08c0.03,0.02,0.07,0.04,0.1,0.06c0.03,0.03,0.05,0.06,0.05,0.09c0.02,0.1,0.02,0.21,0.01,0.31
				c-0.01,0.1-0.02,0.2-0.04,0.28c-0.09,0.43-0.17,0.85-0.24,1.27c-0.08,0.42-0.15,0.84-0.22,1.27c-0.14,0.65-0.15,1.25-0.03,1.79
				c0.02,0.07,0.05,0.14,0.09,0.21c0.04,0.07,0.08,0.13,0.12,0.18c0.17,0.02,0.3-0.01,0.38-0.09c0.09-0.08,0.17-0.16,0.26-0.24
				c0.29-0.27,0.56-0.56,0.82-0.86c0.26-0.3,0.49-0.61,0.72-0.93l2.28-3.25c0.07-0.09,0.13-0.17,0.18-0.26
				c0.05-0.09,0.12-0.17,0.21-0.26c0.2-0.2,0.43-0.28,0.67-0.23c0.31,0.05,0.46,0.22,0.46,0.51c0,0.19,0,0.38-0.01,0.59
				c-0.01,0.21-0.02,0.4-0.04,0.59c-0.07,0.56-0.14,1.13-0.21,1.7s-0.15,1.14-0.23,1.7l-0.08,0.82c0.14,0.03,0.23,0.02,0.29-0.05
				c0.06-0.07,0.12-0.14,0.19-0.21c0.49-0.53,0.94-0.99,1.33-1.37c0.39-0.38,0.77-0.75,1.14-1.09c0.37-0.34,0.74-0.68,1.11-1.01
				c0.38-0.33,0.79-0.71,1.26-1.14c0.24-0.21,0.39-0.24,0.46-0.1c0.07,0.14,0.03,0.29-0.1,0.46c-0.51,0.58-0.99,1.11-1.42,1.58
				c-0.44,0.47-0.86,0.93-1.28,1.38s-0.84,0.91-1.28,1.37c-0.44,0.46-0.92,0.97-1.45,1.51c-0.22,0.22-0.38,0.45-0.47,0.69
				c-0.09,0.24-0.16,0.5-0.19,0.79c-0.09,0.85-0.19,1.7-0.31,2.55c-0.12,0.84-0.27,1.69-0.46,2.55c-0.14,0.7-0.31,1.39-0.53,2.06
				s-0.49,1.34-0.83,1.98c-0.19,0.39-0.41,0.78-0.65,1.15c-0.25,0.38-0.54,0.72-0.88,1.03c-0.24,0.22-0.49,0.42-0.74,0.59
				c-0.27,0.15-0.55,0.24-0.82,0.27c-0.27,0.03-0.53-0.01-0.76-0.1c-0.23-0.09-0.43-0.24-0.59-0.44c-0.16-0.2-0.26-0.44-0.29-0.73
				c-0.02-0.36,0-0.75,0.05-1.18c0.07-0.61,0.2-1.22,0.38-1.82c0.19-0.6,0.4-1.19,0.64-1.77c0.7-1.6,1.58-3.09,2.64-4.46
				c0.27-0.34,0.55-0.69,0.83-1.04c0.28-0.35,0.56-0.7,0.83-1.04c0.07-0.09,0.13-0.18,0.19-0.29c0.06-0.11,0.1-0.22,0.11-0.32
				c0.09-0.72,0.17-1.43,0.24-2.15c0.08-0.72,0.16-1.44,0.24-2.18c-0.03,0-0.06,0-0.09-0.01S84.67,247.69,84.64,247.69z M84,254.2
				l-0.23,0.23c-0.49,0.6-0.96,1.2-1.38,1.81c-0.43,0.6-0.82,1.23-1.18,1.88c-0.38,0.67-0.7,1.34-0.99,2.04
				c-0.28,0.69-0.49,1.4-0.63,2.14c-0.05,0.21-0.08,0.41-0.08,0.63c0,0.21-0.01,0.42-0.03,0.63c0,0.29,0.13,0.48,0.38,0.58
				c0.26,0.09,0.51,0.05,0.77-0.14c0.56-0.43,0.99-0.9,1.28-1.41c0.17-0.29,0.33-0.59,0.49-0.9c0.15-0.31,0.29-0.61,0.41-0.92
				c0.38-1.04,0.66-2.09,0.84-3.14c0.19-1.05,0.33-2.11,0.44-3.19C84.12,254.41,84.09,254.33,84,254.2z"/>
		</g>
	</g>
	<g>
		<g>
			<path class="st1" d="M23.93,101.48H1.07v1.57h4.34c0.53,0,2.13,0,2.13,4.72v91.67c0,4.72-1.6,4.72-2.13,4.72H1.07v1.57h20.21
				v-1.57h-4.34c-0.53,0-2.13,0-2.13-4.72v-91.67c0-0.68,0-1.24,0.06-1.61h7.77c23.93,0,36.57,11.12,36.57,32.17
				c0,12.1-3.49,21.48-10.38,27.86c-6.99,6.48-15.22,9.62-25.15,9.62h-0.33v2.21h0.33c20.93,0,43.45-12.42,43.45-39.69
				C67.12,115.25,50.98,101.48,23.93,101.48z"/>
			<g>
				<path class="st1" d="M126.93,199.63L106.86,106c-0.25-1.07-0.18-1.86,0.2-2.35c0.32-0.41,0.89-0.61,1.68-0.61h2.4v-1.57H89.25
					v1.57h2.4c0.79,0,1.36,0.21,1.68,0.61c0.39,0.49,0.45,1.28,0.2,2.35l-20.07,93.62c-0.63,3.42-1.59,4.52-3.95,4.52h-3.7v1.57
					h20.21v-1.57H82.2c-0.82,0-1.39-0.22-1.69-0.66c-0.46-0.66-0.39-1.84,0.2-3.47l2.3-10.48c0.79-1.73,3.74-2.6,8.77-2.6
					c1.65,0,4.37,0.39,8.1,1.16c4.43,0.74,6.96,1.04,8.73,1.04c4.44,0,6.91-2.27,7.7-4.84l3.39,15.76c0.58,1.58,0.65,2.77,0.19,3.43
					c-0.31,0.44-0.88,0.66-1.69,0.66h-3.83v1.57h20.21v-1.57h-3.7C128.53,204.16,127.57,203.06,126.93,199.63z M108.09,183.83
					c-1.37,0-3.94-0.38-7.82-1.16c-3.65-0.85-6.5-1.3-8.23-1.3c-3.61,0-6.35,1.3-8.16,3.86l16.32-76.15l15.46,71.99
					C115.38,182.9,112.84,183.83,108.09,183.83z"/>
				<path class="st1" d="M186.97,201.05h-31.68v-93.28c0-4.72,1.6-4.72,2.13-4.72h4.34v-1.57h-20.21v1.57h4.34
					c0.53,0,2.13,0,2.13,4.72v91.67c0,4.72-1.6,4.72-2.13,4.72h-4.34v1.57h45.5l3.33-9.98h-1.6L186.97,201.05z"/>
				<path class="st1" d="M272.6,199.44v-91.67c0-4.72,1.6-4.72,2.13-4.72h3.05v-1.57h-18.92v1.57h2.4c0.91,0,1.53,0.21,1.84,0.63
					c0.35,0.46,0.36,1.24,0.05,2.3l-24.03,69.54l-24.16-69.55c-0.32-0.83-0.29-1.61,0.08-2.15c0.34-0.5,0.97-0.77,1.81-0.77h2.4
					v-1.57h-18.92v1.57h3.05c0.53,0,2.13,0,2.13,4.72v91.67c0,4.72-1.6,4.72-2.13,4.72h-4.34v1.57h20.21v-1.57h-4.34
					c-0.53,0-2.13,0-2.13-4.72v-78.36l26.21,74.04l26.34-74.05v78.37c0,4.72-1.6,4.72-2.13,4.72h-4.34v1.57h20.21v-1.57h-4.34
					C274.2,204.16,272.6,204.16,272.6,199.44z"/>
				<path class="st1" d="M346.79,199.63L326.71,106c-0.25-1.07-0.18-1.86,0.2-2.35c0.32-0.41,0.89-0.61,1.68-0.61h2.4v-1.57H309.1
					v1.57h2.4c0.79,0,1.36,0.21,1.68,0.61c0.39,0.49,0.45,1.28,0.2,2.35l-20.07,93.62c-0.63,3.42-1.59,4.52-3.95,4.52h-3.7v1.57
					h20.21v-1.57h-3.83c-0.82,0-1.39-0.22-1.69-0.66c-0.46-0.66-0.39-1.84,0.2-3.47l2.3-10.48c0.79-1.73,3.74-2.6,8.77-2.6
					c1.65,0,4.37,0.39,8.1,1.16c4.43,0.74,6.96,1.04,8.73,1.04c4.44,0,6.91-2.27,7.7-4.84l3.39,15.76c0.58,1.58,0.65,2.77,0.19,3.43
					c-0.31,0.44-0.88,0.66-1.69,0.66h-3.83v1.57h20.21v-1.57h-3.7C348.38,204.16,347.42,203.06,346.79,199.63z M327.95,183.83
					c-1.37,0-3.94-0.38-7.82-1.16c-3.65-0.85-6.5-1.3-8.23-1.3c-3.61,0-6.35,1.3-8.16,3.86l16.32-76.15l15.46,71.99
					C335.24,182.9,332.69,183.83,327.95,183.83z"/>
				<path class="st1" d="M402.88,156.33c-3.49-3.21-6.97-6.14-10.63-8.95c-1.5-1.22-2.95-2.37-4.36-3.48
					c-5.76-4.54-10.73-8.45-14.34-13.93c-2.11-3.36-3.18-7-3.18-10.83c0-4,1.45-7.53,4.44-10.78c3.07-3.2,7.39-4.82,12.84-4.82
					c5.49,0,10.03,1.75,13.9,5.36c3.89,3.39,5.95,6.9,6.1,10.44l-3.15,7.38h1.62l5.72-12.9l-0.46-0.91
					c-3.18-6.48-11.34-14.04-23.86-14.04c-7.09,0-13,2.12-17.57,6.3c-4.54,4.15-6.84,9.33-6.84,15.39
					c0,13.24,10.56,20.84,21.75,28.88c11.21,8.06,22.8,16.39,22.8,30.94c0,6.03-1.85,11.32-5.49,15.72
					c-3.54,4.3-8.56,6.48-14.9,6.48c-5.7,0-10.5-1.84-14.67-5.61c-4.05-3.67-6.11-8.73-6.11-15.03c0-5.71,1.75-10.15,5.19-13.22
					c3.6-3.08,7.25-4.58,11.18-4.58c1.13,0,2.21,0.19,3.5,0.62c1.2,0.5,1.68-0.07,1.79-0.26c0.33-0.52,0.1-1.28-0.54-1.85
					c-1.38-1.24-3.56-1.9-6.31-1.9c-4.99,0-9.68,2.03-13.95,6.04c-4.34,3.95-6.45,9.28-6.45,16.3c0,7.11,2.45,12.82,7.49,17.47
					c4.96,4.44,11.26,6.69,18.74,6.69c7.99,0,14.64-2.47,19.78-7.34c5.05-4.92,7.61-11.49,7.61-19.53
					C414.51,171.61,410.16,162.61,402.88,156.33z"/>
			</g>
		</g>
	</g>
</g>
</svg>
