<?xml version="1.0" encoding="utf-8"?>
<!-- Generator: Adobe Illustrator 26.5.0, SVG Export Plug-In . SVG Version: 6.00 Build 0)  -->
<svg version="1.1" id="Capa_1" xmlns="http://www.w3.org/2000/svg" xmlns:xlink="http://www.w3.org/1999/xlink" x="0px" y="0px"
	 viewBox="0 0 520.5 262.94" style="enable-background:new 0 0 520.5 262.94;" xml:space="preserve">
<style type="text/css">
	.st0{fill:#95C133;}
	.st1{fill:#394A1E;}
</style>
<g>
	<g>
		<path class="st0" d="M224.11,33.17c0.54-0.86,1.82-0.76,2.23,0.17c2,4.53,5.51,7.28,9.46,9.66c6.48,3.9,13.69,6.56,19.43,11.73
			c9.33,8.39,11.38,17.22,6.54,28.8c-0.54,1.3-1.16,2.57-1.8,3.82c-3.05,5.92-3.62,6.12-10.12,3.96
			c-13.57-4.51-20-14.84-22.91-28.05c0-0.01,0-0.02-0.01-0.03c-0.17-0.84-1.38-0.76-1.41,0.1c-0.42,10.95,5.52,23.74,22.66,35.29
			c0.67,0.45,0.2,1.5-0.58,1.29C225.55,93.82,204.45,64.19,224.11,33.17z"/>
		<path class="st0" d="M249.68,6.54l0.02,0.77c0.67,5.56-0.91,10.78-3.26,15.83c-2.03,4.35-4.45,8.49-7.49,12.19
			c-2.15,2.62-2.15,4.05,1.15,5.76c5.26,2.72,10.45,5.71,15.26,9.15c8.2,5.86,15.56,12.48,17.42,23.27
			c0.69,4.02-0.18,7.75-1.25,11.74c-0.22,0.8,0.88,1.26,1.31,0.55c6.84-11.43,9.82-28.55,1.48-45.66c-0.36-0.74,0.6-1.41,1.16-0.81
			c4.63,4.94,7.97,10.75,9.69,17.43c3.8,14.81-1.41,26.71-8.9,39.33c-0.36,0.61,1.26,2.63,1.9,2.3
			c26.35-13.46,29.24-39.08,23.63-54.21c-8.4-22.66-26.4-34.23-48.71-40.11c-0.15-0.04-0.31-0.08-0.46-0.12c0,0,0,0,0,0
			c-0.04-0.01-0.07-0.01-0.11-0.02c-0.1-0.01-0.21-0.02-0.31-0.02c-0.24,0-0.47,0.03-0.69,0.09c-0.24,0.09-0.8,0.34-1.25,0.93
			C249.76,5.6,249.69,6.29,249.68,6.54"/>
	</g>
	<g>
		<path class="st1" d="M31.68,247.17c0-3.06-2.13-5.12-5.31-5.12h-6.74v16.67h2.48v-6.44h2.87l4.06,6.33l0.07,0.11h2.94l-4.41-6.66
			C29.71,251.73,31.68,250.13,31.68,247.17z M22.11,250.04v-5.73h4.02c1.79,0,3,1.15,3,2.85c0,1.69-1.23,2.88-3,2.88H22.11z"/>
		<polygon class="st1" points="39.25,258.72 50.33,258.72 50.33,256.45 41.74,256.45 41.74,251.34 50.16,251.34 50.16,249.07 
			41.74,249.07 41.74,244.31 50.33,244.31 50.33,242.05 39.25,242.05 		"/>
		<path class="st1" d="M63.75,248.84c-2-0.54-3.72-1.01-3.72-2.42c0-1.38,1.27-2.34,3.09-2.34c1.82,0,3.42,0.66,4.52,1.86l0.18,0.2
			l1.52-1.85l-0.14-0.15c-1.47-1.55-3.46-2.33-5.93-2.33c-3.36,0-5.8,1.99-5.8,4.73c0,3.3,2.95,4.11,5.55,4.81
			c2.17,0.59,4.04,1.1,4.04,2.84c0,1.24-0.94,2.56-3.58,2.56c-2.54,0-4.18-1.4-4.93-2.23l-0.19-0.21l-1.48,1.9l0.13,0.15
			c1.07,1.21,3.05,2.65,6.39,2.65c4.58,0,6.21-2.58,6.21-4.99C69.62,250.43,66.36,249.55,63.75,248.84z"/>
		<rect x="77.02" y="242.05" class="st1" width="2.48" height="16.67"/>
		<path class="st1" d="M93.46,242.05h-5.77v16.67h5.77c5.03,0,8.54-3.42,8.54-8.32C102,245.48,98.49,242.05,93.46,242.05z
			 M93.46,256.45h-3.29v-12.14h3.29c3.58,0,5.98,2.44,5.98,6.08C99.44,254.02,97.04,256.45,93.46,256.45z"/>
		<polygon class="st1" points="109.54,258.72 120.63,258.72 120.63,256.45 112.03,256.45 112.03,251.34 120.46,251.34 
			120.46,249.07 112.03,249.07 112.03,244.31 120.63,244.31 120.63,242.05 109.54,242.05 		"/>
		<polygon class="st1" points="139.61,254.23 130.71,242.14 130.64,242.05 128.22,242.05 128.22,258.72 130.71,258.72 
			130.71,246.28 139.73,258.62 139.8,258.72 142.1,258.72 142.1,242.05 139.61,242.05 		"/>
		<path class="st1" d="M162.44,254.49c-0.93,1.39-2.56,2.25-4.25,2.25c-3.48,0-6.01-2.67-6.01-6.35c0-3.68,2.53-6.35,6.01-6.35
			c1.68,0,3.31,0.86,4.25,2.25l0.12,0.18l2.12-1.18l-0.15-0.21c-1.07-1.51-3.03-3.31-6.34-3.31c-4.96,0-8.57,3.62-8.57,8.61
			c0,4.99,3.6,8.61,8.57,8.61c2.6,0,4.74-1.11,6.36-3.3l0.16-0.22l-2.15-1.18L162.44,254.49z"/>
		<rect x="171.55" y="242.05" class="st1" width="2.48" height="16.67"/>
		<path class="st1" d="M189.95,242.05h-2.82l-6.7,16.67h2.81l1.43-3.59h7.75l1.43,3.59h2.81L190,242.2L189.95,242.05z
			 M185.44,252.86l3.1-7.85l3.08,7.85H185.44z"/>
		<polygon class="st1" points="205.54,242.05 203.06,242.05 203.06,258.72 213.07,258.72 213.07,256.45 205.54,256.45 		"/>
		<path class="st0" d="M238.17,242.05h-6.74v16.67h2.48v-6.44h4.26c3.13,0,5.31-2.1,5.31-5.12
			C243.48,244.15,241.3,242.05,238.17,242.05z M237.93,250.02h-4.02v-5.7h4.02c1.79,0,3,1.15,3,2.85
			C240.93,248.87,239.72,250.02,237.93,250.02z"/>
		<path class="st0" d="M261.74,252.15c0,2.92-1.59,4.6-4.36,4.6c-2.77,0-4.36-1.68-4.36-4.6v-10.1h-2.48v10.14
			c0,4.33,2.49,6.82,6.84,6.82c4.35,0,6.84-2.49,6.84-6.84v-10.12h-2.48V252.15z"/>
		<polygon class="st0" points="272.4,258.72 283.49,258.72 283.49,256.45 274.89,256.45 274.89,251.34 283.32,251.34 283.32,249.07 
			274.89,249.07 274.89,244.31 283.49,244.31 283.49,242.05 272.4,242.05 		"/>
		<path class="st0" d="M303.14,247.17c0-3.06-2.13-5.12-5.31-5.12h-6.74v16.67h2.48v-6.44h2.87l4.06,6.33l0.07,0.11h2.94l-4.4-6.66
			C301.17,251.73,303.14,250.13,303.14,247.17z M293.57,250.04v-5.73h4.02c1.79,0,3,1.15,3,2.85c0,1.69-1.23,2.88-3,2.88H293.57z"/>
		<polygon class="st0" points="309.35,244.31 314.47,244.31 314.47,258.72 316.96,258.72 316.96,244.31 322.11,244.31 
			322.11,242.05 309.35,242.05 		"/>
		<path class="st0" d="M336.13,241.78c-4.79,0-8.27,3.62-8.27,8.61c0,4.99,3.48,8.61,8.27,8.61c4.79,0,8.27-3.62,8.27-8.61
			C344.4,245.41,340.92,241.78,336.13,241.78z M336.13,256.75c-3.42,0-5.72-2.55-5.72-6.35c0-3.8,2.3-6.35,5.72-6.35
			c3.42,0,5.72,2.55,5.72,6.35C341.85,254.14,339.49,256.75,336.13,256.75z"/>
		<polygon class="st0" points="371.23,253.87 366.42,242.19 366.36,242.05 363.07,242.05 363.07,258.72 365.56,258.72 
			365.56,246.33 370.6,258.57 370.66,258.72 371.8,258.72 376.92,246.33 376.92,258.72 379.4,258.72 379.4,242.05 376.12,242.05 		
			"/>
		<path class="st0" d="M395.2,241.78c-4.79,0-8.27,3.62-8.27,8.61c0,4.99,3.48,8.61,8.27,8.61s8.27-3.62,8.27-8.61
			C403.48,245.41,400,241.78,395.2,241.78z M395.2,256.75c-3.42,0-5.72-2.55-5.72-6.35c0-3.8,2.3-6.35,5.72-6.35
			s5.72,2.55,5.72,6.35C400.92,254.14,398.57,256.75,395.2,256.75z"/>
		<path class="st0" d="M423.08,247.17c0-3.06-2.13-5.12-5.31-5.12h-6.74v16.67h2.48v-6.44h2.87l4.06,6.33l0.07,0.11h2.94l-4.4-6.66
			C421.11,251.73,423.08,250.13,423.08,247.17z M413.51,250.04v-5.73h4.02c1.79,0,3,1.15,3,2.85c0,1.69-1.23,2.88-3,2.88H413.51z"/>
		<polygon class="st0" points="430.65,258.72 441.73,258.72 441.73,256.45 433.13,256.45 433.13,251.34 441.56,251.34 
			441.56,249.07 433.13,249.07 433.13,244.31 441.73,244.31 441.73,242.05 430.65,242.05 		"/>
		<polygon class="st0" points="451.81,242.05 449.33,242.05 449.33,258.72 459.34,258.72 459.34,256.45 451.81,256.45 		"/>
		<path class="st0" d="M473.36,241.78c-4.79,0-8.27,3.62-8.27,8.61c0,4.99,3.48,8.61,8.27,8.61c4.79,0,8.27-3.62,8.27-8.61
			C481.64,245.41,478.16,241.78,473.36,241.78z M473.36,256.75c-3.42,0-5.72-2.55-5.72-6.35c0-3.8,2.3-6.35,5.72-6.35
			c3.42,0,5.72,2.55,5.72,6.35C479.08,254.14,476.73,256.75,473.36,256.75z"/>
		<path class="st0" d="M495,248.84c-2-0.54-3.72-1.01-3.72-2.42c0-1.38,1.27-2.34,3.09-2.34c1.82,0,3.42,0.66,4.52,1.86l0.18,0.2
			l1.52-1.85l-0.14-0.15c-1.47-1.55-3.46-2.33-5.93-2.33c-3.36,0-5.8,1.99-5.8,4.73c0,3.3,2.95,4.11,5.55,4.81
			c2.17,0.59,4.04,1.1,4.04,2.84c0,1.24-0.94,2.56-3.58,2.56c-2.54,0-4.18-1.4-4.93-2.23l-0.19-0.21l-1.48,1.9l0.13,0.15
			c1.07,1.21,3.05,2.65,6.39,2.65c4.58,0,6.21-2.58,6.21-4.99C500.87,250.43,497.62,249.55,495,248.84z"/>
	</g>
	<g>
		<g>
			<g>
				<g>
					<path class="st1" d="M517.14,203.9l-1.12-1.75h-0.88v1.75h-0.55v-4.41h1.77c0.81,0,1.38,0.52,1.38,1.33
						c0,0.79-0.54,1.23-1.14,1.28l1.19,1.8H517.14z M517.17,200.81c0-0.5-0.36-0.84-0.88-0.84h-1.16v1.69h1.16
						C516.81,201.66,517.17,201.31,517.17,200.81z"/>
				</g>
				<path class="st1" d="M519.53,200.25c-0.19-0.44-0.45-0.82-0.78-1.15c-0.33-0.32-0.71-0.57-1.16-0.75
					c-0.44-0.18-0.91-0.27-1.41-0.27c-0.5,0-0.97,0.09-1.41,0.27c-0.44,0.18-0.83,0.43-1.15,0.75c-0.33,0.32-0.59,0.7-0.78,1.15
					c-0.19,0.44-0.29,0.93-0.29,1.45c0,0.52,0.1,0.99,0.29,1.43c0.19,0.44,0.45,0.82,0.78,1.14c0.33,0.32,0.71,0.57,1.15,0.76
					c0.44,0.18,0.91,0.28,1.41,0.28c0.5,0,0.97-0.09,1.41-0.28c0.44-0.18,0.83-0.44,1.16-0.76c0.33-0.32,0.59-0.7,0.78-1.14
					c0.19-0.44,0.29-0.91,0.29-1.43C519.82,201.17,519.73,200.69,519.53,200.25z M519.03,202.93c-0.16,0.38-0.37,0.71-0.65,0.98
					c-0.28,0.28-0.61,0.49-0.98,0.65c-0.38,0.16-0.78,0.24-1.22,0.24c-0.43,0-0.84-0.08-1.22-0.24c-0.38-0.16-0.7-0.37-0.98-0.65
					c-0.28-0.28-0.49-0.6-0.65-0.98c-0.16-0.38-0.23-0.79-0.23-1.23c0-0.45,0.08-0.87,0.23-1.24c0.16-0.38,0.37-0.71,0.65-0.98
					c0.28-0.28,0.6-0.49,0.98-0.65c0.38-0.16,0.78-0.23,1.22-0.23c0.43,0,0.84,0.08,1.22,0.23c0.38,0.16,0.7,0.37,0.98,0.65
					c0.28,0.28,0.49,0.6,0.65,0.98c0.16,0.38,0.23,0.79,0.23,1.24C519.27,202.14,519.19,202.55,519.03,202.93z"/>
			</g>
			<path class="st1" d="M416.07,169.32c0.32,0.12,0.65,0.18,0.99,0.18c1.54,0,3.1-1.24,3.84-3.19c0.41-1.08,0.49-2.22,0.24-3.21
				c-0.28-1.08-0.96-1.9-1.86-2.24c-0.9-0.34-1.95-0.18-2.87,0.45c-0.85,0.57-1.54,1.48-1.95,2.56c-0.41,1.08-0.49,2.22-0.24,3.21
				C414.49,168.16,415.17,168.98,416.07,169.32z"/>
			<path class="st1" d="M211.06,216.41l-0.01-1.6c0,0,0-0.01,0-0.01C211.05,214.75,211.05,216.46,211.06,216.41z"/>
			<path class="st1" d="M509.6,186.22c-0.19-0.05-0.56-0.05-0.92,0.36c-0.84,0.94-4.75,5.82-6.62,8.16
				c-2.4,2.21-4.48,3.16-5.38,2.94c-0.93-0.23-1.63-1.12-2.25-2.86c0,0-0.08-0.27-0.19-0.62c-0.49-3.05,0-4.53,0.01-4.57
				c2.38-8.25,2.41-10.03,2.41-10.24c0.04-0.5,0.03-0.95-0.02-1.37c-0.48-3.84-2.75-5.88-2.84-5.96c-1.94-1.81-4.08-2.91-6.34-3.26
				c-2.26-0.35-4.78,0.07-7.52,1.23l-0.11,0.05c-2.17,1.16-4.2,2.83-6.03,4.94c-1.82,2.1-3.39,4.47-4.65,7.03
				c-0.52,1.07-0.98,2.17-1.37,3.29c-1.36,2.02-3.6,5.07-6.3,8.22c-5.32,6.21-7.64,6.76-8.02,6.8c-0.21-0.25-0.99-1.44-0.99-5.85
				l0-2.2c0-2.02,0-4.12,0.01-6.22c0.22-3.91,0.56-7.8,1.08-11.64l6.83-12.53c2.59-4.53,15.34-27.43,12.37-33.88
				c-0.4-0.87-1.07-1.5-1.93-1.82c-0.05-0.08-0.13-0.15-0.22-0.2c-2.37-1.18-4.93-0.34-7.83,2.57c-2.72,2.72-11.16,16.63-14.4,44.06
				c-7.1,0.47-13.11,4.68-16.11,10.61l-0.16,0.2c-9.14,11.11-14.39,12.46-14.47,12.48l-0.01,0c-0.85,0.21-1.44,0.16-1.83-0.14
				c-0.6-0.48-0.87-1.69-0.84-3.72c0.02-1.41,0.57-4.11,1.15-6.97c0.99-4.87,2.01-9.91,1.16-11.6c-0.25-0.5-1.01-1.08-1.96-1.19
				c-0.97-0.14-1.9,0.27-2.61,1.1l-0.09,0.1c-0.61,0.7-1.31,1.49-2.53,6.39c-0.16,0.66-0.31,1.34-0.44,2.04
				c-1.26,3.67-2.8,5.91-2.92,6.08c-1.22,1.66-2.72,3.57-4.4,5.53c-5.32,6.21-7.64,6.76-8.02,6.8c-0.21-0.25-0.99-1.44-0.99-5.85
				l0-2.22c0-2.02,0-4.11,0.01-6.2c0.22-3.91,0.56-7.81,1.08-11.65l6.83-12.53c2.59-4.53,15.34-27.43,12.37-33.88
				c-0.4-0.87-1.07-1.49-1.93-1.82c-0.05-0.08-0.13-0.15-0.22-0.2c-2.37-1.18-4.93-0.34-7.83,2.57
				c-2.72,2.72-11.16,16.63-14.4,44.06c-8.67,0.57-15.7,6.72-17.62,14.75c-0.57,1.77-1.53,4.62-1.85,5.55
				c-1.01,1.77-2.12,3.52-3.11,4.62c-1.11,1.25-2.26,1.81-3.08,1.48c-0.75-0.3-1.18-1.33-1.14-2.69c0.03-0.67,0.67-15.55-1.53-19.78
				c-0.8-1.53-1.99-2.42-3.46-2.57c-2.57-0.24-5.86,1.81-9,5.69c-2.36,2.92-4.03,5.82-5.24,7.95c-0.71,1.24-1.5,2.63-1.91,3.08
				c0.04-1.45,1.38-6.52,2.8-11.07c0.13-0.36,1.2-3.57,0.06-4.92c-0.29-0.35-0.87-0.73-1.91-0.54c-2.01,0.45-4.01,4.48-5,6.79
				c-4.87,4.62-9.31,6.31-10.98,6.8c1.7-3.04,2.68-5.9,2.82-6.77l0.02,0.01c0.36-0.97,0.54-1.99,0.54-3.04
				c0-4.83-3.93-8.76-8.76-8.76c-1.5,0-2.99,0.39-4.31,1.13c-4.41,2.2-8.83,6.55-10.76,8.58c-0.79,0.7-1.43,1.34-2.26,2.34
				c-0.45,0.55-0.84,1.09-1.2,1.62c-4.47,5.01-14.16,14.8-21.52,14.8c-0.21,0-0.42-0.01-0.63-0.02c-1.96-0.14-3.41-0.87-4.33-2.16
				c-2.11-2.97-0.79-8-0.77-8.09c0.01-0.1,1.53-9.93,8.04-13.32c0.68-0.33,1.26-0.34,1.54-0.04c0.34,0.37,0.26,1.14-0.21,1.95
				c-0.16,0.28-0.33,0.56-0.5,0.84c-0.97,1.59-2.06,3.4-2.21,6.12c-0.01,0.54,0.08,1.37,0.57,2.26c0.71,1.24,2.27,1.69,3.56,1.04
				c0.16-0.08,0.32-0.17,0.48-0.27c0.66-0.39,1.26-0.87,1.79-1.43c0.26-0.24,4.13-3.99,3.58-10.14c-0.18-2.03-0.9-3.56-2.13-4.54
				c-1.82-1.44-4.08-1.14-4.14-1.13c-0.23,0-4.98,0.15-9.43,5.25l-2.2,1.31l-11.78,7.09c-0.6,0.32-1.2,0.64-1.8,0.97l-4.35-3.04
				c-0.76-0.49-1.43-0.95-2.04-1.4c-0.63-0.47-1.28-0.97-1.94-1.5c-0.72-0.62-0.99-1.27-0.8-1.99c0.2-0.77,0.79-1.38,1.82-1.87
				c0.91-0.49,1.84-0.62,2.84-0.41c1,0.21,1.88,0.66,2.62,1.33c0.21,0.27,0.4,0.55,0.58,0.82l0.09,0.14
				c0.28,0.41,0.65,0.68,1.07,0.74c0.37,0.06,0.71-0.04,1.02-0.29c2.3-1.83-0.4-5.34-0.53-5.51c-2.27-2.55-5.03-3.33-8.46-2.36
				c-1.67,0.56-3.09,1.38-4.25,2.43c-1.17,1.07-1.98,2.44-2.41,4.09c-0.79,3.45,0.34,6.07,3.35,7.81c0.64,0.37,2.37,1.46,3.63,2.25
				c0.59,0.37,1.09,0.69,1.38,0.86c0.05,0.03,0.33,0.2,0.71,0.47l0.51,0.31c-18.74,10.78-35.98,23.69-36.16,23.78
				c-0.27,0.13-0.39,0.12-0.39,0.13c-0.03-0.04-0.06-0.19-0.05-0.34v-30.94c0.34-0.35,1.66-1.56,5.13-3.65
				c3.21-1.93,11.22-6.28,14.53-8.06l1.22-0.63c1.62-0.81,2.71-1.4,2.98-2.05c0.23-0.55,0.35-1.37-0.05-1.9
				c-0.21-0.27-0.53-0.42-0.9-0.42c-0.2-0.02-0.75,0.1-1.03,0.16c-4.35,0.58-20.66,7.6-21.66,8.18c-0.06,0.03-0.11,0.05-0.13,0.07
				c-0.04-0.13-0.05-3.92-0.02-4.18c0-0.25-0.05-24.85,0-26.65l0.01-0.57c0.01-1.31,0.01-1.51,1.73-2.18
				c9.96-4.09,31.99-3.87,32.21-3.87c1.07,0,1.95-0.8,1.95-1.78c0-0.92-0.64-1.56-1.75-1.76c-0.06-0.01-6.57-1.43-16.87-1.14
				c-10.3,0.28-22.98,3.62-23.11,3.65l-1.21,1.01l-0.45,81.39l0,0.25c0.01,2.06,1.84,3.73,4.1,3.73c1.12,0,2.16-0.41,2.94-1.15
				c3.7-2.91,5.53-4.59,5.62-4.67c14.72-11.32,24.44-17.55,31.29-21.37l0.11,0.23c-0.03,0.02-0.07,0-0.1-0.03
				c-0.04-0.04-0.04-0.1-0.02-0.13l-0.57,1.18c-0.54,1.09-1.1,2.22-1.47,3.41c-2.67,8.58,2.77,10.55,2.88,10.58
				c0.39,0.09,0.77,0.13,1.15,0.13c1.36,0,2.69-0.56,4.05-1.7c0.18-0.16,4.4-3.94,4.33-10.89c-0.02-2.4-0.47-4.44-1.48-6.83
				l-0.15-0.35c2.83-1.29,4.93-2.16,6.85-3.31c-1.5,4-1.74,6.82-1.74,6.84c-0.04,0.18-0.89,4.51,1.82,8.02
				c2.15,2.79,5.66,4.25,10.19,4.25c0.35,0,0.7-0.01,1.06-0.03c5.06-0.24,8.51-2.85,11.56-5.15c1.98-1.49,3.77-3.2,5.38-5.11
				c-0.01,0.07-0.02,0.16-0.02,0.22c-0.02,0.43-0.01,0.67,0,0.68c0,5.02,4.09,9.11,9.11,9.11c1.22,0,2.4-0.24,3.51-0.7
				c1.24-0.48,3.31-1.53,6.17-3.82c1.12-0.89,2.21-1.87,3.24-2.93c0.71-0.32,1.43-0.58,2.19-0.78c6.09-2.41,10.64-5.34,12.52-6.64
				c-0.5,2.84-1,6.42-1.01,9.56c-0.02,4.28,1.43,5.37,2.29,5.63c1.29,0.4,2.8-0.44,4.04-2.24c2.18-3.19,11.1-17.39,11.17-17.51
				c0.47-0.65,1.94-2.34,3.07-2.37c0.34,0.03,0.59,0.13,0.83,0.43c0.72,0.89,0.58,4.06,0.43,7.42c-0.17,3.86-0.36,8.23,0.53,11.51
				c1.08,4,2.9,5.39,4.24,5.86c0.46,0.16,0.94,0.24,1.43,0.24c1.19,0,2.45-0.46,3.66-1.37c2.2-1.64,4.63-4.84,5.96-6.7
				c1.06,1.98,3.13,3.27,5.5,3.27c2,0,4.48-1.75,5.66-2.93c1.2-1.2,2.9-3.3,4.38-5.68c-0.01,0.6-0.01,1.2-0.01,1.8
				c0,2.41,0,9.74,4.92,11.21c0.51,0.15,1.05,0.23,1.6,0.23c3.33,0,7.25-2.8,12.36-8.81c0.7-0.83,1.38-1.66,2.02-2.47
				c0.19,1.89,0.74,4.26,2.26,5.78c1,0.99,2.28,1.49,3.81,1.49c0.23,0,0.47-0.01,0.71-0.03c5.86-0.55,12.33-6.13,14.88-8.54
				c0.08,1.16,0.24,2.27,0.47,3.12c0.65,2.84,3.16,4.82,6.1,4.82c2,0,4.48-1.75,5.66-2.93c1.2-1.2,2.9-3.3,4.38-5.68
				c-0.01,0.6-0.01,1.2-0.01,1.8c0,2.41,0,9.74,4.93,11.21c0.51,0.15,1.05,0.23,1.59,0.23c3.33,0,7.25-2.8,12.36-8.81
				c0.19-0.23,0.36-0.47,0.55-0.7c0.06,0.45,0.14,0.9,0.25,1.35c0.5,1.85,1.32,3.2,2.45,4.01c1.12,0.8,2.42,1.19,3.81,1.15
				c1.36-0.04,2.83-0.39,4.35-1.05c1.5-0.65,2.98-1.48,4.41-2.47c1.41-0.98,2.77-2.08,4.03-3.28c0.88-0.84,1.67-1.66,2.36-2.49
				c0.38,1.7,1,3.38,1.46,4.52c0.49,1.2,1.22,2.25,2.11,3.06c1.04,0.94,2.21,1.51,3.47,1.7c0.46,0.07,0.93,0.1,1.4,0.1
				c1.46,0,2.95-0.33,4.42-0.97c0.15-0.04,3.84-0.98,7.69-7.41c0.55-1.11,0.93-1.83,1.17-2.7c0.87-2.68,0.85-4.13,0.59-5.02
				C510.12,186.41,509.78,186.26,509.6,186.22z M464.12,136.82L464.12,136.82l0.11-0.22c1.34-2.88,3.5-5.71,4.75-6.27
				c0.17,2.51-2.49,12.32-12.33,29.53l-0.7,1.29C458.48,150.19,461.74,141.95,464.12,136.82z M404.96,136.81L404.96,136.81
				l0.11-0.21c1.34-2.88,3.5-5.71,4.75-6.27c0.17,2.51-2.49,12.32-12.33,29.53l-0.7,1.29C399.32,150.19,402.58,141.94,404.96,136.81
				z M259.93,196.04l-0.08,0.56c-0.18,1.08-0.99,4.19-2.37,4.03c-0.2-0.02-0.34-0.11-0.47-0.31c-0.66-1.02-0.27-3.88,0.07-4.87
				l0.17-0.5c0.36-1.11,1.19-3.65,2.22-3.65c0.05,0,0.11,0.01,0.17,0.02C260.62,191.59,260.12,194.82,259.93,196.04z M313.88,194.15
				L313.88,194.15c-0.35,0.38-0.94,0.94-1.85,1.5l-0.04-0.02l-0.16,0.11c-0.82,0.59-1.79,0.91-2.8,0.91c-2.63,0-4.77-2.14-4.77-4.8
				l0.02-0.25c0.01-0.16,0.02-0.32,0.05-0.5c0.18-1.48,0.93-5.2,4-8.95c0.05,1,0.25,2.76,0.99,4.78c0.93,2.56,2.43,4.73,4.47,6.47
				l0.06,0.05c0.1,0.08,0.16,0.2,0.17,0.33C314.02,193.92,313.98,194.05,313.88,194.15z M323.67,179.24
				c-0.32,3.53-1.41,6.5-3.25,8.83c-0.2,0.26-0.41,0.52-0.65,0.79c-0.05,0.07-0.1,0.13-0.17,0.19l-0.04,0.04
				c-0.26,0.23-0.61,0.34-0.96,0.31h0c-0.17-0.01-0.34-0.06-0.5-0.14l-0.14-0.05l-0.09-0.04c-0.15-0.07-0.18-0.09-0.38-0.22
				c-2.12-1.44-3.39-3.82-3.39-6.38c0-2.62,1.31-5.03,3.51-6.46c0.89-0.58,1.65-0.87,2.3-0.89l0.02,0.01l0.23-0.01
				c0.81,0,1.57,0.27,2.23,0.81c0.78,0.53,1.24,1.31,1.33,2.26l0.02,0.33C323.73,178.81,323.71,179.01,323.67,179.24z M388.12,181.8
				c-2.52,7.87-8.12,15.61-10.26,15.11c-1.27-0.19-1.32-2.53-1.32-2.55c0-6.65,2.89-12.27,7.73-15.04c1.53-0.91,2.49-1.17,3.07-1.17
				c0.19,0,0.34,0.03,0.45,0.07c0.24,0.08,0.43,0.23,0.55,0.48C388.26,179.72,388.19,180.75,388.12,181.8z M447.28,181.8
				c-2.52,7.87-8.13,15.61-10.26,15.11c-1.27-0.19-1.32-2.53-1.32-2.55c0-6.65,2.89-12.27,7.73-15.04c1.53-0.91,2.49-1.17,3.07-1.17
				c0.19,0,0.34,0.03,0.46,0.07c0.24,0.08,0.42,0.23,0.55,0.48C447.43,179.72,447.35,180.75,447.28,181.8z M491.05,179.64
				c-0.01,0.07-0.02,0.18-0.04,0.31c-0.07,0.5-0.2,0.97-0.4,1.44c-0.61,1.7-2.05,4.6-5.42,8.79c-3.49,4.33-6.6,5.8-8.65,6.28
				c-0.59,0.22-1.16,0.28-1.77,0.18l-0.13-0.03c-0.2-0.05-0.36-0.1-0.49-0.17c-0.73-0.36-1.27-1.06-1.55-2.05l-0.05-0.13
				c-0.24-0.79-1.74-6.53,3.39-13.25c3.83-4.91,7.33-7.36,10.11-7.11l0.22,0.05c2.74,0.25,4.8,2.52,4.8,5.27l-0.01,0.23
				L491.05,179.64z"/>
		</g>
		<path class="st1" d="M179.43,189.53c-0.16-0.54-0.5-0.69-0.68-0.73c-0.19-0.05-0.56-0.05-0.92,0.36
			c-0.54,0.61-2.38,2.88-4.11,5.04c-0.73,0.9-1.19,1.34-1.83,1.98c-2.66,2.66-5.3,3.63-6.28,3.41c-0.93-0.23-1.63-1.12-2.25-2.86
			c0,0-0.08-0.27-0.19-0.62c-0.49-3.05,0-4.53,0.01-4.57c0.6-2.1,2.42-8.57,2.38-10.19l0.02,0c0.04-0.52,0.04-0.99-0.02-1.42
			c-0.48-3.84-2.75-5.88-2.84-5.96c-1.54-1.44-3.2-2.4-4.95-2.93l0.14-0.07l-0.93-0.12c-0.2-0.04-0.39-0.11-0.59-0.14
			c-0.79-0.12-1.62-0.12-2.47-0.05c-8.19,0.06-18.6,4.74-24.03,9.7c-7.53,6.88-11.05,14.17-12.21,16.98l-0.43,1.02
			c-0.12,0.24-0.21,0.38-0.27,0.46c-0.58-0.99-0.88-6.32-0.82-10.98c0.05-1.92,0.2-11.56-1.56-12.8c-0.28-0.19-0.6-0.23-0.82-0.14
			c-0.55,0.09-2.91,1.09-3.18,11.11c-0.03,0.08-0.07,0.14-0.11,0.22c-0.27,0.37-3.44,4.62-7.47,8.79c-2.85,2.94-5.31,4.98-7.22,6.03
			c-0.7,0.25-1.29,0.23-1.78-0.07c-1.21-0.72-1.96-3.14-2.11-6.79c0.01-3.59,0.18-7.21,0.5-10.75l11.99-20.05
			c10.26-18.71,14.19-30.55,11.68-35.18c-0.69-1.26-1.85-2.1-3.28-2.35c-4.16-0.75-7.56,3.72-9.17,6.38
			c-2.05,2.43-5.1,6.72-7.94,13.33c-3.63,8.44-8.22,22.1-9.54,39.31l-0.82,2.03c-0.01,0.02-0.03,0.05-0.05,0.08
			c-0.27,0.48-0.5,0.9-0.71,1.15c-0.61,0.7-1.26,1.49-1.93,2.29c-1.7,2.05-3.62,4.37-5.29,5.83c-2.3,2.03-4.59,3.66-6.8,4.85
			c-2.13,1.15-4.03,1.52-5.69,1.08c-1.15-0.25-2.08-0.76-2.83-1.58c-0.76-0.83-1.34-1.79-1.71-2.88c-0.37-1.07-0.51-2.27-0.42-3.54
			c0.09-1.18,0.37-2.3,0.86-3.35c1.59-0.04,3.38-0.39,5.32-1.05c2.04-0.69,4.03-1.62,5.9-2.74c1.88-1.13,3.6-2.48,5.12-4
			c1.54-1.55,2.63-3.22,3.24-5c0.68-2.26,0.66-4.2-0.07-5.74c-0.64-1.33-1.64-2.26-2.95-2.82c-2.19-1.15-6.09-2.27-13.05-2.87
			c-12.06,0.37-22.88,5.02-22.88,5.02c-1.74-2.07-3.85-3.94-6.27-5.56c-0.07-0.05-6.72-4.83-16.01-9.74
			c-4.53-2.45-6.93-5.3-7.12-8.47c-0.37-5.98,7.2-11.26,7.28-11.32c5.45-3.91,10.64-5.44,15.43-4.55c6.97,1.3,10.74,7.4,10.76,7.44
			c0.53,1,1.16,1.22,1.6,1.22c0.01,0,0.01,0,0.02,0c0.62-0.01,1.19-0.45,1.56-1.2c0.8-1.64,0.58-4.4-1.38-6.48
			c-0.12-0.14-12.59-14-31.54-0.61c-6.07,4.29-9.74,8.56-11.18,12.99c-0.05,0.09-4.84,9.43,10.74,18.43
			c9.84,5.4,17.84,10.86,17.95,12.19c-14.92,8.93-24.2,20.12-24.29,20.24l-0.19,0.24c-0.71,0.8-1.42,1.6-2.11,2.44
			c-1.23,1.6-2.35,3.33-3.34,5.15c-0.98,1.82-1.74,3.77-2.26,5.81c-0.67,3.03-0.41,5.55,0.76,7.51c1.19,2,3.23,3.18,6.07,3.54
			c0.03,0,0.58,0.06,1.56,0.06c3.95,0,14.8-0.94,25.86-10.14c3.11-2.59,5.75-5.51,7.85-8.68c1.7-2.57,2.75-4.84,3.37-7.33
			c0.12-0.39,2.84-9.51-2.17-18.84c6.95-3.17,13.68-5.1,17.51-5.1c2.57,0,4.15,0.17,4.95,0.27c-8.16,5.11-12.07,17.43-12.27,18.1
			c-1.12,4.15-0.85,8.48,0.73,11.84c0.75,1.77,1.85,3.2,3.28,4.22c1.42,1.02,3.13,1.71,5.09,2.05c0.54,0.08,1.08,0.12,1.63,0.12
			c1.3,0,2.61-0.23,3.92-0.68c1.82-0.63,3.66-1.55,5.48-2.75c1.8-1.19,3.58-2.59,5.29-4.17c1.17-1.08,3.89-4.26,5.86-6.92
			c-0.01,0.52-0.02,1.05-0.02,1.57c-0.01,2.73-0.03,11.04,5.87,12.69c0.63,0.17,1.28,0.26,1.95,0.26c3.81,0,8.28-2.79,14.06-8.76
			c1.27-1.31,2.35-2.65,3.26-3.91c0.21,1.79,0.53,4.29,0.71,5.06c1.16,4.88,4.62,5.11,5.24,5.11c0.06,0,0.1,0,0.1,0
			c3.46,0,5.16-3.31,7.3-7.49c2.8-5.46,6.54-12.72,16.13-17.46c-0.86,1.27-1.64,2.59-2.32,3.98c-1.17,2.38-2.02,4.9-2.54,7.49
			c-0.04,0.17-1.02,4.32-0.06,8.27c0.5,1.86,1.32,3.2,2.45,4.01c1.12,0.8,2.42,1.21,3.81,1.15c1.36-0.04,2.83-0.39,4.35-1.05
			c1.5-0.65,2.98-1.48,4.41-2.47c1.42-0.98,2.77-2.08,4.03-3.28c0.88-0.84,1.66-1.66,2.36-2.48c0.38,1.69,1,3.38,1.46,4.51
			c0.5,1.22,1.21,2.25,2.11,3.06c1.04,0.94,2.21,1.51,3.47,1.7c0.46,0.07,0.93,0.1,1.4,0.1c1.46,0,2.95-0.33,4.42-0.97
			c0.15-0.04,3.72-0.97,7.51-7.12C179.22,194.01,179.78,190.72,179.43,189.53z M101.32,147.74c4.45-10.39,8.92-16.41,9.35-17
			c0.55-0.47,0.94-0.65,1.14-0.67c0,0.01,0,0.01,0.01,0.02c0.28,0.52,2.33,5.79-11.63,31.26l-6.11,10.22
			C95.68,163.24,98.11,155.23,101.32,147.74z M38.42,194.44l-0.01,0.02c-5.15,12.66-18.86,19.21-25.09,19.32
			c-1.27,0.04-2.95-0.2-3.49-1.39c-1.75-3.87,0.4-8.02,1.4-9.61c1.28-1.9,2.4-3.33,2.4-3.33c1.56-1.87,3.35-3.82,5.33-5.81
			c0.2-0.2,0.4-0.39,0.6-0.58l0.43-0.41c3.52-3.39,7.27-6.48,11.12-9.17c1-0.66,1.85-1.18,2.6-1.6h0c0.22-0.12,0.47-0.28,0.74-0.45
			c0.59-0.38,1.47-0.93,1.93-0.93c0.03,0,0.06,0,0.08,0.01c0.02,0,0.05,0.04,0.08,0.06l0.09,0.11
			C36.69,180.72,40.95,186.25,38.42,194.44z M62.78,185.6c0.53-1.32,1.18-2.53,1.91-3.61c1.03-1.51,2.22-2.95,3.53-4.26
			c0.48-0.48,1-0.9,1.54-1.23c0.54-0.34,1.14-0.67,1.78-0.99c0.57-0.29,1.27-0.43,2.15-0.44c0.85-0.11,1.44,0.1,1.82,0.63
			c0.39,0.54,0.41,1.2,0.09,2.02c-0.23,0.58-0.49,1.02-0.81,1.34c-1.3,1.81-2.87,3.3-4.66,4.45c-1.81,1.16-3.78,2.14-5.85,2.89
			c-0.25,0.1-0.57,0.14-0.94,0.11c-0.21-0.02-0.4-0.13-0.51-0.31C62.72,186.03,62.7,185.81,62.78,185.6z M159.97,181.51
			c-0.01,0.08-0.02,0.18-0.05,0.33c-0.07,0.5-0.2,0.97-0.41,1.44c-0.61,1.7-2.05,4.6-5.42,8.79c-3.5,4.33-6.6,5.8-8.65,6.28
			c-0.6,0.22-1.18,0.29-1.8,0.18l-0.09-0.02c-0.21-0.05-0.36-0.11-0.5-0.17c-0.73-0.36-1.27-1.06-1.55-2.05l-0.05-0.13
			c-0.24-0.79-1.74-6.53,3.39-13.25c3.83-4.91,7.31-7.34,10.11-7.11l0.22,0.05c2.74,0.25,4.8,2.52,4.8,5.27l-0.01,0.23
			L159.97,181.51z"/>
	</g>
</g>
</svg>
