<?xml version="1.0" encoding="utf-8"?>
<!-- Generator: Adobe Illustrator 26.5.0, SVG Export Plug-In . SVG Version: 6.00 Build 0)  -->
<svg version="1.1" id="Capa_1" xmlns="http://www.w3.org/2000/svg" xmlns:xlink="http://www.w3.org/1999/xlink" x="0px" y="0px"
	 viewBox="0 0 783.78 262.94" style="enable-background:new 0 0 783.78 262.94;" xml:space="preserve">
<style type="text/css">
	.st0{fill:#020202;}
</style>
<g>
	<path class="st0" d="M119.93,113.24c1.15,2.86,2.36,5.93,3.68,9.21c6.65,16.63,13.55,33.89,20.67,51.81h4.95
		c7.02-16.84,13.92-33.21,20.53-48.71c6.7-15.69,11.78-27.42,15.14-34.85c1.01-2.14,2.07-4.02,3.12-5.6
		c1.11-1.66,2.6-3.05,4.42-4.09c1.27-0.74,2.89-1.39,4.83-1.88c1.49-0.39,2.84-0.65,4.02-0.77v-3.12h-37.78v3.12
		c1.46,0.14,2.91,0.29,4.35,0.5c1.75,0.24,3.49,0.6,5.19,1.08c1.8,0.55,3.27,1.22,4.38,2c1.28,0.91,1.95,2.11,1.95,3.49
		c0,1.1-0.14,2.45-0.43,4.16c-0.29,1.71-1.25,4.68-2.95,9.04c-1.7,4.38-5.07,12.57-10.02,24.35c-4.93,11.75-9.37,22.09-13.17,30.74
		l-0.94,2.14c0,0-7.93-19.8-13.74-34.29c0,0-2.36,0.62-5.45-1.61c-3.07-2.23-2.79-2.52-4.47-3.63c-1.68-1.11-0.05,0.29-4.18-1.39
		C119.93,113.24,119.93,113.24,119.93,113.24z"/>
	<path class="st0" d="M206.56,173.01v-3.12c1.4-0.1,3.13-0.29,5.17-0.53c2.65-0.33,4.3-0.65,5.16-1.03c1.8-0.79,3.08-1.85,3.8-3.15
		c0.7-1.27,1.06-2.86,1.06-4.76V88.75c0-1.68-0.31-3.2-0.92-4.52c-0.65-1.42-1.99-2.55-3.96-3.41c-1.4-0.63-3.31-1.2-5.63-1.68
		c-1.85-0.38-3.43-0.63-4.68-0.77v-3.13h80.7v22.09h-3.96c-1.11-3.48-3.29-7.18-6.49-11c-3.48-4.18-6.9-6.51-10.14-6.92
		c-1.58-0.19-3.48-0.33-5.65-0.43c-2.18-0.09-4.68-0.14-7.42-0.14h-17.76v41.57h13.02c4.02,0,6.9-0.36,8.82-1.08
		c1.92-0.74,3.65-1.97,5.1-3.68c1.18-1.46,2.19-3.39,3-5.75c0.69-2,1.18-3.94,1.47-5.77h3.84v37.13h-3.8
		c-0.26-2.06-0.79-4.23-1.58-6.49c-0.92-2.64-1.88-4.52-2.93-5.75c-1.68-1.97-3.61-3.27-5.79-3.89c-2.06-0.58-4.8-0.87-8.14-0.87
		h-13.02v30.86c0,3.07,0.24,5.53,0.7,7.33c0.51,1.95,1.52,3.46,3.03,4.49c1.44,0.98,3.37,1.61,5.77,1.88
		c2.29,0.26,5.57,0.39,9.75,0.39h6.54c2.72,0,5.07-0.1,6.95-0.29c1.94-0.19,3.97-0.55,6.05-1.04c2.23-0.53,3.78-1.28,4.78-2.26
		c2.36-2.29,4.86-5.82,7.43-10.45c2.35-4.21,3.89-7.36,4.69-9.59h3.68l-1.9,27.44C293.32,173.01,206.56,173.01,206.56,173.01z"/>
	<path class="st0" d="M393.38,173.98l-66.16-83.39v54.22c0,5.82,0.39,10.36,1.2,13.51c0.82,3.29,2.14,5.69,3.9,7.12
		c1.25,1.11,3.73,2.14,7.54,3.07c2.93,0.72,5.05,1.16,6.41,1.35v3.13H304.4v-3.15c1.42-0.19,3.44-0.62,6.11-1.3
		c4.5-1.15,5.81-1.92,6.39-2.4c1.9-1.42,3.24-3.63,3.94-6.53c0.69-2.79,1.01-7.38,1.01-14.04V96.47c0-2.26-0.43-4.54-1.27-6.8
		c-0.86-2.29-2.04-4.11-3.51-5.38c-1.88-1.61-4.47-3.01-7.64-4.14c-2.69-0.96-4.98-1.56-6.85-1.76v-3.12h29.06l61.47,77.84v-50.25
		c0-5.86-0.41-10.45-1.23-13.63c-0.87-3.37-2.12-5.6-3.85-6.78c-1.54-0.98-3.87-1.87-7.19-2.74c-2.74-0.72-4.9-1.16-6.54-1.35v-3.13
		h41.48v3.12c-1.42,0.14-3.31,0.5-5.72,1.08c-3.03,0.74-5.17,1.47-6.53,2.29c-2.06,1.34-3.43,3.82-4.11,7.4
		c-0.63,3.37-0.96,7.69-0.96,12.83v72.03h-5.09V173.98z"/>
	<path class="st0" d="M425.49,173.01v-3.12c1.4-0.1,3.13-0.29,5.17-0.53c2.67-0.33,4.3-0.65,5.17-1.03c1.8-0.79,3.08-1.85,3.8-3.15
		c0.7-1.27,1.06-2.86,1.06-4.76V88.75c0-1.68-0.31-3.2-0.92-4.52c-0.65-1.42-1.99-2.55-3.96-3.41c-1.4-0.63-3.31-1.2-5.63-1.68
		c-1.85-0.38-3.43-0.63-4.68-0.77v-3.13h80.7v22.09h-3.96c-1.11-3.48-3.29-7.16-6.49-11c-3.48-4.18-6.9-6.51-10.16-6.92
		c-1.58-0.19-3.48-0.33-5.65-0.43c-2.18-0.09-4.68-0.14-7.42-0.14h-17.76v41.57h13.02c4.02,0,6.9-0.36,8.82-1.08
		c1.92-0.74,3.65-1.97,5.1-3.68c1.18-1.46,2.19-3.39,3-5.75c0.69-2.02,1.18-3.96,1.47-5.77h3.84v37.13h-3.8
		c-0.26-2.06-0.79-4.23-1.58-6.49c-0.92-2.64-1.88-4.52-2.93-5.75c-1.68-1.97-3.61-3.27-5.79-3.89c-2.06-0.58-4.8-0.87-8.14-0.87
		h-13.02v30.86c0,3.1,0.24,5.5,0.7,7.33c0.51,1.95,1.52,3.46,3.03,4.49c1.44,0.98,3.37,1.61,5.77,1.88
		c2.29,0.26,5.57,0.39,9.75,0.39h6.54c2.72,0,5.07-0.1,6.94-0.29c1.94-0.19,3.97-0.55,6.05-1.04c2.23-0.53,3.78-1.28,4.78-2.26
		c2.36-2.29,4.86-5.81,7.43-10.45c2.35-4.23,3.89-7.38,4.69-9.59h3.68l-1.9,27.44C512.23,173.01,425.49,173.01,425.49,173.01z"/>
	<path class="st0" d="M573.14,175.39c-6.22,0-12.25-1.16-17.95-3.44c-5.7-2.28-10.81-5.62-15.21-9.92
		c-4.35-4.3-7.86-9.61-10.46-15.82c-2.6-6.2-3.9-13.31-3.9-21.1c0-7.81,1.28-14.99,3.84-21.32s6.11-11.87,10.62-16.46
		c4.45-4.52,9.78-8.07,15.84-10.53c6.06-2.47,12.66-3.73,19.56-3.73c5.14,0,9.86,0.6,14.03,1.78c4.16,1.2,8.19,2.89,11.97,5.04
		l0.8,0.46l3.29-5.1h4.54l0.63,33.62h-4.42c-0.8-3.29-1.97-6.87-3.48-10.67c-1.63-4.13-3.58-7.66-5.77-10.53
		c-2.47-3.27-5.46-5.87-8.87-7.74c-3.44-1.87-7.42-2.83-11.82-2.83c-4.98,0-9.69,1.04-13.99,3.12c-4.3,2.07-8.07,5.17-11.2,9.21
		c-2.98,3.89-5.33,8.87-7,14.81c-1.66,5.91-2.52,12.61-2.52,19.88c0,6.44,0.89,12.45,2.64,17.85c1.76,5.41,4.3,10.22,7.57,14.33
		c3.27,4.08,7.21,7.31,11.7,9.61c4.5,2.31,9.59,3.48,15.14,3.48c4.14,0,8.03-0.62,11.53-1.85c3.49-1.22,6.56-2.88,9.15-4.9
		c2.57-2.12,4.86-4.54,6.8-7.23c1.75-2.41,3.22-5.04,4.4-7.84l3.84,1.73c-4.16,9.2-9.66,15.88-16.36,19.87
		C591.12,173.3,582.73,175.39,573.14,175.39z"/>
	<path class="st0" d="M624.64,173.01v-3.12c1.27-0.09,2.93-0.21,4.97-0.36c2.67-0.19,4.52-0.5,5.67-0.89
		c1.85-0.69,3.22-1.63,4.08-2.84c0.87-1.22,1.32-2.89,1.32-4.95V88.59c0-1.78-0.31-3.31-0.92-4.54c-0.67-1.34-2.12-2.41-4.45-3.25
		c-1.52-0.57-3.49-1.11-5.81-1.61c-1.87-0.41-3.49-0.69-4.85-0.82v-3.13h46.16v3.08c-1.39,0.09-2.96,0.24-4.73,0.5
		c-2.19,0.31-4.14,0.72-5.79,1.18c-2.16,0.63-3.65,1.73-4.44,3.22c-0.72,1.4-1.08,2.96-1.08,4.66v72.17c0,1.71,0.41,3.27,1.23,4.61
		c0.84,1.37,2.24,2.47,4.2,3.24c1.15,0.41,2.88,0.82,5.34,1.28c1.99,0.38,3.75,0.62,5.26,0.7v3.1h-46.16V173.01z"/>
	<path class="st0" d="M741.32,173.01v-3.1c3.56-0.26,6.59-0.72,9.03-1.37c1.97-0.53,4.59-1.49,4.59-3.55c0-0.48-0.05-1.03-0.17-1.7
		c-0.12-0.69-0.29-1.3-0.51-1.83l-9.08-22.93h-38.79l-0.26,0.58c-1.4,3.27-2.57,6.17-3.44,8.63c-0.87,2.45-1.68,4.69-2.38,6.76
		c-0.67,2.06-1.13,3.75-1.39,5.04c-0.26,1.32-0.39,2.41-0.39,3.29c0,2.33,1.82,4.11,5.41,5.27c2.98,0.98,6.35,1.59,10.02,1.82v3.1
		h-38.28v-3.13c1.18-0.14,2.57-0.39,4.14-0.74c2.06-0.46,3.77-1.11,5.1-1.9c2.11-1.34,3.77-2.74,4.93-4.2
		c1.15-1.44,2.28-3.44,3.37-5.94c5.34-12.47,11.34-26.67,17.76-42.17c6.37-15.35,12.06-29.03,17.06-41.07h4.73l35.35,85.41
		c0.79,1.92,1.7,3.49,2.71,4.68c1.01,1.18,2.43,2.38,4.21,3.49c1.27,0.72,2.88,1.3,4.81,1.78c1.47,0.36,2.79,0.58,3.92,0.7v3.12
		h-42.46V173.01z M708.2,134.18h35.02l-17.64-42.2L708.2,134.18z"/>
	<g>
		<path class="st0" d="M353.87,261.76h-13.24c-2.93-4.59-5.58-8.56-7.95-11.92c-2.36-3.36-4.93-6.8-7.71-10.36h-5.04v15.59
			c0,0.8,0.12,1.52,0.38,2.12c0.26,0.6,0.8,1.08,1.63,1.4c0.41,0.15,1.15,0.31,2.18,0.45c1.03,0.14,1.92,0.22,2.64,0.24v2.47h-20.79
			v-2.47c0.55-0.05,1.35-0.12,2.41-0.24c1.04-0.12,1.78-0.26,2.19-0.45c0.69-0.29,1.2-0.74,1.51-1.32c0.31-0.58,0.46-1.32,0.46-2.21
			v-35.54c0-0.8-0.12-1.52-0.34-2.14c-0.22-0.62-0.77-1.1-1.63-1.42c-0.58-0.21-1.34-0.39-2.24-0.57c-0.92-0.17-1.71-0.27-2.36-0.33
			v-2.47h22.69c2.07,0,4.02,0.21,5.86,0.63s3.48,1.11,4.95,2.06c1.44,0.92,2.57,2.12,3.43,3.61c0.86,1.49,1.28,3.29,1.28,5.39
			c0,1.9-0.29,3.56-0.87,5.02c-0.58,1.46-1.44,2.71-2.57,3.78c-1.04,0.99-2.28,1.85-3.73,2.59s-3.07,1.35-4.81,1.85
			c2.43,3.22,4.44,5.91,6.05,8.1c1.61,2.19,3.58,4.86,5.91,8c1.01,1.39,1.94,2.41,2.76,3.07c0.82,0.65,1.63,1.2,2.45,1.61
			c0.6,0.31,1.35,0.53,2.24,0.7c0.91,0.15,1.64,0.26,2.24,0.27v2.47H353.87z M335.64,225.12c0-2.98-0.86-5.33-2.57-7.07
			c-1.71-1.75-4.13-2.6-7.24-2.6h-5.89v21.07h4.54c3.19,0,5.84-1.03,7.96-3.07C334.58,231.39,335.64,228.62,335.64,225.12z"/>
		<path class="st0" d="M397.09,247.27l-0.94,14.49h-40.81v-2.47c0.69-0.05,1.61-0.14,2.77-0.29c1.15-0.15,1.9-0.31,2.24-0.46
			c0.74-0.34,1.25-0.8,1.54-1.35c0.29-0.55,0.43-1.27,0.43-2.11v-35.33c0-0.77-0.12-1.44-0.38-2.02c-0.26-0.58-0.79-1.06-1.59-1.44
			c-0.62-0.31-1.46-0.57-2.52-0.8c-1.06-0.24-1.88-0.36-2.52-0.41v-2.47h38.04v11.85h-2.6c-0.46-1.75-1.46-3.61-3-5.6
			c-1.54-1.97-3-3.05-4.38-3.24c-0.72-0.09-1.58-0.15-2.57-0.21c-0.99-0.05-2.12-0.07-3.39-0.07h-7.72v19.54h5.55
			c1.78,0,3.08-0.17,3.9-0.5c0.82-0.33,1.54-0.89,2.16-1.68c0.51-0.67,0.94-1.56,1.3-2.69c0.36-1.13,0.6-2.18,0.7-3.17h2.6v19.27
			h-2.6c-0.09-1.11-0.34-2.28-0.74-3.51c-0.41-1.23-0.82-2.12-1.27-2.69c-0.72-0.91-1.52-1.49-2.45-1.76
			c-0.92-0.27-2.12-0.41-3.61-0.41h-5.55v14.73c0,1.47,0.1,2.64,0.31,3.49c0.21,0.86,0.62,1.51,1.22,1.94
			c0.6,0.43,1.42,0.72,2.47,0.86c1.04,0.12,2.52,0.19,4.44,0.19c0.77,0,1.76,0,3.01,0c1.25,0,2.29-0.05,3.15-0.14
			c0.87-0.09,1.78-0.26,2.72-0.5c0.94-0.24,1.59-0.57,1.99-0.99c1.06-1.11,2.18-2.79,3.34-5.04c1.16-2.24,1.92-3.9,2.23-4.97h2.53
			V247.27z"/>
		<path class="st0" d="M432.72,239.2c1.04,1.15,1.8,2.41,2.31,3.78c0.5,1.37,0.74,2.98,0.74,4.8c0,4.35-1.61,7.93-4.81,10.74
			c-3.22,2.83-7.19,4.23-11.95,4.23c-2.19,0-4.38-0.34-6.58-1.03c-2.19-0.69-4.09-1.51-5.69-2.48l-1.49,2.53h-2.77l-0.48-16.84h2.81
			c0.58,2.07,1.25,3.96,2.02,5.63c0.77,1.68,1.8,3.24,3.07,4.69c1.2,1.35,2.6,2.45,4.21,3.25c1.61,0.8,3.48,1.22,5.6,1.22
			c1.59,0,2.98-0.21,4.18-0.63c1.18-0.41,2.16-1.01,2.89-1.76c0.74-0.77,1.28-1.66,1.64-2.69c0.36-1.03,0.53-2.21,0.53-3.56
			c0-1.97-0.55-3.8-1.66-5.5s-2.76-3-4.95-3.87c-1.51-0.6-3.22-1.27-5.16-1.99s-3.61-1.4-5.02-2.06c-2.77-1.25-4.93-2.88-6.46-4.9
			c-1.52-2.02-2.31-4.66-2.31-7.91c0-1.87,0.38-3.61,1.15-5.22c0.77-1.61,1.85-3.07,3.25-4.33c1.34-1.2,2.93-2.14,4.74-2.83
			c1.82-0.69,3.73-1.03,5.72-1.03c2.26,0,4.28,0.34,6.08,1.04c1.78,0.69,3.43,1.51,4.9,2.43l1.42-2.36h2.77l0.27,16.32h-2.81
			c-0.51-1.87-1.08-3.67-1.71-5.36c-0.63-1.7-1.46-3.25-2.48-4.64c-0.99-1.34-2.21-2.41-3.63-3.2c-1.44-0.8-3.19-1.2-5.26-1.2
			c-2.19,0-4.06,0.7-5.62,2.11c-1.54,1.4-2.33,3.13-2.33,5.16c0,2.12,0.5,3.89,1.49,5.27c0.99,1.4,2.43,2.55,4.33,3.44
			c1.68,0.8,3.34,1.51,4.97,2.09c1.63,0.58,3.2,1.22,4.73,1.88c1.39,0.6,2.72,1.28,4.01,2.04
			C430.66,237.3,431.77,238.19,432.72,239.2z"/>
		<path class="st0" d="M463.41,261.76h-22.14v-2.47c0.62-0.05,1.52-0.12,2.71-0.21c1.18-0.09,2-0.22,2.5-0.41
			c0.77-0.29,1.32-0.7,1.66-1.23c0.34-0.53,0.51-1.23,0.51-2.16v-35.61c0-0.8-0.12-1.49-0.38-2.02c-0.26-0.55-0.86-0.99-1.8-1.37
			c-0.69-0.27-1.56-0.53-2.62-0.79c-1.04-0.24-1.92-0.39-2.59-0.43v-2.47h22.14v2.47c-0.72,0.02-1.58,0.1-2.57,0.26
			c-0.99,0.15-1.87,0.34-2.6,0.57c-0.87,0.27-1.47,0.72-1.76,1.35c-0.31,0.62-0.45,1.32-0.45,2.07v35.59c0,0.75,0.17,1.44,0.5,2.02
			c0.34,0.58,0.91,1.06,1.71,1.4c0.48,0.19,1.28,0.39,2.38,0.6c1.1,0.21,2.02,0.34,2.79,0.36V261.76z"/>
		<path class="st0" d="M516.65,237.47c0,4.18-0.79,7.81-2.36,10.88c-1.58,3.07-3.61,5.58-6.13,7.55c-2.53,1.97-5.39,3.43-8.56,4.4
			s-6.44,1.46-9.8,1.46h-20.36v-2.47c0.67,0,1.54-0.07,2.62-0.19s1.78-0.27,2.12-0.43c0.69-0.29,1.2-0.74,1.51-1.34
			c0.31-0.6,0.46-1.3,0.46-2.12v-35.47c0-0.79-0.14-1.49-0.39-2.11c-0.27-0.62-0.79-1.11-1.58-1.49c-0.72-0.34-1.49-0.6-2.33-0.77
			c-0.84-0.15-1.54-0.26-2.14-0.31v-2.47h21.48c2.96,0,5.87,0.46,8.73,1.37c2.86,0.91,5.36,2.14,7.48,3.68
			c2.89,2.06,5.16,4.74,6.78,8.07C515.83,229.05,516.65,232.97,516.65,237.47z M508.18,237.46c0-3.31-0.45-6.29-1.32-8.94
			c-0.87-2.65-2.16-4.98-3.85-6.97c-1.59-1.88-3.55-3.37-5.87-4.47c-2.33-1.08-4.9-1.63-7.74-1.63c-0.94,0-2.02,0.02-3.2,0.05
			c-1.18,0.03-2.07,0.07-2.65,0.09v37.76c0,2.11,0.62,3.56,1.83,4.37c1.22,0.8,3.1,1.22,5.65,1.22c2.93,0,5.5-0.51,7.69-1.56
			c2.19-1.04,3.97-2.48,5.34-4.33c1.44-1.94,2.48-4.18,3.13-6.73C507.83,243.74,508.18,240.8,508.18,237.46z"/>
		<path class="st0" d="M564.06,247.27l-0.94,14.49h-40.81v-2.47c0.7-0.05,1.61-0.14,2.77-0.29c1.15-0.15,1.9-0.31,2.24-0.46
			c0.74-0.34,1.25-0.8,1.54-1.35c0.29-0.55,0.43-1.27,0.43-2.11v-35.33c0-0.77-0.12-1.44-0.38-2.02c-0.26-0.58-0.79-1.06-1.59-1.44
			c-0.62-0.31-1.46-0.57-2.52-0.8c-1.06-0.24-1.88-0.36-2.52-0.41v-2.47h38.04v11.85h-2.6c-0.46-1.75-1.46-3.61-3-5.6
			c-1.54-1.97-3-3.05-4.38-3.24c-0.72-0.09-1.58-0.15-2.57-0.21c-0.99-0.05-2.12-0.07-3.39-0.07h-7.72v19.54h5.55
			c1.78,0,3.08-0.17,3.9-0.5c0.82-0.33,1.54-0.89,2.16-1.68c0.51-0.67,0.94-1.56,1.3-2.69c0.36-1.11,0.6-2.18,0.7-3.17h2.6v19.27
			h-2.6c-0.09-1.11-0.34-2.28-0.74-3.51c-0.41-1.23-0.82-2.12-1.27-2.69c-0.72-0.91-1.52-1.49-2.45-1.76
			c-0.91-0.27-2.12-0.41-3.61-0.41h-5.55v14.73c0,1.47,0.1,2.64,0.31,3.49c0.21,0.86,0.62,1.51,1.22,1.94s1.42,0.72,2.47,0.86
			c1.04,0.12,2.52,0.19,4.44,0.19c0.77,0,1.76,0,3.01,0c1.25,0,2.29-0.05,3.15-0.14c0.87-0.09,1.78-0.26,2.72-0.5
			c0.94-0.24,1.59-0.57,1.99-0.99c1.06-1.11,2.18-2.79,3.34-5.04c1.16-2.24,1.92-3.9,2.23-4.97h2.53V247.27z"/>
		<path class="st0" d="M619.52,215.05c-0.65,0.02-1.64,0.21-2.98,0.55c-1.34,0.34-2.29,0.7-2.88,1.08
			c-0.84,0.58-1.39,1.68-1.68,3.32c-0.29,1.64-0.43,3.72-0.43,6.23v36h-3.01l-29.8-40.23v25.36c0,2.84,0.17,5.02,0.53,6.54
			c0.36,1.52,0.91,2.6,1.64,3.25c0.53,0.51,1.63,0.98,3.29,1.42c1.66,0.45,2.76,0.67,3.29,0.69v2.47h-20.16v-2.47
			c0.62-0.05,1.68-0.27,3.15-0.67c1.47-0.41,2.4-0.77,2.77-1.1c0.8-0.65,1.37-1.63,1.66-2.96c0.29-1.34,0.45-3.6,0.45-6.8v-24.22
			c0-1.06-0.19-2.12-0.55-3.19s-0.86-1.88-1.49-2.47c-0.84-0.75-1.95-1.42-3.37-1.95c-1.42-0.55-2.57-0.84-3.44-0.89v-2.47h14.04
			l27.63,37.47v-23.38c0-2.86-0.19-5.07-0.55-6.59c-0.38-1.54-0.91-2.55-1.59-3.07c-0.65-0.45-1.71-0.86-3.17-1.28
			c-1.46-0.43-2.59-0.65-3.34-0.69v-2.47h19.99L619.52,215.05L619.52,215.05z"/>
		<path class="st0" d="M645.14,262.94c-2.93,0-5.74-0.58-8.43-1.73c-2.69-1.15-5.07-2.83-7.14-5c-2.06-2.18-3.7-4.83-4.92-7.96
			c-1.22-3.13-1.83-6.66-1.83-10.58c0-3.92,0.6-7.5,1.8-10.7c1.2-3.2,2.86-5.96,4.98-8.27c2.11-2.29,4.57-4.06,7.43-5.31
			c2.86-1.25,5.93-1.87,9.18-1.87c2.43,0,4.61,0.29,6.58,0.91c1.97,0.6,3.84,1.44,5.6,2.53l1.42-2.36h2.77l0.31,17.54h-2.84
			c-0.38-1.71-0.92-3.56-1.66-5.57c-0.74-2-1.61-3.68-2.6-5.07c-1.11-1.58-2.41-2.79-3.94-3.68c-1.52-0.89-3.27-1.34-5.22-1.34
			c-2.24,0-4.32,0.5-6.25,1.49c-1.92,0.99-3.6,2.47-5,4.4c-1.34,1.87-2.38,4.25-3.15,7.14c-0.75,2.89-1.15,6.11-1.15,9.68
			c0,3.13,0.39,6.03,1.2,8.65c0.8,2.62,1.94,4.93,3.41,6.92c1.47,1.97,3.22,3.49,5.24,4.61c2.02,1.11,4.28,1.66,6.77,1.66
			c1.87,0,3.58-0.29,5.16-0.89c1.58-0.58,2.93-1.37,4.08-2.35c1.15-1.01,2.18-2.18,3.05-3.46c0.87-1.28,1.59-2.71,2.14-4.23
			l2.6,1.25c-1.99,4.88-4.61,8.36-7.9,10.45C653.56,261.89,649.66,262.94,645.14,262.94z"/>
		<path class="st0" d="M690.54,261.76h-22.14v-2.47c0.62-0.05,1.52-0.12,2.71-0.21c1.18-0.09,2-0.22,2.5-0.41
			c0.77-0.29,1.32-0.7,1.66-1.23c0.34-0.53,0.51-1.23,0.51-2.16v-35.61c0-0.8-0.12-1.49-0.38-2.02c-0.26-0.55-0.86-0.99-1.8-1.37
			c-0.69-0.27-1.56-0.53-2.62-0.79c-1.04-0.24-1.92-0.39-2.59-0.43v-2.47h22.14v2.47c-0.72,0.02-1.58,0.1-2.57,0.26
			c-0.99,0.15-1.87,0.34-2.6,0.57c-0.87,0.27-1.47,0.72-1.76,1.35c-0.31,0.62-0.45,1.32-0.45,2.07v35.59c0,0.75,0.17,1.44,0.5,2.02
			c0.34,0.58,0.91,1.06,1.71,1.4c0.48,0.19,1.28,0.39,2.38,0.6s2.02,0.34,2.79,0.36V261.76z"/>
		<path class="st0" d="M742.54,261.76H722.1v-2.47c1.8-0.12,3.29-0.34,4.49-0.69c1.2-0.34,1.78-0.77,1.78-1.28
			c0-0.21-0.02-0.46-0.07-0.77c-0.05-0.29-0.12-0.57-0.21-0.8l-4.08-11.01h-17.26c-0.65,1.61-1.18,3.03-1.58,4.23
			s-0.77,2.31-1.1,3.32c-0.31,0.99-0.51,1.8-0.63,2.43c-0.12,0.62-0.17,1.13-0.17,1.52c0,0.92,0.72,1.64,2.18,2.14
			c1.46,0.5,3.1,0.8,4.92,0.91v2.47h-18.51v-2.47c0.6-0.05,1.35-0.17,2.24-0.39c0.91-0.22,1.64-0.51,2.21-0.89
			c0.92-0.62,1.64-1.28,2.14-1.95c0.51-0.69,1.01-1.63,1.49-2.83c2.47-6.17,5.19-13.1,8.17-20.79c2.98-7.69,5.63-14.54,7.96-20.55
			h2.77l16.39,42.41c0.34,0.91,0.74,1.63,1.18,2.18s1.04,1.1,1.83,1.63c0.53,0.33,1.22,0.6,2.07,0.82s1.58,0.34,2.14,0.36v2.48
			H742.54z M722.75,241.67l-7.45-19.08l-7.35,19.08H722.75z"/>
		<path class="st0" d="M783.76,247.13l-1.04,14.63H744.3v-2.47c0.55-0.05,1.35-0.12,2.41-0.24c1.04-0.12,1.78-0.26,2.19-0.45
			c0.69-0.29,1.2-0.74,1.51-1.32c0.31-0.58,0.46-1.32,0.46-2.21v-35.2c0-0.79-0.14-1.47-0.39-2.07c-0.26-0.6-0.79-1.08-1.58-1.46
			c-0.53-0.27-1.28-0.55-2.23-0.82c-0.96-0.26-1.75-0.43-2.38-0.46v-2.47h20.76v2.47c-0.65,0.02-1.49,0.14-2.52,0.34
			c-1.03,0.21-1.78,0.39-2.23,0.55c-0.79,0.27-1.32,0.75-1.61,1.42s-0.43,1.39-0.43,2.14v33.02c0,1.52,0.07,2.71,0.22,3.55
			c0.15,0.84,0.5,1.49,1.06,1.95c0.53,0.41,1.32,0.69,2.38,0.8c1.04,0.12,2.52,0.19,4.42,0.19c0.86,0,1.75-0.02,2.67-0.07
			c0.92-0.05,1.8-0.14,2.64-0.27c0.8-0.14,1.56-0.33,2.23-0.57s1.18-0.55,1.51-0.92c0.94-1.06,2.06-2.67,3.31-4.83
			c1.27-2.16,2.12-3.9,2.62-5.24H783.76z"/>
	</g>
	<path class="st0" d="M123.51,120.6c-9.52-17.38-21.7-32.68-40.13-42.61c-4.69-2.53-8.99-5.79-14.11-9.15
		c-1.35,16.17-4.06,31.7-2.14,47.18c1.08,8.73,6.73,16.61,8.32,25.55c0.46,2.6,2.86,5.33-0.19,7.86c-1.87,1.54-3.82,1.25-5.38-0.31
		c-2.59-2.55-1.03-5.1,0.17-7.78c3.2-7.11-2.6-18.91-13.24-22.18c-10.53-3.24-15.81-11.56-22.85-18.26
		c-4.4-4.18-4.14-9.56-2.21-15.12c1.27-3.65,1.42-7.33-4.45-5.57c-4.56,1.37-6.58-1.1-7.16-4.92c-1.52-10-7.35-16.92-15.12-22.76
		c-2.93-2.19-5.99-4.93-4.74-9.27c1.44-4.93,5.96-3.65,9.37-3.78c19.71-0.79,38.62,1.47,55.3,17.2
		c-0.55-21.61,9.21-37.22,21.77-51.6c2.77-3.17,5.62-6.32,10.04-4.62c3.96,1.51,3.36,5.81,3.17,9.03
		c-0.57,9.81,1.27,18.62,8.05,26.19c2.52,2.81,2.91,6.46-0.41,9.09c-4.98,3.96-1.56,5.74,1.8,6.95c7.71,2.81,9.06,8.85,10.16,16.1
		c1.44,9.47,0.67,18.36-1.71,27.57c-2.81,10.89,1.61,17.81,12.06,22.56"/>
</g>
</svg>
