<?xml version="1.0" encoding="utf-8"?>
<!-- Generator: Adobe Illustrator 25.3.1, SVG Export Plug-In . SVG Version: 6.00 Build 0)  -->
<svg version="1.1" id="Layer_1" xmlns="http://www.w3.org/2000/svg" xmlns:xlink="http://www.w3.org/1999/xlink" x="0px" y="0px"
	 viewBox="0 0 760.4 331.3" style="enable-background:new 0 0 760.4 331.3;" xml:space="preserve">
<style type="text/css">
	.st0{fill:#FFFFFF;}
</style>
<g>
	<g>
		<path class="st0" d="M1.7,330.7v-38.4h5v33.9h19.5v4.5H1.7z"/>
		<path class="st0" d="M80,330.7l-3.6-8.8H57.4l-3.6,8.8h-5.3l15.8-38.4h5.3l15.9,38.4H80z M59.2,317.4h15.4l-7.7-19L59.2,317.4z"/>
		<path class="st0" d="M108.5,330.7v-38.4h5.6l19.3,30.9v-30.9h4.9v38.4h-5.6l-19.3-30.9v30.9H108.5z"/>
		<path class="st0" d="M164,330.7v-38.4h14.4c11.5,0,18.6,7.9,18.6,19.2c0,11.2-7.1,19.2-18.6,19.2H164z M169,326.2h9.4
			c8.4,0,13.4-6.1,13.4-14.7c0-8.6-5-14.7-13.4-14.7H169V326.2z"/>
		<path class="st0" d="M248.8,330.7v-38.4h14.4c11.5,0,18.6,7.9,18.6,19.2c0,11.2-7.1,19.2-18.6,19.2H248.8z M253.9,326.2h9.4
			c8.4,0,13.4-6.1,13.4-14.7c0-8.6-5-14.7-13.4-14.7h-9.4V326.2z"/>
		<path class="st0" d="M306.7,330.7v-38.4h25.9v4.5h-20.9v12h19.7v4.5h-19.7v12.9h20.9v4.5H306.7z"/>
		<path class="st0" d="M384.9,292.3h5.4l-14.7,38.4H370l-14.7-38.4h5.4l12.1,32.3L384.9,292.3z"/>
		<path class="st0" d="M413.3,330.7v-38.4h25.9v4.5h-20.9v12H438v4.5h-19.7v12.9h20.9v4.5H413.3z"/>
		<path class="st0" d="M464.4,330.7v-38.4h5v33.9h19.5v4.5H464.4z"/>
		<path class="st0" d="M509.9,311.5c0-11.6,7.1-19.8,18.4-19.8s18.4,8.1,18.4,19.8c0,11.6-7.1,19.8-18.4,19.8
			S509.9,323.1,509.9,311.5z M541.5,311.5c0-9-5-15.1-13.2-15.1c-8.2,0-13.2,6.1-13.2,15.1c0,9,5,15.1,13.2,15.1
			C536.6,326.6,541.5,320.5,541.5,311.5z"/>
		<path class="st0" d="M588.3,292.3c8.4,0,12.8,4.2,12.8,11.1c0,6.9-4.4,11.1-12.8,11.1h-11.6v16.3h-5v-38.4H588.3z M588.2,309.9
			c4.8,0,7.7-2.3,7.7-6.6c0-4.2-2.8-6.5-7.7-6.5h-11.6v13.1H588.2z"/>
		<path class="st0" d="M625.5,330.7v-38.4h25.9v4.5h-20.9v12h19.7v4.5h-19.7v12.9h20.9v4.5H625.5z"/>
		<path class="st0" d="M707.6,330.7h-6.1l-13.4-17.5h-6.6v17.5h-5v-38.4h16.3c8.4,0,12.8,4.1,12.8,10.6c0,6.1-4,10-11.7,10.3
			L707.6,330.7z M681.5,296.8v12.3h11.2c4.8,0,7.7-2.2,7.7-6.2c0-4-2.8-6.2-7.7-6.2H681.5z"/>
		<path class="st0" d="M728.6,320.4l4.9-1.3c0.8,5.2,5,7.6,10.8,7.6c5.5,0,9.1-2.3,9.1-6.4c0-2.3-1.2-4.4-4.8-5.4l-10.1-2.7
			c-6.4-1.7-8.3-5.7-8.3-9.7c0-6,5.1-10.9,13.4-10.9c8.1,0,13.7,4.2,14.7,10.5l-5,1.2c-0.8-4.9-4.8-7.1-9.7-7.1
			c-4.6,0-8.1,2.3-8.1,6.1c0,2.3,1.2,4.5,4.8,5.4l10.2,2.7c6.3,1.7,8.4,5.5,8.4,9.6c0,6.4-5,11.1-14.3,11.1
			C735.3,331.3,729.5,326.9,728.6,320.4z"/>
	</g>
	<g>
		<rect x="293.6" y="161" class="st0" width="17.6" height="103.4"/>
		<path class="st0" d="M395.7,222.4c15.2-4,23.6-14.8,23.6-30.7c0-20.4-12.5-30.8-37.2-30.8h-41.9v103.4h17.6v-40.2h20l27.9,40.2
			h19.5v-3.2L395.7,222.4z M401.8,192c0,11.1-7.1,16.7-21.2,16.7h-22.8v-32.5h22.9C398.3,176.2,401.8,182.5,401.8,192z"/>
		<path class="st0" d="M497.8,161h-22l-40.1,103.4h18.5l10.3-28.4h44.3l10.3,28.4h18.8L497.8,161z M487.9,176.7
			c3.2,10.6,7.5,23.3,11.6,34.3l4.1,11.1h-34.2l4-11.1c4.1-10.9,8.4-23.4,11.8-34.3H487.9z"/>
		<path class="st0" d="M610.1,222.4c15.2-4,23.6-14.8,23.6-30.7c0-20.4-12.5-30.8-37.2-30.8h-41.9v103.4h17.6v-40.2h20l27.9,40.2
			h19.5v-3.2L610.1,222.4z M616.2,192c0,11.1-7.1,16.7-21.2,16.7h-22.8v-32.5h22.9C612.7,176.2,616.2,182.5,616.2,192z"/>
		<path class="st0" d="M707.4,158.9c-31.6,0-51.2,20.5-51.2,53.5c0,33.2,19.6,53.9,51.2,53.9c31.6,0,51.2-20.6,51.2-53.9
			C758.6,179.4,739,158.9,707.4,158.9z M741.2,212.3c0,24.8-12,38.5-33.7,38.5c-21.8,0-33.7-13.7-33.7-38.5
			c0-23.9,12.3-37.6,33.7-37.6C728.9,174.7,741.2,188.4,741.2,212.3z"/>
	</g>
	<polygon class="st0" points="53.9,112.8 187.6,0 1.7,0 1.7,264.4 53.9,264.4 	"/>
	<g>
		<path class="st0" d="M144.5,215.6v48.8h30.4l-16.2-46.3c-4.8-13.1-9.6-27.3-13.3-39.8h-1c0.2,8.6,0.2,19,0.2,28.2
			C144.5,209.7,144.5,212.7,144.5,215.6z"/>
		<path class="st0" d="M215.1,0L71.6,121.1v143.4h56.3v-101h27.6l18.3,47.6c2.4,6.6,7.2,20.4,10.6,31.8h1.7
			c3.7-11.7,8.1-24.8,10.8-32.1l18.8-47.3h26.1v101h24.5V0H215.1z"/>
		<path class="st0" d="M209.7,218.8l-16.5,45.6h31v-48.8c0-9.4,0.2-23.3,0.6-37.3h-1.4C220.8,187.3,215.6,204,209.7,218.8z"/>
	</g>
	<g>
		<path class="st0" d="M292.9,103.7c0-19.8,9.9-32.7,29.7-32.7c16,0,24.7,8.2,27.1,22.1l-8.8,1.9c-2.4-10.7-8-15.9-18.4-15.9
			c-14.5,0-20.1,9.5-20.1,24.5c0,14.1,6,22.9,20.6,22.9c14.7,0,18.6-7.8,18.6-16.2l0.1,0.4V110h-19v-8h27.9v31.5h-8.7v-13.9H341
			c-2.7,8.3-9,15-21,15C303.8,134.6,292.9,124.2,292.9,103.7z"/>
		<path class="st0" d="M395.2,109.2h-13.1v24.4h-9.4V72.2h24.8c15.2,0,21.9,6.6,21.9,18c0,9.7-5.2,16.1-14.7,18.2l18.3,24.1v1.1
			h-10.9L395.2,109.2z M382.1,80.1v21h14.4c8.7,0,13.5-3.5,13.5-10.8c0-6.9-3.4-10.2-13.4-10.2H382.1z"/>
		<path class="st0" d="M484.3,109.8V72.2h9.4v38.2c0,15.9-8.7,24.4-24.9,24.4c-16.4,0-25.8-8.3-25.8-24.4V72.2h9.4v37.2
			c0,10,3.8,17.1,16.4,17.1C480.9,126.4,484.3,119.9,484.3,109.8z"/>
		<path class="st0" d="M527.1,111.7v21.9h-9.4V72.2h24c14.4,0,21.7,6.7,21.7,19.8c0,11.5-7.6,19.8-21.5,19.8H527.1z M527.1,80.2
			v23.6h13.7c9.3,0,13.2-3.7,13.2-11.8c0-8.2-3.4-11.8-13.3-11.8H527.1z"/>
		<path class="st0" d="M578.6,102.8c0-19.2,11.2-31.8,30.4-31.8c19.4,0,30.4,12.7,30.4,31.8c0,19-10.9,32.1-30.4,32.1
			C589.4,134.8,578.6,121.8,578.6,102.8z M630.2,102.7c0-13.9-6.8-23.5-21.1-23.5c-14.3,0-21.1,9.5-21.1,23.5c0,14.2,6.6,24,21.1,24
			C623.5,126.6,630.2,117,630.2,102.7z"/>
	</g>
</g>
</svg>
