<?xml version="1.0" encoding="utf-8"?>
<!-- Generator: Adobe Illustrator 26.5.0, SVG Export Plug-In . SVG Version: 6.00 Build 0)  -->
<svg version="1.1" id="Capa_1" xmlns="http://www.w3.org/2000/svg" xmlns:xlink="http://www.w3.org/1999/xlink" x="0px" y="0px"
	 viewBox="0 0 564.01 168.37" style="enable-background:new 0 0 564.01 168.37;" xml:space="preserve">
<style type="text/css">
	.st0{fill:#FFFFFF;}
	.st1{fill:#1D6BB4;}
</style>
<g>
	<polygon class="st0" points="181.49,34.02 181.49,101.85 244.54,101.85 244.54,90.63 193.12,90.63 193.12,72.37 217.88,72.37 
		217.88,61.05 193.12,61.05 193.12,45.19 244.05,45.19 244.05,34.02 	"/>
	<path class="st0" d="M562.54,101.92h-3.07c-2.95,0-5.9-0.02-8.85,0.02c-0.62,0.01-0.92-0.2-1.2-0.73
		c-8.85-16.66-17.71-33.32-26.57-49.98c-0.15-0.28-0.3-0.55-0.51-0.92c-0.23,0.39-0.43,0.71-0.61,1.05
		c-8.97,16.48-17.94,32.96-26.89,49.46c-0.46,0.85-0.96,1.15-1.92,1.13c-3.68-0.06-7.37-0.03-11.05-0.03h-1.06
		c0.64-1.17,1.19-2.2,1.74-3.21c11.73-21.36,23.47-42.72,35.19-64.08c0.28-0.5,0.59-0.68,1.16-0.67c2.32,0.03,4.65,0.03,6.97,0
		c0.54-0.01,0.82,0.16,1.08,0.65c10.38,19.45,20.78,38.89,31.17,58.34c1.3,2.44,2.62,4.86,3.9,7.31
		C562.29,100.71,562.35,101.26,562.54,101.92"/>
	<path class="st0" d="M332.68,85c0.57-1.09,1.07-2.02,1.55-2.96c7.72-14.9,15.44-29.8,23.16-44.71c0.49-0.95,0.95-1.91,1.48-2.84
		c0.13-0.23,0.44-0.5,0.67-0.5c4.1-0.03,8.2-0.02,12.45-0.02c-0.63,1.24-1.22,2.39-1.81,3.53c-6.72,12.98-13.44,25.96-20.17,38.95
		c-4.28,8.26-8.56,16.52-12.83,24.79c-0.26,0.5-0.54,0.72-1.13,0.71c-2.17-0.04-4.34-0.04-6.5,0c-0.64,0.01-0.96-0.21-1.26-0.76
		c-11.43-21.49-22.88-42.97-34.32-64.46c-0.46-0.87-0.92-1.74-1.43-2.7c0.35-0.02,0.6-0.05,0.85-0.05c3.79,0,7.57,0.01,11.36-0.02
		c0.62-0.01,0.92,0.22,1.19,0.74c8.68,16.37,17.38,32.73,26.08,49.09C332.21,84.14,332.41,84.5,332.68,85"/>
	<path class="st0" d="M432.31,101.92h-2.08c-2.82,0-5.64-0.03-8.46,0.02c-0.78,0.01-1-0.19-1-0.99c0.03-20.75,0.02-41.5,0.02-62.24
		c0-1.38,0.01-2.77-0.01-4.15c-0.01-0.44,0.14-0.6,0.58-0.59c3.55,0.01,7.1,0.01,10.66,0.01c0.07,0,0.15,0.03,0.29,0.07V101.92z"/>
	<path class="st0" d="M457.02,125.39c0.95,0,1.85-0.07,2.72,0.04c0.33,0.04,0.72,0.45,0.91,0.79c2.24,4.02,4.45,8.06,6.68,12.09
		c0.18,0.33,0.38,0.64,0.65,1.1c1.31-2.38,2.57-4.65,3.82-6.92c1.13-2.05,2.29-4.08,3.36-6.15c0.39-0.75,0.87-0.99,1.69-0.97
		c2.12,0.06,2.12,0.02,2.12,2.12v19.2v1.29h-3.22V132.6c-0.09-0.03-0.18-0.06-0.26-0.1c-2.48,4.48-4.96,8.95-7.53,13.61
		c-2.56-4.63-5.04-9.12-7.52-13.6c-0.06,0.01-0.11,0.01-0.17,0.02v15.43h-3.25V125.39z"/>
	<path class="st0" d="M335.01,135.22c3.84,0,7.58,0.08,11.32-0.05c1.31-0.05,2.23-1,2.53-2.37c0.54-2.45-0.79-4.11-3.46-4.16
		c-3.27-0.06-6.54-0.02-9.81-0.01c-0.19,0-0.38,0.09-0.58,0.14V135.22z M347.14,138.67c1.48,3.04,2.98,6.12,4.56,9.36
		c-1.21,0-2.27,0.05-3.31-0.03c-0.27-0.02-0.6-0.4-0.74-0.69c-1.3-2.65-2.59-5.31-3.83-7.99c-0.27-0.58-0.59-0.81-1.24-0.8
		c-2.47,0.04-4.95,0.01-7.57,0.01v9.44h-3.28V147c0-6.85,0.01-13.69-0.02-20.54c-0.01-0.87,0.25-1.1,1.1-1.09
		c4.17,0.04,8.33,0,12.5,0.02c3.44,0.02,5.89,1.68,6.67,4.47c0.8,2.88-0.07,6.02-2.22,7.55C349,137.95,348.06,138.24,347.14,138.67"
		/>
	<path class="st0" d="M228.67,148.04c-1.04,0-1.91,0.08-2.75-0.03c-0.4-0.05-0.84-0.4-1.11-0.73c-4.09-5.18-8.16-10.39-12.24-15.59
		c-0.16-0.21-0.35-0.4-0.69-0.8v17.07h-3.29c-0.02-0.34-0.05-0.64-0.05-0.94c0-6.85,0.01-13.69-0.02-20.54
		c0-0.85,0.24-1.04,1.08-1.13c1.66-0.17,2.67,0.45,3.67,1.77c3.69,4.89,7.51,9.67,11.29,14.49c0.2,0.26,0.43,0.51,0.85,1v-17.23
		c0.99,0,1.85-0.06,2.69,0.04c0.22,0.03,0.54,0.54,0.54,0.83c0.05,2.3,0.03,4.61,0.03,6.91v13.62V148.04z"/>
	<path class="st0" d="M430.9,136.76c0.01-4.86-3.88-8.61-8.89-8.6c-4.96,0.01-8.88,3.75-8.9,8.52c-0.03,4.79,3.97,8.65,8.92,8.62
		C427.01,145.26,430.89,141.53,430.9,136.76 M421.98,148.5c-6.99,0-12.13-5.04-12.12-11.87c0.01-6.66,5.3-11.75,12.19-11.73
		c7.03,0.02,12.11,5.06,12.11,12C434.15,143.5,428.9,148.5,421.98,148.5"/>
	<path class="st0" d="M560.89,128.01c-0.6,0.84-1.17,1.65-1.81,2.56c-0.52-0.3-1.01-0.57-1.5-0.85c-3.26-1.86-6.64-2.09-10.11-0.7
		c-1.2,0.48-2.11,1.33-2.2,2.74c-0.11,1.5,1,2.55,2.91,2.65c2.2,0.12,4.41,0.04,6.59,0.25c1.41,0.14,2.87,0.47,4.16,1.04
		c4.18,1.87,4.87,7.36,1.35,10.32c-2.07,1.74-4.58,2.27-7.19,2.44c-3.34,0.23-6.54-0.24-9.43-1.99c-1.1-0.67-2.07-1.56-3.11-2.36
		c0.8-0.87,1.48-1.62,2.21-2.42c0.53,0.4,0.96,0.73,1.39,1.05c3.84,2.8,8.03,3.23,12.42,1.68c2.23-0.79,3.01-2.26,2.5-4.09
		c-0.34-1.24-1.28-1.91-2.41-2.17c-1.29-0.29-2.64-0.39-3.97-0.47c-1.92-0.12-3.87,0.02-5.76-0.26c-2.37-0.35-4.19-1.67-4.76-4.13
		c-0.57-2.5,0.17-4.68,2.32-6.16c1.06-0.73,2.25-1.38,3.48-1.71c4.47-1.22,8.64-0.35,12.47,2.22
		C560.58,127.74,560.7,127.86,560.89,128.01"/>
	<polygon class="st0" points="290.43,125.46 290.43,147.96 309.44,147.96 309.44,144.76 293.7,144.76 293.7,137.83 301.29,137.83 
		301.29,134.57 293.68,134.57 293.68,128.59 308.84,128.59 308.84,125.46 	"/>
	<g>
		<path class="st0" d="M511.4,129.45c-1.23,2.72-2.36,5.23-3.54,7.83h7.09C513.77,134.67,512.63,132.16,511.4,129.45 M523.35,148.03
			c-1.18,0-2.2,0.05-3.21-0.03c-0.27-0.02-0.61-0.39-0.74-0.68c-0.89-1.97-1.75-3.96-2.58-5.96c-0.25-0.6-0.58-0.81-1.23-0.8
			c-2.79,0.04-5.58,0.04-8.37-0.01c-0.71-0.01-1.03,0.25-1.29,0.87c-0.85,1.99-1.78,3.95-2.64,5.93c-0.22,0.52-0.51,0.73-1.08,0.7
			c-0.88-0.05-1.76-0.01-2.8-0.01c1.13-2.5,2.17-4.84,3.23-7.18c2.19-4.85,4.41-9.7,6.57-14.56c0.31-0.7,0.72-0.84,1.45-0.95
			c2.03-0.31,2.96,0.51,3.75,2.4c2.65,6.34,5.54,12.57,8.33,18.85C522.93,147.02,523.1,147.45,523.35,148.03"/>
	</g>
	<polygon class="st0" points="250.25,125.44 250.25,128.65 258.11,128.65 258.11,147.98 261.42,147.98 261.42,128.59 269.29,128.59 
		269.29,125.44 	"/>
	<path class="st0" d="M391.12,147.99h-16.99v-22.53h3.16v19.34h1.23c3.89,0,7.78,0.01,11.67-0.01c0.7-0.01,1.01,0.17,0.95,0.92
		C391.08,146.41,391.12,147.14,391.12,147.99"/>
	<path class="st0" d="M181.49,125.52c0.09-0.06,0.12-0.1,0.15-0.1c3.01-0.29,3.01-0.29,3.01,2.71v18.57v1.27h-3.16V125.52z"/>
	<g>
		<path class="st1" d="M71.3,168.37c-0.78-1.29-1.57-2.56-2.33-3.86c-0.73-1.26-0.38-2.62,0.89-3.36c2.85-1.68,5.72-3.33,8.58-4.98
			c10.8-6.26,21.61-12.52,32.41-18.78c1.22-0.7,2.43-1.42,3.66-2.1c0.18-0.1,0.5-0.15,0.66-0.06c2.64,1.5,5.27,3.03,7.9,4.55
			c0.03,0.02,0.05,0.07,0.12,0.17c-1.05,0.61-2.09,1.23-3.13,1.83c-15.03,8.7-30.05,17.41-45.08,26.11c-0.25,0.14-0.47,0.33-0.7,0.5
			H71.3z"/>
		<path class="st1" d="M28.91,52.5c21.05-12.15,41.94-24.22,62.91-36.32c0.01,0.27,0.03,0.43,0.03,0.59c0,2.81-0.01,5.63,0.01,8.44
			c0,0.48-0.15,0.75-0.56,0.99C77.36,34.22,63.43,42.26,49.51,50.3c-6.73,3.89-13.46,7.78-20.2,11.65
			c-0.44,0.25-0.58,0.52-0.45,0.99c0.07,0.25,0.05,0.53,0.05,0.8c0,4.57,0,9.14,0,13.71v0.83c0.36-0.17,0.6-0.27,0.83-0.4
			C47.19,67.82,64.64,57.73,82.1,47.65c0.48-0.28,0.96-0.56,1.46-0.82c1.24-0.64,2.55-0.27,3.27,0.93c0.57,0.96,1.12,1.93,1.67,2.9
			c0.79,1.41,0.45,2.74-0.94,3.55c-5.82,3.36-11.64,6.72-17.46,10.08C54.83,73.1,39.55,81.9,24.3,90.75
			c-1.94,1.13-3.87-0.31-3.86-2.26c0.05-12.97,0.03-25.94,0.02-38.91c-0.01-5.17-0.08-10.34-0.1-15.51c0-0.57,0.11-1.15,0.23-1.71
			c0.18-0.82,0.65-1.43,1.4-1.86c12.2-7.03,24.39-14.07,36.58-21.11c5.12-2.96,10.24-5.91,15.36-8.87c1.61-0.93,2.83-0.61,3.76,0.97
			c0.52,0.89,1.05,1.78,1.55,2.68c0.8,1.42,0.46,2.7-0.97,3.53c-8.97,5.18-17.94,10.36-26.91,15.54
			c-7.02,4.05-14.01,8.14-21.07,12.13c-1.1,0.62-1.44,1.25-1.42,2.48c0.08,4.57,0.03,9.14,0.03,13.71V52.5z"/>
		<path class="st1" d="M69.01,141.32c-20.98-12.11-41.88-24.16-62.89-36.28c1.21-0.7,2.31-1.34,3.42-1.98
			c1.48-0.86,2.98-1.7,4.45-2.58c0.37-0.22,0.63-0.24,1.01-0.02c17.99,10.39,35.99,20.77,53.98,31.15c2.72,1.57,5.44,3.14,8.18,4.69
			c0.19,0.11,0.53,0.14,0.71,0.03c2.83-1.63,5.65-3.28,8.47-4.92c1.48-0.86,2.97-1.72,4.45-2.58c0.18-0.1,0.34-0.22,0.61-0.39
			c-0.31-0.21-0.55-0.39-0.81-0.54c-8.65-4.99-17.3-9.98-25.95-14.97c-9.19-5.3-18.37-10.6-27.56-15.9c-1.47-0.85-1.83-2.13-1-3.61
			c0.53-0.94,1.06-1.87,1.62-2.79c0.81-1.35,2.14-1.69,3.51-0.9c15.65,9.03,31.3,18.05,46.96,27.08c5.43,3.13,10.82,6.32,16.29,9.36
			c1.82,1.01,1.84,3.45,0.03,4.48c-9.05,5.16-18.06,10.39-27.07,15.62c-6.6,3.83-13.15,7.73-19.76,11.55
			c-0.81,0.47-1.79,0.71-2.73,0.9c-0.41,0.09-0.95-0.11-1.34-0.33c-14.08-8.1-28.16-16.23-42.23-24.34c-3.3-1.9-6.59-3.8-9.88-5.71
			c-1.54-0.89-1.88-2.12-1.02-3.65c0.52-0.92,1.05-1.83,1.58-2.74c0.82-1.38,2.16-1.73,3.55-0.93
			c11.84,6.83,23.68,13.65,35.51,20.49c4.49,2.59,8.98,5.2,13.48,7.78c0.2,0.12,0.58,0.12,0.78,0c4.39-2.52,8.78-5.06,13.16-7.6
			C68.67,141.61,68.78,141.5,69.01,141.32"/>
		<path class="st1" d="M104.12,48.98c-0.04,0.34-0.09,0.58-0.09,0.81c0,17.98-0.01,35.95,0,53.93c0,2.58,0.07,5.17,0.09,7.75
			c0,0.43-0.05,0.87-0.18,1.28c-0.31,0.95-1,1.58-1.99,1.63c-1.42,0.07-2.85,0.09-4.26-0.06c-1.29-0.13-2-1.13-2-2.43
			c0-7.16-0.01-14.31-0.01-21.47c0-17.25,0-34.5,0-51.76c0-1.56,1.09-2.67,2.55-2.54c0.43,0.04,0.88,0.23,1.26,0.45
			c10.54,6.06,21.06,12.14,31.6,18.2c5.07,2.91,10.18,5.78,15.26,8.67c0.43,0.24,0.84,0.53,1.24,0.83c0.91,0.68,1.38,1.53,1.38,2.74
			c-0.02,19.92-0.01,39.84-0.01,59.76c0,0.47-0.01,0.98-0.18,1.4c-0.37,0.88-1.06,1.41-2.07,1.42c-1.26,0.01-2.52,0.02-3.78,0
			c-1.33-0.02-2.3-1.01-2.3-2.34c-0.01-2.21,0-4.43,0-6.64c-0.01-15.95-0.01-31.9-0.01-47.85c0-0.66-0.03-1.33,0.03-1.99
			c0.05-0.57-0.16-0.89-0.66-1.18c-3.9-2.22-7.78-4.47-11.66-6.72c-0.55-0.32-1.1-0.62-1.78-1v72.6c-0.25-0.1-0.4-0.14-0.53-0.21
			c-2.44-1.4-4.87-2.82-7.31-4.2c-0.49-0.27-0.56-0.63-0.56-1.12c0.01-11.85,0.02-23.71,0-35.56c-0.02-11.83-0.07-23.66-0.08-35.49
			c0-0.76-0.21-1.11-0.88-1.49c-4.13-2.32-8.21-4.71-12.32-7.07C104.65,49.23,104.43,49.13,104.12,48.98"/>
		<path class="st1" d="M3.09,99.53c0-0.31,0-0.55,0-0.79c-0.01-13.8-0.01-27.6-0.02-41.39c-0.01-4.78-0.07-9.55-0.1-14.33
			c-0.01-1.81,0.99-2.81,2.79-2.81c1.01,0,2.03-0.01,3.04,0c1.57,0.01,2.6,1.04,2.61,2.61c0.01,4.74,0.01,9.48,0.01,14.21
			c0.01,10.74,0.01,21.47,0.02,32.21c0,1.65,0.08,3.3,0.08,4.96c0,0.25-0.18,0.62-0.38,0.74c-2.53,1.5-5.07,2.96-7.61,4.43
			C3.42,99.42,3.3,99.45,3.09,99.53"/>
		<path class="st1" d="M98.05,16.26c1.32,0.75,2.51,1.44,3.71,2.12c13.7,7.88,27.4,15.77,41.11,23.66c1.49,0.86,2.98,1.7,4.46,2.57
			c1.35,0.79,1.69,2.13,0.91,3.5c-0.52,0.92-1.06,1.82-1.58,2.74c-0.82,1.43-2.12,1.82-3.57,1c-3.16-1.8-6.31-3.62-9.46-5.43
			c-11.66-6.71-23.32-13.43-34.99-20.13c-0.43-0.25-0.6-0.51-0.6-1.02c0.03-2.77,0.01-5.54,0.01-8.31V16.26z"/>
	</g>
</g>
</svg>
